<?xml version="1.0" encoding="utf-8"?>
<!-- Generator: Adobe Illustrator 22.0.1, SVG Export Plug-In . SVG Version: 6.00 Build 0)  -->
<svg version="1.1" id="Layer_1" xmlns="http://www.w3.org/2000/svg" xmlns:xlink="http://www.w3.org/1999/xlink" x="0px" y="0px"
	 viewBox="0 0 1366 507.7" style="enable-background:new 0 0 1366 507.7;" xml:space="preserve">
<style type="text/css">
	.st0{display:none;}
	.st1{display:inline;opacity:0.75;fill:#FFFFFF;enable-background:new    ;}
	.st2{display:inline;opacity:0.5;fill:#FFFFFF;enable-background:new    ;}
	.st3{clip-path:url(#SVGID_2_);}
</style>
<g id="Layer_11">
</g>
<g id="Layer_9">
</g>
<g id="Layer_6" class="st0">
	<rect x="914" y="98.5" class="st1" width="224" height="164"/>
	<rect x="1024" y="191.5" class="st1" width="188" height="103"/>
	<rect x="1124" y="294.5" class="st1" width="147" height="61"/>
	<rect x="751" y="-25.5" class="st2" width="197" height="85"/>
	<rect x="526" y="-30.5" class="st1" width="85" height="50"/>
	<rect x="268" y="-64.5" class="st2" width="201" height="99"/>
	<rect x="1271" y="254.5" class="st2" width="25" height="26"/>
	<rect x="569" y="94.5" class="st1" width="309" height="173"/>
</g>
<g id="Layer_4">
</g>
<g id="Layer_3">
</g>
<g id="Layer_2_1_">
</g>
<g id="Layer_10">
</g>
<g id="Layer_1_1_">
</g>
<g id="Layer_12">
</g>
<g>
	<defs>
		<rect id="SVGID_1_" width="1366" height="510.8"/>
	</defs>
	<clipPath id="SVGID_2_">
		<use xlink:href="#SVGID_1_"  style="overflow:visible;"/>
	</clipPath>
	<g id="Layer_8" class="st3">
		<polyline points="1366,3050.7 1366,0 1254.1,0 1254.1,91.9 1219.1,91.9 1219.1,133.1 1114,133.1 1114,219.8 915.5,219.8 
			915.5,220.6 876.6,220.6 876.6,263.5 604.2,263.5 604.2,317.8 455.4,317.8 455.4,338.8 360,338.8 360,392.2 306.5,392.2 
			306.5,418.5 168.3,418.5 168.3,505.2 0,505.2 0,3050.7 		"/>
	</g>
</g>
</svg>
