<?xml version="1.0" encoding="utf-8"?>
<!-- Generator: Adobe Illustrator 22.0.1, SVG Export Plug-In . SVG Version: 6.00 Build 0)  -->
<svg version="1.1" id="Layer_1" xmlns="http://www.w3.org/2000/svg" xmlns:xlink="http://www.w3.org/1999/xlink" x="0px" y="0px"
	 viewBox="0 0 1366 3045" style="enable-background:new 0 0 1366 3045;" xml:space="preserve" preserveAspectRatio="none">
<style type="text/css">
	.st0{display:none;}
	.st1{display:inline;opacity:0.75;fill:#FFFFFF;enable-background:new    ;}
	.st2{display:inline;opacity:0.5;fill:#FFFFFF;enable-background:new    ;}
</style>
<g id="Layer_8">
	<polyline points="1394,3050.7 1394,0 1279.8,0 1279.8,91.9 1244.1,91.9 1244.1,133.1 1136.8,133.1 1136.8,219.8 934.3,219.8 
		934.3,220.6 894.6,220.6 894.6,263.5 616.6,263.5 616.6,317.8 464.7,317.8 464.7,338.8 367.4,338.8 367.4,392.2 312.8,392.2 
		312.8,418.5 171.8,418.5 171.8,505.2 0,505.2 0,3050.7 	"/>
</g>
<g id="Layer_11">
</g>
<g id="Layer_9">
</g>
<g id="Layer_6" class="st0">
	<rect x="914" y="98.5" class="st1" width="224" height="164"/>
	<rect x="1024" y="191.5" class="st1" width="188" height="103"/>
	<rect x="1124" y="294.5" class="st1" width="147" height="61"/>
	<rect x="751" y="-25.5" class="st2" width="197" height="85"/>
	<rect x="526" y="-30.5" class="st1" width="85" height="50"/>
	<rect x="268" y="-64.5" class="st2" width="201" height="99"/>
	<rect x="1271" y="254.5" class="st2" width="25" height="26"/>
	<rect x="569" y="94.5" class="st1" width="309" height="173"/>
</g>
<g id="Layer_4">
</g>
<g id="Layer_3">
</g>
<g id="Layer_2_1_">
</g>
<g id="Layer_10">
</g>
<g id="Layer_1_1_">
</g>
<g id="Layer_12">
</g>
</svg>
