<?xml version="1.0" encoding="utf-8"?>
<!-- Generator: Adobe Illustrator 22.0.1, SVG Export Plug-In . SVG Version: 6.00 Build 0)  -->
<svg version="1.1" id="Layer_1" xmlns="http://www.w3.org/2000/svg" xmlns:xlink="http://www.w3.org/1999/xlink" x="0px" y="0px"
	 viewBox="0 0 1366 504.3" style="enable-background:new 0 0 1366 504.3;" xml:space="preserve">
<style type="text/css">
	.st0{display:none;}
	.st1{display:inline;opacity:0.75;fill:#FFFFFF;enable-background:new    ;}
	.st2{display:inline;opacity:0.5;fill:#FFFFFF;enable-background:new    ;}
	.st3{clip-path:url(#SVGID_2_);}
</style>
<g id="Layer_8">
</g>
<g id="Layer_11">
</g>
<g id="Layer_9">
</g>
<g id="Layer_6" class="st0">
	<rect x="1348" y="-812.7" class="st1" width="110" height="110"/>
	<rect x="1338" y="-913.7" class="st2" width="67" height="67"/>
</g>
<g id="Layer_4">
</g>
<g id="Layer_3">
</g>
<g id="Layer_2_1_">
</g>
<g id="Layer_10">
</g>
<g id="Layer_1_1_">
</g>
<g id="Layer_12">
</g>
<g>
	<defs>
		<rect id="SVGID_1_" y="-2.7" width="1366" height="507"/>
	</defs>
	<clipPath id="SVGID_2_">
		<use xlink:href="#SVGID_1_"  style="overflow:visible;"/>
	</clipPath>
	<g id="Layer_7" class="st3">
		<path d="M1394-856.7h-173v-99h-142v-30h-55v-61h-98v-24H773v-62H493v-49h-40v-1H249v-99H141v-47h-36v-105H-10v1431h62v62h99v28h23
			v118h501v63h404v117h56c0,0,0,14,0,18s130,0,130,0v75h59v24l49,2"/>
	</g>
</g>
</svg>
