<svg id="Layer_1" data-name="Layer 1" xmlns="http://www.w3.org/2000/svg" xmlns:xlink="http://www.w3.org/1999/xlink" viewBox="0 0 720 720"><defs><style>.cls-1{fill:none;}.cls-2{fill:#fff;}.cls-3{clip-path:url(#clip-path);}.cls-4{fill:#e70000;}.cls-5,.cls-7{fill:#0016ff;}.cls-6,.cls-8{fill:#711ed6;}.cls-7,.cls-8{stroke:#fff;stroke-miterlimit:10;}.cls-7{stroke-width:2.85px;}.cls-8{stroke-width:1.42px;}</style><clipPath id="clip-path"><ellipse class="cls-1" cx="360" cy="359.6" rx="360" ry="359.6"/></clipPath></defs><title>breakfast</title><path class="cls-2" d="M360,719.5A359.59,359.59,0,0,1,220.07,28.75a359.59,359.59,0,0,1,279.86,662.5A357.35,357.35,0,0,1,360,719.5Z"/><path d="M360,1A359.1,359.1,0,0,1,499.74,690.79,359.1,359.1,0,0,1,220.26,29.21,356.74,356.74,0,0,1,360,1m0-1C161.18,0,0,161.18,0,360S161.18,720,360,720,720,558.82,720,360,558.82,0,360,0Z"/><g class="cls-3"><rect class="cls-4" x="-37.03" y="-139.55" width="784.83" height="873.55"/><path class="cls-5" d="M637.22,88.32h0v0Z"/><path class="cls-5" d="M637.22,88.32l0,0,0,0Z"/><path class="cls-5" d="M646.38,75.63h0Z"/><path class="cls-5" d="M646.35,75.65h0l0,0,0,0Z"/><path class="cls-5" d="M646.31,75.67h0a0,0,0,0,0,0,0Z"/><path class="cls-5" d="M646.38,87.93v0Z"/><path class="cls-5" d="M644.84,89.73h0s0,0,0,0Z"/><path d="M195.48,616.82a100.83,100.83,0,0,0,13.23,3.59c4.45.88,8.88,1.67,13.35,2.13,2.22.29,4.46.45,6.68.66l3.34.2c1.11.07,2.22.14,3.33.17,2.23.07,4.44.17,6.66.13h3.32l3.32-.09,3.3-.1,3.31-.21,3.29-.22,3.29-.34,3.27-.3c1.09-.11,2.18-.28,3.27-.42,2.18-.3,4.35-.52,6.51-.93l3.24-.56c1.07-.19,2.15-.32,3.23-.55l6.43-1.29c2.13-.46,4.25-1,6.37-1.52,1.06-.26,2.12-.5,3.18-.78l3.16-.86a299,299,0,0,0,48.95-18.36,408.09,408.09,0,0,0,45.93-25.56,520.26,520.26,0,0,0,43.17-30.5c13.64-10.89,26.63-22.45,37.95-35.17s21.19-26.43,28.07-41.42l1.28-2.81,1.17-2.86.59-1.43.53-1.44,1.07-2.9c1.28-3.9,2.49-7.84,3.43-11.87s1.61-8.14,2.15-12.37c.29-2.11.52-4.27.74-6.49s.41-4.55.74-7.31l11.35-9c-.23,0,0,0,.09.05a3.53,3.53,0,0,0,.4.08c.28.06.59.1.9.14.63.08,1.29.12,1.95.15a21.81,21.81,0,0,0,4-.18,18.55,18.55,0,0,0,7.23-2.54,19.14,19.14,0,0,0,5.93-5.63,34.18,34.18,0,0,0,4.19-8.45c.28-.78.49-1.6.75-2.41s.46-1.78.69-2.66l1.43-5.43c.95-3.62,1.9-7.24,2.91-10.86,2-7.25,4-14.5,6.31-21.75.15,7.53.13,15.06,0,22.59,0,3.77-.14,7.54-.24,11.31l-.15,5.65c0,1,0,1.83-.13,2.88s-.14,2.06-.27,3.1a43.17,43.17,0,0,1-3.29,12.57,34.29,34.29,0,0,1-8.14,11.57,35.23,35.23,0,0,1-12.67,7.36,41.15,41.15,0,0,1-7.06,1.67c-1.21.16-2.41.29-3.65.33-.62,0-1.24,0-1.89,0l-1,0c-.4,0-.61,0-1.3-.1L536,416.39c0,1.8.19,4.11.31,6.4s.21,4.75.24,7.2a138.68,138.68,0,0,1-.66,14.9,135.13,135.13,0,0,1-2.41,14.9,133.7,133.7,0,0,1-4.17,14.51,153.52,153.52,0,0,1-12.6,27.16,196.09,196.09,0,0,1-16.86,24.21,237.37,237.37,0,0,1-19.67,21.44l-5.22,5-5.38,4.78c-3.54,3.25-7.28,6.2-11,9.24s-7.51,5.85-11.3,8.73-7.69,5.56-11.59,8.23-7.85,5.27-11.83,7.8-8,5-12.05,7.39a328.62,328.62,0,0,1-51.34,24.88A251.29,251.29,0,0,1,305,637.54a190.85,190.85,0,0,1-57.22-.41,149.66,149.66,0,0,1-27.49-7.22l-3.3-1.27-3.26-1.38c-2.15-1-4.28-1.93-6.36-3A73.47,73.47,0,0,1,195.48,616.82Z"/><path class="cls-2" d="M551,82.76l-.56-.19-1,0,1.53.22Z"/><path class="cls-2" d="M564.75,87.39h0l-1.47-.63c-.49-.09-1-.17-1.52-.29,1,.29,2,.6,3,.93Z"/><path class="cls-2" d="M570.34,316.81a17.57,17.57,0,0,0-1.85-3.36,30.17,30.17,0,0,0-2.55-3.31c-1.12-1.2-2-2.14-2.9-3.05l-.53-.53c-.82-.87-1.65-1.72-2.51-2.52l-.92-.84c-.75-.71-1.51-1.4-2.29-2.07-1.11-1-2.24-1.94-3.42-2.87-.54-.45-1.09-.87-1.65-1.29l-.82-.65-.74-.55-1-.74-.76-.53-1.82-1.22c-3.78-2.54-7.83-4.79-11.75-7l-3.22-1.8-.67-.36c-2.36-1.33-4.56-2.56-6.85-3.6s-4.59-2-6.92-2.85l-.54-.2-1.49-.55c-2.07-.81-4.13-1.61-6.25-2.25-1.22-.38-2.44-.71-3.67-1l-.87-.18-.86-.2-.85-.16a13.76,13.76,0,0,0-1.4-.26c-1.4-.2-2.83-.38-4.23-.54s-2.82-.31-4.09-.42c-3-.22-6-.33-8.94-.38q-5-.09-10-.09l-3.45,0H467a44.39,44.39,0,0,0-6.38.42c-2.14.29-4.25.69-6.34,1.11s-3.94.78-5.88,1.33a41.32,41.32,0,0,0-5.49,1.9,30.51,30.51,0,0,0-4.05,2.11l-1.2.84-2.14,1.43c-1.13.75-2.24,1.56-3.31,2.38a14.74,14.74,0,0,0-1.4,1.22c-.16.14-.34.31-.49.47l-.34.44-.46.58a7.32,7.32,0,0,1-1.38.49,3.38,3.38,0,0,1-.63.14l-.75.15a15.35,15.35,0,0,0-4.7,1.58,19.85,19.85,0,0,0-3.29,2.71l-1.49,1.45c-.42.4-.82.76-1.24,1.11l-.49.34-.56.44a4.86,4.86,0,0,0-2.18,3.69,2,2,0,0,0,.16,1.54,1.63,1.63,0,0,0,1,.73c1.18,0,1.85-.42,2.1-1.18.15-.53.35-1.06.55-1.6A6.22,6.22,0,0,1,417.8,296c.42-.36.8-.73,1.18-1.11l.47-.47.71-.69c.82-.8,1.65-1.6,2.51-2.31a12.39,12.39,0,0,1,1.76-1.07,25.52,25.52,0,0,1,4.25-1.09,10.87,10.87,0,0,0,1.53-.47,4.83,4.83,0,0,0,1.38-.78l.52-.53a16.51,16.51,0,0,0,1.29-1.07l.73-.62c1.25-.94,2.56-1.8,3.85-2.65l1.38-.91,1.27-.91a14.5,14.5,0,0,1,1.44-.91c1.09-.6,2.2-1.14,3.34-1.65a46.18,46.18,0,0,1,6.72-2.11,47.73,47.73,0,0,0-14.24,8.81c-.74.6-1.42,1.24-2.11,1.91-1.69,1.62-2.61,2.58-3.5,3.6a35,35,0,0,0-2.44,3.29,22.88,22.88,0,0,0-1.89,3.23,16.42,16.42,0,0,0-1,3.31,33.08,33.08,0,0,0-.42,3.85c-.05,1-.07,1.34-.07,1.65a9,9,0,0,0-2.09-1.25,17.66,17.66,0,0,0-7-1.64c-2.36-.18-4.71-.2-7.09-.22-2.54,0-5.08,0-7.63,0H395c-1.2,0-2.38,0-3.58-.13-1.4-.11-2.64-.18-3.91-.22h-.09c-.82.15-1.65.31-2.49.42-2.67.33-5.36.53-8.06.85-5.93.8-11.85,1.75-17.73,2.91-4.42.89-8.8,2-13.21,3-2,.46-4,.93-6,1.44-1.34.85-2.81,1.54-4,2.14-3,1.58-6.31,2.78-9.52,4.07-10.1,4.34-19.86,9.41-29.94,13.77-.6.27-1.22.53-1.85.8-3,1.67-6,3.36-9,5.07-1.39.8-2.84,1.51-4.29,2.22C271,344,260.65,349,250.34,354.61c-4,2.16-7.9,4.39-11.77,6.64l-1.49.83c-1.22.69-2.41,1.44-3.6,2.18C144.58,417.91,94,494.94,119.28,541.73a54.31,54.31,0,0,0,13.15,15.88,24.15,24.15,0,0,0-1,2.41l-.21.54a13.86,13.86,0,0,0-.51,1.55,14.84,14.84,0,0,0-.35,2.47l-.16,1.34-.13,1.31a35.65,35.65,0,0,0-.22,3.89,16.32,16.32,0,0,0,.33,3.14,17.36,17.36,0,0,0,1,2.92,15.6,15.6,0,0,0,1.11,2.15,9.77,9.77,0,0,0,1.83,1.94,20.07,20.07,0,0,0,5.18,2.93,31.53,31.53,0,0,0,6.5,1.78c1.38.27,2.75.54,4.13.69s2.83.34,4.23.49l1,.09,2.05.18c1.27.16,2.56.29,3.85.4.93.09,1.89.13,2.82.18l.87,0,.73,0,0,2.38,0,.58c0,.38,0,.78,0,1.2a12,12,0,0,0,.58,3.12,11.85,11.85,0,0,0,.76,1.89,11.37,11.37,0,0,0,1.69,2.62l.42.45a11.68,11.68,0,0,0,.82.89c.4.4.83.75,1.27,1.13l.58.49c.93.78,1.89,1.51,2.87,2.25,1.16.87,2.34,1.69,3.56,2.47.53.62.93,1.13,1.38,1.64a17,17,0,0,0,2.44,2.18,52.86,52.86,0,0,0,4.43,2.92c1.76,1.07,3.58,2.07,5.43,3l2.85,1.29c1.13.51,2.24,1,3.33,1.55l3.25,1.63,3.23,1.64a48.92,48.92,0,0,0,6.07,2.52,39.53,39.53,0,0,0,7.25,1.49c2.41.33,4.72.76,7,1.16l1.13.2,1.05.17c2.14.4,4.29.78,6.45,1.07l2,.25,2.38.33,1.11.16.69.11,2.13.26,2.85.38a75.22,75.22,0,0,0,7.76.67h1l2.34,0c1.18,0,2.36,0,3.51-.05l1.23,0q1.2,0,2.4-.09l1.94-.11c.86-.07,1.73-.11,2.6-.14s1.51,0,2.29-.06l1.73,0c1.41-.05,2.83-.12,4.23-.23l1.76-.15c.87-.07,1.73-.16,2.62-.2,1.61-.11,3.21-.25,4.79-.49,1.93-.27,3.87-.65,5.8-1l2.21-.4c2.38-.46,4.76-1,7.11-1.62.69-.18,1.38-.33,2.09-.47l1.38-.31c1.38-.33,2.76-.6,4.16-.82.38-.07.78-.13,1.16-.18,1.09-.13,1.87-.24,2.63-.36,1.4-.17,3.13-.42,4.89-.68l.67-.09a23,23,0,0,0,2.56-.56,19.87,19.87,0,0,0,2.78-.87c2.49-.93,4.93-2,7.36-3.05l2.25-1v0l0,0,.27-.12c1.91-.75,4.07-1.57,6.31-2.26s4.52-1.38,6.74-2.16c1.05-.38,2.12-.71,3.16-1l3.14-1,2.45-.87,4.89-1.74,3.18-1.2,4.34-1.64,3-1.16c1.6-.6,3.18-1.2,4.74-1.82,1.89-.76,3.74-1.58,5.58-2.38l1.61-.72c2.09-.91,4.11-1.89,6.16-2.84l1.24-.58,2.45-1.14c1.45-.66,2.92-1.33,4.36-2l1.58-.85,1.6-.82,1.45-.78,2-1.07c2-1.11,3.94-2.22,5.9-3.4l1.45-.89,1.46-.91.54-.34c.64-.4,1.31-.8,1.93-1.22l2.78-1.87,2-1.36c.85-.55,1.69-1.11,2.52-1.69l.6-.42c.77-.53,1.53-1.09,2.31-1.6l2.14-1.43c1.44-.95,2.86-1.91,4.27-2.91l.82-.58c.76-.51,1.51-1,2.27-1.56l3.22-2.13,3.34-2.23,3.34-2.22c2.13-1.42,4.25-2.87,6.32-4.36l1.86-1.38,1.18-.89,1.05-.78,2.45-1.84c.62-.47,1.22-1,1.84-1.45l1.07-.89c1.29-1,2.27-1.78,3.23-2.6,2.11-1.74,4.18-3.56,6.16-5.45l.49-.45c.78-.71,1.53-1.42,2.27-2.18l3.2-3.31q2.87-3,5.56-6.08l2.25-2.55c1.07-1.21,2.13-2.43,3.16-3.65.82-1,1.64-2,2.44-3.05.63-.78,1.2-1.58,1.78-2.38l.69-1,.89-1.24c.45-.63.89-1.23,1.34-1.87l1.64-2.49.43-.63c1.26-2,2.62-3.84,4-5.71l.51-.69c1.69-2.38,3.27-4.81,4.85-7.25,1.25-2,2.4-4.05,3.58-6.08l.72-1.24c1.33-2.32,2.64-4.63,3.82-7a100.92,100.92,0,0,0,5.61-14.46l.84-2.6c.63-1.94,1.27-3.85,1.8-5.81.25-.89.47-1.8.67-2.71l.2-.65.07,0q1.37-3,2.56-6.16l.69-1.84.71-1.87.8-2.14c.36-.87.71-1.78,1-2.67.25-.71.47-1.44.67-2.18l.18-.62a20.49,20.49,0,0,0,.58-2.74l.2-1.4c.11-.69.2-1.36.29-2.05.24-2,.29-4.07.33-6.09a18.33,18.33,0,0,1,.16-2.25c.15-1.42.2-2.42.24-3.38l.07-2.69a22,22,0,0,0-.14-2.38c-.15-1.82-.2-2.8-.24-3.78,0-.47-.07-1-.13-1.45l-.16-1.53a10.7,10.7,0,0,1-.05-1.25c0,.2.23.31.43.4a20.64,20.64,0,0,0,4.36,1.22,38.37,38.37,0,0,0,5.11.47c1.05.05,2.1.09,3.12.09.42,0,.87,0,1.29,0a19.93,19.93,0,0,0,8.85-2c.6-.35,1.18-.71,1.74-1.09a7.87,7.87,0,0,0,1.62-1,11.93,11.93,0,0,0,2-2.16,1.26,1.26,0,0,0,.2-.78c.38-.48.71-.91,1-1.35a10.69,10.69,0,0,0,1-2.14,44.13,44.13,0,0,0,1.43-4.8,26.58,26.58,0,0,0,.44-2.89c.22-1.72.38-2.9.47-4.12.18-2.2.44-4.38.73-6.59.4-2.8.89-5.78,1.4-8.78.49-2.85,1-5.7,1.43-8.57.24-1.46.46-3,.69-4.45l.22-1.53.38-2.63c.31-2.82.62-5.62,1-8.43.2-1.44.42-2.87.64-4.27l.36-2.13.66-4.61.09-.64.27-1.92.22-1.67.23-1.75.11-1,.13-.84.13-.89.11-.81c.09-.46.16-1,.23-1.44.22-1.6.31-2.85.38-4s.08-2.18,0-3.29A13.56,13.56,0,0,0,570.34,316.81Z"/><path class="cls-2" d="M141.64,457.23l.07-.09-.07.09Z"/><path d="M482.7,367.18h0c-.18,1.1-.3,2.13-.41,3.19-.23,1.84-.45,3.28-.69,4.71l-.14.77-.09.58c-.13.89-.29,1.78-.49,2.67l-.22,1c-.2.93-.4,1.86-.64,2.77-.31,1.16-.65,2.29-1,3.43-.51,1.6-1,3.2-1.63,4.78l.89,3.21.23.72a6.42,6.42,0,0,0,5.2,4.28,9,9,0,0,0,6.26,2.21,4.91,4.91,0,0,0,2.16,2.26l1.31.71a40,40,0,0,0,6.84,3.23c2,.71,4.07,1.38,6.12,2l.84-1.72c.42-.89.87-1.75,1.31-2.62l.38-.76c.4-.78.8-1.53,1.22-2.27l.69-1.22.72-1.22a22,22,0,0,1,1.26-2,3.34,3.34,0,0,1,.61-.64c.68-.38.88-.41,1.1-.41a2.14,2.14,0,0,1,.65.13,3.46,3.46,0,0,1,1.42,1.29,14.61,14.61,0,0,1,.8,1.27,31.84,31.84,0,0,1,1.8,3.42A14.56,14.56,0,0,1,520,405c.2.76.45,1.49.69,2.23.27.91.54,1.82.83,2.73a22.85,22.85,0,0,1,.71,2.67,40.74,40.74,0,0,0,4.08.49c2.67.22,5.38.42,8.1.42a33.06,33.06,0,0,0,11.16-1.67,16.82,16.82,0,0,0,6.85-4.67,6.9,6.9,0,0,0,1.42-7.13,12.9,12.9,0,0,0-4.16-5.27,62.68,62.68,0,0,0-7.08-5,63.62,63.62,0,0,0-8-4.48l-3-1.44c-4.16-2-8.86-4.19-13.58-5.9a137.22,137.22,0,0,0-15.33-4.78,41.63,41.63,0,0,0-6.1-1c-1.39-.64-2.28-1.06-3.19-1.51l-.56-.26c-.71-.34-1.43-.69-2.15-1a25.05,25.05,0,0,0-7.87-2.2Z"/><polyline class="cls-2" points="501.6 367.02 507.46 416.11 469.49 411.17"/><path class="cls-2" d="M140.75,544.23s0,0,0,0,0,0,0,0v0c.05,0,.09-.07.14-.09a.16.16,0,0,0-.11.05,3.66,3.66,0,0,0,.35-.31.09.09,0,0,1,0,0,1.08,1.08,0,0,0,.19-.31v0s0-.06,0-.11a1.39,1.39,0,0,0,.09-.38V543a.15.15,0,0,0,0,.09,2,2,0,0,0-.11-.47s0,.07,0,.09a9,9,0,0,0-.78-1.27,5,5,0,0,1,.13,2.83Zm.63-.76s0,0,0,.07,0,0,0-.07Z"/><path class="cls-2" d="M141.16,543.85l0,0,.05,0Z"/><polygon class="cls-2" points="141.13 543.89 141.13 543.9 141.13 543.89 141.13 543.89 141.13 543.89 141.13 543.89"/><path class="cls-2" d="M139.4,460.21l0,0s0,0,0,0Z"/><path class="cls-2" d="M141.94,456.83a1,1,0,0,1,.13-.16.64.64,0,0,1,.1-.13,2.45,2.45,0,0,0-.23.29Z"/><path class="cls-2" d="M139.44,460.15Z"/><polygon class="cls-2" points="139.44 460.16 139.44 460.15 139.44 460.16 139.44 460.16 139.44 460.16"/><path class="cls-2" d="M215.2,379.48c-1.45.85-2.94,1.62-4.38,2.47-1.21.71-2.36,1.47-3.52,2.25-2.36,1.62-4.65,3.35-6.92,5.11-1,.78-1.93,1.6-2.89,2.4-1.11.89-2.18,1.81-3.27,2.72s-1.91,1.6-2.85,2.45-1.91,1.64-2.84,2.49-1.61,1.51-2.41,2.27c-1,.95-2,1.93-3,2.91-.78.78-1.58,1.51-2.38,2.27s-1.33,1.29-2,1.94c-1.36,1.26-2.78,2.49-4.12,3.75-1.09,1.05-2.13,2.14-3.16,3.23-.75.8-1.49,1.65-2.22,2.47s-1.4,1.53-2.09,2.29c-1.54,1.65-3,3.38-4.52,5.05-.91,1-1.78,1.94-2.71,2.89s-2.09,2.09-3.1,3.16c-1.65,1.77-3.25,3.57-4.72,5.47v0l-1.6,2q-1.8,1.68-3.47,3.49c-1.16,1.24-2.25,2.53-3.34,3.82a40.67,40.67,0,0,0-2.85,3.61c-.22.33-.42.67-.6,1-.06.16-.13.29-.2.44a2,2,0,0,0-.18,1.29,1.19,1.19,0,0,0,.36.68,1.43,1.43,0,0,0,1,1.1,1.49,1.49,0,0,0,1.63-.66l.06-.11.64-.83c.63-.81,1.26-1.61,1.88-2.42-.22.46-.44.93-.67,1.4-.62,1.27-1.2,2.54-1.76,3.83l.14-.34c-.23.56-.47,1.09-.69,1.65l.13-.34c-1.07,2.47-2.38,4.83-3.43,7.32a31.72,31.72,0,0,0-1.4,4.12,25.74,25.74,0,0,0-.78,5.16,77.87,77.87,0,0,0,.6,10.57c.12,1,.25,2,.45,3a21.2,21.2,0,0,0,.6,2.31,40.61,40.61,0,0,0,2,5.12l-.14-.34a29.09,29.09,0,0,0,3.9,7.45,48.32,48.32,0,0,0,5.76,5.5,1.48,1.48,0,0,0,2,0,1.44,1.44,0,0,0,0-2,46.21,46.21,0,0,1-5.65-5.36,24.19,24.19,0,0,1-2.58-4.58.75.75,0,0,1,.07.12c-.51-1.16-1-2.33-1.49-3.5a1.61,1.61,0,0,1,.15.33c-.46-1.13-.89-2.29-1.26-3.47a24.84,24.84,0,0,1-.85-3.78h0c-.13-1.1-.21-2.22-.33-3.35s-.22-2.33-.29-3.49a38.81,38.81,0,0,1,.1-6.47s0,.06,0,.09a.5.5,0,0,1,0-.12,2.46,2.46,0,0,1,0-.26,1.09,1.09,0,0,1,0,.18,30.23,30.23,0,0,1,2.06-6.83l-.14.33c1.07-2.4,2.34-4.72,3.37-7.14l-.07.13c.24-.53.46-1.06.69-1.6l-.14.34c.83-1.83,1.69-3.68,2.61-5.48a34.47,34.47,0,0,1,3.27-5.18c.43-.55.86-1.09,1.29-1.65s1-1.35,1.55-2l0,.05c.61-.79,1.26-1.55,1.88-2.36s1.23-1.57,1.85-2.36l-.06.07,1.34-1.72h0c1-1.33,2.16-2.65,3.3-3.91.14-.17.29-.33.44-.49l1.18-1.09a12.74,12.74,0,0,0,1.74-1.85,1.44,1.44,0,0,0,0-1.42,1.61,1.61,0,0,0-.52-.52l.67-.75c1.11-1.25,2.18-2.52,3.34-3.74s2.27-2.56,3.45-3.83c1-1.11,2.09-2.15,3.16-3.24,1.24-1.29,2.64-2.49,4-3.7.67-.57,1.29-1.17,1.91-1.8l2.34-2.2c.75-.73,1.49-1.49,2.25-2.22s1.46-1.43,2.22-2.14,1.36-1.29,2.05-1.91,1.42-1.25,2.13-1.87c1.56-1.4,3.18-2.72,4.81-4.05s3.22-2.75,4.91-4c2-1.5,4-3,6-4.43,1.09-.75,2.2-1.46,3.36-2.13,1.45-.85,2.94-1.63,4.38-2.47a1.48,1.48,0,0,0,.52-2,1.48,1.48,0,0,0-2-.51Zm-71,70.72-.06.07.06-.07Zm-3.43,1.41a1.42,1.42,0,0,1-.08.18h0l.09-.19Zm3.32,43.61L144,495l.09.21Zm-4.05-24v0s0-.07,0-.11v.08Zm5.3-13.72a1.67,1.67,0,0,0,.08-.2l-.08.2Z"/><path class="cls-2" d="M446.33,89.68c10-.85,22.46-18,14.05-20C284.44,28.83,558.74,13,477.5-56.55c-34.92-29.91-177.85,19.67-131.21-54.7,21.31-34,42.92-30.87,42.92-30.87-42,0-118.85,74.23-96.31,97C317.17-20.57,390.83-35,392.3-23.87,395.57,1,266.94,11,270,44.68,274.28,91.07,380,94.7,446.26,80.9,452.89,82,449.34,85.66,446.33,89.68Z"/><path class="cls-2" d="M401.56,114.76c-4.61,3-6.26,15.43-7.41,20.69-7.41,2.7-12.24,10.35-7.19,13.1,3.74,2-3.06,7.61-3.93,11-1.26,5,16-5.84,15.24-1.24-2.43,15.15-3.91,18.53,1.09,31.83C411,221,562.61,236.5,588.57,214c3-28.72,2.88-28.1,4.7-46.63.37-3.7,3.24-3.52,3.12-6.89-.1-2.77-.83-5.4-.78-8,.16-9-.46-11.14-8.79-17.32-.35-5.34-1.3-16.53-10.5-21.3C526.92,88.21,467.63,71.54,401.56,114.76Z"/><path class="cls-2" d="M448.25,49.62l0,0,0,0Zm31,21.15a.66.66,0,0,1,0,.14s0-.09,0-.14Zm-.74,1.63-.11.15.11-.15ZM450.79,52.1h0s0,0-.05,0l0,0Z"/><path class="cls-5" d="M513.91,401.5l-.58,1-.38.67-1.16,2.11c-.84,1.6-1.69,3.23-2.49,5.05a74.35,74.35,0,0,0,8.7,1.6l1.18.29-.27-1-.31-.91-.2-.64-.18-.63-.35-1.13a10,10,0,0,1-.36-1.14,21.79,21.79,0,0,0-.85-2.51c-.31-.69-.66-1.38-.84-1.78a1.91,1.91,0,0,1-.16-.27l0,0c-.35-.65-.73-1.29-1.07-1.85l-.66,1.18Z"/><path class="cls-5" d="M475.12,370.27a8.29,8.29,0,0,0-2,7,37.83,37.83,0,0,0,1.63,6.49c.31.91.67,1.78,1,2.69.2-.62.4-1.26.69-2.11A79.92,79.92,0,0,0,478.54,374c.29-1.91.54-3.8.71-5.71l.16-.67a9.33,9.33,0,0,0-4.29,2.65Z"/><path class="cls-6" d="M318.57,355.89a42.75,42.75,0,0,0-5,.91,21,21,0,0,0-3.18,1.11c-.91.38-1.8.78-2.69,1.2l-1,.45c-2.53,1.15-5.05,2.36-7.56,3.56l-.58.26c-2,1-4,1.89-5.89,2.9-2.36,1.24-4.65,2.64-6.92,4s-4.61,2.94-6.88,4.48l-.75.51c-2.32,1.53-4.59,3.2-6.81,4.89-3,2.29-5.94,4.58-8.79,7-3.11,2.62-6,5.27-8.52,7.87-1.24,1.29-2.42,2.65-3.53,4-.63.76-1.23,1.56-1.81,2.36-.46.62-1,1.27-1.44,1.89l-1.58,2c-.31.4-.65.78-1,1.16l-.49.58a32.7,32.7,0,0,1-2.63,2.76,19.52,19.52,0,0,1-3,2.24c-.67.29-1.36.6-2.07.83s-1.4.44-2.09.64l-.78.22c-.65.2-1.27.38-1.89.63a26.07,26.07,0,0,0-2.43,1.2c-1.31.69-2.11,1.22-2.91,1.73s-1.74,1.12-2.58,1.69a39.22,39.22,0,0,0-5.05,4.12c-.74.71-1.47,1.45-2.14,2.2s-1.53,1.8-2.22,2.76a36.54,36.54,0,0,0-3.54,6.21,54.55,54.55,0,0,0-3.36,10.59c-.29,1.13-.55,2.27-.84,3.38a1.22,1.22,0,0,0,.17,1,1.52,1.52,0,0,0,1,.71h0a1.54,1.54,0,0,0,1.65-1.18c1.87-1.31,3.49-2.47,5.16-3.58,1.42-1,2.91-1.84,4.4-2.69s2.79-1.45,4.23-2.07,2.85-1.2,4.29-1.76c1.78-.71,3.14-1.26,4.57-1.73,1.69-.53,3.35-1,5.07-1.49,2.4-.51,4.56-.94,6.69-1.34,2.41-.44,4.76-1,7.1-1.55,1.38-.29,2.74-.58,4.09-.85l2.07-.42a50.85,50.85,0,0,0,5.67-1.49,62.44,62.44,0,0,0,7.77-3,26.43,26.43,0,0,0,3.74-2.27,49,49,0,0,0,4.38-3.33c1-.92,2-1.89,3-2.87l1.07-1c.4-.42.82-.8,1.24-1.2l1-.89.51-.51c.51-.51,1-1,1.58-1.49.8-.74,1.62-1.47,2.47-2.14s1.71-1.31,2.6-1.93a60,60,0,0,1,5.36-3.36l.91-.45c1-.51,2-1,2.9-1.6l1-.62,1.05-.6a9.74,9.74,0,0,0,1.2-.58,3.72,3.72,0,0,0,1.13-1,8.38,8.38,0,0,0,.69-1,16.58,16.58,0,0,0,.8-1.49c.65-1.38,1-2.41,1.41-3.43l.42-1.13c.27-.69.51-1.38.73-2.12a1.2,1.2,0,0,0,.27-.69c.27-.77.58-1.58.91-2.35.51-1.29,1.11-2.54,1.69-3.76l.62-1.32c1-2.09,2-4.18,3.07-6.22.92-1.78,1.85-3.56,2.87-5.3.67-1.11,1.36-2.22,2.05-3.34l1.16-1.91a29.5,29.5,0,0,1,2.2-3,32.1,32.1,0,0,1,3-3.14,1.65,1.65,0,0,0,.33-1.11,1.63,1.63,0,0,0-.4-.87,1.31,1.31,0,0,0,.07-1.14,1.49,1.49,0,0,0-.76-.8c-.18-.11-.36-.24-.53-.33a4.75,4.75,0,0,0-.76-.24,5.72,5.72,0,0,0-.8-.09,12.1,12.1,0,0,1-1.47-.18,8.49,8.49,0,0,0-1.33-.09l-.61-.07-.57-.06-.56,0a13.43,13.43,0,0,0-1.67.14ZM263.8,425.94a9.77,9.77,0,0,1,.49-1.09,4.23,4.23,0,0,0,.34-.67l.33-.64.67-1.21.46-.82.63-1.07.38-.8a54.78,54.78,0,0,1,5.47-6.6l1.35-1.38c.76-.76,1.54-1.54,2.27-2.32,1.41-1.44,2.81-2.89,4.25-4.29l1.14-1.05.55-.51a37.14,37.14,0,0,1,7.14-5.16,58.69,58.69,0,0,1,5.61-2.29l.91-.33.69-.25c2.12-.75,4.3-1.53,6.65-2.16.83-.15,1.65-.31,2.47-.44l.76-.13.09.17c-.36.8-.69,1.65-1,2.5a22.4,22.4,0,0,1-1.62,3.44l-.47.54c-.82.42-1.29.69-1.78,1l-.84.46-.85.49-.55.34c-.58.33-1.16.64-1.74,1-.89.45-1.8.94-2.71,1.45l-1.51.93-.89.56a48.12,48.12,0,0,0-5.54,4c-.94.78-1.87,1.62-2.74,2.47l-.58.58-1.82,1.73-1.63,1.6-.73.71-.71.69-1.45,1.41c-1.47,1.26-2.78,2.22-4.14,3.18l-1.8,1.24a12,12,0,0,1-1.67,1,38.22,38.22,0,0,1-4,1.71c-.94.36-1.45.54-2,.71a.67.67,0,0,1,0-.1h-.05l.1-.26c0-.15.05-.28.05-.29Z"/><path class="cls-6" d="M513.42,397.24a2.72,2.72,0,0,0-.62.65,19.38,19.38,0,0,0-1.27,2l-.71,1.22-.69,1.23c-.42.73-.82,1.49-1.22,2.27l-.38.75c-.45.87-.89,1.74-1.32,2.63l-.84,1.71h0l-.12.29-.56,1.29-1.31,3.09c-.6,1.4-1.23,2.8-1.8,4.25-.47,1.22-1,2.4-1.54,3.6-.38.89-.8,1.76-1.22,2.63l-.74,1.51c-.71,1.54-1.51,3-2.33,4.47s-1.56,2.76-2.36,4.12l-1.47,2.51-.91,1.6c-.4.65-.78,1.29-1.16,2l-1.27,2.14-.42.64L488,445.6l-.87,1.34-.27.53,0,0c-.63.93-1.16,1.74-1.67,2.56l0,0h0l-.13.22c-1.54,2.34-3.32,4.81-5.1,7.26l-1.42,1.89-1.4,1.89c-1,1.29-1.92,2.58-2.9,3.85s-2.06,2.69-3.15,4c-.76.89-1.52,1.73-2.27,2.58l-.94,1c-1.15,1.29-2.33,2.52-3.56,3.74L462.75,478c-.63.62-1.25,1.24-1.9,1.86q-2.24,2.07-4.58,4.14c-1.22,1.07-2.42,2.16-3.62,3.25-2.65,2.36-5.28,4.74-7.86,7.16l-3.27,2.92c-1.33,1.18-2.49,2.2-3.64,3.2-1.52,1.27-3.05,2.51-4.59,3.76l-2.18,1.8c-1.49,1.23-2.93,2.49-4.38,3.78l-2,1.74c-1.38,1.2-2.69,2.51-4,3.83l-2.32,2.29-1.29,1.18-1.29,1.17c-1.17,1-2.38,2-3.58,3-.62.49-1.24,1-1.89,1.47l-1.18.89c-1.09.84-2.22,1.62-3.36,2.4-3.33,2.27-6.74,4.47-10.12,6.7l-3.4,2.2-1.16.78c-8.59,5.58-17.48,11.36-26.58,16.39l-1,.58,0,.07-2.85,1.33c-1.42.76-2.82,1.51-4.27,2.23-1.2.6-2.4,1.2-3.6,1.82s-2.38,1.22-3.58,1.8c-2.43,1.16-4.87,2.27-7.32,3.38-1.76.81-3.49,1.65-5.21,2.47l-2.35,1.14c-2.59,1.2-5.19,2.29-7.81,3.38l-2.09.89c-1.85.78-3.67,1.56-5.54,2.25a144,144,0,0,1-15.6,4.53c-1.89.47-3.78,1-5.65,1.58-1.07.34-2.11.69-3.18,1.05l-2.31.78-.65.22c-2,.69-4.11,1.36-6.2,1.89-1.83.47-3.67.91-5.52,1.36l-1.85.44-1.84.43c-2.67.55-5.08.91-7.46,1.22l-1.69.2-1.73.22a35.29,35.29,0,0,0-4.56,1c-1.76.51-3.52,1-5.27,1.58l-2.43.76c-2.4.71-4.8,1.38-7.23,2-1.22.29-2.45.51-3.69.71a35.51,35.51,0,0,1-3.58.31l-.63.05c-1.46.09-2.91.15-4.38.17s-2.89.05-4.31.12L227,596l-2.2.11c-1.4,0-2.78.07-4.18.09h-.93l-1.83,0-1.85,0H214.8c-1.18,0-2.34,0-3.52-.06a46,46,0,0,1-5.32-.58l-1.38-.27-1.4-.24a22.94,22.94,0,0,0-2.51-.29c-2.25-.2-4-.38-5.76-.6-1-.14-2-.27-3-.38l-1.27-.16-1.38-.15c-.84-.11-1.71-.18-2.58-.25s-1.69-.13-2.56-.22l-1.84-.2c-1.23-.11-2.47-.24-3.7-.4-.82-.11-1.64-.18-2.49-.22l-1.07-.11-1.09-.11a32.78,32.78,0,0,0-3.71-.14l-.62,0-1.27-.09h-1.71c-.4,0-.63,0-.85,0-1-.07-2.2-.11-3.38-.11a3.44,3.44,0,0,0-.69-.09l-.69-.07c-.4,0-.8,0-1.2,0h0a5.3,5.3,0,0,0-1.52.26,3.91,3.91,0,0,0-2.31,1.83,5.42,5.42,0,0,0-.73,2.2,10.66,10.66,0,0,0,0,2.18,5.51,5.51,0,0,0,1.12,2.53,11,11,0,0,0,1.35,1.54,8.3,8.3,0,0,0,2.29,1.56,1.33,1.33,0,0,0,.61.13,1.51,1.51,0,0,0,1-.4,13.65,13.65,0,0,0,1.27,1.67,28.43,28.43,0,0,0,2.73,2.76,33.81,33.81,0,0,0,3,2.31,46.38,46.38,0,0,0,6.2,3.34,66.83,66.83,0,0,0,8.06,3.11c2.49.76,5,1.36,7.56,2,2.87.71,5.56,1.22,8.23,1.71s5.23,1,7.72,1.56c1.36.31,2.67.64,4,1s2.54.64,3.81.93,2.58.56,3.89.8c1.09.2,2.2.34,3.31.47l.81.11a69.72,69.72,0,0,0,7.2.31h1l1.58,0c5.52,0,11.12-.45,15.93-.85l1.78-.16c2.25-.17,4.49-.37,6.72-.62,1.42-.15,2.82-.35,4.25-.53s2.82-.38,4.22-.56l1.69-.2c.83-.09,1.65-.2,2.47-.31l4.45-.65c1.47-.2,2.94-.44,4.41-.66s2.91-.47,4.38-.69c1.71-.25,3.4-.49,5.12-.76l3.47-.53c2.73-.43,5.45-.89,8.14-1.47,5.11-1.09,11.17-2.45,17.3-4.23.92-.26,1.81-.55,2.72-.87l1.24-.4c1.41-.44,2.81-.91,4.19-1.4l2.87-1c1.66-.58,3.36-1.18,5-1.78,2.76-1,5.5-2,8.21-3l1.34-.53,2.29-.94c1.4-.6,2.78-1.22,4.14-1.84l1.73-.76,1.76-.76,2.09-.95,2.09-1,2.27-1.07,1.58-.71,1.53-.71,2.05-.93,2.31-1.07q2.85-1.34,5.74-2.6c2.67-1.16,5.34-2.36,8-3.61.89-.42,1.76-.89,2.63-1.33l1-.51c1.49-.78,3-1.54,4.48-2.3,1.2-.62,2.4-1.22,3.62-1.82,1.45-.71,2.92-1.42,4.36-2.18,1.25-.65,2.47-1.31,3.69-2,.87-.47,1.7-.93,2.54-1.42l.78-.45,2.82-1.62,4.63-2.65,3.49-1.94,4.25-2.35c1.6-.94,3.18-1.87,4.76-2.83l2.63-1.58,3.56-2.16,3.53-2.15c1.12-.69,2.18-1.45,3.25-2.21s1.89-1.33,2.81-2l1-.73c3-2.16,5.81-4.45,8.67-6.72,1.76-1.4,3.52-2.8,5.28-4.16l1.06-.82c2-1.52,3.92-3,5.83-4.59,2.27-1.86,4.45-3.82,6.61-5.8.89-.85,1.78-1.69,2.65-2.56l.75-.76c.78-.75,1.54-1.51,2.29-2.31,1.72-1.78,3.36-3.67,5-5.56l.53-.6.85-1,1.69-2,1.85-2.22.84-1,1.34-1.65c1.35-1.65,2.69-3.27,4.11-4.85l1.27-1.45c1.33-1.49,2.67-3,4-4.49l1-1.11c1.49-1.76,3-3.49,4.34-5.36q1.1-1.5,2.13-3c.45-.64.85-1.29,1.27-1.93l.78-1.21,1-1.57,1-1.56.82-1.25c.47-.71.93-1.4,1.38-2.13,1.4-2.29,2.8-4.59,4-7s2.54-5,3.76-7.54a69.23,69.23,0,0,0,2.9-7l.35-1c.29-.78.58-1.56.82-2.36.43-1.36.83-2.74,1.21-4.12.69-2.56,1.2-5.16,1.71-7.76l.2-1c.2-1,.38-2,.51-2.94.22-1.44.36-2.91.45-4.38l.11-2,.11-2c0-1.21,0-2.45,0-3.68-.09-2.69-.31-5.42-.54-8.12l-.13-1.66L523,417a34.66,34.66,0,0,0-.57-4c0-.13,0-.26-.08-.38l-.12,0a19.89,19.89,0,0,0-.69-2.65c-.29-.91-.56-1.83-.83-2.74-.24-.73-.49-1.47-.69-2.22a15.21,15.21,0,0,0-.8-2.09,28.74,28.74,0,0,0-1.8-3.43,9.69,9.69,0,0,0-.8-1.24,3.34,3.34,0,0,0-1.42-1.32,2.85,2.85,0,0,0-.65-.11c-.22,0-.42,0-1.09.4ZM518,411.92a80.71,80.71,0,0,1-8.72-1.62c.83-1.8,1.67-3.43,2.5-5.05l1.17-2.11.38-.65.56-1,.69-1.18,1.07,1.87v0h0c0,.09.09.18.15.29.18.4.54,1.07.83,1.78a22.05,22.05,0,0,1,.84,2.49c.11.4.25.76.38,1.16l.33,1.13.18.6.22.65.29.91.29,1-1.18-.29Z"/><path class="cls-5" d="M455.24,136.12c-22.14,4.83-40.62,8.19-60.78,18.27-4.83,1.53-10,7.6-8.85,7,3.24,5,8.17,1.83,8.49,8.22.87,17.24,3.61,34.69,5.13,51.91,1.71,19.43,2.78,39,5,58.35.75,6.53.45,17.11,2.09,22.16,5.89,18.12,17.66,15.73,33.75,24.14,15.66,19.66,28.16,14.41,37.53,6.56,1.39-2.46-5-11.25-2.05-14.93,9.12-11.27-11.68-1.34,10.43-9.56,8-3,22.65.22,30.61,1.67S563.35,326.7,570.47,330c.64.29,1.29-14.47,1.63-15.09,10.3-18.66-85.09-26.45-97.58-23.41.22-21.8-1.16-43.72-1.35-65.54-.13-14.58-7.61-76.53-.2-84.56,13-2.27,42.12-6.08,82.82,4.37,22.84,5.86,40.62,19.67,37.48,21.55,2.56-1.76-1.81-6.27-4.41-8.66-29.91-27.52-97.34-30.51-133.62-22.57Z"/><path class="cls-5" d="M396.35,154.19l.26-.19a1.74,1.74,0,0,0-.27.22l1.05-.86-1,.83Z"/><path d="M306.35,392.74h0l-.76.13c-.82.13-1.64.29-2.46.44-2.35.61-4.53,1.39-6.65,2.14l-.68.25-.92.33a58.54,58.54,0,0,0-5.61,2.3,36.5,36.5,0,0,0-7.13,5.17l-.56.51-1.13,1c-1.45,1.4-2.85,2.85-4.25,4.29-.74.79-1.52,1.57-2.27,2.32L272.57,413a55.53,55.53,0,0,0-5.48,6.59l-.38.81-.62,1.07-.47.82-.67,1.2-.33.65a5.08,5.08,0,0,1-.33.66,10.9,10.9,0,0,0-.5,1.1s-.12.65-.1.65h0c.51-.18,1-.35,2-.71,1.7-.67,2.88-1.13,4-1.71a13.2,13.2,0,0,0,1.67-1l1.8-1.24c1.34-1,2.65-1.92,4.12-3.19l1.45-1.39.71-.7.74-.71,1.62-1.6,1.83-1.74.58-.58c.86-.84,1.79-1.69,2.73-2.46a51.51,51.51,0,0,1,5.55-4l.88-.55c.59-.37,1.05-.66,1.52-.94.91-.51,1.83-1,2.71-1.44.59-.31,1.16-.62,1.74-1l.56-.33.84-.49.85-.47c.49-.29,1-.55,1.78-1l.46-.54a21.7,21.7,0,0,0,1.63-3.45c.34-.84.67-1.69,1-2.49l-.11-.16Z"/><path class="cls-7" d="M486.65,339.82c-3.45,0-11.27.56-11.07,5.43,0,1.05.73,1.83.94,2.79.08.39-.18.93,0,1.44.34,1,1.31,1.34,1.72,2.51a14.28,14.28,0,0,1,.86,4.57c0,8.78-10.59,17-2.39,25.34-2,5.39-3.68,11.26-6.37,16.47a167.15,167.15,0,0,1-9.57,15.47c-8,12.1-16.4,24-26.09,34.85-6.12,6.86-13,13-19,20-4.62,5.41-9.32,10.41-15.18,14.51-3.95,2.76-8.08,5.33-11.82,8.37-6.43,5.24-12.36,11.27-19.89,15-6,2.93-12.52,4.94-18.66,7.63-5.13,2.24-10.35,4.08-15.66,5.81-7.3,2.37-14.47,5.13-21.82,7.3-9,2.66-17.93,5.81-27.18,7.37-26.52,4.49-53,8.94-80,9.28-10,.13-19.22-2-29-3.58-4.78-.78-9.62-1-14.39-1.72-4.4-.7-8.38-2.46-12.47-4.11-5.8-2.33-11.67-3.23-17.72-4.49-1.64-.35-2.46-.63-3.38,1-1,1.79-.21,3.78.88,5.44,2,3.06,5.29,5,8.33,6.88a36.29,36.29,0,0,1,5.91,4c-7.34,2.2-14.16,12.13-14.06,19.58,0,2.68.51,5.51.81,8.17a14.07,14.07,0,0,0,2.84,7.22c3.89,4.84,10.34,5.47,16.08,5.46,1.64,0,2.71-.16,3.72,1.27,1.39,2,1.79,4.36,3.49,6.27,3.81,4.28,8.87,4.5,14.2,3.94,9.19-1,17.91-2.87,27.23-2.36,5.88.33,12,.5,17.86,1.51,4.32.75,7.58,2.82,11.16,5.15,4.93,3.2,9.87,2.8,15.47,2.79s10.37,3.49,16,3.32c5.82-.17,11.63-3.44,16.86-5.65,5.49-2.32,10.71-3.28,16.57-4.17a23.64,23.64,0,0,0,8.86-3c2.17-1.33,3.84-3.28,5.79-4.88,4.72-3.87,9.58-5,15.52-5.66s12-1.16,17.79-3.19c5.43-1.89,10.69-4.28,16.07-6.31,5.72-2.16,11.86-3.31,17.2-6.38a16.32,16.32,0,0,0,6.4-5.79c1.32-2.38,1.69-5.14,3.07-7.5,4.67-8,13.5-10.45,21.7-12.94a92.29,92.29,0,0,0,17.46-7.43c4.08-2.23,8.29-4.5,10.9-8.49,3.11-4.76,4.47-9.71,8.93-13.61,5.34-4.67,11.45-7.29,18-9.69,5.06-1.86,11.85-3.85,15.17-8.38a15,15,0,0,0,2.24-5.81,24,24,0,0,1,3.81-8.4c3.64-5.28,9.31-8.76,12.89-14.11a26.33,26.33,0,0,0,3.92-7.84c.7-2.82-.47-5.5,0-8.18.81-4.41,7.38-8.64,10.26-11.8,3.47-3.81,7.31-7.73,6.89-13.28-.38-5-4.07-9.27-3.58-14.33.41-4.25,1.71-8.62,2.34-12.86.72-4.82,1.83-10.21.64-15-1-4.09-4.81-6.64-5.66-10.93-1.09-5.52,6.5-11.32,2.7-17.06a6.7,6.7,0,0,0-2.33-2c-1.69-.94-1.62-.74-2.07-2.61a13.65,13.65,0,0,0-4.27-7.39c-4.4-3.82-10.24-5.12-15.93-5.12Zm6.19,54.41a10.29,10.29,0,0,0,5.55-1.59c-1,7-1.76,14.06-3.15,21-1.78,9-6,17.38-10.62,25.24-5.39,9.1-12.22,16-21.79,20.63-3.39,1.65-6.91,3-10,5.19a38.45,38.45,0,0,0-10.63,11.93c-4.12,6.93-9.33,13-13.71,19.73-4.87,7.5-13,12.53-21.26,15.5-7.64,2.74-14.58,4.69-21.21,9.52-5.65,4.12-10.71,9.24-15.82,14-8.35,7.81-16.29,16.74-27.17,21-5.73,2.24-11.7,3.82-17.45,6a191.45,191.45,0,0,1-18.86,6c-2.06.53-4.12,1-6.2,1.47s-9.25,2.87-9.75.6c-.19-.88.77-2.23,1.1-3.06.72-1.8,1.54-3.86.1-5.52-3-3.48-11.78-1.59-15.7-1.25a40.45,40.45,0,0,0-15.69,4.85,80.87,80.87,0,0,0-8.13,4.91c-2.12,1.46-5.06,3.13-6.4,5.4a5.84,5.84,0,0,0-.11,5.62c.75,1.55,3.2,3.79,2.42,5.74-1.16,2.89-8.93,2.66-11.53,2.54-4.79-.22-9.23-2.16-11.94-6.18-2.12-3.15-4-6.86-8-7.88-5-1.29-9.58.52-14.33,1.79a23.8,23.8,0,0,1-15.92-1.61c-1.75-.76-4.32-2-5-3.91-.55-1.52.36-2.31,1.07-3.59,2.61-4.77-1.8-7.69-5.82-9.34-4.57-1.87-10.39-3.27-14.64.05-3.63,2.84-5,6.65-6.58,10.76-1.2,3-6,6.71-8.84,3.42-3.66-4.29,2.83-7.3,2.4-11.4-.44-4.26-5.16-8.13-9.42-7.66.41-.5-.19-.88,0-1.24s1.68-1.29,2.18-1.62a15.79,15.79,0,0,1,2-1c2.2-1.07,3.95-3.19,1.71-5.37a20.72,20.72,0,0,0,10.84,2.3c-3.31,2-2,5.85,1.19,7.13,3,1.17,6.15.11,9.09-.5a44.54,44.54,0,0,1,15.61-.84c1.83.24,5.4.35,6.89,1.59,1,.84,1.17,2.27,2.07,3.26,2.9,3.23,7.31,3.2,11.27,3.63,4.76.52,6.82,4.58,9.49,8,3.32,4.26,7.52,5.58,12.82,4.93,4.76-.58,7.42-3.5,9.13-7.81,1-2.44,1.14-4.48,4-5.26,1.55-.43,3.2-.49,4.77-.88,2.16-.53,3.67-1.72,5.54-2.81,1.5-.87,3.12-1.58,4.65-2.38,4.2-2.18,8.3-4.54,12.57-6.56,6.35-3,14.26-7.54,21.44-7.31,8.23.27,12.17,10,21,7.77,4-1,7.57-3.57,11.46-5,4.57-1.67,9.46-2.44,13.86-4.54,5.28-2.52,9.64-6.63,15-9.07,6.21-2.83,13-4,19.43-6.21,5.06-1.71,9.31-4.62,13.95-7.17a32.14,32.14,0,0,0,6.86-4.45c3-2.8,5.58-6,9.29-8,2.67-1.41,5.66-2.1,8.44-3.28a19.85,19.85,0,0,0,10.53-9.69c1.8-3.5,2.83-7.36,5.15-10.6a59.71,59.71,0,0,1,9.92-10.36c5.82-4.92,10.61-10.8,16.39-15.72a50.11,50.11,0,0,0,5.21-4.77c.8-.9,1.69-2.7,2.68-3.41,1.2-.86,3.14-.79,4.48-1.22a20.34,20.34,0,0,0,3.42-1.57,17.89,17.89,0,0,0,8.46-9.42,23.18,23.18,0,0,0,1.68-7.29c.12-1.75-.07-3.85,1.06-5.27,1.83-2.31,5.68-2.65,7.85-4.62,3.59-3.28,2.81-7.49,3.12-11.87.29-4.12,2.79-7.69,3.29-11.83a14.29,14.29,0,0,0,3.26.36Z"/><path class="cls-8" d="M592,203.58C571.58,190,558.73,180.77,530.83,176c-19.46-3.32-46.52-5.18-78.94-1.16-37.55,4.64-52.67,13.89-60.19,22.53l13.18,104.12c28.75-6.18,55.21-8.87,55.34-8.88,24.36-2.08,60.31,2.36,83.37,11,14.89,5.56,20.38,8.67,30.41,17Z"/><path class="cls-2" d="M407.16,301.51h-.71a1.55,1.55,0,0,0-1.41,1,9,9,0,0,0-2.55.59,9.45,9.45,0,0,0-2.28,1.23,11,11,0,0,0-1.9,1.72,9.47,9.47,0,0,0-1.75,3.43,14.16,14.16,0,0,0-.4,4.31,13.71,13.71,0,0,0,.38,2.17l-.66,0a1.79,1.79,0,0,0-.8.2,2.16,2.16,0,0,0-1,.87,2.8,2.8,0,0,0-.38,1,4.14,4.14,0,0,0,0,1.45,9.53,9.53,0,0,0,.44,1.94c.18.45.36.87.56,1.32l.34.65a31.65,31.65,0,0,0,2.27,3.79,26,26,0,0,0,3,3.45l1.45,1.34a19.94,19.94,0,0,0,2.83,2.07l.87.47a16.31,16.31,0,0,0,2.28,1c.75.27,1.33.42,1.89.57l.56.15c.73.19,1.45.35,2.18.51l1.63.38c.71.16,1.41.35,2.12.55a18.06,18.06,0,0,1,2.06.73c.26.12.68.29,1.08.51s.95.51,1.41.77a29.58,29.58,0,0,1,2.7,1.83c.88.69,1.73,1.4,2.55,2.16l2,2a20.38,20.38,0,0,0,3.89,3,13.39,13.39,0,0,0,4,1.67,7.38,7.38,0,0,0,1.7.21,5.26,5.26,0,0,0,2.34-.52,7.28,7.28,0,0,0,2.58-2.22,12.77,12.77,0,0,0,1.75-4,15.32,15.32,0,0,0,.42-3.08,14.36,14.36,0,0,0-.15-2.88l-.11-.78a15,15,0,0,1-.2-3.06,4.24,4.24,0,0,1,.17-.61,6.78,6.78,0,0,1,.57-1l.14-.16h0c.44-.51.78-.85,1.14-1.21a14,14,0,0,0,1.5-1.39,9.65,9.65,0,0,0,1.16-1.7,7.69,7.69,0,0,0,.77-2.73,9.29,9.29,0,0,0-.63-4.53,12.34,12.34,0,0,0-1-1.9,13.64,13.64,0,0,0-1.61-1.79,33.56,33.56,0,0,0-3.59-2.83c-1-.72-2.15-1.36-3.26-2l-1.06-.61c-1.69-1-3.45-1.81-5.21-2.65l-.94-.45c-1.68-.81-3.37-1.62-5.11-2.33-.37-.17-.76-.32-1.16-.48l-.86-.35c-1.16-.51-2.47-1.09-3.81-1.58a14.44,14.44,0,0,0-2.1-.58l-2.2-.4-3.21-.54-1.6-.26a32.79,32.79,0,0,0-5.15-.47Zm-10.52,18V319a4.47,4.47,0,0,0,.79.34l.67.52a20.14,20.14,0,0,0,1.24,2.26,26.66,26.66,0,0,0,2.18,3,38.6,38.6,0,0,0,3.23,3.29c1,.89,2,1.74,3.1,2.54a36.61,36.61,0,0,0,3.3,2.36l.6.36c-1.25-.39-2.53-.77-3.78-1.21-.53-.25-1-.49-1.55-.78a17.7,17.7,0,0,1-1.73-1.13c-1-.8-1.9-1.66-2.79-2.55-.67-.67-1.27-1.4-1.87-2.13l-.44-.61-.69-1.07a33.81,33.81,0,0,1-1.88-3.61,14.5,14.5,0,0,1-.36-1.45h0l.05.37h0l-.06,0Z"/><path class="cls-8" d="M482.74,354.35c-.65-6.65-5-21.67-5-21.69-13.83-12.42-18-7.48-35.75-17.51-3.18,7.83,18.16,49,16.35,58.44-3.48,18.23-35.63,55.84-49.67,67-14.84,11.8-33.39,14.5-48.74,24.52-23.64,15.41-33.35,9.13-63.29,16.12-28.32,6.61-62,35.23-90.17,39.18-22.91,3.21-70.22,1.87-84.88-25-6.93-12.72,25.74-55.05,31.71-65.55C135,442.15,98,508.25,116.27,531.08c12.59,15.73,27.33,24.33,91.6,18.93,86.21-7.23,150.92-18,214.13-76C453,445.61,486.89,399.54,482.74,354.35Z"/><path class="cls-2" d="M452.51,16.58a129.84,129.84,0,0,0-16.87,10,43.42,43.42,0,0,0-7.18,6.26A16.43,16.43,0,0,0,426,36.51a8.32,8.32,0,0,0-.59,1.86,5.33,5.33,0,0,0,0,1.74c.44,2.19,2.84,4.08,5.45,5.49a45.14,45.14,0,0,0,8.71,3.33c3.06.86,6.2,1.6,9.37,2.22s6.42,1.13,9.67,1.72c6.5,1.25,13,2.55,19.46,4.21,3.23.85,6.46,1.77,9.68,2.91,1.61.58,3.22,1.19,4.83,1.95a22.78,22.78,0,0,1,4.78,2.94,10.19,10.19,0,0,1,2.22,2.51,6.6,6.6,0,0,1,1,3.86,8,8,0,0,1-1.1,3.46,14.07,14.07,0,0,1-1.82,2.41,31.76,31.76,0,0,1-4,3.53c-1.37,1-2.76,2-4.16,2.92-5.64,3.62-11.34,6.86-17.07,10.1l-1.48-2.27c5.29-4,10.79-7.62,16-11.51a44.42,44.42,0,0,0,7-6.11A5.39,5.39,0,0,0,495.32,71a1.34,1.34,0,0,0-.29-.82,5.15,5.15,0,0,0-1.1-1.1,17.91,17.91,0,0,0-3.7-2.07c-1.38-.61-2.85-1.17-4.35-1.67-3-1-6.11-1.86-9.25-2.65-6.29-1.59-12.69-3-19.11-4.23s-13-2.5-19.47-4.65a48.85,48.85,0,0,1-9.5-4.19,19.59,19.59,0,0,1-4.37-3.41,12.16,12.16,0,0,1-1.77-2.42,9.3,9.3,0,0,1-1-3,9.07,9.07,0,0,1,.17-3.17,11.67,11.67,0,0,1,1.09-2.77,18.6,18.6,0,0,1,3.39-4.25,45.35,45.35,0,0,1,8.24-6A96.42,96.42,0,0,1,452.51,16.58Z"/><path class="cls-2" d="M346.91-18.31c2.71-.31,5.43-.51,8.16-.56a37.53,37.53,0,0,1,4.1.14,10.68,10.68,0,0,1,4.08,1,2.29,2.29,0,0,1,.87.83,1.67,1.67,0,0,1,.14,1.29A4.63,4.63,0,0,1,363-13.75a20.58,20.58,0,0,1-3.31,2.55,76.73,76.73,0,0,1-7.19,4A57.87,57.87,0,0,1,345-3.94c-2.6.9-5.22,1.68-7.85,2.43-5.25,1.5-10.52,2.87-15.77,4.29-10.5,2.85-21,5.79-31.11,9.49-2.55.9-5.05,1.91-7.56,2.9s-4.94,2.18-7.35,3.36a124.48,124.48,0,0,0-14,7.87A81,81,0,0,0,249,36a34.21,34.21,0,0,0-4.79,5.77,18.37,18.37,0,0,0-2.68,6.53,13.12,13.12,0,0,0-.2,3.42,13.3,13.3,0,0,0,.66,3.39,20.24,20.24,0,0,0,3.51,6.31,45,45,0,0,0,11.89,9.89c9.06,5.53,19.25,9.43,29.55,12.7,5.17,1.6,10.38,3.13,15.65,4.47s10.57,2.55,15.89,3.73q-8.12-1-16.17-2.45c-5.37-1-10.74-2-16-3.42s-10.57-2.91-15.76-4.75a105.65,105.65,0,0,1-15.21-6.69,60.39,60.39,0,0,1-7.11-4.57,39.06,39.06,0,0,1-6.38-5.85,24.29,24.29,0,0,1-4.62-7.74,19.11,19.11,0,0,1-.89-9.29,23.55,23.55,0,0,1,3.2-8.58A36.39,36.39,0,0,1,245,32a61.3,61.3,0,0,1,13.63-10.09c9.79-5.42,20.13-9.24,30.51-12.78S310.14,3,320.74.47C326-.79,331.35-2,336.61-3.32c2.64-.66,5.25-1.36,7.83-2.16A60.51,60.51,0,0,0,352-8.42a75.16,75.16,0,0,0,7.22-3.66,20,20,0,0,0,3.24-2.31,3.72,3.72,0,0,0,1.07-1.45c.18-.5-.08-.93-.61-1.26a10.24,10.24,0,0,0-3.76-1.06c-1.34-.17-2.69-.24-4.05-.3C352.35-18.54,349.63-18.48,346.91-18.31Z"/></g></svg>