<svg xmlns="http://www.w3.org/2000/svg" xmlns:xlink="http://www.w3.org/1999/xlink" viewBox="0 0 720 720"><defs><style>.cls-1{fill:none;}.cls-2,.cls-4{fill:#fff;}.cls-3{clip-path:url(#clip-path);}.cls-4{stroke:#000;stroke-width:3.46px;}.cls-4,.cls-6{stroke-miterlimit:10;}.cls-5{clip-path:url(#clip-path-2);}.cls-6{stroke:#fff;stroke-width:2.59px;}</style><clipPath id="clip-path"><circle class="cls-1" cx="360" cy="360" r="360"/></clipPath><clipPath id="clip-path-2"><path class="cls-1" d="M368.22,194.07c-2.67-11.75-.14-22.72,4.68-30.16a8.28,8.28,0,0,1,13-1.17C406.81,184.93,411,179.4,421.72,183c26.09,8.82,68.37,65.34,88.23,93.57a64.84,64.84,0,0,1,11.75,34.51l1.12,26.21A64.8,64.8,0,0,0,555.75,391L770,511.71,680.62,613.77,455.74,429.26c-53,0-125.39-64.21-125.39-64.21L205.61,267.6a17.3,17.3,0,1,1,21.3-27.27L299,296.46a3.13,3.13,0,0,0,4.83-3.64h0a3.13,3.13,0,0,0-1-1.32L197.28,210.81a17.3,17.3,0,0,1,21-27.47l95.41,73a3.13,3.13,0,0,0,5-2.87l-.07-.5a3.12,3.12,0,0,0-1.21-2.11L206.24,166.69A17.3,17.3,0,0,1,227,139L341.52,226.2a3.13,3.13,0,0,0,5-2.3l.12-2a3.11,3.11,0,0,0-1.21-2.67l-77.86-60a17.3,17.3,0,1,1,21.12-27.4l79.51,62.21"/></clipPath></defs><title>closingceremony</title><g id="Layer_1" data-name="Layer 1"><path class="cls-2" d="M360,719.5A359.59,359.59,0,0,1,220.07,28.75a359.59,359.59,0,0,1,279.86,662.5A357.17,357.17,0,0,1,360,719.5Z"/><path d="M360,1A359.1,359.1,0,0,1,499.74,690.79,359.1,359.1,0,0,1,220.26,29.21,356.74,356.74,0,0,1,360,1m0-1C161.18,0,0,161.18,0,360S161.18,720,360,720,720,558.82,720,360,558.82,0,360,0Z"/><circle cx="360" cy="360" r="360"/></g><g id="Layer_2" data-name="Layer 2"><g class="cls-3"><path class="cls-4" d="M368.22,194.07c-2.67-11.75-.14-22.72,4.68-30.16a8.28,8.28,0,0,1,13-1.17C406.81,184.93,411,179.4,421.72,183c27.92,9.44,74.4,73.52,92.07,99.07a43.24,43.24,0,0,1,7.64,22.74L523,341.33a57.61,57.61,0,0,0,29.27,47.72L770,511.71,680.62,613.77,455.74,429.26c-53,0-125.39-64.21-125.39-64.21L205.61,267.6a17.3,17.3,0,1,1,21.3-27.27L299,296.46a3.13,3.13,0,0,0,4.83-3.64h0a3.13,3.13,0,0,0-1-1.32L197.28,210.81a17.3,17.3,0,0,1,21-27.47l95.41,73a3.13,3.13,0,0,0,5-2.87l-.07-.5a3.12,3.12,0,0,0-1.21-2.11L206.24,166.69A17.3,17.3,0,0,1,227,139L341.52,226.2a3.13,3.13,0,0,0,5-2.3l.12-2a3.11,3.11,0,0,0-1.21-2.67l-77.86-60a17.3,17.3,0,1,1,21.12-27.4l79.51,62.21"/><path class="cls-4" d="M368.22,194.07c2.14,9.39,7.62,19.29,17.75,28.18,27.53,4.25,23.53,20.25,23.53,20.25-24,49-16,94.5-16,94.5l-25.37-9.23"/><g class="cls-5"><path d="M347.34,275.88s-18.88-13.78-38.27-15l-79.18-61a17.3,17.3,0,0,0-21.12,27.4l77.87,60a3.13,3.13,0,0,1,1.21,2.67l-.12,2a3.13,3.13,0,0,1-5,2.3L168.22,207.08a17.3,17.3,0,0,0-20.79,27.65L258.64,318.9a3.13,3.13,0,0,1,1.22,2.11l.06.5a3.13,3.13,0,0,1-5,2.87l-95.41-73a17.3,17.3,0,0,0-21,27.47L244,359.54a3.1,3.1,0,0,1,1,1.32h0a3.13,3.13,0,0,1-4.83,3.64l-72.1-56.13a17.3,17.3,0,0,0-21.3,27.27l124.74,97.45s72.35,64.21,125.4,64.21L621.81,681.81l89.38-102.06L479.5,449.23a28.8,28.8,0,0,1-14.64-23.86l-2.43-56.62a28.7,28.7,0,0,0-5-15c-15.35-22.48-65.19-92.75-94.53-102.67C352.15,247.45,348,253,327.08,230.8c-3.67-3.88-8.52-1.87-13,1.1-7.14,4.77-11.76,16.3-4.84,29"/></g><path class="cls-4" d="M296.38,273.6l-79.17-61A17.3,17.3,0,1,0,196.09,240L274,300a3.13,3.13,0,0,1,1.21,2.67l-.12,2a3.13,3.13,0,0,1-5,2.3L155.54,219.77a17.3,17.3,0,0,0-20.8,27.65L246,331.59a3.12,3.12,0,0,1,1.21,2.11l.07.5a3.13,3.13,0,0,1-5,2.87l-95.41-73a17.3,17.3,0,0,0-21,27.46l105.55,80.69a3.16,3.16,0,0,1,1,1.33h0a3.13,3.13,0,0,1-4.83,3.63l-72.1-56.12a17.3,17.3,0,1,0-21.3,27.26l124.74,97.45S331.2,510,384.24,510L609.12,694.5,698.5,592.44,466.81,461.91a28.79,28.79,0,0,1-14.63-23.86l-2.43-56.61a28.82,28.82,0,0,0-5-15c-15.36-22.47-65.2-92.74-94.54-102.66-10.75-3.64-14.91,1.88-35.83-20.28-3.67-3.89-8.52-1.87-13,1.1-7.14,4.76-11.75,16.29-4.83,29l34.9,23.93"/></g><line class="cls-6" x1="198" y1="560.38" x2="241.5" y2="493.63"/><line class="cls-6" x1="276" y1="507.88" x2="252" y2="585.88"/><line class="cls-6" x1="214.5" y1="467.38" x2="151.5" y2="514.63"/><line class="cls-6" x1="521" y1="101.63" x2="477.5" y2="168.38"/><line class="cls-6" x1="443" y1="154.13" x2="467" y2="76.13"/><line class="cls-6" x1="504.5" y1="194.63" x2="567.5" y2="147.38"/></g></svg>