<svg xmlns="http://www.w3.org/2000/svg" xmlns:xlink="http://www.w3.org/1999/xlink" viewBox="0 0 720 720"><defs><style>.cls-1{fill:none;}.cls-2{fill:#fff;}.cls-3{clip-path:url(#clip-path);}.cls-4{stroke:#e70000;}.cls-4,.cls-6,.cls-8{stroke-miterlimit:10;stroke-width:2px;}.cls-5,.cls-6{fill:#0016ff;}.cls-6,.cls-8{stroke:#fff;}.cls-7,.cls-8{fill:#e70000;}</style><clipPath id="clip-path"><circle class="cls-1" cx="360" cy="360" r="360"/></clipPath></defs><title>cupstacking</title><g id="Layer_1" data-name="Layer 1"><path class="cls-2" d="M360,719.5A359.59,359.59,0,0,1,220.07,28.75a359.59,359.59,0,0,1,279.86,662.5A357.17,357.17,0,0,1,360,719.5Z"/><path d="M360,1A359.1,359.1,0,0,1,499.74,690.79,359.1,359.1,0,0,1,220.26,29.21,356.74,356.74,0,0,1,360,1m0-1C161.18,0,0,161.18,0,360S161.18,720,360,720,720,558.82,720,360,558.82,0,360,0Z"/></g><g id="Layer_2" data-name="Layer 2"><g class="cls-3"><rect class="cls-4" x="-38" y="468" width="756" height="271"/><path class="cls-5" d="M260.66,397.55s-16.86-12.86-58-12.86c-38.63,0-58.23,12.11-58.23,12.11L130.13,536.57h145Z"/><path class="cls-5" d="M280.91,576.8c0-17-36.05-31.2-78.92-31.2s-77.62,13.76-77.62,30.75"/><path class="cls-2" d="M202,609.35c-44.79,0-79.87-14.5-79.87-33a2.25,2.25,0,0,1,4.5,0c0,13.76,30.28,28.5,75.37,28.5,20.62,0,40.06-3.07,54.74-8.64,13.94-5.28,21.93-12.36,21.93-19.41a2.25,2.25,0,0,1,4.5,0C283.16,597.17,241.89,609.35,202,609.35Z"/><path d="M124.37,574.47a1.88,1.88,0,0,1,1.87,1.88c0,7.16,7.71,14.4,21.15,19.85,14.33,5.82,33.73,9,54.6,9,20.67,0,40.15-3.07,54.87-8.65C271,591.22,279,584,279,576.8a1.88,1.88,0,0,1,3.75,0c0,9.16-9,17.5-25.24,23.49-15,5.52-35.26,8.68-55.55,8.68-21.67,0-41.81-3.41-56.71-9.61-14.7-6.11-22.79-14.28-22.79-23a1.88,1.88,0,0,1,1.88-1.88m0-.75a2.63,2.63,0,0,0-2.63,2.63c0,18.71,35.25,33.37,80.25,33.37,40.08,0,81.54-12.31,81.54-32.92a2.63,2.63,0,0,0-5.25,0c0,6.89-7.9,13.84-21.68,19.06-14.64,5.56-34,8.61-54.61,8.61-44.86,0-75-14.54-75-28.12a2.62,2.62,0,0,0-2.62-2.63Z"/><path class="cls-5" d="M124.37,576.35c0,17,34.75,30.75,77.62,30.75s78.92-13.32,78.92-30.3"/><polyline class="cls-5" points="276.63 536.29 281.11 576.97 124.16 576.97 128.65 536.29"/><path class="cls-6" d="M276.15,527.61a128.64,128.64,0,0,1-17.4,8,153.61,153.61,0,0,1-18.23,5.88l-2.31.61-2.34.51c-1.56.34-3.11.73-4.67,1-3.15.55-6.27,1.2-9.45,1.55a150,150,0,0,1-19.06,1.31,147.77,147.77,0,0,1-37.79-5.28,177.68,177.68,0,0,1-18.24-5.88,155.7,155.7,0,0,1-17.53-7.77"/><path class="cls-6" d="M129.13,527.61a162.7,162.7,0,0,0,35.52,14.55c3.08.92,6.21,1.63,9.34,2.36,1.57.33,3.15.6,4.73.91l2.37.45,2.38.34,4.78.67,4.8.43c.8.07,1.6.15,2.4.2l2.41.08,4.83.16a148.66,148.66,0,0,0,19.21-1.43c3.2-.37,6.34-1,9.51-1.62,1.57-.31,3.13-.71,4.69-1.06l2.35-.56,2.31-.66A151.43,151.43,0,0,0,259,536.21a128.74,128.74,0,0,0,17.18-8.6"/><path class="cls-6" d="M129.13,537.38a163.59,163.59,0,0,0,35.58,14.33c3.08.91,6.21,1.59,9.33,2.33,1.57.33,3.15.61,4.72.91l2.37.45,2.38.34,4.76.67,4.8.43c.8.07,1.6.16,2.4.21l2.4.08,4.82.16a148.21,148.21,0,0,0,19.18-1.44c3.19-.37,6.33-1,9.48-1.61,1.58-.32,3.13-.72,4.7-1.07l2.34-.54,2.32-.64a154.07,154.07,0,0,0,18.22-6.12,130.4,130.4,0,0,0,17.22-8.49,128.92,128.92,0,0,1-17.36,8.16,153.21,153.21,0,0,1-18.21,6l-2.32.62-2.33.53c-1.56.34-3.12.73-4.68,1-3.15.55-6.28,1.2-9.46,1.54a147.09,147.09,0,0,1-19.1,1.31l-4.79-.12-2.39-.06c-.8,0-1.59-.13-2.39-.2l-4.78-.39-4.74-.64-2.38-.32-2.35-.44c-1.57-.29-3.15-.55-4.72-.88-3.11-.71-6.24-1.38-9.31-2.26a177.12,177.12,0,0,1-18.22-6,155,155,0,0,1-17.49-7.88"/><path class="cls-5" d="M574.41,397.55s-16.86-12.86-58-12.86c-38.63,0-58.23,12.11-58.23,12.11L443.88,536.57h145Z"/><path class="cls-5" d="M594.66,576.8c0-17-36-31.2-78.92-31.2s-77.62,13.76-77.62,30.75"/><path class="cls-2" d="M515.74,609.35c-44.79,0-79.87-14.5-79.87-33a2.25,2.25,0,0,1,4.5,0c0,13.76,30.28,28.5,75.37,28.5,20.62,0,40.06-3.07,54.74-8.64,13.94-5.28,21.93-12.36,21.93-19.41a2.25,2.25,0,0,1,4.5,0C596.91,597.17,555.64,609.35,515.74,609.35Z"/><path d="M438.12,574.47a1.88,1.88,0,0,1,1.87,1.88c0,7.16,7.71,14.4,21.15,19.85,14.33,5.82,33.73,9,54.6,9,20.67,0,40.15-3.07,54.87-8.65,14.09-5.35,22.17-12.55,22.17-19.77a1.88,1.88,0,0,1,3.75,0c0,9.16-9,17.5-25.24,23.49-15,5.52-35.26,8.68-55.55,8.68-21.67,0-41.81-3.41-56.71-9.61-14.7-6.11-22.79-14.28-22.79-23a1.88,1.88,0,0,1,1.88-1.88m0-.75a2.63,2.63,0,0,0-2.63,2.63c0,18.71,35.25,33.37,80.25,33.37,40.08,0,81.54-12.31,81.54-32.92a2.63,2.63,0,0,0-5.25,0c0,6.89-7.9,13.84-21.68,19.06-14.64,5.56-34,8.61-54.61,8.61-44.86,0-75-14.54-75-28.12a2.62,2.62,0,0,0-2.62-2.63Z"/><path class="cls-5" d="M438.12,576.35c0,17,34.75,30.75,77.62,30.75s78.92-13.32,78.92-30.3"/><polyline class="cls-5" points="590.38 536.29 594.86 576.97 437.91 576.97 442.4 536.29"/><path class="cls-6" d="M589.9,527.61a128.64,128.64,0,0,1-17.4,8,153.61,153.61,0,0,1-18.23,5.88l-2.31.61-2.34.51c-1.56.34-3.11.73-4.67,1-3.15.55-6.27,1.2-9.45,1.55a150,150,0,0,1-19.06,1.31,147.77,147.77,0,0,1-37.79-5.28,177.68,177.68,0,0,1-18.24-5.88,155.7,155.7,0,0,1-17.53-7.77"/><path class="cls-6" d="M442.88,527.61a162.7,162.7,0,0,0,35.52,14.55c3.08.92,6.21,1.63,9.34,2.36,1.57.33,3.15.6,4.73.91l2.37.45,2.38.34,4.78.67,4.8.43c.8.07,1.6.15,2.4.2l2.41.08,4.83.16a148.66,148.66,0,0,0,19.21-1.43c3.2-.37,6.34-1,9.51-1.62,1.57-.31,3.13-.71,4.69-1.06l2.35-.56,2.31-.66a151.43,151.43,0,0,0,18.21-6.22,128.74,128.74,0,0,0,17.18-8.6"/><path class="cls-6" d="M442.88,537.38a163.59,163.59,0,0,0,35.58,14.33c3.08.91,6.21,1.59,9.33,2.33,1.57.33,3.15.61,4.72.91l2.37.45,2.38.34,4.76.67,4.8.43c.8.07,1.6.16,2.4.21l2.4.08,4.82.16a148.21,148.21,0,0,0,19.18-1.44c3.19-.37,6.33-1,9.48-1.61,1.58-.32,3.13-.72,4.7-1.07l2.34-.54,2.32-.64a154.07,154.07,0,0,0,18.22-6.12,130.4,130.4,0,0,0,17.22-8.49,128.92,128.92,0,0,1-17.36,8.16,153.21,153.21,0,0,1-18.21,6l-2.32.62-2.33.53c-1.56.34-3.12.73-4.68,1-3.15.55-6.28,1.2-9.46,1.54a147.09,147.09,0,0,1-19.1,1.31l-4.79-.12-2.39-.06c-.8,0-1.59-.13-2.39-.2l-4.78-.39-4.74-.64-2.38-.32-2.35-.44c-1.57-.29-3.15-.55-4.72-.88-3.11-.71-6.24-1.38-9.31-2.26a177.12,177.12,0,0,1-18.22-6,155,155,0,0,1-17.49-7.88"/><path class="cls-5" d="M417.53,422.3s-16.85-12.86-58-12.86c-38.63,0-58.23,12.11-58.23,12.11L287,561.32H432Z"/><path class="cls-5" d="M437.78,601.55c0-17-36-31.2-78.91-31.2s-77.63,13.76-77.63,30.75"/><path class="cls-2" d="M358.87,634.1c-44.79,0-79.88-14.5-79.88-33a2.25,2.25,0,0,1,4.5,0c0,13.76,30.29,28.5,75.38,28.5,20.62,0,40.06-3.07,54.73-8.64,13.94-5.28,21.93-12.36,21.93-19.41a2.25,2.25,0,0,1,4.5,0C440,621.92,398.76,634.1,358.87,634.1Z"/><path d="M281.24,599.22a1.88,1.88,0,0,1,1.88,1.88c0,7.16,7.7,14.4,21.14,19.85,14.34,5.82,33.73,9,54.61,9,20.66,0,40.15-3.07,54.87-8.65,14.09-5.35,22.17-12.55,22.17-19.77a1.88,1.88,0,0,1,3.75,0c0,9.16-9,17.5-25.25,23.49-15,5.52-35.26,8.68-55.54,8.68-21.67,0-41.81-3.41-56.72-9.61-14.69-6.11-22.78-14.28-22.78-23a1.88,1.88,0,0,1,1.87-1.88m0-.75a2.62,2.62,0,0,0-2.62,2.63c0,18.71,35.25,33.37,80.25,33.37,40.08,0,81.54-12.31,81.54-32.92a2.63,2.63,0,0,0-5.25,0c0,6.89-7.91,13.84-21.69,19.06-14.63,5.56-34,8.61-54.6,8.61-44.87,0-75-14.54-75-28.12a2.63,2.63,0,0,0-2.63-2.63Z"/><path class="cls-5" d="M281.24,601.1c0,17,34.76,30.75,77.63,30.75s78.91-13.32,78.91-30.3"/><polyline class="cls-5" points="433.5 561.04 437.99 601.72 281.04 601.72 285.53 561.04"/><path class="cls-6" d="M433,552.36a128.76,128.76,0,0,1-17.41,8,153.45,153.45,0,0,1-18.22,5.88l-2.32.61-2.34.51c-1.56.34-3.1.73-4.67,1-3.14.55-6.27,1.2-9.44,1.55a150.23,150.23,0,0,1-19.07,1.31A147.83,147.83,0,0,1,321.77,566a176.71,176.71,0,0,1-18.23-5.88A156.65,156.65,0,0,1,286,552.36"/><path class="cls-6" d="M286,552.36a162.91,162.91,0,0,0,35.52,14.55c3.08.92,6.21,1.63,9.34,2.36,1.57.33,3.16.6,4.73.91l2.37.45,2.39.34,4.77.67,4.8.43c.8.07,1.6.15,2.41.2l2.41.08,4.82.16a148.81,148.81,0,0,0,19.22-1.43c3.19-.37,6.34-1,9.5-1.62,1.57-.31,3.13-.71,4.7-1.06l2.34-.56,2.32-.66A151.43,151.43,0,0,0,415.85,561a129.34,129.34,0,0,0,17.18-8.6"/><path class="cls-6" d="M286,562.13a163.79,163.79,0,0,0,35.58,14.33c3.08.91,6.21,1.59,9.34,2.33,1.56.33,3.14.61,4.72.91l2.36.45,2.38.34,4.77.67,4.79.43c.8.07,1.6.16,2.4.21l2.41.08,4.81.16a148.36,148.36,0,0,0,19.19-1.44c3.18-.37,6.32-1,9.48-1.61,1.57-.32,3.13-.72,4.69-1.07l2.34-.54,2.32-.64a153.46,153.46,0,0,0,18.22-6.12A131.13,131.13,0,0,0,433,562.13a130.08,130.08,0,0,1-17.36,8.16,154,154,0,0,1-18.22,6l-2.31.62-2.34.53c-1.56.34-3.11.73-4.68,1-3.15.55-6.28,1.2-9.46,1.54a147,147,0,0,1-19.1,1.31l-4.79-.12-2.39-.06c-.8,0-1.59-.13-2.39-.2l-4.77-.39-4.75-.64-2.37-.32-2.36-.44c-1.57-.29-3.15-.55-4.71-.88-3.12-.71-6.24-1.38-9.32-2.26a177.12,177.12,0,0,1-18.22-6A155.83,155.83,0,0,1,286,562.13"/><path class="cls-7" d="M499.66,226.55s-16.86-12.86-58-12.86c-38.63,0-58.23,12.11-58.23,12.11L369.13,365.57h145Z"/><path class="cls-7" d="M519.91,405.8c0-17-36-31.2-78.92-31.2s-77.62,13.76-77.62,30.75"/><path class="cls-2" d="M441,438.35c-44.79,0-79.87-14.5-79.87-33a2.25,2.25,0,0,1,4.5,0c0,13.76,30.28,28.5,75.37,28.5,20.62,0,40.06-3.07,54.74-8.64,13.94-5.28,21.93-12.36,21.93-19.41a2.25,2.25,0,0,1,4.5,0C522.16,426.17,480.89,438.35,441,438.35Z"/><path d="M363.37,403.47a1.88,1.88,0,0,1,1.87,1.88c0,7.16,7.71,14.4,21.15,19.85,14.33,5.82,33.73,9,54.6,9,20.67,0,40.15-3.07,54.87-8.65C510,420.22,518,413,518,405.8a1.88,1.88,0,0,1,3.75,0c0,9.16-9,17.5-25.24,23.49-15,5.52-35.26,8.68-55.55,8.68-21.67,0-41.81-3.41-56.71-9.61-14.7-6.11-22.79-14.28-22.79-23a1.88,1.88,0,0,1,1.88-1.88m0-.75a2.63,2.63,0,0,0-2.63,2.63c0,18.71,35.25,33.37,80.25,33.37,40.08,0,81.54-12.31,81.54-32.92a2.63,2.63,0,0,0-5.25,0c0,6.89-7.9,13.84-21.68,19.06-14.64,5.56-34,8.61-54.61,8.61-44.86,0-75-14.54-75-28.12a2.62,2.62,0,0,0-2.62-2.63Z"/><path class="cls-7" d="M363.37,405.35c0,17,34.75,30.75,77.62,30.75s78.92-13.32,78.92-30.3"/><polyline class="cls-7" points="515.63 365.29 520.11 405.97 363.16 405.97 367.65 365.29"/><path class="cls-8" d="M515.15,356.61a128.64,128.64,0,0,1-17.4,8,153.61,153.61,0,0,1-18.23,5.88l-2.31.61-2.34.51c-1.56.34-3.11.73-4.67,1-3.15.55-6.27,1.2-9.45,1.55a150,150,0,0,1-19.06,1.31,147.77,147.77,0,0,1-37.79-5.28,177.68,177.68,0,0,1-18.24-5.88,155.7,155.7,0,0,1-17.53-7.77"/><path class="cls-8" d="M368.13,356.61a162.7,162.7,0,0,0,35.52,14.55c3.08.92,6.21,1.63,9.34,2.36,1.57.33,3.15.6,4.73.91l2.37.45,2.38.34,4.78.67,4.8.43c.8.07,1.6.15,2.4.2l2.41.08,4.83.16a148.66,148.66,0,0,0,19.21-1.43c3.2-.37,6.34-1,9.51-1.62,1.57-.31,3.13-.71,4.69-1.06l2.35-.56,2.31-.66A151.43,151.43,0,0,0,498,365.21a128.74,128.74,0,0,0,17.18-8.6"/><path class="cls-8" d="M368.13,366.38a163.59,163.59,0,0,0,35.58,14.33c3.08.91,6.21,1.59,9.33,2.33,1.57.33,3.15.61,4.72.91l2.37.45,2.38.34,4.76.67,4.8.43c.8.07,1.6.16,2.4.21l2.4.08,4.82.16a148.21,148.21,0,0,0,19.18-1.44c3.19-.37,6.33-1,9.48-1.61,1.58-.32,3.13-.72,4.7-1.07l2.34-.54,2.32-.64a154.07,154.07,0,0,0,18.22-6.12,130.4,130.4,0,0,0,17.22-8.49,128.92,128.92,0,0,1-17.36,8.16,153.21,153.21,0,0,1-18.21,6l-2.32.62-2.33.53c-1.56.34-3.12.73-4.68,1-3.15.55-6.28,1.2-9.46,1.54a147.09,147.09,0,0,1-19.1,1.31l-4.79-.12-2.39-.06c-.8-.05-1.59-.13-2.39-.2l-4.78-.39-4.74-.64-2.38-.32-2.35-.44c-1.57-.29-3.15-.55-4.72-.88-3.11-.71-6.24-1.38-9.31-2.26a177.12,177.12,0,0,1-18.22-6,155,155,0,0,1-17.49-7.88"/><path class="cls-7" d="M335.41,226.55s-16.86-12.86-58-12.86c-38.63,0-58.23,12.11-58.23,12.11L204.88,365.57h145Z"/><path class="cls-7" d="M355.66,405.8c0-17-36.05-31.2-78.92-31.2s-77.62,13.76-77.62,30.75"/><path class="cls-2" d="M276.74,438.35c-44.79,0-79.87-14.5-79.87-33a2.25,2.25,0,0,1,4.5,0c0,13.76,30.28,28.5,75.37,28.5,20.62,0,40.06-3.07,54.74-8.64,13.94-5.28,21.93-12.36,21.93-19.41a2.25,2.25,0,0,1,4.5,0C357.91,426.17,316.64,438.35,276.74,438.35Z"/><path d="M199.12,403.47a1.88,1.88,0,0,1,1.87,1.88c0,7.16,7.71,14.4,21.15,19.85,14.33,5.82,33.73,9,54.6,9,20.67,0,40.15-3.07,54.87-8.65,14.09-5.35,22.17-12.55,22.17-19.77a1.88,1.88,0,0,1,3.75,0c0,9.16-9,17.5-25.24,23.49-15,5.52-35.26,8.68-55.55,8.68-21.67,0-41.81-3.41-56.71-9.61-14.7-6.11-22.79-14.28-22.79-23a1.88,1.88,0,0,1,1.88-1.88m0-.75a2.63,2.63,0,0,0-2.63,2.63c0,18.71,35.25,33.37,80.25,33.37,40.08,0,81.54-12.31,81.54-32.92a2.63,2.63,0,0,0-5.25,0c0,6.89-7.9,13.84-21.68,19.06-14.64,5.56-34,8.61-54.61,8.61-44.86,0-75-14.54-75-28.12a2.62,2.62,0,0,0-2.62-2.63Z"/><path class="cls-7" d="M199.12,405.35c0,17,34.75,30.75,77.62,30.75s78.92-13.32,78.92-30.3"/><polyline class="cls-7" points="351.38 365.29 355.86 405.97 198.91 405.97 203.4 365.29"/><path class="cls-8" d="M350.9,356.61a128.64,128.64,0,0,1-17.4,8,153.61,153.61,0,0,1-18.23,5.88l-2.31.61-2.34.51c-1.56.34-3.11.73-4.67,1-3.15.55-6.27,1.2-9.45,1.55a150,150,0,0,1-19.06,1.31,147.77,147.77,0,0,1-37.79-5.28,177.68,177.68,0,0,1-18.24-5.88,155.7,155.7,0,0,1-17.53-7.77"/><path class="cls-8" d="M203.88,356.61a162.7,162.7,0,0,0,35.52,14.55c3.08.92,6.21,1.63,9.34,2.36,1.57.33,3.15.6,4.73.91l2.37.45,2.38.34,4.78.67,4.8.43c.8.07,1.6.15,2.4.2l2.41.08,4.83.16a148.66,148.66,0,0,0,19.21-1.43c3.2-.37,6.34-1,9.51-1.62,1.57-.31,3.13-.71,4.69-1.06l2.35-.56,2.31-.66a151.43,151.43,0,0,0,18.21-6.22,128.74,128.74,0,0,0,17.18-8.6"/><path class="cls-8" d="M203.88,366.38a163.59,163.59,0,0,0,35.58,14.33c3.08.91,6.21,1.59,9.33,2.33,1.57.33,3.15.61,4.72.91l2.37.45,2.38.34,4.76.67,4.8.43c.8.07,1.6.16,2.4.21l2.4.08,4.82.16a148.21,148.21,0,0,0,19.18-1.44c3.19-.37,6.33-1,9.48-1.61,1.58-.32,3.13-.72,4.7-1.07l2.34-.54,2.32-.64a154.07,154.07,0,0,0,18.22-6.12,130.4,130.4,0,0,0,17.22-8.49,128.92,128.92,0,0,1-17.36,8.16,153.21,153.21,0,0,1-18.21,6l-2.32.62-2.33.53c-1.56.34-3.12.73-4.68,1-3.15.55-6.28,1.2-9.46,1.54a147.09,147.09,0,0,1-19.1,1.31l-4.79-.12-2.39-.06c-.8-.05-1.59-.13-2.39-.2l-4.78-.39-4.74-.64-2.38-.32-2.35-.44c-1.57-.29-3.15-.55-4.72-.88-3.11-.71-6.24-1.38-9.31-2.26a177.12,177.12,0,0,1-18.22-6,155,155,0,0,1-17.49-7.88"/><path class="cls-5" d="M417.53,48.8s-16.85-12.86-58-12.86c-38.63,0-58.23,12.11-58.23,12.11L287,187.82H432Z"/><path class="cls-5" d="M437.78,228.05c0-17-36-31.2-78.91-31.2s-77.63,13.76-77.63,30.75"/><path class="cls-2" d="M358.87,260.6c-44.79,0-79.88-14.5-79.88-33a2.25,2.25,0,0,1,4.5,0c0,13.76,30.29,28.5,75.38,28.5,20.62,0,40.06-3.07,54.73-8.64,13.94-5.28,21.93-12.36,21.93-19.41a2.25,2.25,0,1,1,4.5,0C440,248.42,398.76,260.6,358.87,260.6Z"/><path d="M281.24,225.72a1.88,1.88,0,0,1,1.88,1.88c0,7.16,7.7,14.4,21.14,19.85,14.34,5.82,33.73,9,54.61,9,20.66,0,40.15-3.07,54.87-8.65,14.09-5.35,22.17-12.55,22.17-19.77a1.88,1.88,0,0,1,3.75,0c0,9.16-9,17.5-25.25,23.49-15,5.52-35.26,8.68-55.54,8.68-21.67,0-41.81-3.41-56.72-9.61-14.69-6.11-22.78-14.28-22.78-23a1.88,1.88,0,0,1,1.87-1.88m0-.75a2.62,2.62,0,0,0-2.62,2.63c0,18.71,35.25,33.37,80.25,33.37,40.08,0,81.54-12.31,81.54-32.92a2.63,2.63,0,0,0-5.25,0c0,6.89-7.91,13.84-21.69,19.06-14.63,5.56-34,8.61-54.6,8.61-44.87,0-75-14.54-75-28.12a2.63,2.63,0,0,0-2.63-2.63Z"/><path class="cls-5" d="M281.24,227.6c0,17,34.76,30.75,77.63,30.75s78.91-13.32,78.91-30.3"/><polyline class="cls-5" points="433.5 187.54 437.99 228.22 281.04 228.22 285.53 187.54"/><path class="cls-6" d="M433,178.86a128.76,128.76,0,0,1-17.41,8,153.45,153.45,0,0,1-18.22,5.88l-2.32.61-2.34.51c-1.56.34-3.1.73-4.67,1-3.14.55-6.27,1.2-9.44,1.55a150.23,150.23,0,0,1-19.07,1.31,147.83,147.83,0,0,1-37.79-5.28,176.71,176.71,0,0,1-18.23-5.88A156.65,156.65,0,0,1,286,178.86"/><path class="cls-6" d="M286,178.86a162.91,162.91,0,0,0,35.52,14.55c3.08.92,6.21,1.63,9.34,2.36,1.57.33,3.16.6,4.73.91l2.37.45,2.39.34,4.77.67,4.8.43c.8.07,1.6.15,2.41.2l2.41.08,4.82.16a148.81,148.81,0,0,0,19.22-1.43c3.19-.37,6.34-1,9.5-1.62,1.57-.31,3.13-.71,4.7-1.06l2.34-.56,2.32-.66a151.43,151.43,0,0,0,18.21-6.22,129.34,129.34,0,0,0,17.18-8.6"/><path class="cls-6" d="M286,188.63A163.79,163.79,0,0,0,321.58,203c3.08.91,6.21,1.59,9.34,2.33,1.56.33,3.14.61,4.72.91l2.36.45,2.38.34,4.77.67,4.79.43c.8.07,1.6.16,2.4.21l2.41.08,4.81.16a148.36,148.36,0,0,0,19.19-1.44c3.18-.37,6.32-1,9.48-1.61,1.57-.32,3.13-.72,4.69-1.07l2.34-.54,2.32-.64a153.46,153.46,0,0,0,18.22-6.12A131.13,131.13,0,0,0,433,188.63a130.08,130.08,0,0,1-17.36,8.16,154,154,0,0,1-18.22,6l-2.31.62-2.34.53c-1.56.34-3.11.73-4.68,1-3.15.55-6.28,1.2-9.46,1.54a147,147,0,0,1-19.1,1.31l-4.79-.12-2.39-.06c-.8-.05-1.59-.13-2.39-.2l-4.77-.39-4.75-.64-2.37-.32-2.36-.44c-1.57-.29-3.15-.55-4.71-.88-3.12-.71-6.24-1.38-9.32-2.26a177.12,177.12,0,0,1-18.22-6A155.83,155.83,0,0,1,286,188.63"/></g></g></svg>