<svg xmlns="http://www.w3.org/2000/svg" xmlns:xlink="http://www.w3.org/1999/xlink" viewBox="0 0 720 720"><defs><style>.cls-1,.cls-5{fill:none;}.cls-2{fill:#fff;}.cls-3{clip-path:url(#clip-path);}.cls-4{fill:#711ed6;}.cls-5{stroke:#e70000;}.cls-5,.cls-8{stroke-miterlimit:10;stroke-width:1.43px;}.cls-6{fill:#e70000;}.cls-7,.cls-8{fill:#0016ff;}.cls-8{stroke:#fff;}</style><clipPath id="clip-path"><circle class="cls-1" cx="360" cy="360" r="360"/></clipPath></defs><title>dinner</title><g id="Layer_1" data-name="Layer 1"><path class="cls-2" d="M360,719.5A359.59,359.59,0,0,1,220.07,28.75a359.59,359.59,0,0,1,279.86,662.5A357.17,357.17,0,0,1,360,719.5Z"/><path d="M360,1A359.1,359.1,0,0,1,499.74,690.79,359.1,359.1,0,0,1,220.26,29.21,356.74,356.74,0,0,1,360,1m0-1C161.18,0,0,161.18,0,360S161.18,720,360,720,720,558.82,720,360,558.82,0,360,0Z"/></g><g id="Layer_2" data-name="Layer 2"><g class="cls-3"><rect class="cls-4" width="721.32" height="749.01"/><path d="M479.84,632.64a121.76,121.76,0,0,1-39.17,5.09c-43.19-1.8-70.35-29.43-82.95-46.23-2.72-3.64-4.77-6.75-6.15-9s-2.16-3.76-2.16-3.76-112.7-165.26-175.57-260c42.89-76.9,115.57-139.5,198.62-152a195.89,195.89,0,0,1,104.16,12.39C559.46,213,617.6,301,619.05,395.55,620.52,491.38,563.33,582.73,479.84,632.64Z"/><path class="cls-5" d="M490.53,624.74v0Z"/><path class="cls-6" d="M529.08,349.23s20.72,12.85,27.35,33.16l-47.25,29.42S529.91,365.4,529.08,349.23Z"/><path class="cls-6" d="M506.7,419.27l53.05-30.66s17.4,25.28,10.36,51.39L503,435.44Z"/><path class="cls-6" d="M497.06,313.12,534.94,265s25.54,17,28.69,43.88l-64,20.68Z"/><path class="cls-6" d="M507.59,331.33,566.06,313s11.47,28.47-1.11,52.41l-29-30Z"/><path class="cls-6" d="M511.67,441.34,570.11,445s-11.19,36.47-26.53,45.18l-27.35-27.36Z"/><path class="cls-2" d="M572.05,391.79a108.94,108.94,0,0,0,7.39-10.7A110.66,110.66,0,0,0,420.85,233.35a110.45,110.45,0,0,1,101.62,6.89c38.13,23.17,63.64,68.43,58.83,110-1.18,10.39-10.26,18-14.54,28Z"/><path class="cls-2" d="M506.15,311a108.94,108.94,0,0,0,7.39-10.7,112.56,112.56,0,0,0,7.23-14A110.68,110.68,0,0,0,355,152.53,110.64,110.64,0,0,1,509,266.73a108.92,108.92,0,0,1-8.16,30.71Z"/><path class="cls-6" d="M572.05,397.52a108.94,108.94,0,0,0,7.39-10.7A110.66,110.66,0,0,0,420.85,239.08,110.64,110.64,0,0,1,574.92,353.29a108.94,108.94,0,0,1-8.16,30.7Z"/><path class="cls-2" d="M524.06,330.72a110.68,110.68,0,0,1,6.55,184.82c20.25-8.79,34.87-26,50.43-44,37.25-43,23.88-119.75-43.88-157.67-39.73-22.23-79.79-14.82-114.72,9.92A110.51,110.51,0,0,1,524.06,330.72Z"/><path class="cls-6" d="M524.06,336.45a110.69,110.69,0,0,1,6.55,184.83A110.66,110.66,0,1,0,422.44,329.56,110.48,110.48,0,0,1,524.06,336.45Z"/><path class="cls-6" d="M506.15,316.71a111.38,111.38,0,0,0,7.39-10.7,113.39,113.39,0,0,0,7.23-14A110.68,110.68,0,0,0,355,158.26,110.64,110.64,0,0,1,509,272.47a108.94,108.94,0,0,1-8.16,30.7Z"/><path class="cls-2" d="M531.71,329.66c1.27,83.4-39.11,168.78-108.09,215.59-22.43,15.22-44.92,30.72-70.25,41-2.72-3.64-4.77-6.75-6.15-9s-2.16-3.75-2.16-3.75-112.7-165.26-175.57-260c-10.15-15.3-23.65-36.2-30.52-46.82-21.37-33.07-26.81-46.81-22.69-58.75,22.94-66.38,102.72-97.1,168.84-107,74.57-11.24,141.8,20.31,187.15,73C508.54,215.94,530.82,271.57,531.71,329.66Z"/><path class="cls-7" d="M126.82,188.34l-5.59,3.95A13,13,0,0,1,126.82,188.34Z"/><path class="cls-2" d="M436.32,632.44C393.13,630.65,366,603,353.37,586.22c-2.72-3.64-4.77-6.75-6.15-9l78-34.51c-.09.14-.69,1-1.62,2.55C416,557.72,386.38,612.22,436.32,632.44Z"/><path d="M282.69,104.68a185.56,185.56,0,0,1,86.75,5.25,196.27,196.27,0,0,1,40.33,17.59,211.29,211.29,0,0,1,35.64,26q8.2,7.4,15.68,15.56c5,5.44,9.65,11.15,14.07,17a238,238,0,0,1,23,37.69,235.67,235.67,0,0,1,23.2,84.94A206.17,206.17,0,0,1,520.1,353a228.32,228.32,0,0,1-10.28,43,313.36,313.36,0,0,1-17.23,40.54c-6.59,13.1-14,25.74-21.78,38.1-3.89,6.18-7.89,12.28-11.93,18.35L452.77,502l-.19.28-.1.14a3.4,3.4,0,0,1-.34.43,4.85,4.85,0,0,1-1.08.84,14.15,14.15,0,0,1-1.46.73c-.9.41-1.77.75-2.65,1.08-1.74.66-3.47,1.27-5.19,1.87l-5.14,1.79-2.52.92c-.8.3-1.7.65-2.25.93-.06,0-.09.06-.07,0s0,0,0,.06l-.45.43a12.5,12.5,0,0,0-.88.9c-.58.61-1.15,1.26-1.69,1.95-1.1,1.35-2.16,2.79-3.22,4.26a72.06,72.06,0,0,1-7,8.74l-1.07,1-1.15,1c-.76.57-1.53,1.12-2.3,1.64-1.54,1-3.09,2-4.5,3a19.29,19.29,0,0,0-3.77,3.32,12.71,12.71,0,0,0-1.37,2c-.18.35-.35.72-.51,1.08a7.47,7.47,0,0,0-.34,1.07,26.62,26.62,0,0,0-.5,5.12c-.06,1.81-.09,3.66-.34,5.58a14.94,14.94,0,0,1-.66,2.92l-.13.36-.08.2a3.18,3.18,0,0,1-.16.32,4,4,0,0,1-.72.81,8.18,8.18,0,0,1-1.34.89c-1.73.92-3.43,1.55-5,2.31a10.1,10.1,0,0,0-2.07,1.2,1.4,1.4,0,0,0-.22.22h0l0,.16-.11.31c-.15.42-.31.83-.43,1.26a39.21,39.21,0,0,0-1.3,5.15c-1.27,7-.73,14.32.55,21.43a170.18,170.18,0,0,0,5.48,21.06,169,169,0,0,1-6.48-20.86A61.18,61.18,0,0,1,388.45,568a40.76,40.76,0,0,1,1.15-5.46c.11-.45.26-.9.4-1.34l.1-.34.06-.17a1.85,1.85,0,0,1,.13-.29,2.87,2.87,0,0,1,.64-.83,11.16,11.16,0,0,1,2.55-1.66c1.67-.85,3.37-1.55,4.82-2.4a5.5,5.5,0,0,0,.91-.63c.26-.28.12-.07.3-.6a11.31,11.31,0,0,0,.46-2.41c.17-1.7.14-3.49.14-5.31a29.32,29.32,0,0,1,.39-5.74c.91-4.18,3.94-7.29,6.94-9.52,1.5-1.15,3-2.16,4.47-3.2.72-.52,1.42-1,2.09-1.58l.93-.81.9-.89a68.87,68.87,0,0,0,6.37-8.45c1-1.5,2.09-3,3.24-4.52q.85-1.14,1.83-2.22c.32-.37.64-.73,1-1.08l.52-.53a4.18,4.18,0,0,1,.45-.4,5.4,5.4,0,0,1,.51-.32A25.11,25.11,0,0,1,432.5,506l2.58-1,5.11-1.93c1.69-.64,3.38-1.28,5-2,.82-.33,1.63-.68,2.37-1a9.29,9.29,0,0,0,1-.51c.1-.05.22-.19,0,0s-.21.28-.14.16l.1-.14.18-.29,5.91-9.15c3.91-6.11,7.76-12.25,11.5-18.45,14.9-24.8,28.4-50.53,37.31-77.88,2.22-6.82,4.22-13.72,5.86-20.69s3-14,3.9-21.1a199.41,199.41,0,0,0,1.1-42.79A234.79,234.79,0,0,0,470.1,189.81q-6.35-8.69-13.5-16.76t-15-15.45a212.08,212.08,0,0,0-34.25-26,192.81,192.81,0,0,0-39-18.28C341.08,103.87,311.56,101.16,282.69,104.68Z"/><path d="M521.62,407.77s-32,83.17-81.42,130.15-12.74,108.52,39.8,72.6,101-109.9,111.87-130,1.48-26.9-19.28-3.73c0,0,35.31-49.6-12.43-24.24,0,0,31.12-48.58-5.28-23C554.88,429.53,574.46,387,521.62,407.77Z"/><path class="cls-8" d="M539,421.45s-42.89,91.39-86.72,126.82-17.72,88.59,28,62.48,84.86-92.32,95.12-108.17.93-28-17.72-10.26c0,0,26.11-46.62-14.92-28.91,0,0,33.57-42.89,1.87-24.24C544.62,439.17,559.54,402.8,539,421.45Z"/></g></g></svg>