<svg xmlns="http://www.w3.org/2000/svg" xmlns:xlink="http://www.w3.org/1999/xlink" viewBox="0 0 720 720"><defs><style>.cls-1,.cls-7{fill:none;}.cls-2{fill:#fff;}.cls-3{clip-path:url(#clip-path);}.cls-12,.cls-4,.cls-5,.cls-6,.cls-8{fill:#0016ff;}.cls-4,.cls-5{stroke:#e70000;}.cls-10,.cls-11,.cls-12,.cls-4,.cls-5,.cls-6,.cls-7{stroke-miterlimit:10;}.cls-4{stroke-width:1.63px;}.cls-5{stroke-width:2.01px;}.cls-10,.cls-11,.cls-12,.cls-6{stroke:#fff;}.cls-6{stroke-width:1.27px;}.cls-7{stroke:#0016ff;stroke-width:3.81px;}.cls-9{fill:#e70000;}.cls-10{fill:#711ed6;}.cls-10,.cls-11,.cls-12{stroke-width:0.81px;}</style><clipPath id="clip-path"><circle class="cls-1" cx="360" cy="360" r="360"/></clipPath></defs><title>github</title><g id="Layer_1" data-name="Layer 1"><path class="cls-2" d="M360,719.5A359.59,359.59,0,0,1,220.07,28.75a359.59,359.59,0,0,1,279.86,662.5A357.17,357.17,0,0,1,360,719.5Z"/><path d="M360,1A359.1,359.1,0,0,1,499.74,690.79,359.1,359.1,0,0,1,220.26,29.21,356.74,356.74,0,0,1,360,1m0-1C161.18,0,0,161.18,0,360S161.18,720,360,720,720,558.82,720,360,558.82,0,360,0Z"/></g><g id="Layer_2" data-name="Layer 2"><g class="cls-3"><rect x="-30.94" y="-28.86" width="813.46" height="785.26"/><polyline class="cls-4" points="129.78 173.68 137.3 161.46 587.14 107.36 597.89 115.41"/><polyline class="cls-5" points="118.5 653.48 133.31 671.81 685.24 603.43 693 580.17"/><path class="cls-5" d="M685.24,586.68,126.45,654.34c-7.83.95-11.88-4.64-9-12.27l83.78-225c1.31-3.52,6.62-6.88,11.82-7.51l370.63-44.87c5.19-.63,10.68,1.42,12.21,4.59l97.57,203C696.73,579.21,693.08,585.73,685.24,586.68Z"/><path class="cls-2" d="M396.26,499.06c-6.93-12.65-9.44-11.94-14.3-16-3.63-7.15,12.66-25.27,39.73,2"/><path class="cls-6" d="M628.64,492,176.53,546.69c-6.7.81-10.54-3.16-8.57-8.74l38.16-108c1.31-3.72,6.74-7.24,12.09-7.89L579.28,378.3c5.34-.65,11,1.54,12.5,4.91l44.8,98C638.89,486.27,635.33,491.14,628.64,492Z"/><path class="cls-2" d="M453.72,595.32l-97,11.74c-7.62.92-13.51-4.11-13.1-11l2.72-45.51c.35-5.91,6.24-11.34,13.09-12.17l87.18-10.56c6.85-.83,13,3.14,13.77,8.92l5.61,44.5C466.86,588,461.34,594.4,453.72,595.32Z"/><line class="cls-7" x1="340.49" y1="583.21" x2="468.3" y2="567.74"/><line class="cls-7" x1="404.4" y1="575.76" x2="405.31" y2="603.83"/><path class="cls-8" d="M134.94,171.45l460.13-55.71c5.06-.61,9,2.55,8.92,7L597.07,360c-.09,3.23-3.62,6.25-7.87,6.77l-387.41,46.9c-4.26.52-8.42-1.57-9.29-4.68L128,180.41C126.78,176.08,129.88,172.06,134.94,171.45Z"/><path class="cls-9" d="M134.82,170.46,476.53,129,562,118.68l21.36-2.58L594,114.81a15.35,15.35,0,0,1,2.86-.18,10.38,10.38,0,0,1,2.94.59,8.1,8.1,0,0,1,4.5,4,7.68,7.68,0,0,1,.72,3c0,.55,0,1,0,1.42l0,1.34-.16,5.38-.31,10.75-.63,21.51-5,172-.63,21.5-.08,2.69c0,.47,0,.85-.06,1.39a5.45,5.45,0,0,1-.36,1.57,8.23,8.23,0,0,1-4.14,4.14,13.55,13.55,0,0,1-2.67,1,20.59,20.59,0,0,1-2.73.43l-5.33.64-42.72,5.17L454.67,383.5,283.82,404.31l-42.71,5.21-21.35,2.61-10.68,1.31-5.34.65c-.9.1-1.74.23-2.72.31a13.06,13.06,0,0,1-2.86-.18,9.25,9.25,0,0,1-5.23-2.6,6,6,0,0,1-.93-1.28,4.8,4.8,0,0,1-.33-.73l-.14-.39-.09-.32-.73-2.59L187.78,396l-5.85-20.71-11.7-41.4L146.86,251l-11.68-41.41-5.83-20.71-1.46-5.18-.73-2.58c-.12-.41-.24-.93-.34-1.43a8.79,8.79,0,0,1-.08-1.54,7.73,7.73,0,0,1,2.66-5.4A9.83,9.83,0,0,1,132,171.2,11.48,11.48,0,0,1,134.82,170.46Zm.24,2a9.74,9.74,0,0,0-2.33.6,7.89,7.89,0,0,0-2,1.24,5.68,5.68,0,0,0-2,4,7.26,7.26,0,0,0,.06,1.14c.08.38.15.73.29,1.19l.73,2.59,1.46,5.17,5.85,20.7,11.7,41.41,23.38,82.82,11.67,41.41,5.83,20.71,2.92,10.35.73,2.59.09.32.09.25a3,3,0,0,0,.21.49,5.43,5.43,0,0,0,.61.92,7.89,7.89,0,0,0,4.1,2.39A9,9,0,0,0,201,413c.81,0,1.75-.18,2.63-.27l5.34-.65,10.68-1.28L241,408.22l42.72-5.13,170.87-20.57L540,372.16,582.69,367l5.34-.65a15.65,15.65,0,0,0,2.57-.44,9,9,0,0,0,2.29-1.1,7.29,7.29,0,0,0,3-3.65,3.58,3.58,0,0,0,.22-1c0-.35,0-.87,0-1.3l.08-2.68.62-21.51,5-172,.63-21.51.31-10.75.15-5.38,0-1.34c0-.45,0-.92,0-1.27a5.63,5.63,0,0,0-.52-2.19,6,6,0,0,0-3.34-3,8.54,8.54,0,0,0-2.31-.46,14.86,14.86,0,0,0-2.5.17l-10.68,1.29-21.36,2.59-85.42,10.36Z"/><polygon class="cls-10" points="139.57 189.04 594.86 133.91 589.69 353.51 198.09 400.93 139.57 189.04"/><path class="cls-2" d="M332.9,350.21c-.11.35-.15,1.19-.21,1.42,0,0,.24-1.57.21-1.42Z"/><path class="cls-2" d="M129.92,19.85c-5.59.58-11.48.24-16.89,1.95C103,25,93.44,32.66,85,38.76c-4.43,3.19-41-25.37-44.16-20.88A29.88,29.88,0,0,0,37,25.09c-.93,2.71-.64,5.41-1,8.15s-1,5.77-.51,8.65,37.67,63.75,39.07,66.16c2.71,4.65,5.28,9.88,9.46,13.41a73.21,73.21,0,0,0,12.46,9c5.18,2.76,11.2,3.22,16.77,4.75-4.23-3.09-10.49-3-15.11-5.82a59.28,59.28,0,0,1-14-12.07A62.86,62.86,0,0,1,79.37,109c-1.6-3.12-39.52-65-39.43-68.65,3.62,7.76,47.25,72.67,53.59,78.12,6.52,5.59,14.1,9.55,21.49,13.82,13.85,8,93,80.34,107.18,87.8,13.27,7,26.74,13.71,39.73,21.21a166,166,0,0,1,20,13.06c8.1,6.4,17.55,10,27.18,13.49,4.65,1.66,11,4.09,14.34,7.92,3.05,3.53,2.16,10.56,2.37,14.95.15,3.15.36,6.3.38,9.46,0,2.64-.16,5.43.57,8,1.05,3.7,4.5,5.65,7.6,7.49-6.71-3.14-12.16-8.22-13.36-15.8a59.59,59.59,0,0,1-.46-7.56c-.09-3.18.93-5.72,1.33-8.71-3.72,6.29-3.45,17.44-.46,23.84,4.15,8.88,13.52,11.56,22.05,14.27,10,3.18,20.39,5.83,29.91-.15,2.29-1.44,3.92-3.66,6.09-5.12,1.95-1.31,4.14-2.36,6.11-3.73,1.7-1.19,3.55-2,5.16-3.39a37.44,37.44,0,0,0,5.45-6.21c1.42-1.93,2.82-3.88,4.09-5.91.66-1.05,1.28-2.14,1.89-3.22.79-1.4,1.07-1.43,2.56-2,4.33-1.54,7.16-4.24,8.05-8.85,1-5.26.66-10.73.66-16.05,0-5.5.5-10.94.72-16.43.13-3.17-.36-6.81.44-9.66.32-1.14.66-1.24,1.74-2.07a14.51,14.51,0,0,0,2.15-2.07,18.88,18.88,0,0,0,3-5.48,24.25,24.25,0,0,0,1.74-12.72c-.47-4.31-1.19-9.44-3.25-13.32-2.37-4.45-8.19-6.48-12.41-8.74a62,62,0,0,0-15.9-6c-8.12-1.82-16.48-2.06-24.62-3.11-.13,0,.13,0,.15,0-4.53-.69-9.08-1.71-12.61-4.84s-5.95-8.23-7.35-12.77c-1.28-4.17-2.42-9.19-.62-13.33,2.12-4.85,4.07-9.49,4-14.92-.09-9.09-3.41-19.92-9-27.1s-13.3-14.38-23.06-14.38h0c-7,0-16.26-1.05-21.33,4.84-4.08,4.73-2.56,10.27-.75,15.53a30.5,30.5,0,0,1,.82,4.71,62,62,0,0,0,2.21,8.25c1.74,5.37,4.51,11.22,5.12,16.82.55,5,1.28,9.88.92,14.95-.07,1,.08,2.67-.39,3.63-.53,1.11-.84,1-2.14,1.45a39.84,39.84,0,0,0-8,3.87,25,25,0,0,0-3.22,2.5c-.4.37-1.48,1.93-2,2-.84.16-3.43-1.74-4.2-2.14-1.56-.83-3.11-1.68-4.66-2.53-9-4.94-17.19-10.75-25.52-16.74l.45.44c-11.9-9.58-23.92-20.72-33.33-32.79m-17-21.85"/><path class="cls-2" d="M621.53,601.48c-4-2-8.09-5.16-11.76-7.81l.27.3c-10.53-8.54-21.58-17.64-32.28-26.4-6.11-5-11.93-10.12-17.63-15.59-6.75-6.46-14-14.08-17.92-22.63-.94-2.17-2.84-5.28-1.86-7.48,1.4-3.12,4-5.34,5-8.77,1.67-5.63,1.35-12,2.54-17.79a86.77,86.77,0,0,1,4.74-15.95c1.84-4.39,3.88-8.55,4.56-13.4s.85-9.81,2.28-14.57c1.85-6.11,2.45-14,8.3-15.72,5-1.44,8.43-3.5,12.92-6,1.17-11.08-.47-16.23-2.7-19.86-4.46-7.28-9.16-9.16-18.32-11.91h0c-5.44,0-14.66,1.2-19.54,3.57-5.25,2.55-4.19,6.3-7.13,11.24-1.13,1.91-2.46,3.73-3.43,5.73-1.36,2.78-1.86,6.12-3.94,8.51-1.87,2.16-4.55,2.4-7.12,3.24a42.23,42.23,0,0,0-5.6,2.35c-8.42-3.6-13.88-10.86-21.24-16.08-2.63-1.87-6.42-4.79-9.59-5.62-4.93-1.3-11-.1-15.88.65-7.43,1.13-14.77,2.2-22.23,3-5.19.56-10.36,1.4-15.5,2.32-4.52.82-10.13,1.59-14.17,3.9-6.44,3.67-7.55,13.14-10,19.55-3.62,9.59-4.47,18.49-.13,28,3.88,8.53,9.57,15.9,14.08,24.06,4.82,8.72,4.19,19.09,5.54,28.62,2.82,19.88,13.23,35.61,28.48,48.42,8.1,6.8,19.23,3.49,29.05,6.52,5,1.57,8.59,8.32,12.57,11.86s7.48,7.11,11.49,10.36c3.71,3,7.2,5.15,12.11,5.2,1.53,0,1.53-.21,2.24,1.38,1,2.32,1.63,4.76,2.45,7.16,3.23,9.48,29.2,18,34.73,26.22,5.88,8.76,10.91,17.88,16.09,27,2.29,4,50.52,73,54.68,75.25a82.41,82.41,0,0,0,8.23,3.57,65.08,65.08,0,0,0,13.35,3.89c5.39.92,10.06-.39,15.21-1.67,4.09-1,7.48.22,11.54.3s7.07-2.09,9.51-5c4.89-5.88,72.73,18.53,75.58,11.51,3.76-9.28,5.31-19.68,6.41-29.58a43.91,43.91,0,0,0-.73-15.67m.35-.4-3.37-1.48h0c-2.13-1-4.23-2-6.28-3.2"/><path d="M318.63,238.63Z"/><path class="cls-11" d="M311.72,98.88c-37.68,0-7.48,45.38-7.49,65.74,0,12.25-1.55,22.52-10.75,29.43-12.54,9.41-25.63,13.75-26.8,33-10.5-13.9-38.23-24.77-52.4-34.44-15.8-10.79-96-87.19-110-100C91.71,81.1,38.43,15.64,25,31.4S62.35,115,73.75,123c27.06,19,125.88,99.45,156.35,116.42,16.58,9.24,25,17.36,37.21,31.64,12.88,15.07,29.62,20.89,49.15,15.4-9,27.75,26.86,43.52,48.45,41,4-.46,16.54-9,23-16.19-5.7,8.7-19.33,11.34-23.79,10.81-5.82-.69-17.15-.7-20.57-8.88.37.21,14.92-.55,16.43-.79-7.14-1.63-17.05-8.23-12.81-16.63,4.77-9.44,20.9-2,28.17-2s16.07-.6,7.56-7c-6.11-4.6-21,.35-26.33-3.52-2.8-1.11-4.49-9.65-2-13.17,3.52-5,13.47-3.75,18.94-4.72,3.58-.64,35.11-14.33,26.49-18.58-10.58-5.21-28.44,17.85-43,7.91-11.8-8.06,2.69-32.24,26.89-44-2-.78-4.35-5.64-6.23-12.46-2.7,16.45-41.88,17.88-42.77,28-.47,5.39,5.47,9.48,5.42,13.76,0,1.22-3,4.14-3.41,5.62-1.41-11.82-11.17-18.23-7.63-31.3,1.73-6.39,7-11,8.09-18,1.23-7.92-2-17.37-3.36-25.26-1.19-7-4.74-10.94-4.45-18.1-11.1-4.23-14.62-12.86-18-22.91-4-12,1.41-26.08,9-29.95l-6.6-1Zm26.09,163.6,17.81,5"/><path class="cls-11" d="M463.34,482.13c8.84-24.53-16.44-30.63-32.32-39.71,8.15-2,37.09-7.11,41.79-9.8,9.53-5.45,0,0,10.83-7.13,5.83,5,10.23,27.24,5.06,32.37,13.62-9.91,24.95-11,32.78-26.42,5.61-11.07,11.86-37.71,31-27.73,4.42,2.31,8.87,8.62,9.75,17.39-6.46,2.12-17.8,8.68-21.82,15.09-4.18,6.65-3.22,16.2-8.68,22-3.81,4.05-10.84,5.5-15.4,8.67-32.52,22.64-27.39,66.95-7,95.6,18.8,26.35,41.72,50.51,64.72,73.18,8.73,8.6,100.37,93.24,102.31,105.48,2,12.87-16.14,10.68-26.86,14-13.71,4.2-26.51,14.63-36.32,1.55-9-12-59.65-94.73-66.32-108.11-11.51-23.08-47.55-63.88-74.68-70.93-15.14-3.93-24-5.13-35.31-15.82-1.49-1.41-1.24-4.57-2.94-6.19-5-4.76-10-6.78-14.2-12.33-7.11-9.37-6.43-17.23-9.17-27.86-2-7.86-9.86-14.88-10-24.34-.12-7.59,3.63-13,4.07-19.34-1.66-5.64-11.27-9.49-.88-31.61,2.13,7.2,2.77,14.84,18.87,21.87,6.83,3,11.85,6.7,18.26,9.85,5.16,2.53,14.11,3.68,13.93,9.75-.36,11.36-21.27,8.38-21.27,8.38s26.08,26.55,2.12,24.67c0,0,22.08,24.9,3.52,23.73,0,0,17.27,2.88,3.88-21.79,0,0,22.38-11.16,9.69-26.44C452.8,490.12,459.72,492.16,463.34,482.13Zm-24.46-37.19-3.07-2.57Z"/><rect class="cls-12" x="255.43" y="395.67" width="31.54" height="15.33" transform="translate(-43.36 32.82) rotate(-6.41)"/><rect class="cls-12" x="501" y="366.44" width="31.54" height="15.33" transform="translate(-38.56 60.07) rotate(-6.41)"/></g></g></svg>