<svg xmlns="http://www.w3.org/2000/svg" xmlns:xlink="http://www.w3.org/1999/xlink" viewBox="0 0 720 720"><defs><style>.cls-1,.cls-5,.cls-6{fill:none;}.cls-2,.cls-4,.cls-8{fill:#fff;}.cls-3{clip-path:url(#clip-path);}.cls-4{stroke:#e70000;stroke-width:5.04px;}.cls-4,.cls-5,.cls-6,.cls-7,.cls-8{stroke-miterlimit:10;}.cls-5,.cls-6,.cls-7{stroke:#fff;}.cls-5{stroke-width:0.36px;}.cls-6{stroke-width:0.54px;}.cls-7{fill:#0016ff;}.cls-7,.cls-8{stroke-width:1.79px;}.cls-8{stroke:#0016ff;}</style><clipPath id="clip-path"><circle class="cls-1" cx="360" cy="360" r="360"/></clipPath></defs><title>hackingends</title><g id="Layer_1" data-name="Layer 1"><path class="cls-2" d="M360,719.5A359.59,359.59,0,0,1,220.07,28.75a359.59,359.59,0,0,1,279.86,662.5A357.17,357.17,0,0,1,360,719.5Z"/><path d="M360,1A359.1,359.1,0,0,1,499.74,690.79,359.1,359.1,0,0,1,220.26,29.21,356.74,356.74,0,0,1,360,1m0-1C161.18,0,0,161.18,0,360S161.18,720,360,720,720,558.82,720,360,558.82,0,360,0Z"/></g><g id="Layer_2" data-name="Layer 2"><g class="cls-3"><rect x="-17.72" y="-24.88" width="755.64" height="705.37"/><rect class="cls-4" x="-31.71" y="623.48" width="783.63" height="122.83"/><path class="cls-2" d="M296.27,367.64S263.05,227.2,268.34,204.28c7.63-3.42,9.55-12.4,11-16.24-.29-17.09,6.49-35.84,1.91-47.72-2.11-5.49-11.24-13.53-16.87-15.19-1.57-.46-6.28,1-7.9.93.12-24.61-33.31-32.19-22.2-8.68-12.67-2.27-19.12-6.81-24.87,13.46-15.91,1.58-19.15,8.16-17.28,25-11.38,8.58-.34,30.49,8.88,34.45,3.22,6.39,1.76,20,17.31,22.78,4.56,19.47-5.1,149.59-5.1,149.59Z"/><path d="M249.78,134.92s-14.27,16.84-16-3a17.54,17.54,0,0,0-8.32,8c.87,9.72-3.58,21-13.63,5.58,0,0,2.48,32.65-11.16,23,0,0,5.89,25.05-7.9,14.33,0,0,12.12,11.86,13.79,10.72,0,0,16.76-19.72,22.45-5.88,0,0,3.13-21.15,24.49-21,5.2-5.16,9-9.85,8.49-12.14-8,18.36-24.09-1-24.28-9.1C242.48,143.71,244.55,139.9,249.78,134.92Z"/><path class="cls-2" d="M235.85,123.75c-1.35,3.92-2.55,7.89-3.55,11.91-.49,2-.92,4-1.23,6.09a19.49,19.49,0,0,0-.15,6.14v0a5.56,5.56,0,0,1,.09,2.53,11,11,0,0,1-.67,2.41,18.73,18.73,0,0,1-1.08,2.26c-.42.72-.87,1.42-1.34,2.11l0,0h-.06a20.36,20.36,0,0,1-5.56.37,13.78,13.78,0,0,1-2.77-.44,5,5,0,0,1-2.48-1.42l.35-.23a32.81,32.81,0,0,1,3,7.46,16,16,0,0,1,.29,8l0,.06,0,0a12,12,0,0,1-6.13,3,28.71,28.71,0,0,1-6.79.49l.3-.44a9.22,9.22,0,0,1,.45,2.94,19.85,19.85,0,0,1-.16,2.89c-.11,1-.3,1.91-.49,2.85s-.47,1.86-.74,2.79l0,.13-.11.07a5.74,5.74,0,0,1-2.28.65,13.36,13.36,0,0,1-2.28,0,18,18,0,0,1-4.43-.87,24.5,24.5,0,0,1-7.85-4.36l.57-.69a23.78,23.78,0,0,0,7.53,4.28,18.1,18.1,0,0,0,4.23.88,12.85,12.85,0,0,0,2.15,0,5.07,5.07,0,0,0,2-.52l-.16.2q.42-1.35.75-2.73c.2-.92.39-1.84.51-2.77a20.25,20.25,0,0,0,.18-2.8,9,9,0,0,0-.38-2.69l-.16-.46.46,0a28.53,28.53,0,0,0,6.66-.43,11.33,11.33,0,0,0,5.87-2.79l-.06.11a15.49,15.49,0,0,0-.25-7.79,32.65,32.65,0,0,0-2.92-7.36l.35-.24a4.52,4.52,0,0,0,2.26,1.29,13.4,13.4,0,0,0,2.68.45,20,20,0,0,0,5.46-.32l-.1.07c.47-.68.93-1.36,1.34-2.07a18.13,18.13,0,0,0,1.09-2.21,10.56,10.56,0,0,0,.68-2.35,5.5,5.5,0,0,0-.05-2.39v0a19.66,19.66,0,0,1,.21-6.22c.33-2.05.79-4.08,1.3-6.09C233.22,131.62,234.46,127.66,235.85,123.75Z"/><path d="M232.05,133.1a43.63,43.63,0,0,0-2,7.59,21.48,21.48,0,0,0,0,7.75v-.05a5.9,5.9,0,0,1,.11,2.6,11.3,11.3,0,0,1-.67,2.44,19,19,0,0,1-1.08,2.28c-.41.73-.87,1.44-1.34,2.13L227,158l-.13,0a20.76,20.76,0,0,1-5.61.39,14.28,14.28,0,0,1-2.81-.44,5.13,5.13,0,0,1-2.59-1.48l.69-.47a35.08,35.08,0,0,1,1.76,3.66,32.21,32.21,0,0,1,1.29,3.85,16.32,16.32,0,0,1,.31,8.16l0,.13-.1.1a12.21,12.21,0,0,1-6.25,3.09,29.37,29.37,0,0,1-6.86.53l.6-.89a9.78,9.78,0,0,1,.5,3.06,20.54,20.54,0,0,1-.16,2.94c-.11,1-.29,1.93-.48,2.89s-.46,1.88-.73,2.81l-.08.27-.23.13a5.52,5.52,0,0,1-2.38.69,12.49,12.49,0,0,1-2.29,0,18,18,0,0,1-4.36-1,26.59,26.59,0,0,1-7.64-4.41l1.14-1.39a24.73,24.73,0,0,0,7.07,4.27,16.6,16.6,0,0,0,4,1,10.34,10.34,0,0,0,2,.06,4.35,4.35,0,0,0,1.72-.42l-.3.4q.41-1.33.75-2.7c.2-.91.39-1.82.51-2.74a18.16,18.16,0,0,0,.19-2.75,8.94,8.94,0,0,0-.33-2.57l-.32-.92.92,0a28.31,28.31,0,0,0,6.58-.39,11.09,11.09,0,0,0,5.76-2.69l-.13.22a15.45,15.45,0,0,0-.23-7.66,32,32,0,0,0-2.88-7.32l.69-.47a4.44,4.44,0,0,0,2.16,1.23,12.9,12.9,0,0,0,2.64.45,19.89,19.89,0,0,0,5.4-.3l-.19.14c.47-.67.92-1.35,1.34-2a17,17,0,0,0,1.08-2.18,10.13,10.13,0,0,0,.69-2.32,5.22,5.22,0,0,0,0-2.33v0a22,22,0,0,1,.26-7.88A43,43,0,0,1,232.05,133.1Z"/><path class="cls-5" d="M217.16,155.62a29.07,29.07,0,0,1-6.49-21.3"/><path class="cls-2" d="M207.67,174.3a38.74,38.74,0,0,1-5-3.5,40.53,40.53,0,0,1-4.51-4.18,30.33,30.33,0,0,1-3.73-4.92,18.25,18.25,0,0,1-2.25-5.71,24.35,24.35,0,0,0,2.72,5.42,41.79,41.79,0,0,0,3.78,4.72c1.36,1.5,2.85,2.89,4.34,4.26S206.06,173.05,207.67,174.3Z"/><path class="cls-6" d="M262.61,154.14s-2.45,7.47-8.76,10c-6.69,2.64-21.07-.9-21.18-13.52,0-1.81.36-2.84,4-6.09,5.18-.84,7.46-4.17,13.16-9.58"/><path class="cls-1" d="M296.32,367.78S263.1,227.35,268.39,204.43c7.63-3.42,9.54-12.4,11-16.25-.29-17.08,6.49-35.83,1.91-47.72-2.11-5.48-11.24-13.53-16.87-15.18-1.57-.46-6.28,1-7.9.92,2-16.85-31.22-37.38-22.2-8.67-12.67-2.28-19.13-6.81-24.88,13.46-15.9,1.57-19.15,8.16-17.27,25-15.6,11.76.26,30.75,8.88,34.46,3.22,6.38,1.76,20,17.31,22.77,4.56,19.48-5.1,149.59-5.1,149.59Z"/><path class="cls-2" d="M296.27,367.64S263.05,227.2,268.34,204.28c7.63-3.42,9.55-12.4,11-16.24-.29-17.09,6.49-35.84,1.91-47.72-2.11-5.49-11.24-13.53-16.87-15.19-1.57-.46-6.28,1-7.9.93C255,112,231.49,89.11,228,115.58c-22.94-5.71-24.1-.13-21.9,15.41-16.32,1.3-19.43,5.83-14,24.86C180.18,158,173.31,170.12,201,190.3c3.22,6.39,1.76,20,17.31,22.78,4.56,19.47-5.1,149.59-5.1,149.59Z"/><path d="M249.78,134.92s-20.86,17.08-21.14-2.37a71.8,71.8,0,0,1-3.16,7.29c.87,9.72-3.58,21-13.63,5.58,0,0,2.48,32.65-11.16,23,0,0,5.89,25.05-7.9,14.33,0,0,12.12,11.86,13.79,10.72,0,0,16.76-19.72,22.45-5.88,0,0,3.13-21.15,24.49-21,5.2-5.16,9-9.85,8.49-12.14-8,18.36-24.09-1-24.28-9.1C242.48,143.71,244.55,139.9,249.78,134.92Z"/><path class="cls-6" d="M262.61,154.14s-2.45,7.47-8.76,10c-6.69,2.64-21.07-.9-21.18-13.52,0-1.81.36-2.84,4-6.09,5.18-.84,7.46-4.17,13.16-9.58"/><path class="cls-2" d="M296.27,367.64S263.05,227.2,268.34,204.28c7.63-3.42,9.55-12.4,11-16.24-.29-17.09,6.49-35.84,1.91-47.72-2.11-5.49-11.24-13.53-16.87-15.19-1.57-.46-6.28,1-7.9.93.12-24.61-33.31-32.19-22.2-8.68-12.67-2.27-19.12-6.81-24.87,13.46-15.91,1.58-19.15,8.16-17.28,25-11.38,8.58-.34,30.49,8.88,34.45,3.22,6.39,1.76,20,17.31,22.78,4.56,19.47-5.1,149.59-5.1,149.59Z"/><path d="M249.78,134.92s-14.27,16.84-16-3a17.54,17.54,0,0,0-8.32,8c.87,9.72-3.58,21-13.63,5.58,0,0,2.48,32.65-11.16,23,0,0,5.89,25.05-7.9,14.33,0,0,12.12,11.86,13.79,10.72,0,0,16.76-19.72,22.45-5.88,0,0,3.13-21.15,24.49-21,5.2-5.16,9-9.85,8.49-12.14-8,18.36-24.09-1-24.28-9.1C242.48,143.71,244.55,139.9,249.78,134.92Z"/><path class="cls-2" d="M235.85,123.75c-1.35,3.92-2.55,7.89-3.55,11.91-.49,2-.92,4-1.23,6.09a19.49,19.49,0,0,0-.15,6.14v0a5.56,5.56,0,0,1,.09,2.53,11,11,0,0,1-.67,2.41,18.73,18.73,0,0,1-1.08,2.26c-.42.72-.87,1.42-1.34,2.11l0,0h-.06a20.36,20.36,0,0,1-5.56.37,13.78,13.78,0,0,1-2.77-.44,5,5,0,0,1-2.48-1.42l.35-.23a32.81,32.81,0,0,1,3,7.46,16,16,0,0,1,.29,8l0,.06,0,0a12,12,0,0,1-6.13,3,28.71,28.71,0,0,1-6.79.49l.3-.44a9.22,9.22,0,0,1,.45,2.94,19.85,19.85,0,0,1-.16,2.89c-.11,1-.3,1.91-.49,2.85s-.47,1.86-.74,2.79l0,.13-.11.07a5.74,5.74,0,0,1-2.28.65,13.36,13.36,0,0,1-2.28,0,18,18,0,0,1-4.43-.87,24.5,24.5,0,0,1-7.85-4.36l.57-.69a23.78,23.78,0,0,0,7.53,4.28,18.1,18.1,0,0,0,4.23.88,12.85,12.85,0,0,0,2.15,0,5.07,5.07,0,0,0,2-.52l-.16.2q.42-1.35.75-2.73c.2-.92.39-1.84.51-2.77a20.25,20.25,0,0,0,.18-2.8,9,9,0,0,0-.38-2.69l-.16-.46.46,0a28.53,28.53,0,0,0,6.66-.43,11.33,11.33,0,0,0,5.87-2.79l-.06.11a15.49,15.49,0,0,0-.25-7.79,32.65,32.65,0,0,0-2.92-7.36l.35-.24a4.52,4.52,0,0,0,2.26,1.29,13.4,13.4,0,0,0,2.68.45,20,20,0,0,0,5.46-.32l-.1.07c.47-.68.93-1.36,1.34-2.07a18.13,18.13,0,0,0,1.09-2.21,10.56,10.56,0,0,0,.68-2.35,5.5,5.5,0,0,0-.05-2.39v0a19.66,19.66,0,0,1,.21-6.22c.33-2.05.79-4.08,1.3-6.09C233.22,131.62,234.46,127.66,235.85,123.75Z"/><path d="M232.05,133.1a43.63,43.63,0,0,0-2,7.59,21.48,21.48,0,0,0,0,7.75v-.05a5.9,5.9,0,0,1,.11,2.6,11.3,11.3,0,0,1-.67,2.44,19,19,0,0,1-1.08,2.28c-.41.73-.87,1.44-1.34,2.13L227,158l-.13,0a20.76,20.76,0,0,1-5.61.39,14.28,14.28,0,0,1-2.81-.44,5.13,5.13,0,0,1-2.59-1.48l.69-.47a35.08,35.08,0,0,1,1.76,3.66,32.21,32.21,0,0,1,1.29,3.85,16.32,16.32,0,0,1,.31,8.16l0,.13-.1.1a12.21,12.21,0,0,1-6.25,3.09,29.37,29.37,0,0,1-6.86.53l.6-.89a9.78,9.78,0,0,1,.5,3.06,20.54,20.54,0,0,1-.16,2.94c-.11,1-.29,1.93-.48,2.89s-.46,1.88-.73,2.81l-.08.27-.23.13a5.52,5.52,0,0,1-2.38.69,12.49,12.49,0,0,1-2.29,0,18,18,0,0,1-4.36-1,26.59,26.59,0,0,1-7.64-4.41l1.14-1.39a24.73,24.73,0,0,0,7.07,4.27,16.6,16.6,0,0,0,4,1,10.34,10.34,0,0,0,2,.06,4.35,4.35,0,0,0,1.72-.42l-.3.4q.41-1.33.75-2.7c.2-.91.39-1.82.51-2.74a18.16,18.16,0,0,0,.19-2.75,8.94,8.94,0,0,0-.33-2.57l-.32-.92.92,0a28.31,28.31,0,0,0,6.58-.39,11.09,11.09,0,0,0,5.76-2.69l-.13.22a15.45,15.45,0,0,0-.23-7.66,32,32,0,0,0-2.88-7.32l.69-.47a4.44,4.44,0,0,0,2.16,1.23,12.9,12.9,0,0,0,2.64.45,19.89,19.89,0,0,0,5.4-.3l-.19.14c.47-.67.92-1.35,1.34-2a17,17,0,0,0,1.08-2.18,10.13,10.13,0,0,0,.69-2.32,5.22,5.22,0,0,0,0-2.33v0a22,22,0,0,1,.26-7.88A43,43,0,0,1,232.05,133.1Z"/><path class="cls-5" d="M217.16,155.62a29.07,29.07,0,0,1-6.49-21.3"/><path class="cls-2" d="M207.67,174.3a38.74,38.74,0,0,1-5-3.5,40.53,40.53,0,0,1-4.51-4.18,30.33,30.33,0,0,1-3.73-4.92,18.25,18.25,0,0,1-2.25-5.71,24.35,24.35,0,0,0,2.72,5.42,41.79,41.79,0,0,0,3.78,4.72c1.36,1.5,2.85,2.89,4.34,4.26S206.06,173.05,207.67,174.3Z"/><path class="cls-6" d="M262.61,154.14s-2.45,7.47-8.76,10c-6.69,2.64-21.07-.9-21.18-13.52,0-1.81.36-2.84,4-6.09,5.18-.84,7.46-4.17,13.16-9.58"/><path class="cls-1" d="M296.32,367.78S263.1,227.35,268.39,204.43c7.63-3.42,9.54-12.4,11-16.25-.29-17.08,6.49-35.83,1.91-47.72-2.11-5.48-11.24-13.53-16.87-15.18-1.57-.46-6.28,1-7.9.92,2-16.85-31.22-37.38-22.2-8.67-12.67-2.28-19.13-6.81-24.88,13.46-15.9,1.57-19.15,8.16-17.27,25-15.6,11.76.26,30.75,8.88,34.46,3.22,6.38,1.76,20,17.31,22.77,4.56,19.48-5.1,149.59-5.1,149.59Z"/><path class="cls-2" d="M296.27,367.64S263.05,227.2,268.34,204.28c7.63-3.42,9.55-12.4,11-16.24-.29-17.09,6.49-35.84,1.91-47.72-2.11-5.49-11.24-13.53-16.87-15.19-1.57-.46-6.28,1-7.9.93C255,112,231.49,89.11,228,115.58c-22.94-5.71-24.1-.13-21.9,15.41-16.32,1.3-19.43,5.83-14,24.86C180.18,158,173.31,170.12,201,190.3c3.22,6.39,1.76,20,17.31,22.78,4.56,19.47-5.1,149.59-5.1,149.59Z"/><path d="M249.78,134.92s-20.86,17.08-21.14-2.37a71.8,71.8,0,0,1-3.16,7.29c.87,9.72-3.58,21-13.63,5.58,0,0,2.48,32.65-11.16,23,0,0,5.89,25.05-7.9,14.33,0,0,12.12,11.86,13.79,10.72,0,0,16.76-19.72,22.45-5.88,0,0,3.13-21.15,24.49-21,5.2-5.16,9-9.85,8.49-12.14-8,18.36-24.09-1-24.28-9.1C242.48,143.71,244.55,139.9,249.78,134.92Z"/><path class="cls-6" d="M262.61,154.14s-2.45,7.47-8.76,10c-6.69,2.64-21.07-.9-21.18-13.52,0-1.81.36-2.84,4-6.09,5.18-.84,7.46-4.17,13.16-9.58"/><path class="cls-2" d="M229.41,140.37l.29,4.37a7.22,7.22,0,0,1-2.09,5.57l-1.28,1.27a7.19,7.19,0,0,1-9.41.67l-7-5.25L223,137.38C228.92,124,229.2,137.18,229.41,140.37Z"/><path class="cls-2" d="M196.33,185h0a4,4,0,0,0,5.56-1.58l2.89-5.29a4,4,0,0,0-.12-4.09l0-.05c-1.65-2.64-4.71-10.94-7,.24l-2.85,5.35A4.05,4.05,0,0,0,196.33,185Z"/><path class="cls-2" d="M200.92,169l4.2,1.4a4,4,0,0,0,5-.77l7.72-8.36a4,4,0,0,0,.46-4.89l-3.94-6.31a4.05,4.05,0,0,0-7.25.77l-5,14C201.4,166.65,199.21,168,200.92,169Z"/><path class="cls-2" d="M423.73,367.64S457,227.2,451.66,204.28c-7.63-3.42-9.55-12.4-11-16.24.29-17.09-6.49-35.84-1.91-47.72,2.11-5.49,11.24-13.53,16.87-15.19,1.57-.46,6.28,1,7.9.93-.12-24.61,33.31-32.19,22.2-8.68,12.67-2.27,19.12-6.81,24.87,13.46,15.91,1.58,19.15,8.16,17.28,25,11.38,8.58.34,30.49-8.88,34.45-3.22,6.39-1.76,20-17.31,22.78-4.56,19.47,5.1,149.59,5.1,149.59Z"/><path d="M470.22,134.92s14.27,16.84,16-3a17.54,17.54,0,0,1,8.32,8c-.87,9.72,3.58,21,13.63,5.58,0,0-2.48,32.65,11.16,23,0,0-5.89,25.05,7.9,14.33,0,0-12.12,11.86-13.79,10.72,0,0-16.76-19.72-22.45-5.88,0,0-3.13-21.15-24.49-21-5.2-5.16-9-9.85-8.49-12.14,8,18.36,24.09-1,24.28-9.1C477.52,143.71,475.45,139.9,470.22,134.92Z"/><path class="cls-2" d="M484.15,123.75c1.39,3.91,2.63,7.87,3.66,11.88.51,2,1,4,1.3,6.09a19.66,19.66,0,0,1,.21,6.22v0a5.5,5.5,0,0,0-.05,2.39,10.56,10.56,0,0,0,.68,2.35,18.13,18.13,0,0,0,1.09,2.21c.41.71.87,1.39,1.34,2.07l-.1-.07a20,20,0,0,0,5.46.32,13.4,13.4,0,0,0,2.68-.45,4.52,4.52,0,0,0,2.26-1.29l.35.24a32.65,32.65,0,0,0-2.92,7.36,15.49,15.49,0,0,0-.25,7.79l-.06-.11a11.33,11.33,0,0,0,5.87,2.79,28.53,28.53,0,0,0,6.66.43l.46,0-.16.46a9,9,0,0,0-.38,2.69,20.25,20.25,0,0,0,.18,2.8c.12.93.31,1.85.51,2.77s.47,1.83.75,2.73l-.16-.2a5.07,5.07,0,0,0,2,.52,12.85,12.85,0,0,0,2.15,0,18.1,18.1,0,0,0,4.23-.88,23.78,23.78,0,0,0,7.53-4.28l.57.69a24.5,24.5,0,0,1-7.85,4.36,18,18,0,0,1-4.43.87,13.36,13.36,0,0,1-2.28,0,5.74,5.74,0,0,1-2.28-.65l-.11-.07,0-.13c-.27-.93-.52-1.85-.74-2.79s-.38-1.89-.49-2.85a19.85,19.85,0,0,1-.16-2.89,9.22,9.22,0,0,1,.45-2.94l.3.44a28.71,28.71,0,0,1-6.79-.49,12,12,0,0,1-6.13-3l0,0,0-.06a16,16,0,0,1,.29-8,32.81,32.81,0,0,1,3-7.46l.35.23a5,5,0,0,1-2.48,1.42,13.78,13.78,0,0,1-2.77.44,20.36,20.36,0,0,1-5.56-.37h-.06l0,0c-.47-.69-.92-1.39-1.34-2.11a18.73,18.73,0,0,1-1.08-2.26,11,11,0,0,1-.67-2.41,5.56,5.56,0,0,1,.09-2.53v0a19.49,19.49,0,0,0-.15-6.14c-.31-2.05-.74-4.08-1.23-6.09C486.7,131.64,485.5,127.67,484.15,123.75Z"/><path d="M488,133.1a43,43,0,0,1,2.2,7.55,22,22,0,0,1,.26,7.88v0a5.22,5.22,0,0,0,0,2.33,10.13,10.13,0,0,0,.69,2.32,17,17,0,0,0,1.08,2.18c.42.7.87,1.38,1.34,2l-.19-.14a19.89,19.89,0,0,0,5.4.3,12.9,12.9,0,0,0,2.64-.45,4.44,4.44,0,0,0,2.16-1.23l.69.47a32,32,0,0,0-2.88,7.32,15.45,15.45,0,0,0-.23,7.66l-.13-.22a11.09,11.09,0,0,0,5.76,2.69,28.31,28.31,0,0,0,6.58.39l.92,0-.32.92a8.94,8.94,0,0,0-.33,2.57,18.16,18.16,0,0,0,.19,2.75c.12.92.31,1.83.51,2.74s.48,1.81.75,2.7l-.3-.4a4.35,4.35,0,0,0,1.72.42,10.34,10.34,0,0,0,2-.06,16.6,16.6,0,0,0,4-1,24.73,24.73,0,0,0,7.07-4.27l1.14,1.39a26.59,26.59,0,0,1-7.64,4.41,18,18,0,0,1-4.36,1,12.49,12.49,0,0,1-2.29,0,5.52,5.52,0,0,1-2.38-.69l-.23-.13-.08-.27c-.27-.93-.51-1.87-.73-2.81s-.37-1.91-.48-2.89a20.54,20.54,0,0,1-.16-2.94,9.78,9.78,0,0,1,.5-3.06l.6.89a29.37,29.37,0,0,1-6.86-.53,12.21,12.21,0,0,1-6.25-3.09l-.1-.1,0-.13a16.32,16.32,0,0,1,.31-8.16,32.21,32.21,0,0,1,1.29-3.85,35.08,35.08,0,0,1,1.76-3.66l.69.47a5.13,5.13,0,0,1-2.59,1.48,14.28,14.28,0,0,1-2.81.44,20.76,20.76,0,0,1-5.61-.39l-.13,0-.07-.11c-.47-.69-.93-1.4-1.34-2.13a19,19,0,0,1-1.08-2.28,11.3,11.3,0,0,1-.67-2.44,5.9,5.9,0,0,1,.11-2.6v.05a21.48,21.48,0,0,0,0-7.75A43.63,43.63,0,0,0,488,133.1Z"/><path class="cls-5" d="M502.84,155.62a29.07,29.07,0,0,0,6.49-21.3"/><path class="cls-2" d="M512.33,174.3c1.61-1.25,3.17-2.56,4.69-3.91s3-2.76,4.34-4.26a41.79,41.79,0,0,0,3.78-4.72,24.35,24.35,0,0,0,2.72-5.42,18.25,18.25,0,0,1-2.25,5.71,30.33,30.33,0,0,1-3.73,4.92,40.53,40.53,0,0,1-4.51,4.18A38.74,38.74,0,0,1,512.33,174.3Z"/><path class="cls-6" d="M457.39,154.14s2.45,7.47,8.76,10c6.69,2.64,21.07-.9,21.18-13.52,0-1.81-.36-2.84-3.95-6.09-5.18-.84-7.46-4.17-13.16-9.58"/><path class="cls-1" d="M423.68,367.78s33.22-140.43,27.93-163.35c-7.63-3.42-9.54-12.4-11-16.25.29-17.08-6.49-35.83-1.91-47.72,2.11-5.48,11.24-13.53,16.87-15.18,1.57-.46,6.28,1,7.9.92-2-16.85,31.22-37.38,22.2-8.67,12.67-2.28,19.13-6.81,24.88,13.46,15.9,1.57,19.15,8.16,17.27,25,15.6,11.76-.26,30.75-8.88,34.46-3.22,6.38-1.76,20-17.31,22.77-4.56,19.48,5.1,149.59,5.1,149.59Z"/><path class="cls-2" d="M423.73,367.64S457,227.2,451.66,204.28c-7.63-3.42-9.55-12.4-11-16.24.29-17.09-6.49-35.84-1.91-47.72,2.11-5.49,11.24-13.53,16.87-15.19,1.57-.46,6.28,1,7.9.93C465,112,488.51,89.11,492,115.58c22.94-5.71,24.1-.13,21.9,15.41,16.32,1.3,19.43,5.83,14,24.86,11.91,2.16,18.78,14.27-8.88,34.45-3.22,6.39-1.76,20-17.31,22.78-4.56,19.47,5.1,149.59,5.1,149.59Z"/><path d="M470.22,134.92s20.86,17.08,21.14-2.37a71.8,71.8,0,0,0,3.16,7.29c-.87,9.72,3.58,21,13.63,5.58,0,0-2.48,32.65,11.16,23,0,0-5.89,25.05,7.9,14.33,0,0-12.12,11.86-13.79,10.72,0,0-16.76-19.72-22.45-5.88,0,0-3.13-21.15-24.49-21-5.2-5.16-9-9.85-8.49-12.14,8,18.36,24.09-1,24.28-9.1C477.52,143.71,475.45,139.9,470.22,134.92Z"/><path class="cls-6" d="M457.39,154.14s2.45,7.47,8.76,10c6.69,2.64,21.07-.9,21.18-13.52,0-1.81-.36-2.84-3.95-6.09-5.18-.84-7.46-4.17-13.16-9.58"/><path class="cls-2" d="M423.73,367.64S457,227.2,451.66,204.28c-7.63-3.42-9.55-12.4-11-16.24.29-17.09-6.49-35.84-1.91-47.72,2.11-5.49,11.24-13.53,16.87-15.19,1.57-.46,6.28,1,7.9.93-.12-24.61,33.31-32.19,22.2-8.68,12.67-2.27,19.12-6.81,24.87,13.46,15.91,1.58,19.15,8.16,17.28,25,11.38,8.58.34,30.49-8.88,34.45-3.22,6.39-1.76,20-17.31,22.78-4.56,19.47,5.1,149.59,5.1,149.59Z"/><path d="M470.22,134.92s14.27,16.84,16-3a17.54,17.54,0,0,1,8.32,8c-.87,9.72,3.58,21,13.63,5.58,0,0-2.48,32.65,11.16,23,0,0-5.89,25.05,7.9,14.33,0,0-12.12,11.86-13.79,10.72,0,0-16.76-19.72-22.45-5.88,0,0-3.13-21.15-24.49-21-5.2-5.16-9-9.85-8.49-12.14,8,18.36,24.09-1,24.28-9.1C477.52,143.71,475.45,139.9,470.22,134.92Z"/><path class="cls-2" d="M484.15,123.75c1.39,3.91,2.63,7.87,3.66,11.88.51,2,1,4,1.3,6.09a19.66,19.66,0,0,1,.21,6.22v0a5.5,5.5,0,0,0-.05,2.39,10.56,10.56,0,0,0,.68,2.35,18.13,18.13,0,0,0,1.09,2.21c.41.71.87,1.39,1.34,2.07l-.1-.07a20,20,0,0,0,5.46.32,13.4,13.4,0,0,0,2.68-.45,4.52,4.52,0,0,0,2.26-1.29l.35.24a32.65,32.65,0,0,0-2.92,7.36,15.49,15.49,0,0,0-.25,7.79l-.06-.11a11.33,11.33,0,0,0,5.87,2.79,28.53,28.53,0,0,0,6.66.43l.46,0-.16.46a9,9,0,0,0-.38,2.69,20.25,20.25,0,0,0,.18,2.8c.12.93.31,1.85.51,2.77s.47,1.83.75,2.73l-.16-.2a5.07,5.07,0,0,0,2,.52,12.85,12.85,0,0,0,2.15,0,18.1,18.1,0,0,0,4.23-.88,23.78,23.78,0,0,0,7.53-4.28l.57.69a24.5,24.5,0,0,1-7.85,4.36,18,18,0,0,1-4.43.87,13.36,13.36,0,0,1-2.28,0,5.74,5.74,0,0,1-2.28-.65l-.11-.07,0-.13c-.27-.93-.52-1.85-.74-2.79s-.38-1.89-.49-2.85a19.85,19.85,0,0,1-.16-2.89,9.22,9.22,0,0,1,.45-2.94l.3.44a28.71,28.71,0,0,1-6.79-.49,12,12,0,0,1-6.13-3l0,0,0-.06a16,16,0,0,1,.29-8,32.81,32.81,0,0,1,3-7.46l.35.23a5,5,0,0,1-2.48,1.42,13.78,13.78,0,0,1-2.77.44,20.36,20.36,0,0,1-5.56-.37h-.06l0,0c-.47-.69-.92-1.39-1.34-2.11a18.73,18.73,0,0,1-1.08-2.26,11,11,0,0,1-.67-2.41,5.56,5.56,0,0,1,.09-2.53v0a19.49,19.49,0,0,0-.15-6.14c-.31-2.05-.74-4.08-1.23-6.09C486.7,131.64,485.5,127.67,484.15,123.75Z"/><path d="M488,133.1a43,43,0,0,1,2.2,7.55,22,22,0,0,1,.26,7.88v0a5.22,5.22,0,0,0,0,2.33,10.13,10.13,0,0,0,.69,2.32,17,17,0,0,0,1.08,2.18c.42.7.87,1.38,1.34,2l-.19-.14a19.89,19.89,0,0,0,5.4.3,12.9,12.9,0,0,0,2.64-.45,4.44,4.44,0,0,0,2.16-1.23l.69.47a32,32,0,0,0-2.88,7.32,15.45,15.45,0,0,0-.23,7.66l-.13-.22a11.09,11.09,0,0,0,5.76,2.69,28.31,28.31,0,0,0,6.58.39l.92,0-.32.92a8.94,8.94,0,0,0-.33,2.57,18.16,18.16,0,0,0,.19,2.75c.12.92.31,1.83.51,2.74s.48,1.81.75,2.7l-.3-.4a4.35,4.35,0,0,0,1.72.42,10.34,10.34,0,0,0,2-.06,16.6,16.6,0,0,0,4-1,24.73,24.73,0,0,0,7.07-4.27l1.14,1.39a26.59,26.59,0,0,1-7.64,4.41,18,18,0,0,1-4.36,1,12.49,12.49,0,0,1-2.29,0,5.52,5.52,0,0,1-2.38-.69l-.23-.13-.08-.27c-.27-.93-.51-1.87-.73-2.81s-.37-1.91-.48-2.89a20.54,20.54,0,0,1-.16-2.94,9.78,9.78,0,0,1,.5-3.06l.6.89a29.37,29.37,0,0,1-6.86-.53,12.21,12.21,0,0,1-6.25-3.09l-.1-.1,0-.13a16.32,16.32,0,0,1,.31-8.16,32.21,32.21,0,0,1,1.29-3.85,35.08,35.08,0,0,1,1.76-3.66l.69.47a5.13,5.13,0,0,1-2.59,1.48,14.28,14.28,0,0,1-2.81.44,20.76,20.76,0,0,1-5.61-.39l-.13,0-.07-.11c-.47-.69-.93-1.4-1.34-2.13a19,19,0,0,1-1.08-2.28,11.3,11.3,0,0,1-.67-2.44,5.9,5.9,0,0,1,.11-2.6v.05a21.48,21.48,0,0,0,0-7.75A43.63,43.63,0,0,0,488,133.1Z"/><path class="cls-5" d="M502.84,155.62a29.07,29.07,0,0,0,6.49-21.3"/><path class="cls-2" d="M512.33,174.3c1.61-1.25,3.17-2.56,4.69-3.91s3-2.76,4.34-4.26a41.79,41.79,0,0,0,3.78-4.72,24.35,24.35,0,0,0,2.72-5.42,18.25,18.25,0,0,1-2.25,5.71,30.33,30.33,0,0,1-3.73,4.92,40.53,40.53,0,0,1-4.51,4.18A38.74,38.74,0,0,1,512.33,174.3Z"/><path class="cls-6" d="M457.39,154.14s2.45,7.47,8.76,10c6.69,2.64,21.07-.9,21.18-13.52,0-1.81-.36-2.84-3.95-6.09-5.18-.84-7.46-4.17-13.16-9.58"/><path class="cls-1" d="M423.68,367.78s33.22-140.43,27.93-163.35c-7.63-3.42-9.54-12.4-11-16.25.29-17.08-6.49-35.83-1.91-47.72,2.11-5.48,11.24-13.53,16.87-15.18,1.57-.46,6.28,1,7.9.92-2-16.85,31.22-37.38,22.2-8.67,12.67-2.28,19.13-6.81,24.88,13.46,15.9,1.57,19.15,8.16,17.27,25,15.6,11.76-.26,30.75-8.88,34.46-3.22,6.38-1.76,20-17.31,22.77-4.56,19.48,5.1,149.59,5.1,149.59Z"/><path class="cls-2" d="M423.73,367.64S457,227.2,451.66,204.28c-7.63-3.42-9.55-12.4-11-16.24.29-17.09-6.49-35.84-1.91-47.72,2.11-5.49,11.24-13.53,16.87-15.19,1.57-.46,6.28,1,7.9.93C465,112,488.51,89.11,492,115.58c22.94-5.71,24.1-.13,21.9,15.41,16.32,1.3,19.43,5.83,14,24.86,11.91,2.16,18.78,14.27-8.88,34.45-3.22,6.39-1.76,20-17.31,22.78-4.56,19.47,5.1,149.59,5.1,149.59Z"/><path d="M470.22,134.92s20.86,17.08,21.14-2.37a71.8,71.8,0,0,0,3.16,7.29c-.87,9.72,3.58,21,13.63,5.58,0,0-2.48,32.65,11.16,23,0,0-5.89,25.05,7.9,14.33,0,0-12.12,11.86-13.79,10.72,0,0-16.76-19.72-22.45-5.88,0,0-3.13-21.15-24.49-21-5.2-5.16-9-9.85-8.49-12.14,8,18.36,24.09-1,24.28-9.1C477.52,143.71,475.45,139.9,470.22,134.92Z"/><path class="cls-6" d="M457.39,154.14s2.45,7.47,8.76,10c6.69,2.64,21.07-.9,21.18-13.52,0-1.81-.36-2.84-3.95-6.09-5.18-.84-7.46-4.17-13.16-9.58"/><path class="cls-2" d="M490.59,140.37l-.29,4.37a7.22,7.22,0,0,0,2.09,5.57l1.28,1.27a7.19,7.19,0,0,0,9.41.67l7-5.25L497,137.38C491.08,124,490.8,137.18,490.59,140.37Z"/><path class="cls-2" d="M523.67,185h0a4,4,0,0,1-5.56-1.58l-2.89-5.29a4,4,0,0,1,.12-4.09l0-.05c1.65-2.64,4.71-10.94,7,.24l2.85,5.35A4.05,4.05,0,0,1,523.67,185Z"/><path class="cls-2" d="M519.08,169l-4.2,1.4a4,4,0,0,1-5-.77l-7.72-8.36a4,4,0,0,1-.46-4.89l3.94-6.31a4.05,4.05,0,0,1,7.25.77l5,14C518.6,166.65,520.79,168,519.08,169Z"/><path class="cls-2" d="M423.73,367.64S457,227.2,451.66,204.28c-7.63-3.42-9.55-12.4-11-16.24.29-17.09-6.49-35.84-1.91-47.72,2.11-5.49,11.24-13.53,16.87-15.19,1.57-.46,6.28,1,7.9.93-.12-24.61,33.31-32.19,22.2-8.68,12.67-2.27,19.12-6.81,24.87,13.46,15.91,1.58,19.15,8.16,17.28,25,11.38,8.58.34,30.49-8.88,34.45-3.22,6.39-1.76,20-17.31,22.78-4.56,19.47,5.1,149.59,5.1,149.59Z"/><path d="M470.22,134.92s14.27,16.84,16-3a17.54,17.54,0,0,1,8.32,8c-.87,9.72,3.58,21,13.63,5.58,0,0-2.48,32.65,11.16,23,0,0-5.89,25.05,7.9,14.33,0,0-12.12,11.86-13.79,10.72,0,0-16.76-19.72-22.45-5.88,0,0-3.13-21.15-24.49-21-5.2-5.16-9-9.85-8.49-12.14,8,18.36,24.09-1,24.28-9.1C477.52,143.71,475.45,139.9,470.22,134.92Z"/><path class="cls-2" d="M484.15,123.75c1.39,3.91,2.63,7.87,3.66,11.88.51,2,1,4,1.3,6.09a19.66,19.66,0,0,1,.21,6.22v0a5.5,5.5,0,0,0-.05,2.39,10.56,10.56,0,0,0,.68,2.35,18.13,18.13,0,0,0,1.09,2.21c.41.71.87,1.39,1.34,2.07l-.1-.07a20,20,0,0,0,5.46.32,13.4,13.4,0,0,0,2.68-.45,4.52,4.52,0,0,0,2.26-1.29l.35.24a32.65,32.65,0,0,0-2.92,7.36,15.49,15.49,0,0,0-.25,7.79l-.06-.11a11.33,11.33,0,0,0,5.87,2.79,28.53,28.53,0,0,0,6.66.43l.46,0-.16.46a9,9,0,0,0-.38,2.69,20.25,20.25,0,0,0,.18,2.8c.12.93.31,1.85.51,2.77s.47,1.83.75,2.73l-.16-.2a5.07,5.07,0,0,0,2,.52,12.85,12.85,0,0,0,2.15,0,18.1,18.1,0,0,0,4.23-.88,23.78,23.78,0,0,0,7.53-4.28l.57.69a24.5,24.5,0,0,1-7.85,4.36,18,18,0,0,1-4.43.87,13.36,13.36,0,0,1-2.28,0,5.74,5.74,0,0,1-2.28-.65l-.11-.07,0-.13c-.27-.93-.52-1.85-.74-2.79s-.38-1.89-.49-2.85a19.85,19.85,0,0,1-.16-2.89,9.22,9.22,0,0,1,.45-2.94l.3.44a28.71,28.71,0,0,1-6.79-.49,12,12,0,0,1-6.13-3l0,0,0-.06a16,16,0,0,1,.29-8,32.81,32.81,0,0,1,3-7.46l.35.23a5,5,0,0,1-2.48,1.42,13.78,13.78,0,0,1-2.77.44,20.36,20.36,0,0,1-5.56-.37h-.06l0,0c-.47-.69-.92-1.39-1.34-2.11a18.73,18.73,0,0,1-1.08-2.26,11,11,0,0,1-.67-2.41,5.56,5.56,0,0,1,.09-2.53v0a19.49,19.49,0,0,0-.15-6.14c-.31-2.05-.74-4.08-1.23-6.09C486.7,131.64,485.5,127.67,484.15,123.75Z"/><path d="M488,133.1a43,43,0,0,1,2.2,7.55,22,22,0,0,1,.26,7.88v0a5.22,5.22,0,0,0,0,2.33,10.13,10.13,0,0,0,.69,2.32,17,17,0,0,0,1.08,2.18c.42.7.87,1.38,1.34,2l-.19-.14a19.89,19.89,0,0,0,5.4.3,12.9,12.9,0,0,0,2.64-.45,4.44,4.44,0,0,0,2.16-1.23l.69.47a32,32,0,0,0-2.88,7.32,15.45,15.45,0,0,0-.23,7.66l-.13-.22a11.09,11.09,0,0,0,5.76,2.69,28.31,28.31,0,0,0,6.58.39l.92,0-.32.92a8.94,8.94,0,0,0-.33,2.57,18.16,18.16,0,0,0,.19,2.75c.12.92.31,1.83.51,2.74s.48,1.81.75,2.7l-.3-.4a4.35,4.35,0,0,0,1.72.42,10.34,10.34,0,0,0,2-.06,16.6,16.6,0,0,0,4-1,24.73,24.73,0,0,0,7.07-4.27l1.14,1.39a26.59,26.59,0,0,1-7.64,4.41,18,18,0,0,1-4.36,1,12.49,12.49,0,0,1-2.29,0,5.52,5.52,0,0,1-2.38-.69l-.23-.13-.08-.27c-.27-.93-.51-1.87-.73-2.81s-.37-1.91-.48-2.89a20.54,20.54,0,0,1-.16-2.94,9.78,9.78,0,0,1,.5-3.06l.6.89a29.37,29.37,0,0,1-6.86-.53,12.21,12.21,0,0,1-6.25-3.09l-.1-.1,0-.13a16.32,16.32,0,0,1,.31-8.16,32.21,32.21,0,0,1,1.29-3.85,35.08,35.08,0,0,1,1.76-3.66l.69.47a5.13,5.13,0,0,1-2.59,1.48,14.28,14.28,0,0,1-2.81.44,20.76,20.76,0,0,1-5.61-.39l-.13,0-.07-.11c-.47-.69-.93-1.4-1.34-2.13a19,19,0,0,1-1.08-2.28,11.3,11.3,0,0,1-.67-2.44,5.9,5.9,0,0,1,.11-2.6v.05a21.48,21.48,0,0,0,0-7.75A43.63,43.63,0,0,0,488,133.1Z"/><path class="cls-5" d="M502.84,155.62a29.07,29.07,0,0,0,6.49-21.3"/><path class="cls-2" d="M512.33,174.3c1.61-1.25,3.17-2.56,4.69-3.91s3-2.76,4.34-4.26a41.79,41.79,0,0,0,3.78-4.72,24.35,24.35,0,0,0,2.72-5.42,18.25,18.25,0,0,1-2.25,5.71,30.33,30.33,0,0,1-3.73,4.92,40.53,40.53,0,0,1-4.51,4.18A38.74,38.74,0,0,1,512.33,174.3Z"/><path class="cls-6" d="M457.39,154.14s2.45,7.47,8.76,10c6.69,2.64,21.07-.9,21.18-13.52,0-1.81-.36-2.84-3.95-6.09-5.18-.84-7.46-4.17-13.16-9.58"/><path class="cls-1" d="M423.68,367.78s33.22-140.43,27.93-163.35c-7.63-3.42-9.54-12.4-11-16.25.29-17.08-6.49-35.83-1.91-47.72,2.11-5.48,11.24-13.53,16.87-15.18,1.57-.46,6.28,1,7.9.92-2-16.85,31.22-37.38,22.2-8.67,12.67-2.28,19.13-6.81,24.88,13.46,15.9,1.57,19.15,8.16,17.27,25,15.6,11.76-.26,30.75-8.88,34.46-3.22,6.38-1.76,20-17.31,22.77-4.56,19.48,5.1,149.59,5.1,149.59Z"/><path class="cls-2" d="M423.73,367.64S457,227.2,451.66,204.28c-7.63-3.42-9.55-12.4-11-16.24.29-17.09-6.49-35.84-1.91-47.72,2.11-5.49,11.24-13.53,16.87-15.19,1.57-.46,6.28,1,7.9.93C465,112,488.51,89.11,492,115.58c22.94-5.71,24.1-.13,21.9,15.41,16.32,1.3,19.43,5.83,14,24.86,11.91,2.16,18.78,14.27-8.88,34.45-3.22,6.39-1.76,20-17.31,22.78-4.56,19.47,5.1,149.59,5.1,149.59Z"/><path d="M470.22,134.92s20.86,17.08,21.14-2.37a71.8,71.8,0,0,0,3.16,7.29c-.87,9.72,3.58,21,13.63,5.58,0,0-2.48,32.65,11.16,23,0,0-5.89,25.05,7.9,14.33,0,0-12.12,11.86-13.79,10.72,0,0-16.76-19.72-22.45-5.88,0,0-3.13-21.15-24.49-21-5.2-5.16-9-9.85-8.49-12.14,8,18.36,24.09-1,24.28-9.1C477.52,143.71,475.45,139.9,470.22,134.92Z"/><path class="cls-6" d="M457.39,154.14s2.45,7.47,8.76,10c6.69,2.64,21.07-.9,21.18-13.52,0-1.81-.36-2.84-3.95-6.09-5.18-.84-7.46-4.17-13.16-9.58"/><path class="cls-2" d="M423.73,367.64S457,227.2,451.66,204.28c-7.63-3.42-9.55-12.4-11-16.24.29-17.09-6.49-35.84-1.91-47.72,2.11-5.49,11.24-13.53,16.87-15.19,1.57-.46,6.28,1,7.9.93-.12-24.61,33.31-32.19,22.2-8.68,12.67-2.27,19.12-6.81,24.87,13.46,15.91,1.58,19.15,8.16,17.28,25,11.38,8.58.34,30.49-8.88,34.45-3.22,6.39-1.76,20-17.31,22.78-4.56,19.47,5.1,149.59,5.1,149.59Z"/><path d="M470.22,134.92s14.27,16.84,16-3a17.54,17.54,0,0,1,8.32,8c-.87,9.72,3.58,21,13.63,5.58,0,0-2.48,32.65,11.16,23,0,0-5.89,25.05,7.9,14.33,0,0-12.12,11.86-13.79,10.72,0,0-16.76-19.72-22.45-5.88,0,0-3.13-21.15-24.49-21-5.2-5.16-9-9.85-8.49-12.14,8,18.36,24.09-1,24.28-9.1C477.52,143.71,475.45,139.9,470.22,134.92Z"/><path class="cls-2" d="M484.15,123.75c1.39,3.91,2.63,7.87,3.66,11.88.51,2,1,4,1.3,6.09a19.66,19.66,0,0,1,.21,6.22v0a5.5,5.5,0,0,0-.05,2.39,10.56,10.56,0,0,0,.68,2.35,18.13,18.13,0,0,0,1.09,2.21c.41.71.87,1.39,1.34,2.07l-.1-.07a20,20,0,0,0,5.46.32,13.4,13.4,0,0,0,2.68-.45,4.52,4.52,0,0,0,2.26-1.29l.35.24a32.65,32.65,0,0,0-2.92,7.36,15.49,15.49,0,0,0-.25,7.79l-.06-.11a11.33,11.33,0,0,0,5.87,2.79,28.53,28.53,0,0,0,6.66.43l.46,0-.16.46a9,9,0,0,0-.38,2.69,20.25,20.25,0,0,0,.18,2.8c.12.93.31,1.85.51,2.77s.47,1.83.75,2.73l-.16-.2a5.07,5.07,0,0,0,2,.52,12.85,12.85,0,0,0,2.15,0,18.1,18.1,0,0,0,4.23-.88,23.78,23.78,0,0,0,7.53-4.28l.57.69a24.5,24.5,0,0,1-7.85,4.36,18,18,0,0,1-4.43.87,13.36,13.36,0,0,1-2.28,0,5.74,5.74,0,0,1-2.28-.65l-.11-.07,0-.13c-.27-.93-.52-1.85-.74-2.79s-.38-1.89-.49-2.85a19.85,19.85,0,0,1-.16-2.89,9.22,9.22,0,0,1,.45-2.94l.3.44a28.71,28.71,0,0,1-6.79-.49,12,12,0,0,1-6.13-3l0,0,0-.06a16,16,0,0,1,.29-8,32.81,32.81,0,0,1,3-7.46l.35.23a5,5,0,0,1-2.48,1.42,13.78,13.78,0,0,1-2.77.44,20.36,20.36,0,0,1-5.56-.37h-.06l0,0c-.47-.69-.92-1.39-1.34-2.11a18.73,18.73,0,0,1-1.08-2.26,11,11,0,0,1-.67-2.41,5.56,5.56,0,0,1,.09-2.53v0a19.49,19.49,0,0,0-.15-6.14c-.31-2.05-.74-4.08-1.23-6.09C486.7,131.64,485.5,127.67,484.15,123.75Z"/><path d="M488,133.1a43,43,0,0,1,2.2,7.55,22,22,0,0,1,.26,7.88v0a5.22,5.22,0,0,0,0,2.33,10.13,10.13,0,0,0,.69,2.32,17,17,0,0,0,1.08,2.18c.42.7.87,1.38,1.34,2l-.19-.14a19.89,19.89,0,0,0,5.4.3,12.9,12.9,0,0,0,2.64-.45,4.44,4.44,0,0,0,2.16-1.23l.69.47a32,32,0,0,0-2.88,7.32,15.45,15.45,0,0,0-.23,7.66l-.13-.22a11.09,11.09,0,0,0,5.76,2.69,28.31,28.31,0,0,0,6.58.39l.92,0-.32.92a8.94,8.94,0,0,0-.33,2.57,18.16,18.16,0,0,0,.19,2.75c.12.92.31,1.83.51,2.74s.48,1.81.75,2.7l-.3-.4a4.35,4.35,0,0,0,1.72.42,10.34,10.34,0,0,0,2-.06,16.6,16.6,0,0,0,4-1,24.73,24.73,0,0,0,7.07-4.27l1.14,1.39a26.59,26.59,0,0,1-7.64,4.41,18,18,0,0,1-4.36,1,12.49,12.49,0,0,1-2.29,0,5.52,5.52,0,0,1-2.38-.69l-.23-.13-.08-.27c-.27-.93-.51-1.87-.73-2.81s-.37-1.91-.48-2.89a20.54,20.54,0,0,1-.16-2.94,9.78,9.78,0,0,1,.5-3.06l.6.89a29.37,29.37,0,0,1-6.86-.53,12.21,12.21,0,0,1-6.25-3.09l-.1-.1,0-.13a16.32,16.32,0,0,1,.31-8.16,32.21,32.21,0,0,1,1.29-3.85,35.08,35.08,0,0,1,1.76-3.66l.69.47a5.13,5.13,0,0,1-2.59,1.48,14.28,14.28,0,0,1-2.81.44,20.76,20.76,0,0,1-5.61-.39l-.13,0-.07-.11c-.47-.69-.93-1.4-1.34-2.13a19,19,0,0,1-1.08-2.28,11.3,11.3,0,0,1-.67-2.44,5.9,5.9,0,0,1,.11-2.6v.05a21.48,21.48,0,0,0,0-7.75A43.63,43.63,0,0,0,488,133.1Z"/><path class="cls-5" d="M502.84,155.62a29.07,29.07,0,0,0,6.49-21.3"/><path class="cls-2" d="M512.33,174.3c1.61-1.25,3.17-2.56,4.69-3.91s3-2.76,4.34-4.26a41.79,41.79,0,0,0,3.78-4.72,24.35,24.35,0,0,0,2.72-5.42,18.25,18.25,0,0,1-2.25,5.71,30.33,30.33,0,0,1-3.73,4.92,40.53,40.53,0,0,1-4.51,4.18A38.74,38.74,0,0,1,512.33,174.3Z"/><path class="cls-6" d="M457.39,154.14s2.45,7.47,8.76,10c6.69,2.64,21.07-.9,21.18-13.52,0-1.81-.36-2.84-3.95-6.09-5.18-.84-7.46-4.17-13.16-9.58"/><path class="cls-1" d="M423.68,367.78s33.22-140.43,27.93-163.35c-7.63-3.42-9.54-12.4-11-16.25.29-17.08-6.49-35.83-1.91-47.72,2.11-5.48,11.24-13.53,16.87-15.18,1.57-.46,6.28,1,7.9.92-2-16.85,31.22-37.38,22.2-8.67,12.67-2.28,19.13-6.81,24.88,13.46,15.9,1.57,19.15,8.16,17.27,25,15.6,11.76-.26,30.75-8.88,34.46-3.22,6.38-1.76,20-17.31,22.77-4.56,19.48,5.1,149.59,5.1,149.59Z"/><path class="cls-2" d="M423.73,367.64S457,227.2,451.66,204.28c-7.63-3.42-9.55-12.4-11-16.24.29-17.09-6.49-35.84-1.91-47.72,2.11-5.49,11.24-13.53,16.87-15.19,1.57-.46,6.28,1,7.9.93C465,112,488.51,89.11,492,115.58c22.94-5.71,24.1-.13,21.9,15.41,16.32,1.3,19.43,5.83,14,24.86,11.91,2.16,18.78,14.27-8.88,34.45-3.22,6.39-1.76,20-17.31,22.78-4.56,19.47,5.1,149.59,5.1,149.59Z"/><path d="M470.22,134.92s20.86,17.08,21.14-2.37a71.8,71.8,0,0,0,3.16,7.29c-.87,9.72,3.58,21,13.63,5.58,0,0-2.48,32.65,11.16,23,0,0-5.89,25.05,7.9,14.33,0,0-12.12,11.86-13.79,10.72,0,0-16.76-19.72-22.45-5.88,0,0-3.13-21.15-24.49-21-5.2-5.16-9-9.85-8.49-12.14,8,18.36,24.09-1,24.28-9.1C477.52,143.71,475.45,139.9,470.22,134.92Z"/><path class="cls-6" d="M457.39,154.14s2.45,7.47,8.76,10c6.69,2.64,21.07-.9,21.18-13.52,0-1.81-.36-2.84-3.95-6.09-5.18-.84-7.46-4.17-13.16-9.58"/><path class="cls-2" d="M490.59,140.37l-.29,4.37a7.22,7.22,0,0,0,2.09,5.57l1.28,1.27a7.19,7.19,0,0,0,9.41.67l7-5.25L497,137.38C491.08,124,490.8,137.18,490.59,140.37Z"/><path class="cls-2" d="M523.67,185h0a4,4,0,0,1-5.56-1.58l-2.89-5.29a4,4,0,0,1,.12-4.09l0-.05c1.65-2.64,4.71-10.94,7,.24l2.85,5.35A4.05,4.05,0,0,1,523.67,185Z"/><path class="cls-2" d="M519.08,169l-4.2,1.4a4,4,0,0,1-5-.77l-7.72-8.36a4,4,0,0,1-.46-4.89l3.94-6.31a4.05,4.05,0,0,1,7.25.77l5,14C518.6,166.65,520.79,168,519.08,169Z"/><path d="M180.66,248.25c50.79,2.59,65.82,5.19,94.85-17.62,33-25.94,132.52-21,167.92,1.56,30.06,19.17,64.26,10.36,112.46,16.06,23,2.72-28,88.11-28,88.11l-344.14-8.29S160.72,247.24,180.66,248.25Z"/><rect class="cls-7" x="107.7" y="261.73" width="504.8" height="342.06" rx="10.75"/><path class="cls-7" d="M286.29,656.13H434a27,27,0,0,0,3.87-4.66c24.53-38.6-32-165.59-77.74-165.59S257.7,613,282.39,651.47A28,28,0,0,0,286.29,656.13Z"/><circle class="cls-8" cx="360.1" cy="390.26" r="24.1"/></g></g></svg>