<svg xmlns="http://www.w3.org/2000/svg" xmlns:xlink="http://www.w3.org/1999/xlink" viewBox="0 0 720 720"><defs><style>.cls-1,.cls-8{fill:none;}.cls-11,.cls-2{fill:#fff;}.cls-3{clip-path:url(#clip-path);}.cls-4{fill:#0016ff;}.cls-5{fill:#e70000;}.cls-6{fill:#711ed6;}.cls-7{stroke:#0016ff;stroke-width:1.92px;}.cls-10,.cls-11,.cls-7,.cls-8,.cls-9{stroke-miterlimit:10;}.cls-10,.cls-11,.cls-8,.cls-9{stroke:#fff;}.cls-8{stroke-width:1.28px;}.cls-9{stroke-width:1.13px;}.cls-10,.cls-11{stroke-width:0.28px;}</style><clipPath id="clip-path"><circle class="cls-1" cx="360" cy="360" r="360"/></clipPath></defs><title>ideabuilding</title><g id="Layer_1" data-name="Layer 1"><path class="cls-2" d="M360,719.5A359.59,359.59,0,0,1,220.07,28.75a359.59,359.59,0,0,1,279.86,662.5A357.17,357.17,0,0,1,360,719.5Z"/><path d="M360,1A359.1,359.1,0,0,1,499.74,690.79,359.1,359.1,0,0,1,220.26,29.21,356.74,356.74,0,0,1,360,1m0-1C161.18,0,0,161.18,0,360S161.18,720,360,720,720,558.82,720,360,558.82,0,360,0Z"/></g><g id="Layer_2" data-name="Layer 2"><g class="cls-3"><rect class="cls-4" x="-59.52" y="-82.1" width="840.92" height="802.1"/><path d="M372.3,119.52A68.51,68.51,0,0,0,303.79,188a69.29,69.29,0,0,0,.95,11.42c-1.11,5.42-9.41,28.25-70.27,28.25,0,0,47.2,6.9,75.24-11.79a68.51,68.51,0,1,0,62.59-96.39Z"/><path class="cls-5" d="M-29.89,331a3.8,3.8,0,0,0-2.76,1.3,5.28,5.28,0,0,0-1,1.61,2.6,2.6,0,0,0-.13.36l-1.46.06h-.36c-1.49.06-3,.13-4.45.21s-2.83.22-4.46.41l-.52.07c-.63.07-1.26.15-1.9.21-.46.05-.93.08-1.39.11l-.9.06c-2.31.18-4.56.49-6.46.77l-1.52.16-.52.06-.4,0a17.71,17.71,0,0,1-1.93.14h-1.31c-1,0-2.11,0-3.17.05a88.39,88.39,0,0,0-9.65.93c-1.58.26-3.17.59-4.71.9l-1.11.23c-1.2.24-2.44.49-3.65.79l-2.61.68c-.66.18-1.32.4-2,.61l-.24.08c-1.58.53-3,1-4.35,1.55l-4.92,1.92c-.84.33-1.67.67-2.49,1l-1.93.78-1.52.6c-1,.39-2,.79-3,1.22-1.47.64-3.14,1.35-4.77,2.09l-.68.31c-1.22.55-2.48,1.12-3.69,1.72l-1.26.63-1.26.63c-.5.25-1,.51-1.48.78l-.69.37c-.88.47-1.75.95-2.63,1.44l-1.72.95c-1.38.75-2.74,1.53-4,2.33l-.13.08c-2.74,1.67-5.59,3.4-8.34,5.17l-.63.41c-2.38,1.53-4.85,3.12-7.23,4.74l-.66.45c-.49.32-1,.65-1.45,1l-1.2.87-1.12.82c-.49.36-1,.75-1.43,1.14l-.61.5c-.44.36-.87.74-1.3,1.12l-.45.41c-.37.32-.73.65-1.08,1l-.44.41-.14.13c-.59.54-1.18,1.08-1.75,1.64-1.16,1.13-2.28,2.27-3.61,3.63-2,2-3.85,4.16-5.66,6.21-2.05,2.32-3.92,4.79-5.73,7.17a.46.46,0,0,0-.07.4.64.64,0,0,0,.29.43.58.58,0,0,0,.3.09l-.41.55c-.52.69-1.06,1.41-1.56,2.13a23.43,23.43,0,0,0-2.35,4.77,14.69,14.69,0,0,0-.67,2.29c-.2.9-.37,1.83-.52,2.85-.27,1.85-.52,3.73-.78,5.77-.4,3.21-.78,6.47-1.14,9.63l-.18,1.55-.06.51c-.18,1.61-.37,3.28-.52,4.92-.12,1.35-.22,2.7-.32,4.05-.05.64-.09,1.29-.14,1.93-.07.86-.15,1.73-.23,2.59-.1,1.07-.19,2.13-.27,3.2s-.14,1.89-.22,2.84-.15,1.9-.22,2.84l-.15,2.23c-.07,1.12-.14,2.24-.23,3.36-.17,2-.34,4.05-.45,6.05s-.16,3.94-.17,5.74,0,3.64,0,5.46v.55c0,3.78.13,7.54.26,11.19q.12,3.19.22,6.39c0,1.25,0,2.53,0,3.76,0,.55,0,1.11,0,1.67,0,4.11.12,8.25.25,12.3.11,3.32.45,6.68.78,9.93l.17,1.69c.17,1.76.43,3.53.68,5.24.13.84.25,1.68.37,2.52.93,7.17,1.58,14.5,2.21,21.58l.17,1.84c.1,1.18.25,2.39.39,3.55.07.62.15,1.25.22,1.87.24,2.16.54,4.26.79,6l.45,3.09c.1.71.24,1.43.38,2.13l.21,1.11c.36,2,.74,3.75,1.15,5.37,1.07,4.25,2.41,8.5,3.7,12.61.94,3,1.92,6.16,2.8,9.26l.93,3.31,0,.07c.19.68.35,1.36.52,2l.24,1c.22.84.42,1.69.62,2.54s.46,2,.7,2.91c.44,1.68.94,3.37,1.43,5l.22.72c.49,1.65,1.06,3.43,1.78,5.61.6,1.82,1.24,3.63,1.91,5.36.78,2.06,1.67,4.06,2.51,5.91.71,1.57,1.51,3.24,2.46,5.12l.36.71.84,1.67a9.44,9.44,0,0,0,3,3.7,8,8,0,0,0,2.65,1.07,16,16,0,0,0,3.22.29h2l3.38,0a66.23,66.23,0,0,0,11-1,21.17,21.17,0,0,0,3.5-1c1.35-.5,2.77-1.07,4.34-1.76.77-.33,1.53-.7,2.28-1.06l1.24-.59c1.28-.59,2.26-1,3.19-1.45,1.8-.72,3.66-1.34,5.46-1.94l1-.33c1.23-.41,2.26-.72,3.25-1s1.84-.41,3-.58,2.49-.17,3.88-.17h.53a38.69,38.69,0,0,1,4.16.31c1,.15,2,.32,3,.49l2.17.35a56.63,56.63,0,0,0,6.08.61c2,.09,4.09.12,6.08.15s3.78.06,5.67.14c.9,0,1.81.1,2.71.16s1.95.12,2.93.16h.7a39.2,39.2,0,0,0,4.48-.34l.24,0c1.66-.19,3.42-.32,5.55-.42.62,0,1.26,0,2,0,1.27,0,2.53,0,3.71.1,2.2.09,4.42.28,6.58.46,1.38.12,2.77.24,4.17.33l2.24.16c1.17.09,2.35.18,3.53.25s2.52.12,3.78.17l1.89.07c1.26.06,2.63.09,4.17.09s3.37,0,5-.07l1.7,0c1.73,0,3.46-.07,5.2-.13L-5,635h.12l1.14,0c.3,0,.59,0,.89,0l.07.06a7.9,7.9,0,0,1,.6,1.2c.34,1,.6,2.06.87,3.13.08.35.16.72.23,1.08,0,.21.08.43.13.64.12.61.25,1.21.37,1.82.38,2,.67,4.06,1,6.05l.21,1.53c.43,3.25,1,6.54,1.45,9.73l.12.74c.19,1.26.42,2.51.64,3.77.11.6.22,1.2.32,1.8.27,1.55.59,3.37.94,5.16l.26,1.34c.63,3.15,1.27,6.41,1.94,9.61.48,2.28.93,4.6,1.37,6.85.28,1.41.55,2.82.84,4.23.84,4.23,1.67,8,2.52,11.45l.11.44c.8,3.28,1.63,6.66,3.69,9.36a19,19,0,0,0,4.14,3.76c1.08.78,2.25,1.46,3.38,2.13l.25.15a34.19,34.19,0,0,0,4.57,2.29,20.82,20.82,0,0,0,4.78,1.41,38,38,0,0,0,5.64.37h1.4c1.37,0,2.73,0,4.1,0,4.15-.09,7.88-.32,11.39-.72L58,724l2-.21c1.45-.15,2.93-.34,4.35-.53l1.08-.14c4.56-.58,8.52-1.15,12.13-1.73l1.08-.17c3.4-.55,6.92-1.12,10.36-1.76,1.22-.23,2.44-.44,3.67-.66,2.4-.42,4.89-.85,7.31-1.38l2.38-.52c2.93-.64,6-1.3,8.9-2,1.55-.38,3.12-.81,4.63-1.24l1.17-.33q2.76-.76,5.5-1.58c2.44-.71,4.74-1.56,7.49-2.59l.49-.19a39.53,39.53,0,0,1,7.13-2.2c.51-.06,1.18-.14,1.87-.19.53,0,1.08,0,1.61,0h.8c1.62,0,3.53-.09,5.46-.22a37.63,37.63,0,0,0,5.3-.68A19.47,19.47,0,0,0,155,705a26.55,26.55,0,0,0,2.54-1,39.44,39.44,0,0,0,4.39-2.36,19,19,0,0,0,3.34-2.61,7.51,7.51,0,0,0,1.38-2,9.79,9.79,0,0,0,.55-1.37,7.56,7.56,0,0,0,.33-1.84l0-.18a7.06,7.06,0,0,0-.06-1.21l0-.26c0-.37-.09-.75-.14-1.12-.1-.81-.21-1.72-.28-2.64-.11-1.49-.34-3-.55-4.45l-.17-1.09c-.16-1.4-.37-2.82-.57-4.19l-.05-.3c-.13-1.08-.29-2.15-.45-3.22l-.09-.62c-.18-1.52-.42-3.06-.64-4.56-.1-.66-.21-1.32-.3-2-.32-2.15-.68-4.33-1-6.43l0-.27c-.12-.7-.24-1.41-.37-2.12-.26-1.5-.53-3-.75-4.58-.25-1.73-.49-3.45-.72-5.18l-.15-1.05q-.59-4.42-1.22-8.84l-.26-1.86v-.14q-.31-2.41-.66-4.83c-.54-4.28-1-8.16-1.34-11.87-.31-3.14-.67-6.32-1-9.4l-.18-1.6c-.43-3.7-.84-7.6-1.24-11.59l-.1-1.07c-.35-3.55-.71-7.23-.9-10.85v-.11c-.08-1.54-.17-3.13-.15-4.7v-.87c0-1,0-2,.06-3l.38-.31a5,5,0,0,0,.57-.73l.1-.13.1-.12c.18-.23.38-.45.57-.66l.61-.72.09-.1c.52-.64,1-1.28,1.54-1.93.69-.85,1.36-1.71,2-2.57,1.4-1.76,2.84-3.59,4.29-5.36,2.73-3.33,5.22-6.17,7.62-8.69,1.67-1.74,3.4-3.47,5.08-5.14q1.53-1.51,3-3c1.29-1.31,2.59-2.67,3.87-4s2.35-2.73,3.45-4.12l.09-.11c1.37-1.74,3.26-4.13,2-6.42a6.2,6.2,0,0,0-1.2-1.36l-.22-.2c-.5-.48-1.05-.95-1.74-1.5L185,529.2c-.87-.71-1.74-1.42-2.63-2.11q-2.2-1.71-4.42-3.39l-2.14-1.65-.5-.38-1.14-.89c-1.67-1.32-3.41-2.67-5.07-4.06l-.43-.37c-2-1.71-4.15-3.47-6.11-5.33s-3.86-3.81-6-6.18l-1.25-1.37c-1.43-1.56-2.92-3.18-4.28-4.85-1.13-1.49-2.07-2.84-2.87-4.12-1-1.56-1.84-3.18-2.63-4.71-1.5-2.87-3-6-4.87-9.94-.6-1.28-1.2-2.56-1.81-3.84-1-2.13-2-4.33-3-6.51q-1.16-2.55-2.29-5.12c-.86-1.9-1.71-3.81-2.57-5.71-.19-.41-.37-.82-.55-1.22-.58-1.29-1.17-2.62-1.83-3.89q-1.39-2.7-2.8-5.4T123,443c-.83-1.54-1.71-3.17-2.67-4.74-2-3.28-4.24-6.56-6.21-9.45s-4.37-6.44-6.93-9.61c-.71-.87-1.41-1.75-2.11-2.62l-1.5-1.88-.9-1.11-.66-.81-.44-.54c-.46-.57-.94-1.17-1.45-1.72-1.2-1.32-2.54-2.72-4.09-4.29-1.31-1.31-2.71-2.57-4.06-3.79l-.06-.05c-1.49-1.35-3.15-2.6-4.58-3.66-1.61-1.2-3-2.19-4.4-3.11a58,58,0,0,0-9.85-5.07,29.8,29.8,0,0,0-8.42-1.59l-.5,0H64a1.51,1.51,0,0,0-1.39,1.33l-.26,0-.26.06c-.69.14-1.43.27-2.39.42-.44.06-.87.14-1.3.22l-1,.17-.3.05-.14,0-1.31.16-.38-.06-.38-.06c-.6-.1-1.21-.24-1.8-.37l-.88-.19c-.58-.12-1.17-.28-1.73-.43l-.37-.1-.83-.22q-.78-.19-1.56-.42l-6.18-1.75-3.78-1.07q-3-.85-6-1.74l-1.28-.65-1-.52c-1.16-.6-2.35-1.22-3.48-1.89-2.58-1.53-5.61-3.37-8.55-5.36-5.55-3.76-11.26-7.81-17-12l-1.22-.95-.68-.53-.54-.42q-.6-.45-1.17-.93l-2.41-2-.42-.35c-.35-.3-.71-.6-1-.91l-2.3-2.14-.15-.14-.17-.16c-.39-.37-.78-.73-1.15-1.12l-2.39-2.47c-.37-.39-.72-.8-1.06-1.21l-.33-.38-.35-.41c-.49-.56-1-1.13-1.45-1.72L-18.48,346l-.25-.33-.61-.8c-.26-.68-.53-1.37-.78-2.06A50.44,50.44,0,0,0-22.21,338c-.38-.73-.79-1.47-1.23-2.2a14.48,14.48,0,0,0-1.7-2.18,8.66,8.66,0,0,0-1.64-1.39,6,6,0,0,0-2.85-1.13Zm48.37,49.44-1-.41c-1-.43-2.06-.88-3.05-1.39l-1.16-.61-1.77-.92c-.48-.24-.94-.53-1.39-.81L9.5,376C6.76,374.34,4,372.48.73,370.11l-1.6-1.21-.23-.18-.39-.32-1.11-.92c-.35-.29-.69-.61-1-.92l-.49-.46c-1-.87-1.92-1.76-2.87-2.65s-1.77-1.72-2.57-2.59l-.11-.12c-.42-.47-.84-.93-1.24-1.4s-.76-.92-1.11-1.36c-.53-.68-1.06-1.44-1.68-2.37l.77.82c.93,1,1.93,1.9,2.9,2.79l.93.86c.36.34.74.66,1.12,1l.2.18,1.29,1.1,1.29,1.1,1.17.93.33.26,1.38,1.08,1.07.84c.48.37,1,.73,1.45,1.08l.58.43.7.52,1.41,1c.92.66,1.85,1.33,2.79,2l1.17.84c3.1,2.22,6.16,4.36,9.08,6.35.85.57,1.7,1.14,2.55,1.69Z"/><path d="M325.49,485.12a3.89,3.89,0,0,1,.92-.43l.11-.05.3-.13c.59-.28,1.17-.55,1.77-.81l-.11,0a32.54,32.54,0,0,0,4.62-2.52l.87-.54.17-.1.11-.06.93-.58.09-.06c.66-.41,1.33-.83,2-1.28l1-.71.16-.11,1.06-.76,1.55-1,.23-.15.31-.2,1.14-.74,1.26-.81,1.17-.79.2-.13c.29-.2.59-.41.89-.6L347,472c1-.63,1.91-1.25,2.85-1.89l.56-.38c1.06-.72,2.12-1.44,3.2-2.14,1.24-.82,2.46-1.62,3.68-2.45s2.42-1.71,3.57-2.61l1.63-1.21.36-.27c.39-.29.78-.59,1.16-.9s.49-.42.73-.64l.26-.24.59-.53c.41-.37.82-.74,1.22-1.12.63-.59,1.22-1.21,1.67-1.68s.82-.87,1.23-1.32c.66-.71,1.41-1.53,2.19-2.3.36-.35.7-.7,1.05-1.06l.33-.33.32-.34c.29-.29.6-.58.9-.86l.84-.81c.16-.16.31-.31.48-.46a1.41,1.41,0,0,0,.18-.14,10.2,10.2,0,0,1,1.44-.81l.94-.32a5.68,5.68,0,0,1,.71-.18c.22-.05.39-.08.56-.13.45-.12.9-.27,1.29-.41s.82-.25,1.22-.36l.08,0c.26-.08.52-.18.78-.28l.27-.1c.41-.16.82-.29,1.24-.42,1-.31,1.82-.59,2.61-.88s1.64-.56,2.46-.83l.19-.07q1.19-.37,2.34-.78l1-.34.18-.06c.47-.15.93-.3,1.38-.47l2.42-.83.28-.09c1.1-.38,2.24-.72,3.34-1.05l.31-.09.76-.22c1.58-.48,3.17-.9,4.71-1.26l.59-.14.22-.06,1.53-.35,2.11-.43.22,0,.23,0c1.27-.24,2.6-.44,3.78-.61l.79-.11c.82-.11,1.64-.2,2.47-.28.54-.05,1.09-.09,1.63-.12l1-.07a30.54,30.54,0,0,0,5.85-.91c.82-.23,1.7-.48,2.55-.78s1.6-.57,2.4-.88c1-.38,1.86-.75,2.66-1.13s1.62-.83,2.3-1.24l.49-.3c.58-.35,1.13-.68,1.64-1.05l.11-.07.11-.08c.17-.12.34-.24.5-.37a4.9,4.9,0,0,0,1.12-1.3,3.45,3.45,0,0,0,.5-1.54c0-.19,0-.37,0-.56v-.47a7.65,7.65,0,0,0-.27-2.65,5.69,5.69,0,0,0-2.71-2.93,9.61,9.61,0,0,0-1.08-.49l-.27-.11a7.27,7.27,0,0,0-2-.39c-.48,0-1-.05-1.36-.05H426.9c-2.2,0-4.76,0-7.34.18-1.51.08-2.67.18-3.77.31-1.26.16-2.51.35-3.89.55l-.21,0-2,.25-2.18.27.45,0-2.73.29h-.12l-1.24.13c-1.07.12-2.17.29-3.15.43l-1.28.2c-1.34.17-2.7.38-4.1.6l-.57.09-1.05.17-3.08.41-.11,0h0c-1.38.14-2.39.23-3.27.27s-1.59,0-2.12,0h-1.66l-3.36,0c-1,0-2.06,0-3.07-.12a11.5,11.5,0,0,1,.64-2.22c.18-.4.35-.79.52-1.19l0-.06c.24-.51.47-1,.73-1.5l.24-.46a10.94,10.94,0,0,1,.66-1.17c.23-.28.47-.56.69-.85s.44-.49.66-.72l.31-.31c.2-.21.41-.41.62-.61l.25-.23.32-.31.07-.07c.19-.19.37-.37.57-.55l.85-.78,1.32-1.2c.77-.67,1.56-1.3,2.31-1.88l.7-.54.58-.46c.67-.51,1.34-1,2-1.49.37-.27.75-.51,1.14-.76s.65-.43,1-.65c1.43-1,2.95-2,4.42-3.18l.14-.11c1.22-.94,2.6-2,4-3l1.16-.81c1-.68,2.09-1.45,3.14-2.22.71-.52,1.42-1.05,2.12-1.6l.06-.07h0l.07-.05.05,0c1.22-.93,2.36-1.85,3.51-2.82l.81-.71.17-.15.73-.62.49-.41.2-.16c.32-.26.64-.52.94-.79l.81-.71.19-.17c.62-.55,1.39-1.24,2.15-1.85l1.74-1.38,1.81-1.43-.09,0c.86-.63,1.7-1.3,2.54-2l.93-.73c.7-.54,1.39-1.09,2.08-1.64l.92-.73.3-.24.07,0c.75-.57,1.52-1.17,2.26-1.79s1.75-1.45,2.64-2.14c.48-.37,1.21-.92,2-1.43s1.45-1,2.08-1.49l.53-.38.17-.13.27-.2a14.87,14.87,0,0,0,1.19-1,6.54,6.54,0,0,0,.78-.88,13.55,13.55,0,0,0,.93-1.33c.23-.38.44-.8.61-1.13a9.11,9.11,0,0,0,.52-1.22,6.77,6.77,0,0,0,.29-1.45c0-.34,0-.64,0-.93a5.63,5.63,0,0,0-.1-.9l0-.2a14,14,0,0,0-.34-1.48l-.09-.3a17.92,17.92,0,0,0-.87-2.59,8.33,8.33,0,0,0-.51-1l-.2-.35-.07-.12c-.12-.22-.25-.43-.39-.64a4.55,4.55,0,0,0-.86-1.06,5,5,0,0,0-1.17-.7,4.25,4.25,0,0,0-.7-.25,3.15,3.15,0,0,0-.82-.09h-.46a18.87,18.87,0,0,0-2.82.32,10.19,10.19,0,0,0-2.63,1l-.69.33-.13.06-.1.05c-.47.22-1,.44-1.41.7l-.2.1-.29.16-1.68.93c-.57.32-1.12.66-1.68,1l-.67.4c-.53.32-1.06.62-1.59.92l-.2.11-.69.39c-.66.38-1.35.79-2.15,1.3-1.41.9-2.88,1.88-4.36,2.92l-.1.07c-1.2.85-2.7,1.91-4.1,3l-2.68,2c-2,1.43-4.18,3.05-6.23,4.75-1.13.94-2.24,1.91-3.35,2.87-1.65,1.43-3.33,2.88-5,4.24l-2.21,1.66c-.91.68-1.82,1.36-2.72,2.05-.61.47-1.23.94-1.86,1.39s-1.29,1-1.93,1.45l-.1.07c-1,.72-1.8,1.33-2.63,1.91l-.61.43-.15.11c-.69.49-1.41,1-2.13,1.46a43.55,43.55,0,0,1-5.79,3.06,16.76,16.76,0,0,1-3.64,1,12,12,0,0,1-1.25.11H366.2c-.76,0-1.55,0-2.32-.06.1-.38.19-.71.3-1l.06-.13c.13-.29.23-.52.32-.76a3.7,3.7,0,0,0,.16-.57l0-.1c0-.1,0-.19.07-.29a6.65,6.65,0,0,1,.5-.76c.18-.26.31-.49.45-.72l.17-.3c.17-.28.37-.54.55-.8l.17-.22c.12-.17.23-.34.34-.52l.33-.48c.38-.54.77-1.07,1.16-1.6l.44-.59c.3-.41.58-.82.87-1.24l.61-.88.26-.37c.41-.57.82-1.15,1.24-1.71s1-1.38,1.49-2.14c1-1.56,2-3.09,3-4.4.45-.65.88-1.31,1.31-2l.11-.17,1.26-1.89c.57-.82,1.11-1.67,1.64-2.5l.05-.08.78-1.22c.71-1.09,1.47-2.18,2.14-3.14l.52-.75c.46-.66.95-1.31,1.46-2l.66-.89.62-.84c.71-.89,1.46-1.77,2.23-2.68l1.14-1.34c.89-1.07,1.84-2.15,2.68-3.1l.8-.91c2-2.28,3.91-4.57,6-7.1l1.28-1.53c.91-1.09,1.83-2.16,2.76-3.24l.87-1,1.41-1.64.5-.59.78-.95c.33-.41.66-.82,1-1.21.82-.93,1.62-1.87,2.41-2.82l.5-.59.77-.9c.72-.86,1.49-1.69,2.22-2.49.43-.46.85-.93,1.27-1.39l.7-.78a47,47,0,0,0,3.16-3.74,14.58,14.58,0,0,0,2.55-5,10,10,0,0,0,.23-2.5v-.4c0-.69,0-1.37,0-2.06a11.3,11.3,0,0,0-.28-2.57,6.8,6.8,0,0,0-.46-1.26,7.43,7.43,0,0,0-.93-1.38,2.87,2.87,0,0,0-.69-.56l-.07,0a3.46,3.46,0,0,0-.62-.28l-.19-.08a3.81,3.81,0,0,0-1.38-.26l-1.41,0h-.31a14.89,14.89,0,0,0-1.64.12,8.66,8.66,0,0,0-1.77.38,16.39,16.39,0,0,0-2,.91c-.43.21-.85.43-1.29.61a6.24,6.24,0,0,0-1,.65l-.23.17c-.46.32-.93.67-1.44,1.08a35.22,35.22,0,0,0-3.93,3.53l-.74.74-1.17,1.19-.81.84-1.13,1.18c-.82.84-1.61,1.7-2.49,2.65l-.67.73-.33.36c-.71.76-1.32,1.39-2,2l-.53.47-.13.11c-.46.39-.91.79-1.35,1.21s-.92.9-1.36,1.36l-.08.08-.4.41-1.74,1.76c-1.19,1.2-2.35,2.43-3.45,3.65-.65.72-1.27,1.46-1.9,2.2l-.11.12-.2.24c-.45.53-.9,1.06-1.36,1.58l-.49.57c-1,1.14-2,2.31-3,3.51s-2.09,2.58-3,3.76l-.37.48c-1.13,1.45-2.32,2.88-3.52,4.25-1.4,1.59-2.66,3-3.86,4.22s-2.37,2.39-3.79,3.75l-.81.78-.32.32c-.54.53-1.08,1.06-1.63,1.57l-1.55,1.46-.37.35-1.07,1-1.56,1.47L354,363.78c-.94.89-2,1.77-3,2.63a12.18,12.18,0,0,1-2.21,1.34,9.66,9.66,0,0,1-1.78.47c-.92.1-1.92.18-3.05.24-.24-.34-.5-.67-.76-1-.42-.55-.77-1-1.11-1.52a11.09,11.09,0,0,1-.72-1.26c.12-.27.23-.55.34-.83l.19-.49c.17-.41.33-.82.49-1.23l.48-1.23c.32-.79.61-1.58.92-2.46s.66-1.8,1-2.66l.31-.73.16-.36c.2-.43.39-.85.57-1.28s.48-1.11.71-1.67l.28-.75,0-.11c.12-.31.24-.63.37-.95.22-.52.43-1,.64-1.56l.24-.63.09-.23.38-1c.23-.51.45-1,.66-1.52s.33-.78.49-1.18c.33-.72.68-1.44,1-2.16l.25-.5c.22-.45.43-.92.64-1.38l.29-.64c.65-1.42,1.3-2.83,1.93-4.26s1.32-2.86,2.1-4.38c.22-.44.43-.88.64-1.32s.27-.57.41-.84l.78-1.61.34-.73.26-.52.13-.26c.22-.45.44-.89.65-1.35l.45-1,.11-.26.51-1.14c.24-.53.48-1.06.71-1.59l.08-.18c.43-1,.87-1.94,1.33-2.89s1-1.89,1.43-2.83c.39-.76.78-1.51,1.15-2.26l.61-1.21c.68-1.35,1.35-2.69,2-4l.11-.23,0-.07c.68-1.41,1.39-2.88,1.95-4.37a20.35,20.35,0,0,0,1.21-4.65,15.9,15.9,0,0,0,.07-2.66,15.14,15.14,0,0,0-.27-2.69,4.52,4.52,0,0,0-1.4-2.38,2.64,2.64,0,0,0-.61-.43,2.35,2.35,0,0,0-.9-.24l-.36,0h0l-.6,0h-.07a18.34,18.34,0,0,0-1.86.26,11.12,11.12,0,0,0-2.2.74,12.51,12.51,0,0,0-1.69.89c-.63.4-1.24.79-1.86,1.22l-.32.22c-.3.2-.56.38-.82.58l-1.08.87-.52.43-.21.17-.41.33q-.48.4-.93.84l-.2.19a35.34,35.34,0,0,0-3.2,3.5l-.31.37c-.39.46-.75.9-1.1,1.33l-1,1.35-.1.14-.58.77c-.53.69-1.05,1.38-1.56,2.08l-1,1.42-.3.44-.31.43c-.78,1.1-1.51,2.22-2.26,3.37l-.7,1.06c-.22.34-.45.68-.68,1l-.22.33c-.19.28-.38.56-.56.85l-.15.22-.16.25c-.4.62-.8,1.24-1.21,1.85-.62.94-1.23,1.88-1.84,2.83l-1.3,2c-.49.74-1,1.52-1.47,2.33s-.88,1.56-1.31,2.35c-.3.56-.6,1.12-.89,1.68-.48.91-.95,1.8-1.44,2.66-.38.66-.73,1.35-1.08,2l0,.08-.07.13c-.3.59-.75,1.48-1.18,2.38-.23.49-.47,1-.71,1.46-.15.31-.31.61-.45.92-.47,1-.94,1.93-1.42,2.88-.79,1.57-1.68,3.28-2.7,5.21-.6,1.14-1.26,2.28-1.89,3.38l-.07.12-.2.34-.53.93c-.95,1.67-1.87,3.41-2.74,5.15s-1.77,3.52-2.67,5.27c-.41.79-.81,1.6-1.2,2.4-.21.44-.43.88-.66,1.31l-.07.14-.5.95-.22.44,0,.06c-.61,1.21-1.25,2.46-1.94,3.65l-.48.82-.09.14c-.59,1-1.19,2-1.76,3.05-.44.76-.88,1.48-1.26,2.09-.49.77-1,1.5-1.52,2.21l-.07.08c-.2.26-.41.52-.63.77s-.37.42-.56.63l-.08.07-.23.25-.06.07a18.56,18.56,0,0,1-1.4,1.41l0-.16-.07-.24-.09-.31c-.09-.27-.16-.53-.23-.79s-.08-.4-.12-.59v-.08c0-.16-.06-.32-.1-.48l-.08-.34,0-.07c-.06-.21-.11-.43-.16-.65,0-.44-.11-1-.22-1.62-.06-.26-.13-.51-.21-.76s-.16-.51-.22-.75c-.06-.66-.15-1.54-.28-2.4-.08-.48-.18-.95-.28-1.41l0-.08,0-.2c-.07-.35-.15-.69-.21-1-.08-.68-.16-1.35-.25-2-.06-.39-.1-.79-.13-1.18s0-.87,0-1.3v-.15a41.46,41.46,0,0,1,.29-4.65c.06-.43.13-.86.2-1.28l0-.18c.1-.54.19-1.08.27-1.63s.13-.86.21-1.26.15-.56.24-.84l.07-.26.14-.45,0-.1c.15-.49.3-1,.49-1.5s.47-1,.71-1.53l.27-.57c.34-.74.72-1.47,1.08-2.17l.35-.66q.42-.83.87-1.62a25.71,25.71,0,0,0,1.72-3.49,10.35,10.35,0,0,0,.56-2.7,16.45,16.45,0,0,0-.1-2.83l0-.19a18,18,0,0,0-.47-2.83,22.54,22.54,0,0,0-.94-2.77l-.07-.18a6.93,6.93,0,0,0-.62-1.25c-.2-.33-.42-.64-.64-1l-.09-.11a9.43,9.43,0,0,0-1.81-2,16,16,0,0,0-4.54-2.39,11.34,11.34,0,0,0-2.34-.56h-.07c-.39-.06-.79-.12-1.18-.16l-.67,0h-1.15c-1,0-2.06,0-3.08,0a10.38,10.38,0,0,0-1.67.16,2.75,2.75,0,0,0-1,.38,2.87,2.87,0,0,0-.71.68l-.08.08-.29.29a2.6,2.6,0,0,0-.46.84l-.33,1,0,.07-.1.32a13.05,13.05,0,0,0-.32,1.31c0,.17-.07.35-.11.52l0,.12q-.1.42-.18.84c-.06.33-.1.66-.14,1l0,.18a28.93,28.93,0,0,1-.87,3.95c-.12.39-.25.78-.37,1.17l0,.07-.21.63c-.2.62-.38,1.26-.56,1.89-.23.8-.46,1.53-.69,2.21l-.33.92-.1.29-.37,1c-.51,1.48-1.1,3-1.74,4.6l-.13.29-.41,1-.06.14-.12.28,0,.06c-.13.29-.25.58-.38.86-.28.59-.58,1.18-.87,1.76s-.67,1.31-1,2l-.68,1.34c-.54,1.07-1.12,2.21-1.72,3.31l-.42.79c-.12.24-.24.47-.37.7l-.09.16-.11.21-.7,1.34c-1,1.86-2.12,4.06-3.39,6.19-.54.9-1.12,1.82-1.79,2.82-.53.79-1.06,1.57-1.63,2.32s-1,1.29-1.49,2l-.29.36-.87,1.13c-.37.5-.71,1-1,1.55l-.05.09a12.49,12.49,0,0,0-.78,1.42c-.27.56-.51,1.14-.74,1.7l-.1.25c-.21.52-.38,1.07-.54,1.6l-.07.25a18,18,0,0,0-.53,2.23c-.07.46-.15.91-.24,1.37l0,.25c-.12.66-.24,1.33-.33,2l0,.08v.1l0,.2,0-.16c-.14.81-.27,1.51-.42,2.18-.07.32-.15.63-.22.95L257,393l0,.16c-.11.44-.21.88-.31,1.32-.13.65-.3,1.29-.46,1.92l0,.13-.13.52c-.05.18-.1.36-.14.55l0,.06-.07.31-.08.31c-.05.2-.11.4-.16.59s-.14.49-.2.74c-.14.54-.28,1.09-.43,1.63l-.08.32c-.28,1-.52,1.94-.73,2.87l-.24,1,0,.1-.06.25c-.07.28-.14.56-.2.84s-.16.69-.25,1l0,.13c-.13.51-.25,1-.35,1.47a25.84,25.84,0,0,0-.56,5.11c0,1.73.06,3.52.15,5.33a32.29,32.29,0,0,0,.65,5.07c0,.24.11.48.17.72l.07.3c.06.24.12.48.17.72l0,.08.15.64c.1.42.23.84.35,1.24l.05.14.1.34c.12.37.23.74.37,1.1.2.58.43,1.16.65,1.74l.47,1.22a12.05,12.05,0,0,1,.42,1.56c.11.5.2,1,.29,1.51v.15c.08.76.15,1.44.17,2.13s0,1.62,0,2.41v.07l0,.48c-.05,1.66-.17,3.29-.36,4.85-.09.65-.2,1.29-.32,1.94-.06.34-.12.68-.17,1l-.05.29c-.08.51-.16,1-.26,1.51s-.2.91-.3,1.36l0,.12c-.11.48-.22,1-.31,1.46s-.18.81-.34,1.37c-.07.24-.15.48-.23.72l0,.12c-.07.2-.13.41-.19.61-.18.63-.38,1.24-.58,1.86l-.2.64-.13.39,0,.1-.18.58c-.12.38-.26.74-.41,1.11l-.05.12c-.36.93-.73,1.85-1.1,2.78-.3.74-.59,1.48-.88,2.23l-.87,2.13-.09.21-1,2.53c-.36.92-.72,1.85-1.06,2.79l-.23.61c-.27.75-.53,1.48-.81,2.19s-.56,1.37-.85,2.06l-.08.19-.07.18c-.35.86-.7,1.71-1,2.57-.6,1.5-1.24,3.13-1.84,4.81-.82,2.31-1.71,4.79-2.63,7.21q-.33.84-.63,1.68c-.23.63-.46,1.26-.7,1.89-.41,1-.84,2.08-1.26,3.13l-.06.13a.51.51,0,0,0,.09-.16c-.43,1-.83,1.92-1.24,2.88l-.14.34c-.28.66-.56,1.32-.82,2l-.28.71-.11.29-.51,1.28c-.35.84-.69,1.67-1,2.5-.18.45-.34.89-.51,1.34l-.06.17c-.11.32-.23.64-.35,1-1.06,2.81-2.22,5.59-3.33,8.28l-.56,1.33c-.52,1.24-1,2.47-1.55,3.71l-.3.72-1,2.51s-.05.1-.05.1l-.06.14,0,.07.09-.17c-.41.91-.81,1.83-1.2,2.75l-.16.36-.11.26c-1,2.41-2.1,4.9-3.1,7.37-.28.68-.55,1.36-.82,2-.5,1.26-1,2.49-1.51,3.72-.43,1-.84,2-1.26,3l-.23.56-.74,1.81-.15.37c-.67,1.59-1.42,3.4-2.11,5.19l-.38,1c-.58,1.48-1.17,3-1.71,4.54s-1,2.8-1.51,4.2l-.08.21c-.84,2.33-1.67,4.6-2.41,6.84-.8,2.42-1.8,5.43-2.83,8.28-.89,2.43-1.87,4.94-3.07,7.88L201,592.67c-.42,1-.83,1.94-1.24,2.91-1,2.31-2,4.63-3,6.88l-.14.31c-1.1,2.49-2.48,5.6-3.72,8.59-.63,1.49-1.45,3.45-2.22,5.41l-.29.72,0,.11c-.56,1.42-1.14,2.9-1.67,4.36l-.74,2,0,.12c-1.06,2.9-2.16,5.9-3.19,8.87-.68,2-1.38,3.95-2.08,5.92-.62,1.73-1.25,3.6-1.93,5.74-.55,1.71-1.07,3.42-1.59,5.13l-.24.78c-.58,1.91-1.14,3.77-1.69,5.69-.2.68-.39,1.35-.58,2a1.13,1.13,0,0,0-.59-.16,1.31,1.31,0,0,0-1.13.64c-.68,1.15-1.23,2.14-1.74,3.13l-.52,1c-.35.63-.69,1.27-1,1.92a23.8,23.8,0,0,0-1.28,3.29c-.34,1.15-.61,2.14-.85,3.09l-.33,1.32-.15.58c-.35,1.33-.78,3-1.11,4.59a17.66,17.66,0,0,0-.38,3.68,19.27,19.27,0,0,0,.42,3.54l.06.34.06.33.18.91c0,.18.06.36.08.53.06.37.12.73.2,1.08.23,1,.52,2,.8,2.9l0,.19c.31,1.08.65,2.15,1,3.18a33.56,33.56,0,0,0,1.48,3.7,5.29,5.29,0,0,0,.61.95l.11.15a11.55,11.55,0,0,0,.78,1,6.93,6.93,0,0,0,1.06.85l.06,0a7.49,7.49,0,0,0,.63.41,16.77,16.77,0,0,0,3.48,1.34c.77.22,1.58.38,2.36.54l.28.06.54.11.17,0,.11,0c.95.2,1.93.4,2.88.66s2,.56,2.95.86c1.19.37,2.27.69,3.36,1a45.57,45.57,0,0,0,7.11,1.3c2.28.23,4.55.34,6.73.34h.27c2.06,0,4.26,0,7.11-.09,4.94-.09,9.48-.29,13.88-.63,1.48-.11,3-.18,4.42-.25l.62,0,1.81-.09c2-.11,4.12-.32,6.92-.69l1.91-.26h.09l.5-.07.59-.08.06,0h.12l.13,0h.1l-.08,0c4.35-.56,8.27-1.09,12.2-1.87,1.76-.35,3.55-.79,5.13-1.18,2.33-.57,4.75-1.17,7.19-1.54.75-.08,1.87-.21,3-.26l.66,0c.9,0,1.92-.09,2.9-.19.78-.09,1.44-.18,2-.28a7.44,7.44,0,0,0,1.18-.33,5.47,5.47,0,0,0,2.13-1.37,7.6,7.6,0,0,0,1.42-2.37,13.07,13.07,0,0,0,.55-1.5c.3-1.1.57-2.09.78-3.11.16-.71.29-1.43.42-2.14l.17-.88c.11-.57.22-1.14.34-1.71s.23-1.13.34-1.7.21-1.13.31-1.69l.06-.37.24-1.29.1-.51c.17-.87.33-1.74.51-2.61.14-.66.26-1.32.38-2l0-.18c.07-.42.14-.84.22-1.25l0-.08c.36-2,.77-4.16,1.27-6.3.32-1.37.6-2.78.86-4.14l0-.12.07-.36.36-1.83c.43-2.12.83-4.28,1.23-6.59.66-3.92,1.26-8,1.78-11.61l.31-2.08q.48-3.29.94-6.57c.35-2.46.66-5,1-7.4l0-.11c.06-.47.11-.93.17-1.39l.11-.92c.3-2,.68-4,1-6l.16-.85c.44-2.32.88-4.6,1.33-6.76.25-1.23.51-2.46.76-3.7l.23-1.16c.58-2.84,1.14-5.61,1.72-8.32l.36-1.68c.37-1.69.74-3.41,1.07-5.1l.41-2.07c.31-1.59.62-3.16,1-4.73.2-1,.41-1.94.62-2.91.28-1.28.56-2.56.82-3.85.14-.7.27-1.39.41-2.09.31-1.63.63-3.22,1-4.79.6-2.75,1.07-4.86,1.53-6.84l.1-.44c.49-2.13,1-4.21,1.39-6.29.45-2.27.91-4.54,1.34-6.82.4-2.09.75-4.26,1.07-6.17l.11-.7c.13-.79.25-1.57.38-2.36l.19-1.19c.17-1.06.33-2.11.51-3.17.2-1.27.42-2.54.64-3.81l.12-.71.4-2.31c.18-1.1.35-2.19.52-3.28v-.07c.17-1.07.34-2.14.52-3.21s.39-2.36.58-3.54l0-.14.09-.58c.13-.78.25-1.56.39-2.35l.48-3c.46-2.9.93-5.91,1.64-8.86l.29-1.22.18-.77c.3-1.28.61-2.57.93-3.85a42.79,42.79,0,0,1,1.76-6"/><path class="cls-6" d="M813.81,473.56,610.88,537.5a19.24,19.24,0,0,0-19.18,19.19V705.53a19.24,19.24,0,0,0,19.18,19.18H813.81A19.24,19.24,0,0,0,833,705.53V492.74A19.24,19.24,0,0,0,813.81,473.56Z"/><polyline class="cls-2" points="142.39 240.39 217.09 240.39 217.09 257.58"/><polygon class="cls-2" points="142.39 212.82 217.09 212.82 217.09 195.62 139.8 195.81 142.39 212.82"/><path d="M179.65,29.7C127.8,32,75,30.14,23.79,40.1-30.31,50.62-21.69,148.55-9.73,199.28,3.8,256.7,3.82,272.56-39.24,325.67c-36.93,45.53-20.1,19.6,29,52.86,18.66,12.63,40,54.64,61.31,58.16,32.42,5.33,8.92-5,16.49-20.75,6.64-13.83,2.79-30,17.59-50.12,5.51-7.47,25.09-33.33,33.55-37.84,44.18-23.55,88.08,22,98.12-53.06,17-15.32,17.89-26.14-6.76-29.29-6.51-.83-85.27-13.08-50-45.11,9.35-8.49,44.77,14.12,57.38,8.79,29.12-12.29-2.24-10.62,10.58-29.12,32.46-1.72,34.43-21.38,15.44-52.6C230.21,105.7,201.81,29.7,179.65,29.7Z"/><path class="cls-7" d="M189.85,403.51a7,7,0,0,0-.91.07l-1.19.17a6.79,6.79,0,0,0-1.87.61,16.22,16.22,0,0,0-3,2,37.64,37.64,0,0,0-4.66,4.74c-1,1.15-2.07,2.25-3.11,3.32L173.58,416c-2,2.1-4.07,4.18-6.08,6.19l-.14.14a84.1,84.1,0,0,1-6.46,5.78c-2,1.53-3.66,2.74-5.19,3.79-.64.44-1.26.91-1.88,1.37l-.9.66-2.79,2-1.92,1.37c-1.2.85-2.44,1.73-3.64,2.62l-1,.71c-.65.46-1.33.95-2,1.48-.91.76-1.8,1.56-2.64,2.39s-1.49,1.49-2.22,2.24-1.51,1.57-2.22,2.47c-.25.32-.49.64-.73,1l-.32.43-.33.44c-.18.23-.36.47-.53.71-.53.77-1,1.59-1.62,2.6a50.44,50.44,0,0,0-2.82,6.09c-.39.94-.74,1.91-1.08,2.85s-.72,2-1.12,3l-.07.16c-.7,1.6-1.42,3.25-2.21,4.84s-1.68,3.26-2.71,5-2,3.29-3,5c-.89,1.42-1.93,3.07-3.08,4.61-.63.79-1.21,1.47-1.77,2.08a20.38,20.38,0,0,1-2,1.88,9.28,9.28,0,0,1-1.61,1,13.31,13.31,0,0,1-2.8.7c-1.37.15-2.77.24-4.12.32l-.47,0q-.49-.52-1-1.05c-.43-.44-.87-.87-1.32-1.3s-1.07-1.05-1.59-1.58-1.12-1.21-1.68-1.82l-1.16-1.26c-1-1.06-2-2.17-2.75-3.11-1.16-1.53-2.29-3.11-3.24-4.46l-.66-.95c-.31-.44-.61-.89-.93-1.33-.54-.74-1.1-1.51-1.64-2.3-.17-.26-.35-.52-.53-.77-.37-.54-.75-1.09-1.1-1.65-.51-.82-1-1.65-1.5-2.47-.94-1.61-1.89-3.22-2.71-4.87L80,462.3c-.33-.85-.6-1.63-.83-2.38a16.32,16.32,0,0,1-.45-2.08,25.61,25.61,0,0,1-.08-2.93c0-.83.08-1.74.17-2.87,0-.38.07-.77.1-1.16,0-.59.11-1.19.15-1.78,0-.75,0-1.52,0-2.26l0-.67v-.37a86.15,86.15,0,0,0-.83-12,27.3,27.3,0,0,0-.66-2.95,21.47,21.47,0,0,0-1.2-3.09l-.1-.22A24.5,24.5,0,0,0,73,422.3a35.62,35.62,0,0,0-3.86-4.07c-.87-.81-1.61-1.44-2.34-2a19.65,19.65,0,0,0-2.65-1.82c-.88-.48-1.76-.9-2.51-1.25a29.26,29.26,0,0,0-2.89-1.21,11.52,11.52,0,0,0-1.42-.37,11.37,11.37,0,0,0-1.61-.19h-.53a15.73,15.73,0,0,0-2.56.24,9.56,9.56,0,0,0-1.32.38c-.49.18-1,.4-1.66.69s-1.33.69-2,1.06l-.62.36a22.54,22.54,0,0,0-2.28,1.52A4.09,4.09,0,0,0,43,418.23a4.22,4.22,0,0,0,.52,2.15,12.06,12.06,0,0,0,.67,1.23c.18.31.36.61.52.93.41.8.81,1.6,1.21,2.41l.56,1.09.66,1.31c.37.76.7,1.52,1.07,2.36l.24.58a22.59,22.59,0,0,1,1.53,4.6,9.48,9.48,0,0,1-.05,2,10.22,10.22,0,0,1-.64,2.06l-.08.21a7.07,7.07,0,0,0-.32,1.24c-.08.45-.18.91-.29,1.36l-.08.38c-.2.86-.4,1.74-.53,2.62s-.31,2-.48,2.95-.28,1.71-.42,2.56l-.07.5c-.11.72-.26,1.45-.4,2.15-.06.29-.12.58-.17.87s-.15.75-.21,1.12c-.12.61-.23,1.22-.36,1.83s-.3,1.34-.46,2l-.21.86c-.12.5-.25,1-.38,1.49s-.27,1.05-.4,1.58c-.24,1-.48,2-.7,3.07a44.78,44.78,0,0,0-1,6,29.31,29.31,0,0,0,0,5.92,21.29,21.29,0,0,0,2,6.55,19.74,19.74,0,0,0,1.7,3.08c.62.88,1.3,1.8,2.09,2.81s1.44,1.86,2.18,2.79c.57.76,1.05,1.47,1.47,2.15a18,18,0,0,1,1.09,2.15,21.74,21.74,0,0,1,.87,2.7c.21.89.38,1.8.53,2.79s.19,1.9.21,2.69,0,1.74,0,2.58v.23c0,2-.1,4.07-.18,6.15,0,.82-.08,1.64-.11,2.46-.06,1.16-.12,2.32-.15,3.48-.06,2,0,4,0,5.88v.54c.06,4.49.16,8.27.42,12.1a56.89,56.89,0,0,0,.82,6.37c.14.73.29,1.46.45,2.18l.19.91c.22,1,.47,2,.75,2.87.84,2.62,1.63,4.77,2.48,6.76l.36.86.72,1.73c.29.73.58,1.44.81,2.17a20.29,20.29,0,0,1,.61,2.61,28.18,28.18,0,0,1,.21,2.91c0,.91,0,1.83,0,2.74,0,2.26-.05,4.29-.14,6.2s-.2,3.77-.37,6c-.11,1.41-.2,2.81-.28,4.22-.05.75-.09,1.51-.14,2.27-.09,1.24-.21,2.5-.33,3.72-.06.52-.11,1.05-.16,1.57l-.1,1.16c-.13,1.32-.25,2.69-.43,4-.16,1.13-.31,2.25-.43,3.34a.9.9,0,0,0-.35-.18,1.06,1.06,0,0,0-.31,0,1.2,1.2,0,0,0-1.19.89q-.1.52-.24,1a6.15,6.15,0,0,0-.18,1.29c0,.44,0,.88,0,1.31v.35c0,1.16,0,2.32,0,3.48a27.55,27.55,0,0,0,.29,3.88,12.69,12.69,0,0,0,.56,2c.13.38.26.76.37,1.15.25.89.57,1.83,1,3.06a18.18,18.18,0,0,0,1.68,3.46A14.56,14.56,0,0,0,64,628a32.88,32.88,0,0,0,2.88,2.27c.88.59,1.85,1.17,3,1.81,1,.54,2,1,3.06,1.47l.11.05a34.34,34.34,0,0,0,7,2.15c2.18.47,4.39,1,6.52,1.46l.66.16c2.13.48,4.62,1,7.11,1.47a68.26,68.26,0,0,0,7.56.91c1.79.1,3.27.15,4.64.15.93,0,1.78,0,2.63-.06,2.53-.14,5-.28,7.5-.6,1.11-.13,2.3-.31,3.84-.56l1-.16c.79-.12,1.6-.25,2.4-.41l.69-.14c.91-.19,1.85-.38,2.76-.63A33.77,33.77,0,0,0,131,636.1a45.11,45.11,0,0,0,6.53-3.35,33.07,33.07,0,0,0,3.15-2.19c.8-.62,1.56-1.31,2.29-2l.5-.45.74-.67c1.36-1.22,2.76-2.49,4.1-3.77,1.76-1.69,3.57-3.38,5.37-5s3.58-3.25,5.3-4.7l.94-.78,2-1.71c.73-.63,1.44-1.31,2.12-2l.32-.31.6-.57c.67-.64,1.36-1.31,2-2,.86-.91,1.69-1.84,2.4-2.63.44-.5.89-1,1.34-1.48.68-.73,1.38-1.49,2-2.26.31-.36.6-.73.9-1.11l.57-.73c.51-.62,1-1.25,1.49-1.89l.09-.11,0,0c.25-.31.49-.63.73-.94l-.23.28c.27-.32.52-.66.78-1l.67-.87-.1.11.32-.41a14.25,14.25,0,0,1,1.77-1.86,7.19,7.19,0,0,1,1-.54,24.06,24.06,0,0,1,2.51-.86,26.61,26.61,0,0,1,3-.66l.56-.06c.82-.09,1.66-.18,2.49-.24.64,0,1.27-.07,1.91-.09s1.14-.05,1.7-.09l1.49-.11c.75-.06,1.49-.12,2.23-.15s1.7,0,2.52,0h1.18l1.35,0c1.63,0,3.26,0,4.89,0h1.11a56.34,56.34,0,0,1,6.54.32,21.6,21.6,0,0,1,3.48.87q1.52.51,3,1a27.09,27.09,0,0,0,3.5,1c1.06.22,2.19.41,3.54.6,1.2.17,2.42.25,3.61.34l.29,0,1,0c.76,0,1.52,0,2.26-.09a29,29,0,0,0,3.8-.45,15,15,0,0,0,3.63-1.18l.3-.14c.39-.18.79-.37,1.17-.59a13.71,13.71,0,0,0,1.66-1.11,12.48,12.48,0,0,0,2.31-2.34c.17-.22.32-.43.47-.66a7.68,7.68,0,0,0,.63-1.29,7.52,7.52,0,0,0,.41-2.12V583a14.12,14.12,0,0,0-.22-3.34,12.2,12.2,0,0,0-.87-3.12,15,15,0,0,0-.79-1.54,18.2,18.2,0,0,0-1.26-1.8,11.84,11.84,0,0,0-1.24-1.36,11.28,11.28,0,0,0-1.28-1l-.24-.17a18.92,18.92,0,0,0-2.95-1.64,36.66,36.66,0,0,0-3.8-1.51c-1.28-.46-2.57-.9-3.84-1.32-3.12-1-5.66-1.93-8-2.87-2.46-1.09-4.86-2.25-6.88-3.25a40.59,40.59,0,0,1-6.42-4,36.73,36.73,0,0,1-2.79-2.45,28,28,0,0,1-2.37-2.52l-.24-.33.3-.15,1.36-.59.75-.34a61.58,61.58,0,0,1,6.29-2c.93-.25,1.9-.46,2.83-.67l.69-.15c.54-.11,1.08-.27,1.6-.42l.15,0,.44-.12c.43-.12.86-.25,1.28-.39,1.35-.47,2.43-.87,3.43-1.26l2.27-.85,1.23-.45c1.16-.43,2.2-.85,3.2-1.28s2-.94,3.22-1.53l1.41-.69,1.58-.79c.85-.43,1.76-.86,2.78-1.32,2.17-.83,4.46-1.49,6.48-2.07l.92-.26a24.83,24.83,0,0,0,5.77-2.16,21.57,21.57,0,0,0,2.88-2,14.06,14.06,0,0,0,2.42-2.69,8.2,8.2,0,0,0,.61-1l.16-.28a14,14,0,0,0,.81-1.78c.15-.39.3-.81.47-1.34a13,13,0,0,0,.43-2.24v-.08a6.47,6.47,0,0,0-.08-1.87,8.54,8.54,0,0,0-.25-1.17,7.79,7.79,0,0,0-.85-1.93,12.39,12.39,0,0,0-1.37-1.78,5,5,0,0,0-.69-.61l-.11-.09a10.06,10.06,0,0,0-1.08-.77,10.56,10.56,0,0,0-1.83-.82,13.11,13.11,0,0,0-1.91-.55,15.19,15.19,0,0,0-2.07-.27h-.56c-.4,0-.8,0-1.2,0h-.12a31.8,31.8,0,0,0-7.31,1.06c-.51.14-1,.3-1.53.46s-1.23.39-1.86.56c-.92.25-1.84.48-2.77.72l-.74.2c-1.74.45-3.42.86-5.44,1.35-1.8.43-3.83.93-5.8,1.51S220.6,519,219,519.35c-1.91.43-3.79.84-5.67,1.11-1.47.18-2.6.26-3.68.29H208.2l-2.79,0c-2.37-.05-4.91-.13-7.48-.44a18.47,18.47,0,0,1-2.05-.4,17.49,17.49,0,0,1-1.68-.57,6,6,0,0,1-.89-.55l-.17-.17c-.1-.16-.2-.33-.29-.5s0-.12,0-.18a.67.67,0,0,1,0-.2,9.61,9.61,0,0,1,.47-1.62,21.28,21.28,0,0,1,2.4-3.6l.22-.29,1-1.29h0c.58-.71,1.11-1.36,1.62-1.95l.53-.62c.46-.53.91-1.06,1.36-1.6l.6-.74,1.35-1.65c.66-.78,1.37-1.53,2-2.19,1.64-1.71,3-3.11,4.35-4.4s2.83-2.5,4.23-3.62a62.71,62.71,0,0,1,5.61-3.74c1.81-1.08,3.71-2.35,5.82-3.89,1.73-1.26,3.44-2.62,5.08-3.94l.95-.76.81-.64,2-1.57c.55-.45,1.08-.91,1.62-1.38l1.09-.94a71.83,71.83,0,0,0,5.35-5,23,23,0,0,0,2.3-2.86,23.91,23.91,0,0,0,1.85-3.19,24.64,24.64,0,0,0,1.34-3.62c.18-.63.33-1.22.45-1.81s.22-1.36.3-2l0-.16a19.5,19.5,0,0,0,0-3.44,9.82,9.82,0,0,0-1.33-5,4.55,4.55,0,0,0-1.82-1.67,4.6,4.6,0,0,0-2-.44,5.8,5.8,0,0,0-1.46.19l-1.2.34-1,.29a11.62,11.62,0,0,0-1.5.53l-.55.21c-.66.25-1.32.55-1.95.83l-.54.24c-1.46.57-2.95,1.19-4.42,1.82-1.89.77-3.93,1.59-6,2.36l-2.32.86c-1.55.59-3.16,1.19-4.75,1.73-2.13.71-4.26,1.4-6.34,2l-.39.13c-2.08.63-4.22,1.29-6.31,2a54,54,0,0,0-6.75,2.74,23,23,0,0,0-5.73,3.88,61.82,61.82,0,0,0-4.69,5.17c-.56.68-1.15,1.33-1.72,2l-.38.42-.61.67c-.57.65-1.14,1.29-1.73,1.92-1.58,1.68-3.21,3.36-4.78,5l-1.94,2c-1.4,1.45-2.58,2.61-3.7,3.66-.54.49-1.07,1-1.6,1.49s-1.22,1.05-1.81,1.52-1.27.94-2,1.43a19.94,19.94,0,0,1-2.59,1.34,11.66,11.66,0,0,1-2.29.55c-.48,0-.95.06-1.44.06h-.43c-.51,0-1-.08-1.58-.15a13.39,13.39,0,0,1-2.16-.53,8.33,8.33,0,0,1-1-.59l0-.05,0-.08a.56.56,0,0,1,0-.12,10,10,0,0,1,.15-1.63l0-.32a21.26,21.26,0,0,1,.49-2.21c.17-.54.35-1.08.52-1.63s.28-.84.41-1.26c.19-.6.44-1.19.67-1.76q.23-.53.42-1.05c.27-.71.58-1.47,1-2.39s.73-1.73,1.1-2.62l.53-1.29c.77-1.79,1.58-3.53,2.4-5.17l.51-1c.64-1.27,1.29-2.58,2-3.86.5-.93,1-1.89,1.44-2.82.38-.75.75-1.5,1.14-2.24s.91-1.68,1.44-2.58a21.18,21.18,0,0,1,1.48-2.19c.74-.91,1.48-1.77,2.12-2.5l.42-.5c.66-.75,1.33-1.54,2-2.28.88-.93,1.74-1.92,2.57-2.87s1.44-1.66,2.18-2.46c.4-.43.8-.86,1.21-1.28s.81-.84,1.2-1.27l2-2.19.4-.42c1.6-1.71,3.07-3.49,4.69-5.48.74-.91,1.43-1.89,2.09-2.84s1.42-2.08,2-3a33,33,0,0,0,1.75-3.14c.54-1.1,1-2.25,1.5-3.5a28.8,28.8,0,0,0,1.06-3.55,32.82,32.82,0,0,0,.64-4.08,19.57,19.57,0,0,0,0-3.51,16.25,16.25,0,0,0-.62-3.67,9.4,9.4,0,0,0-.78-1.75,4.72,4.72,0,0,0-.36-.55l-.11-.15a8.05,8.05,0,0,0-1.29-1.45,7.77,7.77,0,0,0-1.49-1c-.34-.17-.69-.32-1-.46l-.18-.07a7.19,7.19,0,0,0-2.05-.42ZM67.46,626l-.08-.06-.23-.19.31.25Z"/><path class="cls-7" d="M556.16,164.22c-.58.11-1.2.25-1.82.43a22.71,22.71,0,0,0-4.86,2,42.15,42.15,0,0,0-4.54,2.88,45.48,45.48,0,0,0-3.77,3.06,25.84,25.84,0,0,0-2,2.06c-.53.6-1,1.23-1.55,1.93a22,22,0,0,0-2.48,4.57,31.06,31.06,0,0,0-1.41,4.72,49,49,0,0,0-.87,5.2c-.08.77-.18,1.64-.19,2.49s0,1.51,0,2.43c0,.38,0,.77,0,1.15s0,.9,0,1.35c0,1,.09,2,.16,3,0,.47.08.94.12,1.41s.07.74.1,1.11.07,1,.11,1.53l.06,1c.17,3.58.21,6.46.1,9.08-.07,1.94-.16,3.42-.29,4.81-.11,1.21-.25,2.44-.38,3.63l-.15,1.26c-.2,1.83-.46,3.52-.79,5.15-.28,1.17-.62,2.54-1,3.89s-.72,2.65-1,4-.66,2.58-1,3.88c-.17.58-.37,1.26-.61,1.93l-.09.25a3.65,3.65,0,0,0-.26,2.77c-.77.4-1.53.81-2.29,1.23a39.21,39.21,0,0,1-3.77,1.85l-.9.42c-.32.16-.63.31-.95.45-.6.26-1.23.5-1.92.74-1.25.39-2.52.72-3.78,1l-1.46.29-.59.11c-.78.16-1.55.36-2.13.52a38.77,38.77,0,0,0-4.56,1.57c-.65.27-1.29.55-1.93.84l-1,.44-.85.37c-1.36.6-2.75,1.18-4.09,1.74l-2.4,1-1.56.66L492,261c-1.11.48-2.15.89-3.2,1.25l-.36.12c-.54.18-1.09.35-1.62.55l-2.19.78c-1,.33-1.93.7-2.87,1l-1.1.42c-.43.16-.85.36-1.26.56l-.62.29c-.29.13-.59.24-.89.36s-.7.27-1,.43c-.69.32-1.3.62-1.86.92s-1.21.69-1.75,1c-.32.21-.64.42-1,.64l-.33.23c-.66.42-1.26.8-1.84,1.21a8.39,8.39,0,0,0-1.59,1.55,8.64,8.64,0,0,0-1.11,1.74,12.65,12.65,0,0,0-1,2.33c-.12.4-.2.82-.28,1.23v.07l-.06.31c0,.25-.09.5-.13.76a19.91,19.91,0,0,0-.24,2.1,31.61,31.61,0,0,0,.15,4.64c.05.6.13,1.21.22,1.88a10.24,10.24,0,0,0,.51,1.9l.06.19a11,11,0,0,0,.76,1.69l.18.34c.23.42.45.84.69,1.25.7,1.18,1.34,2.24,2,3.26a15,15,0,0,1,.89,1.56c.25.55.49,1.11.7,1.7s.38,1.26.54,1.91l.3,1.22.06.27c.07.29.14.59.18.88.1.71.15,1.43.2,2.13v.18c0,.38.06.75.09,1.13s.07.65.09,1v.49l0,1.26a17,17,0,0,0,.15,2.18,11.44,11.44,0,0,0,.55,2.1,10.42,10.42,0,0,0,.71,1.67c.29.53.59,1,.92,1.55a19.22,19.22,0,0,0,1.37,1.83l.19.21c.13.17.27.33.41.49s.25.26.37.39.18.17.26.26l.06.06c.33.35.67.72,1,1.11a9,9,0,0,1,.72,1.61c.11.34.22.68.35,1s.19.46.29.68l.11.27c.24.57.47,1.15.67,1.72a6.69,6.69,0,0,1,.26,1.22c0,.23.05.47.06.71s0,.24,0,.36c0,.56.1,1.3.21,2s.22,1.36.33,2l0,.17c.11.62.23,1.25.38,1.87a15,15,0,0,0,4.68,7.32c1.08,1,2.19,1.92,3.27,2.85l.26.23c.44.4.91.83,1.35,1.28s.87.92,1.37,1.48a34.45,34.45,0,0,1,2.53,3.37l.37.57c.54.83,1.08,1.67,1.64,2.49a27.07,27.07,0,0,0,2.24,3.09,32.47,32.47,0,0,0,2.55,2.64l.17.16a9.74,9.74,0,0,0,3.47,2.38,39.11,39.11,0,0,0,4,1h0c1.52.37,3.08.66,4.59.95l1.94.36c.7.16,1.39.32,2.1.43l.69.11c.43.07.86.14,1.29.19,1.43.15,2.89.23,4.37.31.71,0,1.44.05,2.16.06l1.32,0,.78,0h.43c1.31,0,2.66,0,4-.13a77.34,77.34,0,0,0,8-1.07l.11,0c1.19-.23,2.36-.53,3.37-.8a1,1,0,0,0,.39.31l.77.35c1.22.56,2.44,1.11,3.64,1.68a20.43,20.43,0,0,0,2.07.88,17.5,17.5,0,0,1,1.76.73,5,5,0,0,1,.65.42,5.21,5.21,0,0,1,.52.58,4.5,4.5,0,0,1,.3.66,16.7,16.7,0,0,1,.55,2.8c.1.94.22,2,.29,3.11s.1,2,.17,3l.07,1.93c.06,1.41.12,2.81.19,4.22v-.1l0,1.2c.1,2.25.2,4.58.25,6.87q0,2,.06,4c0,1.62.05,3.08.14,4.45s.24,2.79.37,4l0,.38.18,1.53.12.91,0,.24,0,.24a2.67,2.67,0,0,0,.26.84l.26.38.07.07h0a1.79,1.79,0,0,0,0,.83,1.89,1.89,0,0,0,.76,1.15l.27.24c.75.63,1.52,1.28,2.3,1.9s1.46,1.1,2.29,1.66a16.81,16.81,0,0,0,2.66,1.43,21.47,21.47,0,0,0,2.73,1c1,.3,2,.53,3,.73l.29.06c.82.18,1.67.37,2.52.48,1.92.24,3.84.34,6,.43a67.39,67.39,0,0,0,12.16-.81c1.29-.18,2.26-.33,3.16-.5s1.68-.35,2.43-.55a36.16,36.16,0,0,0,5.65-2,47.36,47.36,0,0,0,4.8-2.57,26.61,26.61,0,0,0,4.34-3.28c1.28-1.16,2.55-2.39,3.67-3.47a22.71,22.71,0,0,0,1.87-2c.2-.24.39-.49.58-.73s.44-.58.67-.86.29-.31.44-.47a.93.93,0,0,0,.23,0l.1,0,.1,0a2.27,2.27,0,0,0,.88-.4,2.34,2.34,0,0,0,.63-.9c0-.18.1-.36.14-.53a.92.92,0,0,0,.86.29.95.95,0,0,0-.35-1.86.82.82,0,0,0-.37.16,1.83,1.83,0,0,0-.07-.32c-.05-.55-.13-1.1-.19-1.52-.18-1.19-.38-2.36-.6-3.46-.41-2.17-.95-4.28-1.55-6.61l-.13-.51c-.23-.88-.46-1.8-.66-2.71l-.22-1c-.16-.78-.33-1.55-.5-2.33s-.41-1.76-.62-2.65c-.31-1.35-.63-2.7-.92-4.06-.51-2.36-1-4.75-1.32-6.8-.4-2.23-.82-4.53-1.2-6.8-.91-5.46-1.46-9.91-1.74-14l-.07-1.12c-.07-1-.14-2-.2-3-.07-2.09-.09-4.27-.06-6.67,0-1,0-2.19,0-3.34l0-.91c0-1-.09-2.06-.2-3.09l0-.3c-.1-1-.21-2-.39-3.05l-.66-3.44c-.45-2.35-.89-4.53-1.34-6.65s-.95-4.28-1.49-6.29c-.23-.86-.49-1.72-.74-2.55l-.26-.84c-.33-1.11-.63-2.23-.94-3.38a73.82,73.82,0,0,0-2.3-7.06c-.17-.45-.33-.9-.49-1.35s-.43-1.2-.66-1.79l-.76-2c-.2-.49-.39-1-.59-1.48-.88-2.27-1.89-4.5-2.67-6.19-1-2.26-1.91-4.09-2.73-5.76-.46-.95-1-2-1.48-3l-1-1.91c-.22-.38-.43-.77-.64-1.16l-1.5-2.81c-.47-.87-.87-1.78-1.26-2.66l-.16-.37c-.45-1-.89-2.11-1.37-3.4-.19-.63-.35-1.21-.47-1.77l-.24-1.11-.24-1.11c-.3-1.38-.6-2.72-1-4a26.37,26.37,0,0,0-1.37-4,25.59,25.59,0,0,0-2.07-3.69,25.49,25.49,0,0,1-2-4c-.26-.6-.52-1.2-.8-1.8-.42-.91-.86-1.81-1.3-2.72-.54-1.12-1.11-2.28-1.63-3.44-2.06-4.52-3.81-9.15-5.11-12.68-.85-2.3-1.71-4.77-2.73-7.76-.36-1.11-.72-2.22-1.09-3.32-.73-2.27-1.45-4.78-2.2-7.67a49.17,49.17,0,0,1-1.43-8c0-.78-.93-8.23-.93-8.23l.1-.55c.11-.52.21-1,.31-1.56.15-.76.3-1.52.46-2.27.4-1.75.87-3.78,1.44-5.75.13-.46.27-.92.4-1.38s.35-1.17.51-1.75l1-3.46a1.43,1.43,0,0,0,.06-.51.93.93,0,0,0,.13-.15,1.26,1.26,0,0,0,.16-1,1,1,0,0,0-.47-.65l-.43-.23c-.67-.38-1.37-.77-2.08-1.09a18.32,18.32,0,0,0-2.41-.9,17.76,17.76,0,0,0-2.28-.48l-.4-.07a19.68,19.68,0,0,0-2.43-.21,14.82,14.82,0,0,0-3.22.28Z"/><path class="cls-7" d="M722.52-13.38c-38.45,0-53.51,1.41-79.3,16.65-10.54,6.22-63,106.06-64.56,115.47-3.33,19.75,24.31,18.58,25,30,.71,12.42,13.27,38.41,25.13,65.21-33.22,25.37.58,42.58,24.64,42.34,27.45-.28,61.55-22.06,85.4-35.23,47.68-26.31,48.33-43,43.88-99.95a.14.14,0,0,1,0-.06s0,0,0-.08v0c0-55.81-3.88-134.27-60.12-134.27Z"/><path class="cls-8" d="M613,178.27s49-4.43,52.14-33.46"/><path class="cls-7" d="M556.16,312.32c-.58.11-1.2.26-1.82.43a23.24,23.24,0,0,0-4.86,2,42.38,42.38,0,0,0-4.54,2.89,43.52,43.52,0,0,0-3.77,3.06,25.84,25.84,0,0,0-2,2.06c-.53.59-1,1.23-1.55,1.93a21.73,21.73,0,0,0-2.48,4.57,31.06,31.06,0,0,0-1.41,4.72,48.15,48.15,0,0,0-.87,5.2c-.08.77-.18,1.64-.19,2.49s0,1.5,0,2.42c0,.39,0,.77,0,1.16s0,.89,0,1.34c0,1,.09,2,.16,3,0,.47.08.94.12,1.41s.07.73.1,1.1.07,1,.11,1.54l.06,1c.17,3.58.21,6.47.1,9.09-.07,1.93-.16,3.42-.29,4.81-.11,1.21-.25,2.43-.38,3.62l-.15,1.26c-.2,1.84-.46,3.52-.79,5.15-.28,1.17-.62,2.55-1,3.9s-.72,2.65-1,4-.66,2.59-1,3.88c-.17.58-.37,1.26-.61,1.94l-.09.25a3.65,3.65,0,0,0-.26,2.77c-.77.39-1.53.8-2.29,1.23-1.1.61-2.29,1.2-3.77,1.85l-.9.42-.95.44c-.6.27-1.23.51-1.92.75-1.25.39-2.52.72-3.78,1l-1.46.28-.59.12c-.78.16-1.55.36-2.13.52a38.75,38.75,0,0,0-4.56,1.56c-.65.27-1.29.55-1.93.84-.34.16-.68.3-1,.45l-.85.36c-1.36.6-2.75,1.18-4.09,1.74l-2.4,1-1.56.65-1.56.66c-1.11.47-2.15.88-3.2,1.25l-.36.11c-.54.18-1.09.36-1.62.55-.73.27-1.46.54-2.19.79-1,.32-1.93.69-2.87,1.05l-1.1.42c-.43.16-.85.36-1.26.55l-.62.29-.89.37c-.35.13-.7.27-1,.42-.69.32-1.3.62-1.86.92s-1.21.7-1.75,1l-1,.65-.33.22c-.66.42-1.26.8-1.84,1.22a8.07,8.07,0,0,0-1.59,1.54,8.93,8.93,0,0,0-1.11,1.74,13.24,13.24,0,0,0-1,2.33c-.12.4-.2.82-.28,1.23v.07l-.06.32c0,.25-.09.5-.13.75a20.38,20.38,0,0,0-.24,2.11,31.47,31.47,0,0,0,.15,4.63c.05.6.13,1.22.22,1.88a10.34,10.34,0,0,0,.51,1.91l.06.18a10.18,10.18,0,0,0,.76,1.69l.18.35c.23.42.45.83.69,1.24.7,1.18,1.34,2.25,2,3.26a16.07,16.07,0,0,1,.89,1.56c.25.56.49,1.11.7,1.7s.38,1.26.54,1.92l.3,1.22.06.27a8.57,8.57,0,0,1,.18.88c.1.7.15,1.42.2,2.12V454c0,.37.06.75.09,1.12s.07.65.09,1v.49l0,1.26a16.8,16.8,0,0,0,.15,2.17,11.54,11.54,0,0,0,.55,2.11,10.73,10.73,0,0,0,.71,1.66c.29.54.59,1.05.92,1.56a19.21,19.21,0,0,0,1.37,1.82l.19.22.41.49.37.38.26.27.06.06a14.65,14.65,0,0,1,1,1.1,9.12,9.12,0,0,1,.72,1.62c.11.34.22.68.35,1s.19.45.29.68l.11.26c.24.57.47,1.15.67,1.72a6.69,6.69,0,0,1,.26,1.22c0,.24.05.48.06.71s0,.25,0,.37c0,.56.1,1.29.21,2s.22,1.37.33,2.05l0,.17c.11.61.23,1.25.38,1.87a15.05,15.05,0,0,0,4.68,7.31c1.08,1,2.19,1.93,3.27,2.86l.26.22c.44.4.91.83,1.35,1.28s.87.93,1.37,1.48a35.69,35.69,0,0,1,2.53,3.37l.37.57c.54.84,1.08,1.67,1.64,2.5a28,28,0,0,0,2.24,3.09,34.19,34.19,0,0,0,2.55,2.64l.17.15a9.62,9.62,0,0,0,3.47,2.38,38.86,38.86,0,0,0,4,1h0c1.52.37,3.08.66,4.59.94l1.94.37c.7.16,1.39.31,2.1.42l.69.11c.43.08.86.15,1.29.19,1.43.16,2.89.24,4.37.31.71,0,1.44.06,2.16.06.44,0,.88,0,1.32,0h1.21c1.31,0,2.66,0,4-.13a72.18,72.18,0,0,0,8-1.07l.11,0c1.19-.22,2.36-.53,3.37-.79a1,1,0,0,0,.39.3l.77.36c1.22.55,2.44,1.11,3.64,1.68a20.43,20.43,0,0,0,2.07.88,13.82,13.82,0,0,1,1.76.73,4.16,4.16,0,0,1,.65.42,4.45,4.45,0,0,1,.52.58,4.37,4.37,0,0,1,.3.65,16.9,16.9,0,0,1,.55,2.8c.1.94.22,2,.29,3.12s.1,2,.17,3l.07,1.93c.06,1.41.12,2.82.19,4.23v-.1l0,1.19c.1,2.26.2,4.59.25,6.88q0,2,.06,4.05c0,1.62.05,3.07.14,4.45s.24,2.79.37,4l0,.38.18,1.53.12.92,0,.23,0,.24a2.82,2.82,0,0,0,.26.85c.09.12.17.25.26.38l.07.06h0a1.8,1.8,0,0,0,0,.83,1.94,1.94,0,0,0,.76,1.16l.27.23c.75.64,1.52,1.29,2.3,1.91s1.46,1.1,2.29,1.66a18.62,18.62,0,0,0,2.66,1.43,25,25,0,0,0,2.73,1c1,.3,2,.52,3,.73l.29.06c.82.18,1.67.36,2.52.47,1.92.24,3.84.34,6,.43a67.43,67.43,0,0,0,12.16-.8c1.29-.18,2.26-.34,3.16-.51s1.68-.34,2.43-.54a36.22,36.22,0,0,0,5.65-2,49.22,49.22,0,0,0,4.8-2.56,26.71,26.71,0,0,0,4.34-3.29c1.28-1.15,2.55-2.38,3.67-3.46a24.18,24.18,0,0,0,1.87-2c.2-.24.39-.49.58-.74s.44-.57.67-.85l.44-.48a.91.91,0,0,0,.23,0l.1,0,.1,0a2.13,2.13,0,0,0,.88-.4,2.38,2.38,0,0,0,.63-.89c0-.19.1-.36.14-.54a.93.93,0,0,0,.86.3,1,1,0,0,0-.35-1.87,1,1,0,0,0-.37.16,1.73,1.73,0,0,0-.07-.31c-.05-.55-.13-1.1-.19-1.52-.18-1.2-.38-2.36-.6-3.47-.41-2.17-.95-4.27-1.55-6.61l-.13-.5c-.23-.89-.46-1.81-.66-2.71l-.22-1c-.16-.78-.33-1.56-.5-2.33s-.41-1.77-.62-2.65c-.31-1.35-.63-2.71-.92-4.06-.51-2.36-1-4.75-1.32-6.8-.4-2.23-.82-4.53-1.2-6.8-.91-5.47-1.46-9.91-1.74-14l-.07-1.13c-.07-1-.14-2-.2-3-.07-2.1-.09-4.28-.06-6.67,0-1,0-2.2,0-3.34l0-.91c0-1-.09-2.07-.2-3.09l0-.3c-.1-1-.21-2.05-.39-3.06l-.66-3.43c-.45-2.35-.89-4.53-1.34-6.66s-.95-4.27-1.49-6.29c-.23-.85-.49-1.72-.74-2.55l-.26-.84c-.33-1.1-.63-2.22-.94-3.37a73.93,73.93,0,0,0-2.3-7.07c-.17-.45-.33-.9-.49-1.35-.21-.6-.43-1.2-.66-1.79l-.76-1.95-.59-1.47c-.88-2.27-1.89-4.51-2.67-6.2-1-2.25-1.91-4.08-2.73-5.76-.46-.94-1-2-1.48-3l-1-1.91-.64-1.16-1.5-2.82c-.47-.87-.87-1.78-1.26-2.66l-.16-.37c-.45-1-.89-2.11-1.37-3.39-.19-.63-.35-1.22-.47-1.78l-.24-1.11-.24-1.11c-.3-1.37-.6-2.72-1-4.05a26.6,26.6,0,0,0-1.37-4,25.67,25.67,0,0,0-2.07-3.7,25.83,25.83,0,0,1-2-4c-.26-.61-.52-1.21-.8-1.8-.42-.91-.86-1.82-1.3-2.72-.54-1.12-1.11-2.29-1.63-3.44-2.06-4.53-3.81-9.15-5.11-12.68-.85-2.31-1.71-4.77-2.73-7.76-.36-1.11-.72-2.22-1.09-3.33-.73-2.27-1.45-4.78-2.2-7.67a49,49,0,0,1-1.43-8c0-.78-.93-8.23-.93-8.23l.1-.54c.11-.52.21-1,.31-1.56.15-.76.3-1.52.46-2.28.4-1.74.87-3.77,1.44-5.75.13-.45.27-.91.4-1.37s.35-1.17.51-1.76l1-3.45a1.49,1.49,0,0,0,.06-.51,1,1,0,0,0,.13-.16,1.23,1.23,0,0,0,.16-1,1,1,0,0,0-.47-.65l-.43-.24c-.67-.37-1.37-.76-2.08-1.08a18.37,18.37,0,0,0-2.41-.91,19.65,19.65,0,0,0-2.28-.48l-.4-.06a17.77,17.77,0,0,0-2.43-.22,14.82,14.82,0,0,0-3.22.28Z"/><path class="cls-7" d="M722.52,134.72c-38.45,0-53.51,1.42-79.3,16.65-10.54,6.23-63,106.07-64.56,115.47-3.33,19.76,24.31,18.58,25,30,.71,12.41,13.27,38.4,25.13,65.21-33.22,25.36.58,42.58,24.64,42.34,27.45-.28,61.55-22.07,85.4-35.23,47.68-26.32,48.33-43,43.88-99.95a.19.19,0,0,1,0-.07s0-.05,0-.07v0c0-55.81-3.88-134.27-60.12-134.27Z"/><path class="cls-8" d="M613,326.38s49-4.44,52.14-33.47"/><path class="cls-7" d="M556.16,460.43c-.58.11-1.2.25-1.82.43a22.71,22.71,0,0,0-4.86,2,42.15,42.15,0,0,0-4.54,2.88,45.48,45.48,0,0,0-3.77,3.06,25.84,25.84,0,0,0-2,2.06c-.53.6-1,1.23-1.55,1.93a22,22,0,0,0-2.48,4.57,31.06,31.06,0,0,0-1.41,4.72,49,49,0,0,0-.87,5.2c-.08.77-.18,1.64-.19,2.49s0,1.51,0,2.43c0,.38,0,.77,0,1.15s0,.9,0,1.35c0,1,.09,2,.16,3,0,.47.08.94.12,1.41s.07.74.1,1.11.07,1,.11,1.53l.06,1c.17,3.57.21,6.46.1,9.08-.07,1.94-.16,3.42-.29,4.81-.11,1.21-.25,2.44-.38,3.62l-.15,1.27c-.2,1.83-.46,3.52-.79,5.15-.28,1.17-.62,2.54-1,3.89s-.72,2.65-1,4-.66,2.58-1,3.88c-.17.58-.37,1.26-.61,1.93l-.09.25a3.65,3.65,0,0,0-.26,2.77c-.77.4-1.53.81-2.29,1.23a39.21,39.21,0,0,1-3.77,1.85l-.9.42c-.32.16-.63.31-.95.45-.6.26-1.23.5-1.92.74-1.25.39-2.52.72-3.78,1l-1.46.29-.59.11c-.78.16-1.55.36-2.13.52a38.77,38.77,0,0,0-4.56,1.57c-.65.27-1.29.55-1.93.84l-1,.44-.85.37c-1.36.6-2.75,1.18-4.09,1.74l-2.4,1-1.56.66-1.56.65c-1.11.48-2.15.89-3.2,1.25l-.36.12c-.54.18-1.09.35-1.62.55l-2.19.78c-1,.33-1.93.7-2.87,1l-1.1.42c-.43.16-.85.36-1.26.56l-.62.28c-.29.14-.59.25-.89.37s-.7.27-1,.43c-.69.31-1.3.62-1.86.92s-1.21.69-1.75,1c-.32.21-.64.42-1,.64l-.33.23c-.66.42-1.26.8-1.84,1.21a8.39,8.39,0,0,0-1.59,1.55,8.64,8.64,0,0,0-1.11,1.74,12.65,12.65,0,0,0-1,2.33c-.12.4-.2.82-.28,1.23v.07l-.06.31c0,.25-.09.5-.13.75a20.38,20.38,0,0,0-.24,2.11,31.61,31.61,0,0,0,.15,4.64c.05.6.13,1.21.22,1.88a10.24,10.24,0,0,0,.51,1.9l.06.19a11,11,0,0,0,.76,1.69l.18.34c.23.42.45.84.69,1.25.7,1.18,1.34,2.24,2,3.26a15,15,0,0,1,.89,1.56c.25.55.49,1.11.7,1.7s.38,1.26.54,1.91l.3,1.22.06.27c.07.29.14.59.18.88.1.71.15,1.43.2,2.13v.18c0,.38.06.75.09,1.13s.07.65.09,1v.49l0,1.26a17,17,0,0,0,.15,2.18,11.44,11.44,0,0,0,.55,2.1,10.42,10.42,0,0,0,.71,1.67c.29.53.59,1,.92,1.55a19.22,19.22,0,0,0,1.37,1.83l.19.21c.13.17.27.33.41.49s.25.26.37.39l.26.26.06.06c.33.35.67.72,1,1.11a9,9,0,0,1,.72,1.61c.11.34.22.68.35,1s.19.46.29.68l.11.27c.24.57.47,1.15.67,1.72a6.69,6.69,0,0,1,.26,1.22c0,.23.05.47.06.71s0,.24,0,.36c0,.56.1,1.3.21,2s.22,1.36.33,2l0,.17c.11.62.23,1.25.38,1.87a15,15,0,0,0,4.68,7.32c1.08,1,2.19,1.92,3.27,2.85l.26.23c.44.4.91.83,1.35,1.28s.87.92,1.37,1.48a34.45,34.45,0,0,1,2.53,3.37l.37.57c.54.83,1.08,1.67,1.64,2.49a27.07,27.07,0,0,0,2.24,3.09,32.47,32.47,0,0,0,2.55,2.64l.17.16a9.74,9.74,0,0,0,3.47,2.38,39.11,39.11,0,0,0,4,1h0c1.52.37,3.08.66,4.59,1l1.94.36c.7.16,1.39.32,2.1.43l.69.11c.43.07.86.14,1.29.19,1.43.15,2.89.23,4.37.31.71,0,1.44,0,2.16.06l1.32,0,.78,0h.43c1.31,0,2.66,0,4-.13a77.34,77.34,0,0,0,8-1.07l.11,0c1.19-.23,2.36-.53,3.37-.8a1,1,0,0,0,.39.31l.77.35c1.22.56,2.44,1.11,3.64,1.68a20.43,20.43,0,0,0,2.07.88,17.5,17.5,0,0,1,1.76.73,5,5,0,0,1,.65.42,4.45,4.45,0,0,1,.52.58,4.5,4.5,0,0,1,.3.66,16.7,16.7,0,0,1,.55,2.8c.1.94.22,2,.29,3.11s.1,2,.17,3l.07,1.93c.06,1.41.12,2.81.19,4.22v-.1l0,1.2c.1,2.25.2,4.58.25,6.87q0,2,.06,4c0,1.62.05,3.08.14,4.45s.24,2.79.37,4l0,.39.18,1.53.12.91,0,.24,0,.24a2.75,2.75,0,0,0,.26.84l.26.38.07.07h0a1.79,1.79,0,0,0,0,.83,1.92,1.92,0,0,0,.76,1.15l.27.24c.75.63,1.52,1.28,2.3,1.9s1.46,1.1,2.29,1.66a16.81,16.81,0,0,0,2.66,1.43,21.47,21.47,0,0,0,2.73,1c1,.3,2,.53,3,.73l.29.06c.82.18,1.67.37,2.52.47,1.92.25,3.84.35,6,.44a68.31,68.31,0,0,0,12.16-.81c1.29-.18,2.26-.33,3.16-.5s1.68-.35,2.43-.55a36.16,36.16,0,0,0,5.65-2,47.36,47.36,0,0,0,4.8-2.57,27.2,27.2,0,0,0,4.34-3.28c1.28-1.16,2.55-2.39,3.67-3.47a22.71,22.71,0,0,0,1.87-2c.2-.24.39-.49.58-.73s.44-.58.67-.86.29-.31.44-.47l.23,0,.1,0,.1,0a2.15,2.15,0,0,0,.88-.41,2.3,2.3,0,0,0,.63-.89c0-.18.1-.36.14-.53a.92.92,0,0,0,.86.29.95.95,0,0,0-.35-1.86.82.82,0,0,0-.37.16,1.83,1.83,0,0,0-.07-.32c-.05-.55-.13-1.1-.19-1.52-.18-1.19-.38-2.36-.6-3.46-.41-2.17-.95-4.28-1.55-6.61l-.13-.51c-.23-.89-.46-1.8-.66-2.71l-.22-1c-.16-.78-.33-1.55-.5-2.33s-.41-1.76-.62-2.65c-.31-1.35-.63-2.7-.92-4.06-.51-2.36-1-4.75-1.32-6.8-.4-2.23-.82-4.53-1.2-6.8-.91-5.46-1.46-9.91-1.74-14l-.07-1.12c-.07-1-.14-2-.2-3-.07-2.09-.09-4.27-.06-6.67,0-1,0-2.19,0-3.34l0-.91c0-1-.09-2.07-.2-3.09l0-.3c-.1-1-.21-2-.39-3.05l-.66-3.44c-.45-2.35-.89-4.53-1.34-6.65s-.95-4.28-1.49-6.29c-.23-.86-.49-1.72-.74-2.55l-.26-.85c-.33-1.1-.63-2.22-.94-3.37a73.82,73.82,0,0,0-2.3-7.06c-.17-.45-.33-.9-.49-1.36s-.43-1.19-.66-1.78l-.76-1.95c-.2-.49-.39-1-.59-1.48-.88-2.27-1.89-4.5-2.67-6.19-1-2.26-1.91-4.09-2.73-5.76-.46-.95-1-2-1.48-3l-1-1.91c-.22-.38-.43-.77-.64-1.16l-1.5-2.81c-.47-.87-.87-1.78-1.26-2.67l-.16-.36c-.45-1-.89-2.11-1.37-3.4-.19-.63-.35-1.21-.47-1.77l-.24-1.11-.24-1.11c-.3-1.38-.6-2.72-1-4a26.37,26.37,0,0,0-1.37-4,25.59,25.59,0,0,0-2.07-3.69,25.49,25.49,0,0,1-2-4c-.26-.6-.52-1.21-.8-1.8-.42-.91-.86-1.81-1.3-2.72-.54-1.12-1.11-2.28-1.63-3.44-2.06-4.52-3.81-9.15-5.11-12.68-.85-2.3-1.71-4.77-2.73-7.76-.36-1.11-.72-2.22-1.09-3.32-.73-2.28-1.45-4.78-2.2-7.67a49.17,49.17,0,0,1-1.43-8c0-.78-.83-8.78-.83-8.78.11-.52.21-1,.31-1.56.15-.76.3-1.52.46-2.28.4-1.74.87-3.77,1.44-5.74.13-.46.27-.92.4-1.38s.35-1.17.51-1.75l1-3.46a1.46,1.46,0,0,0,.06-.51.7.7,0,0,0,.13-.16,1.23,1.23,0,0,0,.16-1,1,1,0,0,0-.47-.65l-.43-.24c-.67-.37-1.37-.76-2.08-1.08a18.32,18.32,0,0,0-2.41-.9,16.21,16.21,0,0,0-2.28-.48l-.4-.07a17.9,17.9,0,0,0-2.43-.21,14.82,14.82,0,0,0-3.22.28Z"/><path class="cls-7" d="M722.52,282.83c-38.45,0-53.51,1.41-79.3,16.65-10.54,6.22-63,106.06-64.56,115.47-3.33,19.75,24.31,18.58,25,29.95.71,12.42,13.27,38.41,25.13,65.21-33.22,25.37.58,42.58,24.64,42.34,27.45-.28,61.55-22.06,85.4-35.23,47.68-26.31,48.33-43,43.88-100a.14.14,0,0,1,0-.06s0,0,0-.08v0c0-55.81-3.88-134.27-60.12-134.27Z"/><path class="cls-8" d="M613,474.48s49-4.43,52.14-33.46"/><path class="cls-9" d="M367.54,220.59v9.51a1.14,1.14,0,0,0,1.13,1.13h9.51a1.14,1.14,0,0,0,1.13-1.13v-9.51"/><line class="cls-10" x1="367.56" y1="222.99" x2="379.29" y2="222.99"/><line class="cls-10" x1="367.68" y1="228.52" x2="379.16" y2="228.52"/><line class="cls-10" x1="367.68" y1="225.76" x2="379.16" y2="225.76"/><path class="cls-11" d="M403.1,177.93a29.68,29.68,0,0,0-59.36,0c0,13.1,11.33,18.07,18.58,28.14,1.24,1.72,1.69,8.45,1.69,8.45a6.78,6.78,0,0,0,6.76,6.76h5.42a6.78,6.78,0,0,0,6.75-6.76s.46-6.76,1.69-8.48C391.85,196,403.1,191,403.1,177.93Z"/></g></g></svg>