<svg xmlns="http://www.w3.org/2000/svg" xmlns:xlink="http://www.w3.org/1999/xlink" viewBox="0 0 720 720"><defs><style>.cls-1{fill:none;}.cls-2{fill:#fff;}.cls-3{clip-path:url(#clip-path);}.cls-4,.cls-5{fill:#711ed6;}.cls-5{stroke:#fff;stroke-miterlimit:10;stroke-width:0.89px;}</style><clipPath id="clip-path"><ellipse class="cls-1" cx="360" cy="360.5" rx="360" ry="360.5"/></clipPath></defs><title>judging</title><g id="Layer_1" data-name="Layer 1"><path class="cls-2" d="M360,719.5A359.59,359.59,0,0,1,220.07,28.75a359.59,359.59,0,0,1,279.86,662.5A357.17,357.17,0,0,1,360,719.5Z"/><path d="M360,1A359.1,359.1,0,0,1,499.74,690.79,359.1,359.1,0,0,1,220.26,29.21,356.74,356.74,0,0,1,360,1m0-1C161.18,0,0,161.18,0,360S161.18,720,360,720,720,558.82,720,360,558.82,0,360,0Z"/></g><g id="Layer_2" data-name="Layer 2"><g class="cls-3"><rect x="-81.2" y="-16.86" width="844.25" height="768.76"/><path class="cls-4" d="M619.44,220.39c-10.39-88.2-72-59.7-72-59.7s-1.93.1-7.32,8.95-3.85,24.17-3.85,24.17c-3.78,15.44-17.88,29.09-22.87,33.53.06-5.49,0-9.75-.09-12.52a13.53,13.53,0,0,0,.18-2.1c0-24.64-70.87-44.61-158.3-44.61h-.32c-87.43,0-158.3,20-158.3,44.61a13.53,13.53,0,0,0,.18,2.1c-.08,2.77-.15,7-.09,12.52-5-4.44-19.09-18.09-22.88-33.53,0,0,1.55-15.3-3.84-24.17s-7.33-8.95-7.33-8.95-61.61-28.5-72,59.7c-10,85,112.27,141,130.49,188h0a15.81,15.81,0,0,0-4.43-.63A15.36,15.36,0,0,0,212.29,438c5.36,3.25,11,3,16,1.4h0c10.06-2.07,19.09-11.91,21.72-21.23h0c14.31,20.54,32.42,39.14,55.33,53.74l2.54,9.54c2.72,6.61,8.29,7.57,12.74,9.43l2.89.06a10.54,10.54,0,0,0,4.81,1.16l1.91,0c2.05,2.74,7,10.25,7.49,19.22l-.17,4.56c-1.76,13.58-15.54,29.06-64,36.34h0a10.68,10.68,0,0,0-10.65,10.65v.64a11,11,0,0,0,.09,1.42l-14.58,5.94a10.6,10.6,0,0,0-.52,1.25c-7.16,3.11-12.8,6.58-14.59,10.27a5.25,5.25,0,0,0,0,4.91h0c1.87,3.8,7.85,7.37,15.24,10.55,19.41,8.35,56.92,14,100,14,2.16,0,4.3,0,6.42,0s4.26,0,6.42,0c43.1,0,80.61-5.66,100-14,7.39-3.18,13.37-6.75,15.24-10.55a5.27,5.27,0,0,0,0-4.92,10,10,0,0,0-1.58-2.25l0,0c-2.61-2.84-7.32-5.54-13-8a10.6,10.6,0,0,0-.52-1.25,8.09,8.09,0,0,1-.74.7,110.86,110.86,0,0,0-14.29-4.71,10.23,10.23,0,0,0,.45-1.93,11,11,0,0,0,.09-1.42v-.64a10.68,10.68,0,0,0-10.65-10.65h0c-48.43-7.28-62.21-22.76-64-36.34l-.17-4.56c.48-9,5.44-16.48,7.49-19.22l1.91,0a10.47,10.47,0,0,0,4.8-1.16l2.9-.06c4.45-1.86,10-2.82,12.74-9.43l2.54-9.54c22.91-14.6,41-33.21,55.34-53.74h0c2.63,9.32,11.67,19.16,21.73,21.23h0c5,1.59,10.63,1.85,16-1.4a15.36,15.36,0,0,0-4.35-30.21,15.81,15.81,0,0,0-4.43.63h0C507.18,361.4,629.46,305.37,619.44,220.39ZM181.51,336.29c-7.93-3.37-75.73-68.81-52.73-104.82s23.29,42.11,68.54,48c0,0,5,58.87,27.9,93.47h0c.36.85.73,1.7,1.1,2.55C218,367.45,188.29,339.18,181.51,336.29Zm347,0c-6.78,2.89-36.45,31.17-44.82,39.23h0c.37-.84.73-1.69,1.1-2.54h0c22.88-34.61,27.9-93.47,27.9-93.47,45.25-5.92,45.53-84,68.53-48S536.43,332.92,528.51,336.29Z"/><path class="cls-5" d="M352.84,182.42c72.32,0,131,13.11,131,29.27S425.16,241,352.84,241s-130.95-13.1-130.95-29.27,58.63-29.27,131-29.27"/><path class="cls-2" d="M399.85,470.87a3.64,3.64,0,0,1-1.34,2.59,12.3,12.3,0,0,1-2.48,1.68,33.48,33.48,0,0,1-5.53,2.23,85.89,85.89,0,0,1-11.63,2.56,167.17,167.17,0,0,1-47.42,0,85.75,85.75,0,0,1-11.62-2.56,32.73,32.73,0,0,1-5.54-2.23,12.59,12.59,0,0,1-2.48-1.68,3.64,3.64,0,0,1-1.34-2.59,3.57,3.57,0,0,0,1.49,2.42,12.22,12.22,0,0,0,2.51,1.49,32.78,32.78,0,0,0,5.56,1.88,87.32,87.32,0,0,0,11.58,2.11,195,195,0,0,0,23.55,1.34,197.08,197.08,0,0,0,23.55-1.33,88.69,88.69,0,0,0,11.58-2.12,32.48,32.48,0,0,0,5.56-1.88,12.22,12.22,0,0,0,2.51-1.49A3.54,3.54,0,0,0,399.85,470.87Z"/><path class="cls-2" d="M438.75,571.78a3.59,3.59,0,0,1-1.17,2.45,10.6,10.6,0,0,1-2.2,1.68,30.73,30.73,0,0,1-5.05,2.31,87.54,87.54,0,0,1-10.68,3,219.54,219.54,0,0,1-21.93,3.39,443,443,0,0,1-88.59,0,219.35,219.35,0,0,1-21.92-3.39,88.2,88.2,0,0,1-10.69-3,31,31,0,0,1-5-2.31,10.4,10.4,0,0,1-2.21-1.68,3.58,3.58,0,0,1-1.16-2.45,3.55,3.55,0,0,0,1.2,2.41,10.76,10.76,0,0,0,2.22,1.63,30.21,30.21,0,0,0,5.06,2.19,86.31,86.31,0,0,0,10.71,2.76,221.12,221.12,0,0,0,21.9,3.13c14.7,1.44,29.47,2,44.23,2s29.53-.57,44.22-2c7.35-.74,14.67-1.68,21.91-3.14a85.71,85.71,0,0,0,10.7-2.76,30,30,0,0,0,5.07-2.19,10.76,10.76,0,0,0,2.22-1.63A3.64,3.64,0,0,0,438.75,571.78Z"/><path class="cls-2" d="M513.08,240.8c.09,7.52-3.24,14.8-8.11,20.46-1.14,1.5-2.53,2.78-3.8,4.16l-2.08,1.9-1,.95-1.1.88-2.19,1.77-2.28,1.65c-1.5,1.13-3.11,2.11-4.68,3.13a133.25,133.25,0,0,1-20.07,10.11,204,204,0,0,1-21.25,7.3,284.39,284.39,0,0,1-44,8.73,383.28,383.28,0,0,1-44.79,2.76,383.32,383.32,0,0,1-44.8-2.76,283.22,283.22,0,0,1-44-8.73,204,204,0,0,1-21.25-7.3,133.67,133.67,0,0,1-20.07-10.1c-1.58-1-3.18-2-4.68-3.14l-2.28-1.65-2.19-1.76-1.1-.89-1-.95-2.08-1.9c-1.27-1.38-2.66-2.66-3.8-4.15-4.87-5.67-8.2-12.95-8.11-20.47a27.55,27.55,0,0,0,2.57,10.77,35.83,35.83,0,0,0,2.67,4.86l1.63,2.25c.53.76,1.19,1.41,1.78,2.13,1.16,1.44,2.56,2.67,3.85,4l2.1,1.82,1,.91,1.11.84,2.21,1.69,2.29,1.56c1.51,1.08,3.12,2,4.7,3a134.17,134.17,0,0,0,20,9.66,201.1,201.1,0,0,0,21.17,6.89c28.71,7.72,58.55,10.81,88.26,10.79s59.55-3.07,88.26-10.78a205.07,205.07,0,0,0,21.17-6.9,133.66,133.66,0,0,0,20-9.66c1.57-1,3.18-1.89,4.69-3l2.3-1.57,2.21-1.69,1.1-.84,1.05-.91,2.1-1.82c1.29-1.32,2.69-2.55,3.85-4,.59-.71,1.26-1.37,1.78-2.13l1.63-2.25a35.89,35.89,0,0,0,2.68-4.86A27.54,27.54,0,0,0,513.08,240.8Z"/><path class="cls-2" d="M382,490.63a2.14,2.14,0,0,1-.8,1.55,6.86,6.86,0,0,1-1.49,1,19.88,19.88,0,0,1-3.32,1.34,51.88,51.88,0,0,1-7,1.53,99.7,99.7,0,0,1-28.45,0,52,52,0,0,1-7-1.53,19.06,19.06,0,0,1-3.32-1.34,7.47,7.47,0,0,1-1.49-1,2.21,2.21,0,0,1-.8-1.56,2.1,2.1,0,0,0,.89,1.45,7,7,0,0,0,1.51.89,18.4,18.4,0,0,0,3.33,1.13,51.17,51.17,0,0,0,6.95,1.27,125.19,125.19,0,0,0,28.26,0,51.17,51.17,0,0,0,6.95-1.27,19.56,19.56,0,0,0,3.34-1.12,7.11,7.11,0,0,0,1.5-.9A2.1,2.1,0,0,0,382,490.63Z"/><path class="cls-2" d="M412.56,315.91s19.06,87.81-37,150.78c0,0,71.63,11,126.52-190.64C502.11,276.05,494.6,306.86,412.56,315.91Z"/><path class="cls-2" d="M285.46,252s131,17,125.94,36.79c0,0,83.77-11.56,100-53.16l-.58-23.68S502.11,276.05,285.46,252Z"/><path class="cls-2" d="M377.9,535.44s30.81,23.11,53.15,22.34a9.83,9.83,0,0,1,1.34,12.9s-37.93,12.33-56.23,8.67A15.46,15.46,0,0,0,376,569S394.46,568.37,377.9,535.44Z"/><path class="cls-2" d="M383.29,594.76s15.92-1.8,9.24,12.06c0,0,103.74-11.55,63.17-33.76C455.7,573.06,472.64,593.22,383.29,594.76Z"/><path class="cls-2" d="M394.13,239.48h0c-13,1-26.84,1.49-41.27,1.49-72.32,0-130.95-13.11-130.95-29.28,0-12,32.1-22.24,78.09-26.78-7.29,6.13-53.39,49.41,94.13,54.57h0"/></g></g></svg>