<svg xmlns="http://www.w3.org/2000/svg" xmlns:xlink="http://www.w3.org/1999/xlink" viewBox="0 0 720 720"><defs><style>.cls-1{fill:none;}.cls-2{fill:#fff;}.cls-3{clip-path:url(#clip-path);}.cls-4,.cls-8{fill:#e70000;}.cls-5{clip-path:url(#clip-path-2);}.cls-6{fill:#0016ff;}.cls-7,.cls-8{stroke:#fff;stroke-miterlimit:10;}.cls-7{stroke-width:3.19px;}.cls-8{stroke-width:1.53px;}</style><clipPath id="clip-path"><circle class="cls-1" cx="360" cy="360" r="360"/></clipPath><clipPath id="clip-path-2"><ellipse class="cls-1" cx="469.07" cy="357.17" rx="169.86" ry="160.22"/></clipPath></defs><title>Untitled-1</title><g id="Layer_1" data-name="Layer 1"><path class="cls-2" d="M360,719.5A359.59,359.59,0,0,1,220.07,28.75a359.59,359.59,0,0,1,279.86,662.5A357.17,357.17,0,0,1,360,719.5Z"/><path d="M360,1A359.1,359.1,0,0,1,499.74,690.79,359.1,359.1,0,0,1,220.26,29.21,356.74,356.74,0,0,1,360,1m0-1C161.18,0,0,161.18,0,360S161.18,720,360,720,720,558.82,720,360,558.82,0,360,0Z"/></g><g id="Layer_2" data-name="Layer 2"><g class="cls-3"><path class="cls-4" d="M378.4-61c-2.55,0-5.31.07-7.53.14h-.63l-.53,0h-.3l-2.33.07c-3.85.11-7.72.21-11.58.3l-3.9.1H351l-3,.08c-6.51.16-13.24.33-20.06.58-3.67.15-7.36.33-11,.51l-1.34.07c-4.31.22-8.52.44-12.74.58-3.05.12-6.08.26-9.12.42-2.21-.06-4.43-.09-6.64-.09-5.49,0-11.55.18-19.08.55A247.2,247.2,0,0,0,240-54.17a264.92,264.92,0,0,0-26.63,5.93c-8.41,2.28-17.53,5-28.7,8.43-1.39.43-2.78.86-4.17,1.31l-1.28.4-1.26.41q-3.09,1-6.18,2l-1.6.49c-4,1.24-8,2.47-11.8,3.79-10.54,3.64-19,6.77-26.61,9.84-9.2,3.7-18.43,7.57-28.24,11.85C93.86-5.58,84.54-.67,77.5,3.14c-9,4.88-16.83,9.35-23.81,13.65A225.15,225.15,0,0,0,9,52.72,91.24,91.24,0,0,0,.24,63.62C-1,65.4-2.36,67.33-3.67,69.41s-2.69,4.48-4,6.8a105,105,0,0,0-6.12,13.11C-15.61,94-17.11,98-18.44,102.13c-3,9.51-5.73,19-8,28.07-2,8.09-4,17-6.29,28l-.85,4.1-.23,1.15-.23,1.1c-1.28,6.21-2.88,13.94-4.49,21.24l-.38,1.74,0,.23L-39,188c-1.74,8-3.55,16.28-4.9,24.6-1.55,9.49-2.75,19.46-3.66,30.49-.72,8.7-1,17.91-1.29,25.31v.4l-.07,2.21c-.59,17.15-.68,35.8-.29,57,.06,3.21.11,6.43.15,9.63v1.49c.09,6,.18,12.36.39,18.44.33,8.79.92,17.59,1.72,28.09.51,6.66,1.26,13.52,1.85,19l.06.5c.33,3.11.67,6.21,1,9.32,1,9.75,2.33,19.92,3.42,28.1l.08.61c.78,5.87,1.64,11.84,2.42,17.24l.23,1.6.24,1.66.06.41q.68,4.56,1.33,9.12c1.34,9.26,3.09,19,4.51,26.83l.08.48.32,1.72c1.47,8.16,3.29,16.66,5.74,26.74s4.75,18.84,7.11,26.86q1.82,6.28,3.59,12.61l.16.55c1.41,5,2.8,10,4.27,14.92,2.56,8.67,5.55,18.75,8.66,28.69,3,9.52,5.87,18.2,8.89,26.53q2.58,7.13,5.17,14.23l1,3,.28.76.09.26c.9,2.54,1.87,5.24,2.92,7.85,2.26,5.65,4.54,11.15,6.79,16.35,1.41,3.26,2.86,6.43,4.49,9.94l1.55,3.38c3.34,7.33,7.24,14.91,12.66,24.56,2.18,3.93,4.76,7.67,7.26,11.28l.14.2.55.79a114.82,114.82,0,0,0,9.45,11.88l1,1.12c2.82,3.11,5.69,6.29,8.77,9.22,4.23,4,8,7.41,11.37,10.4,1.66,1.45,3.55,2.86,4.93,3.89l.25.19,1.14.85c2.12,1.58,4,2.92,6,4.21,4.47,2.93,8.32,5.24,12.12,7.29,3.59,1.94,7.88,4.2,12.41,6.26s9.57,4.23,15.65,6.73c3.78,1.58,7.86,2.86,11.46,4l.27.07,2.27.72c3.18,1,6.38,2,9.66,2.9l.44.12,3.41,1q8,2.36,16,4.65l5.51,1.6,5.63,1.63c9.25,2.71,19,5,26.11,6.67,4.41,1,8.75,2,13.09,3l1.7.38,2.14.49,2.71.62.71.16c2.47.56,4.93,1.12,7.4,1.7,4.94,1.16,9.88,2.31,14.83,3.41,4.65,1,9.37,1.91,13.54,2.69l.23.05.4.08c9.59,1.79,19.52,3.4,29.53,4.78,10.17,1.38,20.23,2.14,29.58,2.75,11.39.74,20,1.17,28,1.41,10,.3,20.06.47,29.83.52,1.48,0,2.81-.06,4.13-.11.72,0,1.35-.06,2-.07l1.55-.05c1.55,0,3.09-.08,4.63-.18,4.72-.33,10.21-.72,15.6-1.24,9.52-1,19.14-2.37,27.63-3.62l.58-.08,2.22-.32c9.43-1.4,19.14-3.25,28.86-5.51,8.27-1.93,18-4.3,27.28-7.22,8.64-2.69,17.66-6,27.59-10,8.16-3.32,17.66-7.25,27.21-11.92,9-4.4,18.11-8.92,26.92-13.41,2.52-1.27,5-2.67,8.05-4.38l3.31-1.87c1.47-.81,2.9-1.7,4.37-2.62l1-.61,1.18-.73.46-.27c1.54-.94,3.08-1.88,4.6-2.88,4.13-2.7,8.53-5.6,12.91-8.73l1.19-.86.21-.15c1.67-1.17,3.44-2.44,5.12-3.76l7.06-5.59c2.74-2.17,5.46-4.54,7.65-6.44l.35-.3.65-.57,2.06-1.78c3-2.61,6.19-5.46,9.68-8.73l6-5.63L660,729c1.16-1.11,2.26-2.27,3.28-3.36l.39-.41c.37-.41.75-.81,1.13-1.2,3.49-3.63,7-7.6,9.57-10.5l.27-.31.44-.49c5.95-6.72,11.95-14,18.34-22.41,2.94-3.85,6-8.07,9.48-12.92,2.29-3.22,4.52-6.78,6.32-9.64l1.66-2.63c1.79-2.81,3.48-5.74,4.93-8.27.68-1.19,1.37-2.37,2.06-3.55,1.88-3.22,4-7,6.3-11.49,4.12-7.81,8.88-16.92,13.32-26,2.52-5.13,4.61-9.59,6.39-13.63,2.06-4.63,4.18-9.64,6.3-14.89,3.38-8.41,6.77-17,9.67-24.48l1.33-3.4c7.34-18.65,13.25-37.95,18.07-54.37,2.34-8,4.27-16.12,6.13-24l.06-.22,0-.19.83-3.57c2.11-8.87,4-17.77,5.67-26.46.26-1.37.54-2.75.81-4.1l.13-.68c.65-3.32,1.19-6.09,1.63-8.93.18-1.17.36-2.34.55-3.52l.16-1,.06-.34.08-.49c.56-3.58,1.15-7.27,1.55-10.89l.32-2.85.05-.52,0-.28c.9-8.2,1.84-16.68,2.32-25.13l0-.48v-.2c.52-9.14,1.06-18.59.66-28v-.16c-.38-8.8-.8-18.77-2-28.6l0-.18,0-.18c-1.22-10-2.49-20.42-4.71-30.58l-.32-1.43-1.6-7.33c-.29-1.23-.65-2.54-.94-3.54l-.07-.25-.07-.23-.39-1.4-.1-.4-.12-.43-.09-.32c-1.11-4-2.25-8.17-3.52-12.27l-1.14-3.67-.17-.56c-1.91-6.22-4.53-14.74-7.29-22.46-.41-1.16-.82-2.33-1.22-3.5l-.17-.49c-1.06-3.06-2.21-6.42-3.54-9.59q-1.81-4.35-3.62-8.69l-.44-1.07-.31-.76-.07-.17c-.55-1.36-1.17-2.9-1.87-4.33l-.74-1.56C762,211,758,202.65,753.46,194.75q-1.1-1.94-2.17-3.87c-1.48-2.66-3.16-5.68-4.92-8.49l-1.08-1.75-.52-.85-.81-1.31c-1.1-1.82-3.15-5.21-5.16-8.21-.9-1.34-1.79-2.7-2.68-4.06-1.6-2.45-3.46-5.29-5.39-8L728,154.24c-1.84-2.67-3.8-5.5-5.78-8.14L718.38,141l-5.31-7c-2.24-3-4.61-5.84-7.05-8.8l-.33-.4-.9-1.09c-.78-.93-1.53-1.85-2.28-2.77-1.82-2.24-3.84-4.53-5.62-6.54l-.45-.52-.11-.12-.29-.33-.55-.62c-.87-1-1.73-2-2.59-3-2.08-2.39-4.43-4.88-6.32-6.88l-.4-.42c-1.08-1.14-2.17-2.28-3.23-3.43-2.28-2.45-4.58-4.89-6.87-7.33L673,88.51c-2.42-2.56-5.06-5.18-7.18-7.29l-.78-.77-2.21-2.21c-2.32-2.32-4.56-4.4-7.71-7.31l-2.84-2.64c-2.43-2.27-4.9-4.49-7.37-6.72l-.53-.48L641.6,58.6q-3.65-3.29-7.36-6.5l-1-.84-.56-.49-1.9-1.66c-3-2.58-6.16-5.21-9-7.52l-.31-.25-.21-.17-.37-.3L619.89,40c-6.71-5.48-14-11.13-23.77-18.33C587.52,15.32,579,9.73,571.77,5.09,563.6-.18,555.11-5.15,547.11-9.79c-2.45-1.44-5-2.83-7.44-4.22l-.36-.19-3.64-2c-4.63-2.59-8.44-4.63-12-6.42l-1.29-.66-1.94-1-.24-.13c-2.71-1.39-6.09-3.12-9.49-4.67-4.89-2.23-10.11-4.59-15.46-6.74l-6.73-2.71c-1.74-.71-3.65-1.35-5.19-1.86l-2.8-.94c-2.35-.83-4.7-1.63-7.06-2.43l-.75-.25-.72-.24-1-.33-1-.33L466.84-46c-8.47-2.85-17.63-5.55-28-8.26-1.75-.45-3.49-.89-5.25-1.27l-1.8-.4-.23,0-.33-.08c-1.57-.37-3.41-.79-5.2-1.11l-2.32-.39-.32-.06c-4.43-.75-8.88-1.51-13.27-1.92-2.84-.26-5.68-.52-8.52-.76-1.44-.11-2.92-.17-4.35-.22l-.71,0h-.33c-.55,0-1.05,0-1.56-.06-4.52-.19-9.12-.25-13.58-.32H378.4Z"/><ellipse cx="462.93" cy="372.5" rx="169.86" ry="160.22"/><g class="cls-5"><ellipse class="cls-2" cx="469.07" cy="357.17" rx="169.86" ry="160.22"/><path class="cls-6" d="M507.09,491.13l-52.84,49.6c-9.76-9.78-21.3-21.47-34-34.65C339.43,422,212.52,278,203.66,194.45v0c33.14-23.22,88.09-.23,122.11,50.82,1.07,1.61,148.3,186.38,182.51,229.31A12.26,12.26,0,0,1,507.09,491.13Z"/><path d="M387,287.84l-7.77,7.77a14.35,14.35,0,0,0,10.15,24.5h13.22a14.35,14.35,0,0,0,11.75-22.59l-5.45-7.77A14.36,14.36,0,0,0,387,287.84Z"/><path d="M415.05,330.7l-4.81,4.82a8.89,8.89,0,0,0,6.28,15.18h8.2a8.89,8.89,0,0,0,7.27-14l-3.37-4.82A8.9,8.9,0,0,0,415.05,330.7Z"/><path d="M480.12,250l-7.77,7.77a14.35,14.35,0,0,0,10.14,24.5h13.23a14.35,14.35,0,0,0,11.74-22.6L502,251.85A14.35,14.35,0,0,0,480.12,250Z"/><path d="M551.25,333.72l-7.77,7.77A14.35,14.35,0,0,0,553.63,366h13.22a14.36,14.36,0,0,0,11.75-22.6l-5.45-7.77A14.35,14.35,0,0,0,551.25,333.72Z"/><path d="M529.85,426.75,524.63,432a9.64,9.64,0,0,0,6.81,16.45h8.89a9.64,9.64,0,0,0,7.89-15.17L544.55,428A9.63,9.63,0,0,0,529.85,426.75Z"/><path d="M434.24,399.53l-7.77,7.77a14.35,14.35,0,0,0,10.15,24.5h13.22a14.35,14.35,0,0,0,11.75-22.59l-5.45-7.77A14.36,14.36,0,0,0,434.24,399.53Z"/><path d="M594.34,271.85l-5.22,5.22a9.63,9.63,0,0,0,6.81,16.45h8.88a9.64,9.64,0,0,0,7.89-15.18L609,273.12A9.63,9.63,0,0,0,594.34,271.85Z"/><path d="M405,210.06l-7.77,7.77a14.35,14.35,0,0,0,10.15,24.5h13.22a14.35,14.35,0,0,0,11.75-22.59L426.89,212A14.37,14.37,0,0,0,405,210.06Z"/><path d="M611.75,414.83,604,422.6a14.34,14.34,0,0,0,10.15,24.49h13.22A14.35,14.35,0,0,0,639.1,424.5l-5.45-7.77A14.35,14.35,0,0,0,611.75,414.83Z"/><path d="M492.73,500.31l-6,6a11.14,11.14,0,0,0,7.88,19h10.27A11.14,11.14,0,0,0,514,507.83l-4.23-6A11.15,11.15,0,0,0,492.73,500.31Z"/><path d="M478.54,348.12l-4.05,4.05A7.48,7.48,0,0,0,479.78,365h6.9a7.49,7.49,0,0,0,6.13-11.79L490,349.11A7.48,7.48,0,0,0,478.54,348.12Z"/><path d="M534.05,222.46l-4,4.06a7.48,7.48,0,0,0,5.29,12.78h6.9a7.49,7.49,0,0,0,6.13-11.79l-2.85-4A7.49,7.49,0,0,0,534.05,222.46Z"/><path d="M324,281l-4.05,4a7.48,7.48,0,0,0,5.29,12.78h6.9A7.49,7.49,0,0,0,338.24,286L335.39,282A7.48,7.48,0,0,0,324,281Z"/></g><path class="cls-7" d="M401.23,501.08S212.88,264.75,211.67,262.93C178,212.37,123.75,189.32,90.52,211.46s-32.85,81.06.83,131.62c7.54,11.31,149.78,196.46,189.5,248.13a19.92,19.92,0,0,0,25.07,5.47l35.28-27Z"/><path class="cls-6" d="M301.15,436.49,249.42,352.7,141.05,209.1l-30.58,15.27c-.4-1.25-1.09-1.16-2.21,1.11-6.6-4.25-8,.09-8.75,5.43-.52,3.85-.66,8.23-2.08,10.29-27.35-29.79-34.66,42.31-1.76,23.5.2.18,1.93,3,1.31,3.13-26.15,10.57,2.9,9.16,5.2,15.61-2.7,14.49,15,15.06,15.21,13.38-1.4,10.77-15.42,9.06-15.79,10.42-9.34,33.71,20.45,7.05,27.14,36.12-10.19,2.9-14.81,52.67,11,39.78.83.83,2.47,4.45,2.84,4.42-.1,0-.15,0-.14.05-10.84,12.54,33.59,38.43,21,5.48,0,0,0,0,0,0s0,0,0,0c22.55,15.44-5.86,22.4,19.83,31.23-.09,0-.12,0-.08.05s0,0,0,0c-6.25,1.06-18.12,3.15-10.5,13.55-13.67,12.31,7,29,20.15,13.12,9.63,16.14-2.35,12,12,26.46,1.76,1.78,11.79,15.07,17.55,14.39-4.05,13.91,7.79,32,24.39,18.93l4.33,8.92c1.15,5,2,9.81,7.29,12.92L288,572.1l6.64-41.89L322.55,487Zm-74.64,48.18s0,0,0,0l-.14.16c0-.11,0-.21,0-.33C226.75,484.14,226.37,484.86,226.51,484.67ZM208.2,425.83c-9.72-22.41,22-35.88,8.64-51.19-22.24-25.42-46.05-20.92-53.18-57.17-1.63-8.27-30.93-8.9-33-16.11-4.83-16.48-18.67-28.05-20.82-46.73-.21-1.83,1.08-15,1.16-23.61l134.48,223.4C227.89,441,221.1,455.59,208.2,425.83Z"/><ellipse class="cls-4" cx="239.84" cy="425.32" rx="49.85" ry="60.86" transform="translate(-142.87 122.08) rotate(-22.19)"/><ellipse class="cls-4" cx="188.65" cy="340.89" rx="49.85" ry="60.86" transform="translate(-114.78 96.5) rotate(-22.19)"/><ellipse class="cls-4" cx="158.73" cy="265.1" rx="49.85" ry="60.86" transform="translate(-88.37 79.58) rotate(-22.19)"/><ellipse class="cls-8" cx="252.1" cy="417.66" rx="49.85" ry="60.86" transform="translate(-139.07 126.15) rotate(-22.19)"/><ellipse class="cls-4" cx="308.54" cy="503.77" rx="49.85" ry="60.86" transform="matrix(0.93, -0.38, 0.38, 0.93, -167.41, 153.84)"/><ellipse class="cls-8" cx="320.8" cy="496.11" rx="49.85" ry="60.86" transform="translate(-163.61 157.9) rotate(-22.19)"/><ellipse class="cls-8" cx="200.91" cy="333.23" rx="49.85" ry="60.86" transform="translate(-110.97 100.56) rotate(-22.19)"/><ellipse class="cls-8" cx="171" cy="257.44" rx="49.85" ry="60.86" transform="translate(-84.56 83.65) rotate(-22.19)"/><path class="cls-7" d="M458.88,470.73S270.54,234.4,269.32,232.57C235.64,182,181.4,159,148.18,181.1s-32.86,81.07.82,131.63c8.77,13.15,175.47,260.62,199.72,261.42C371.67,574.9,458.88,470.73,458.88,470.73Z"/><path class="cls-2" d="M458.88,470.72,397.8,528.06c-9.76-9.78-21.31-21.47-34-34.65-80.84-84.09-207.75-228-216.61-311.63.3-.23.64-.46,1-.68,33.23-22.13,87.46.91,121.15,51.47C270.53,234.4,458.88,470.72,458.88,470.72Z"/><path d="M246.89,308.77a53.48,53.48,0,0,1,1.43-18.64,59,59,0,0,1,7.51-17.62c.8-1.42,1.86-2.65,2.79-4l1.45-2c.52-.63,1.08-1.22,1.62-1.83,1.1-1.2,2.18-2.45,3.32-3.63l3.65-3.28,1.85-1.65,2-1.44,4-2.9c2.74-1.79,4.14-2.46,7-4.14l6.81,8.51c-2.66,1.07-6.22,3.21-8.87,4.39l-3.86,2-1.95,1-1.82,1.18-3.66,2.38c-1.15.87-2.26,1.81-3.4,2.72-.57.47-1.15.91-1.7,1.39l-1.55,1.55c-1,1.06-2.15,2-3.05,3.17a55,55,0,0,0-9.4,15.11A51.66,51.66,0,0,0,246.89,308.77Z"/><path d="M302.49,380.32a53.24,53.24,0,0,1,1.42-18.64,59.21,59.21,0,0,1,7.51-17.62c.81-1.42,1.86-2.65,2.79-4l1.45-2c.53-.62,1.08-1.22,1.62-1.83,1.1-1.2,2.18-2.44,3.32-3.63l3.66-3.28,1.85-1.65,2-1.44,4-2.89c2.75-1.8,5.64-3.34,8.49-5l6.06,9c-2.66,1.08-7,3.56-9.6,4.75l-3.87,2-1.95,1-1.81,1.17-3.67,2.38c-1.15.87-2.25,1.81-3.4,2.72-.56.47-1.14.92-1.7,1.39l-1.54,1.55c-1,1.06-2.15,2-3.05,3.17a54.79,54.79,0,0,0-9.41,15.11A51.88,51.88,0,0,0,302.49,380.32Z"/><path d="M358.08,451.87a53.48,53.48,0,0,1,1.43-18.64A59,59,0,0,1,367,415.61c.8-1.42,1.86-2.65,2.79-4l1.45-2c.52-.62,1.08-1.22,1.62-1.83,1.1-1.2,2.18-2.44,3.32-3.63l3.65-3.28,1.85-1.65,2-1.44,4-2.89c2.75-1.8,5.85-3.49,8.7-5.17l7.38,9.18c-2.66,1.08-8.49,3.56-11.14,4.75l-3.86,2-1.95,1L385,407.82l-3.66,2.37c-1.15.88-2.26,1.81-3.4,2.73-.56.46-1.15.91-1.7,1.38l-1.55,1.55c-1,1.06-2.14,2-3.05,3.18a54.94,54.94,0,0,0-9.4,15.1A51.94,51.94,0,0,0,358.08,451.87Z"/><path class="cls-1" d="M159,138c-10.26,11.14-13.67,26.12-11.8,43.81C156.07,265.36,283,409.32,363.82,493.41c12.67,13.18,24.22,24.87,34,34.65,19.86,19.85,32.45,31.73,32.45,31.73"/><circle class="cls-1" cx="356.41" cy="382.88" r="377.29"/></g></g></svg>