<svg xmlns="http://www.w3.org/2000/svg" xmlns:xlink="http://www.w3.org/1999/xlink" viewBox="0 0 720 720"><defs><style>.cls-1{fill:none;}.cls-2{fill:#fff;}.cls-3{clip-path:url(#clip-path);}.cls-4{fill:#0016ff;}.cls-5{clip-path:url(#clip-path-2);}.cls-6{clip-path:url(#clip-path-3);}.cls-7{clip-path:url(#clip-path-4);}.cls-8{fill:#e70000;}</style><clipPath id="clip-path"><circle class="cls-1" cx="360" cy="360" r="360"/></clipPath><clipPath id="clip-path-2"><rect class="cls-1" x="-77.87" y="16.44" width="726.69" height="726.69"/></clipPath><clipPath id="clip-path-3"><path class="cls-1" d="M399.72,956.49s132.59-451.68,216-458c0,0,37.77-22,37-77.12,0,0-20.46-39.34-24.4-44.06A47.21,47.21,0,0,1,622,367.11s-1.87-11.31-4.72-15.74c-18.21-28.26-33-8.66-33-8.66s61.38-133,40.13-138.49-25.18,11-96,149.51l-.77.8a70.15,70.15,0,0,1-11.82-3.16c-18.89-7.08-22-11-32.26.79s0,17.31,0,41.7-10.23,26.76,1.57,62.95S389.89,637,389.89,637,180.18,915.17,179,980.09s220.72-23.6,220.72-23.6"/></clipPath><clipPath id="clip-path-4"><path class="cls-1" d="M271.9,400.49a12.4,12.4,0,0,0-3.27-1.27c-10.49-2.52-22.1,8.41-25.92,24.41-2,8.33-1.47,16.4,1,22.56-1.82,5.4-2.83,9-2.83,9-25.18,11.8-93.64,71.61-93.64,71.61-35.41,6.29-41.7-48-41.7-48,37.77-42.49-18.1-87.46-18.1-69.51,0,12.86-7.27,23-9.44,25.45-2.76,3,0,0-21.25,33.05s11,23.6,0,62.16S41.29,550.31,46.5,602.36c3.65,36.42-3.5,50.59-2.7,55l1.91-4.63-1.57,5.51a2,2,0,0,1-.34-.88L-14.88,799.08l141.64-6.29s-3.15-93.64,47.21-133,50.37-94.43,62.17-125.12,32.26-31.48,30.69-51.15c-.51-6.41,0-17.52.87-29.56,1.65-22.15,4.65-47.51,5.3-52.83.08-.66.12-1,.12-1A7.72,7.72,0,0,0,271.9,400.49Z"/></clipPath></defs><title>speaker</title><g id="Layer_1" data-name="Layer 1"><path class="cls-2" d="M360,719.5A359.59,359.59,0,0,1,220.07,28.75a359.59,359.59,0,0,1,279.86,662.5A357.17,357.17,0,0,1,360,719.5Z"/><path d="M360,1A359.1,359.1,0,0,1,499.74,690.79,359.1,359.1,0,0,1,220.26,29.21,356.74,356.74,0,0,1,360,1m0-1C161.18,0,0,161.18,0,360S161.18,720,360,720,720,558.82,720,360,558.82,0,360,0Z"/></g><g id="Layer_2" data-name="Layer 2"><g class="cls-3"><rect class="cls-4" x="-5.3" y="-6.24" width="726.69" height="726.69"/><g class="cls-5"><path class="cls-2" d="M130.21,68.34,237.9,66.19s13.88-25.59,6.8-60.41"/><path d="M152.14,515.52s-6.3-40.92-1.18-55.47c0,0-30.69-11.41-28.72,68.46S152.14,515.52,152.14,515.52Z"/><path d="M115.55,533.23l-8.26-20.07S86,516.7,101.38,542.28,115.55,533.23,115.55,533.23Z"/><path class="cls-2" d="M-69.74,306.19s51.9,48,94.39,60.59L41.18,377c35.41,8.65,40.91-2.1,51.93-13.9s6.56-34.89,6.56-34.89c4.58-3,15.64.63,24.72,3.62,12.72,4.18,20.92,1.63,28-16.73,6-21-15.21-46.49-9.71-63.81,6.3-10.62,24.14-11.21,37.51-11.21S219,227.5,217.44,215.7s-9.71-14.17-3.94-29.9c9.17-.72,23.84-2.94,34.89-10.5,4.2-1.83,19.41-8.13,10.75-24.39-69-57.19-21.24-84.72-21.24-84.72H-69.74Z"/><path d="M83.67,66.5s18.94,13.89,50.49,58.06S61.57,265.45,55.9,332.84,5.41,375.76,5.41,375.76s-66.9-5.05-87.1-42.92,6.32-290.32,6.32-290.32Z"/><path class="cls-2" d="M157.82,81.6s8,9.21,14,25.61"/><path d="M192.84,183.37c-7.22-7.21-19.67-29.51,13.51-35.54,0,0-26.89-23.08-12.73-60.07,0,0-4.66-43.81-8.59-48.67,0,0-31.41,25.18-40.66,29.64,0,0,26.69-19.08,43.35,15.23,3.1,6.38-5.24,13.9-15.73,23.61l-.14-.36c6.09,16.46,10.25,40.17,2.5,69.08"/><path d="M200.71,181.21s-16.33-7.78,3.73-10.63,25.68-10.33,23.71-3.34-17.31,11-17.31,11S215.76,169.89,200.71,181.21Z"/><path d="M153.36,242.12s-45.37,7.09-26.23,37.77,15.74,40.13,20.46,22.82-13.11-28.85-11.54-41.44S153.36,242.12,153.36,242.12Z"/><path class="cls-2" d="M399.72,956.49s132.59-451.68,216-458c0,0,37.77-22,37-77.12,0,0-20.46-39.34-24.4-44.06A47.21,47.21,0,0,1,622,367.11s-1.87-11.31-4.72-15.74c-18.21-28.26-33-8.66-33-8.66s61.38-133,40.13-138.49-25.18,11-96,149.51l-.77.8a70.15,70.15,0,0,1-11.82-3.16c-18.89-7.08-22-11-32.26.79s0,17.31,0,41.7-10.23,26.76,1.57,62.95S389.89,637,389.89,637,180.18,915.17,179,980.09s220.72-23.6,220.72-23.6"/><path class="cls-2" d="M27.57,616.44,26,622a2.11,2.11,0,0,1-.35-.88Z"/><g class="cls-6"><path d="M491.79,340.35s-17.71,27.55,20.07,35.41c0,0,9.28,50.25,56.1,34.91,0,0-39,22.82,7.37,41,0,0,2.1,18,23.87,10.62,0,0-38.56.79-59,37.77s-167.6,465.05-167.6,465.05L180,937.1,297.28,747.46S482.74,505.6,481.17,474.12s-44.07-121.18-26.76-129S491.79,340.35,491.79,340.35Z"/><path d="M528.38,353.73l57.84-126.29s-48.4,111.34-.4,111.34c0,0-24.39-5.9-36.19,38.16Z"/></g><g class="cls-7"><path class="cls-2" d="M271.9,400.49a12.4,12.4,0,0,0-3.27-1.27c-10.49-2.52-22.1,8.41-25.92,24.41-2,8.33-1.47,16.4,1,22.56-1.82,5.4-2.83,9-2.83,9-25.18,11.8-93.64,71.61-93.64,71.61-35.41,6.29-41.7-48-41.7-48,37.77-42.49-18.1-87.46-18.1-69.51,0,12.86-7.27,23-9.44,25.45-2.76,3,0,0-21.25,33.05s11,23.6,0,62.16S41.29,550.31,46.5,602.36c3.65,36.42-3.5,50.59-2.7,55l1.91-4.63-1.57,5.51a2,2,0,0,1-.34-.88L-14.88,799.08l141.64-6.29s-3.15-93.64,47.21-133,50.37-94.43,62.17-125.12,32.26-31.48,30.69-51.15c-.51-6.41,0-17.52.87-29.56,1.65-22.15,4.65-47.51,5.3-52.83.08-.66.12-1,.12-1A7.72,7.72,0,0,0,271.9,400.49Z"/><path d="M70.89,438.69S43.35,482,73.25,528.4,90.56,563,78,608.66s7.87,53.51,3.94,60.59S63,657.45,45.71,688.13,9.52,771.54,33.91,800.66-39.27,773.9-39.27,773.9l85-320.26Z"/></g><path class="cls-2" d="M367.21,567.89c-28.27,0-48.77-66-79.34-172.1-3.66-12.7-7.45-25.84-11.2-38.54L307,353.66c3.76,12.73-1.52,25.89,2.15,38.62,12.15,42.14,15.64,85.72,27.94,116.92,16.95,43,27.29,46.45,31,45.94,4.9-.69,8.9-1.3,12.18-1.84l7.45-4.31c1.48-2.24,11.75-21.42-7.78-97.53l12.3-3.16c15.52,60.48,13.28,88.41,9.18,101,1.86,1.07-4.8,10.6-9.22,11.63-5.06,1.17-11.38,5.27-22.34,6.8A19,19,0,0,1,367.21,567.89Zm20.68-19Z"/><path d="M364.1,439.17,240.87,349.1c-30.59-22.37-41.05-60.12-23.36-84.33s56.85-25.71,87.44-3.34L428.18,351.5c30.59,22.36,41.05,60.12,23.36,84.33S394.69,461.53,364.1,439.17Z"/><path class="cls-2" d="M333.9,419.18c0-45,36.13-85.07,76.23-85.07l-74.76-54.29c-40.09,0-76.23,40.09-76.23,85.07Z"/><ellipse cx="283.55" cy="351.13" rx="13.57" ry="13.77"/><path d="M292.6,360.57l19.08-18.88s2.75-17.71-16.13-13.58l-19.08,11.41"/><path class="cls-2" d="M277.75,336.47c14.7-1.82,22.51,14,20.82,18.59L307,346.8c3.69-8.56-.35-18.54-16.48-16.87Z"/><rect class="cls-2" x="398.97" y="557.74" width="12.7" height="233.99" transform="translate(-147.45 114.38) rotate(-13.62)"/><path class="cls-2" d="M338.59,34.35c-40.08,16.79-59.84,60.82-44.12,98.34a69.84,69.84,0,0,0,25.25,30.82l-2.07.08s5.19,20.94-55.89,48.24c0,0,41.29-4.65,87.49-36.36a82,82,0,0,0,46.25-5.24c40.09-16.79,59.84-60.82,44.13-98.34S378.67,17.56,338.59,34.35Z"/><polygon class="cls-8" points="347.13 56.59 357.76 117.58 374.67 117.58 381.36 56.59 347.13 56.59"/><rect class="cls-8" x="358.54" y="131.37" width="15.74" height="15.74"/></g></g></g></svg>