<svg xmlns="http://www.w3.org/2000/svg" xmlns:xlink="http://www.w3.org/1999/xlink" viewBox="0 0 720 720"><defs><style>.cls-1,.cls-10,.cls-5,.cls-9{fill:none;}.cls-14,.cls-2{fill:#fff;}.cls-3{clip-path:url(#clip-path);}.cls-4,.cls-6{fill:#0016ff;}.cls-5,.cls-6,.cls-7,.cls-8,.cls-9{stroke:#fff;}.cls-10,.cls-14,.cls-5,.cls-6,.cls-7,.cls-8,.cls-9{stroke-miterlimit:10;}.cls-10,.cls-14,.cls-5,.cls-8{stroke-width:3.34px;}.cls-6{stroke-width:0.84px;}.cls-7,.cls-9{stroke-width:1.67px;}.cls-11,.cls-8{fill:#711ed6;}.cls-10{stroke:#711ed6;}.cls-12{fill:#e70000;}.cls-13{clip-path:url(#clip-path-2);}.cls-14{stroke:#000;}</style><clipPath id="clip-path"><circle class="cls-1" cx="360" cy="360" r="360"/></clipPath><clipPath id="clip-path-2"><path class="cls-1" d="M216.14,151.09a3.1,3.1,0,0,0-.87.13,3.43,3.43,0,0,0-2.09,1.74,2.78,2.78,0,0,0-.19,2.28l.31.84-1.14,1.13-.24.25-.51.51a23.13,23.13,0,0,1-2.07,2,13.18,13.18,0,0,1-1.13.8c-.27.17-.54.31-.82.45a13.52,13.52,0,0,1-1.63.62,13.22,13.22,0,0,1-1.77.36c-.61.06-1.22.08-1.84.08-.37,0-.75,0-1.13,0-1-.07-2-.18-3-.31l-.41-.05-.36,0c-.65-.09-1-.14-1.29-.21a12.29,12.29,0,0,1-2-.56,8.86,8.86,0,0,1-1.44-.81l-.48-.33.16-.69a1.35,1.35,0,0,0-.36-1,1.78,1.78,0,0,0-1.26-.59,1.6,1.6,0,0,0-1.56,1.43,1.25,1.25,0,0,0-.14,1.4,22,22,0,0,0-.11,4.61,15.48,15.48,0,0,0,1.44,5,11.28,11.28,0,0,0,3.17,4.08,7.42,7.42,0,0,0,2.74,1.43,14.15,14.15,0,0,0,2.49.45l.83.13c1.15.18,1.8.28,2.46.34a9.66,9.66,0,0,1-1.43,2.42c-.36.43-.62.73-.89,1a7.16,7.16,0,0,1-.84.71l-.28.25-.88.59-1,.62-.38.21-.37.21c-.51.27-.82.44-1.13.63l-1,.6-.6.38a21.39,21.39,0,0,1-2.44,1.44,20.89,20.89,0,0,1-4.52,1c-1,.1-2.07.17-3.11.21h-.58c-.88,0-1.77-.08-2.64-.16a13.32,13.32,0,0,1-2.91-.87c-.45-.21-.89-.43-1.35-.66l-.68-.34c-.78-.4-1.56-.75-2.34-1.08A29.22,29.22,0,0,0,169,182.3l-.38-.12-.76-.24a3.73,3.73,0,0,0-1.18-.26,2.82,2.82,0,0,0-1.66.62,2.66,2.66,0,0,0-.79,1.67,9.72,9.72,0,0,0,.17,3.31,16.59,16.59,0,0,0,1.32,4.15,20.45,20.45,0,0,0,2.76,4.33,19.38,19.38,0,0,0,3.49,3.08c.67.5,1.21.87,1.76,1.22a14.85,14.85,0,0,0,1.84,1.07l.31.13a14.82,14.82,0,0,0,1.6.64,4.66,4.66,0,0,0,1,.24l-.11,1.1a15.86,15.86,0,0,0,0,2.07,14.45,14.45,0,0,0,.54,2.41,17,17,0,0,0,.82,2,18.54,18.54,0,0,0,2.33,3.66,29.44,29.44,0,0,0,3.12,3.3,20.08,20.08,0,0,0,3.81,2.86,26.09,26.09,0,0,0,4.72,1.89,22.74,22.74,0,0,0,4.57,1c.63.06,1.26.13,1.89.15-1.18.28-2.12.5-3.08.66-.33,0-.67,0-1,0s-.95,0-1.42-.06a46.87,46.87,0,0,1-5.19-1.27l-1.17-.32-.47-.13c-1.8-.5-3.65-1-5.41-1.7l-.58-.28-.59-.28a26.89,26.89,0,0,0-3-1.32,3.48,3.48,0,0,0-1.26-.24,3.17,3.17,0,0,0-2.24.9,3.93,3.93,0,0,0-.94,2.49,10.11,10.11,0,0,0,.07,2.1,1.93,1.93,0,0,1,.06.41,2.87,2.87,0,0,0,.52,1.25,14.65,14.65,0,0,0,.06,2,25.07,25.07,0,0,0,.87,4.48,43.37,43.37,0,0,0,4,9.48,64.86,64.86,0,0,0,12.83,16.66c.87.79,1.8,1.54,2.73,2.28l1.09.88.88.71.89.72.81.66.36.28.45.34,1,.73c1.11.8,2.07,1.48,3,2.16l1.21.85a38.45,38.45,0,0,0,4.09,2.49,31.38,31.38,0,0,0,5.61,2.22A61.73,61.73,0,0,0,225.31,274a56.24,56.24,0,0,0,6.19.34c.64,0,1.27,0,1.89,0a18.75,18.75,0,0,0,8.71-2.65,28.57,28.57,0,0,0,3.6-2.62c.46-.36.91-.74,1.34-1.14l-.64.83c-.53.8-1.06,1.59-1.61,2.31s-1,1.28-1.59,1.9a13.28,13.28,0,0,1-1.7,1.56,51.93,51.93,0,0,1-6.51,4,1.3,1.3,0,0,0-.66,1.14,2.74,2.74,0,0,0,.2,2.21,2.66,2.66,0,0,0,1.55,1.19,20.12,20.12,0,0,0,5.31,1.26h.49a14.35,14.35,0,0,0,4.31-.77,45.33,45.33,0,0,0,9.13-4,19.14,19.14,0,0,0,3.68-2.8,28.64,28.64,0,0,0,2.89-3.51,22.68,22.68,0,0,0,2-3.38,21.28,21.28,0,0,0,1.54-4.15,34.92,34.92,0,0,1,1,4.73,16,16,0,0,1,0,3.1,2.92,2.92,0,0,0,.22,1.77,1.83,1.83,0,0,0,.95.79,1.93,1.93,0,0,0,.65.12,1.26,1.26,0,0,0,.49-.09,6.56,6.56,0,0,0,3.23-2.62,13.19,13.19,0,0,0,1.58-3,69.74,69.74,0,0,0,2.92-8.92,75.94,75.94,0,0,0,1.8-8.47c.25-1.77.34-3.54.42-5s.11-3.29.06-4.93c-.17-4.16-.42-7.29-.82-10.15l-.34-2.25-.33-2.15a.45.45,0,0,0-.15.38,37.4,37.4,0,0,0-1.17-7.32,49.38,49.38,0,0,0-2.35-6.68l-.31-.78c-.35-.89-.71-1.77-1.07-2.65-.45-1-.81-1.83-1.18-2.63s-.57-1.6-.83-2.42l-.42-1.26a20.44,20.44,0,0,0-.88-2.09,8.28,8.28,0,0,0-1.4-2,2,2,0,0,0-1.1-.63c-.74-.87-1.5-1.77-2.25-2.68l-.49-.58-1-1.14-1.31-1.55-.43-.49c-.87-1-1.68-2-2.44-2.9s-1.41-1.86-2.05-2.83-1.31-2.06-1.93-3.13a67.67,67.67,0,0,1-3.21-6.63l-.2-.37-.31-.84a5.56,5.56,0,0,0-.81-1.21,3.38,3.38,0,0,0-1.14-.91,6.31,6.31,0,0,0-1.66-.61c-1.06-.23-2.1-.53-3.16-.84-2.52-.75-4.75-1.51-6.84-2.3-1.24-.54-2.46-1.12-3.66-1.72a27.09,27.09,0,0,1-3.76-2.36,39.79,39.79,0,0,1-6.06-6.23,30.85,30.85,0,0,1-3.43-5.26c-.33-.82-.64-1.65-.95-2.48a3.26,3.26,0,0,0-3.14-2.4Zm-11.9,13.79a6,6,0,0,0,1.11-.12l-.27.26-.24,0-1.05-.14a3.4,3.4,0,0,0,.45,0Z"/></clipPath></defs><title>vr</title><g id="Layer_1" data-name="Layer 1"><path class="cls-2" d="M360,719.5A359.59,359.59,0,0,1,220.07,28.75a359.59,359.59,0,0,1,279.86,662.5A357.17,357.17,0,0,1,360,719.5Z"/><path d="M360,1A359.1,359.1,0,0,1,499.74,690.79,359.1,359.1,0,0,1,220.26,29.21,356.74,356.74,0,0,1,360,1m0-1C161.18,0,0,161.18,0,360S161.18,720,360,720,720,558.82,720,360,558.82,0,360,0Z"/></g><g id="Layer_2" data-name="Layer 2"><g class="cls-3"><rect class="cls-4" x="-24.73" y="-5.15" width="830.17" height="732.56"/><path class="cls-2" d="M408.24,141.75,279.7,108.89l-52.18,114,67.65,49.28-14.5,24.17s-88.91-23.2-65.72,92.77L167.6,354.36l11.59-30.92s-1-57-31.89-59.92c0,0-29-23.2-40.59-1,0,0-5.8-12.56-17.39,10.63,0,0-15.47-9.66-25.13,9.67l28,33.82,1.94,10.63L127,352.43,238.15,480,457.53,581.48l77.32-180.73,87-18.36,47.35-73.45s-32.86-27.06-49.29-21.26-30-48.32-82.15-30c0,0-84.08-25.13-126.6,20.29l-18.36-10.63s7.73-5.8,18.36-22.23,26.09-58,4.83-77.31S408.24,141.75,408.24,141.75Z"/><path d="M309.94,623.78s-32.41,51.68-44.73,115.47l313.13,5.07s79.58-106.19-1.14-162.54S309.94,623.78,309.94,623.78Z"/><path class="cls-5" d="M148.47,256.82c.56-.06,1.11-.14,1.66-.22l-3.07.45a30.13,30.13,0,0,0-4.92.75,8.67,8.67,0,0,0-2.88,1.32,9.71,9.71,0,0,0-2.54,2.57,7.13,7.13,0,0,0-.49,1,5.4,5.4,0,0,0,0,5.31,5.31,5.31,0,0,0,5.82,2.47c.39,0,.79,0,1.18-.05a39.13,39.13,0,0,0,4.06-.71c1.86-.4,3.74-.78,5.6-1.08h-.08l1.52-.22a35.05,35.05,0,0,1,4.58-.15c1.44,0,2.89.1,4.32.24,2.35.37,4.64.95,7,1.41a44.7,44.7,0,0,1,7.64,2c1.37.64,2.71,1.36,4,2.08a35,35,0,0,1,3.58,2,24,24,0,0,1,2.9,3,34.2,34.2,0,0,1,2.72,4.59c.95,1.84,2,3.65,2.86,5.52a24.68,24.68,0,0,1,1.47,4.9,33.31,33.31,0,0,1,.05,4.47c0,1.49-.09,3-.25,4.46a16.69,16.69,0,0,1-.74,2.86,9.6,9.6,0,0,1-.65,1.12,10.38,10.38,0,0,1-1.11,1.09,7.09,7.09,0,0,1-1,.6,8.64,8.64,0,0,1-1.63.47,10.84,10.84,0,0,1-1.14,0,8.77,8.77,0,0,1-1.15-.28,22.33,22.33,0,0,1-3.09-2.13,2.24,2.24,0,0,0-3.08.81,2.3,2.3,0,0,0,.81,3.08c1.56,1.2,3.12,2.51,5.09,2.94a11,11,0,0,0,5.47-.21,9,9,0,0,0,4.57-2.87,11.79,11.79,0,0,0,2.42-5.33,33.35,33.35,0,0,0,.52-5.65,39,39,0,0,0,0-5.51,32,32,0,0,0-1.15-5.58,38.76,38.76,0,0,0-1.8-4.55,42.66,42.66,0,0,0-2.4-5.18,27.67,27.67,0,0,0-2.92-4,31.6,31.6,0,0,0-2.77-2.78,38.8,38.8,0,0,0-4.25-3c-1.43-.94-2.83-1.95-4.28-2.89s-3.17-1.88-4.76-2.77a101.91,101.91,0,0,0-10.32-5,31.76,31.76,0,0,0-9-2c-.55,0-1.09-.08-1.64-.08a49.73,49.73,0,0,0-6.69.69Z"/><path class="cls-6" d="M103.39,278.75l.17,0h0Z"/><path class="cls-6" d="M126.32,303.66a5.07,5.07,0,0,0-1.85-1.83,9.53,9.53,0,0,0-3.29-1.23c-.36-.09-.72-.16-1.09-.23a5.12,5.12,0,0,0,.14-4,10.44,10.44,0,0,0,5.58-2.35,5.21,5.21,0,0,0,0-7.31,5,5,0,0,0-1-.8h0c-.2-.12-.4-.23-.61-.33a4.68,4.68,0,0,0,1.18-.84,4.49,4.49,0,0,0,.68-5.42c-1.29-2.21-3.72-2.39-6-2.65a9.77,9.77,0,0,0-1.08-.06,22.38,22.38,0,0,0-3.15.3c-2.12.26-4.25.51-6.35.84-1.89.3-3.77.65-5.66.93l1.11-.14-1.35.18h0c-2.1.29-4.19.62-6.28,1.1-1.84.43-3.61,1-5.41,1.59s-3.55,1.17-5.3,1.81c-2,.73-4,1.53-6,2.14-7.76,2.32-15.81,3.23-23.67,5-2.06.49-4.14.83-6.21,1.22s-4.37,1-6.52,1.59a3.46,3.46,0,0,0-1.67,1.15,14.9,14.9,0,0,0-5.11,1.82,10.44,10.44,0,0,0-4,4.31,10.6,10.6,0,0,0-1.11,3.85,7.24,7.24,0,0,0,1.19,4.28,8.79,8.79,0,0,0,2.85,2.71,22.58,22.58,0,0,0,2.79,1.25,14.34,14.34,0,0,0,5.74.81c2-.05,4.07-.2,6.1-.18,3.8,0,7.6-.12,11.4-.24,1.94-.06,3.89-.17,5.84-.14s3.74.09,5.61.1,3.9,0,5.86,0,3.77.09,5.67.18c3.78.18,7.56.6,11.34.77s7.58.46,11.37.69c2.85.18,5.68.4,8.53.46,1.33,0,2.66.18,4,.22s2.52.18,3.77.09a2.3,2.3,0,0,0,.6-4.52c-.18-.06-.37-.1-.56-.15a4.57,4.57,0,0,0,1.12-.9A5.1,5.1,0,0,0,126.32,303.66Z"/><path class="cls-6" d="M103.81,278.68l-.24,0h0Z"/><path class="cls-2" d="M130.75,270.28s-21.38,25.91-25.91,25-4.17-8.88-4.17-8.88l-8.88,8.88L68.6,296.92l-20.3.72,24.46-17.57,55.64-14.82Z"/><path class="cls-7" d="M93.65,322.47c1.53-.88,2.72-1.64,3-3.54a4.13,4.13,0,0,0-4.06-4.76M71.28,301.11c.7-.59,1.31-1.29,2-1.92a9.44,9.44,0,0,1-2,1.92Z"/><path class="cls-8" d="M234.56,299.86c-2.17,0-4.76,8.19-5.25,9.6a69.39,69.39,0,0,0-3.35,19,83.2,83.2,0,0,0,6.25,37.21c1,2.31,2.48,4.17,3.58,6.36,1,2,0,3.58-.94,5.54a117.75,117.75,0,0,0-6.76,15.6c-.76,2.34-1.53,4.69-2.21,7.06-.83,2.89-.95,6.22-1.95,9a15,15,0,0,0-1.16,3.29,73,73,0,0,0-1.1,9.21c-.17,5.16.8,10.16,1.73,15.2a74.81,74.81,0,0,0,2.33,9.92c.78,2.35,2,7.36,4.46,8.36-2.65,3.33,4.19,11.87,6.13,14.49,3.47,4.68,7.41,9.42,12.51,12.36,4.07,2.35,5.75,4.28,6.82,8.92s2.65,9.06,4,13.63A127.17,127.17,0,0,0,270.93,531a147.29,147.29,0,0,0,17.35,24.32c5.76,6.5,12.86,12,19.39,17.72,1.11,1,4.52,3.22,4.77,4.83.1.64-.78,2.28-1,3-.65,2.13-1.33,4.25-2,6.37-2.43,7.9-6.69,16.3-5.45,24.75.62,4.21,3.37,8.46,5.94,11.79,3.32,4.31,7.27,8.64,12.22,11.05,9,4.37,19.26,5.58,29,7.3,9.5,1.68,19,3.06,28.59,4,20.06,2,41.2-.39,61.08-3.35,17.76-2.65,35.19-7.28,52.36-12.43,22.21-6.66,45.09-12.88,63.93-27,8.22-6.14,14.35-13.2,20.08-21.64,3.29-4.85,5.46-8.11,3.17-13.9-1.75-4.41-3.37-8.88-5.33-13.21-3.7-8.22-9.32-15.53-14.57-22.81a54.09,54.09,0,0,0-4.35-5.54c-1.43-1.53-4.41-3.57-5.13-5.55-.51-1.39,0-3.76,0-5.25a31.35,31.35,0,0,0-1.54-8.3,21.73,21.73,0,0,0-3.9-7.26,18.84,18.84,0,0,1-1.52-1.58c-.85-1.31-.41-1.95.14-3.55,1.19-3.44,2.46-6.87,3.51-10.36,2.8-9.25,5.76-19.35,5.82-29.1,0-4.38.24-8.79,0-13.17a31.72,31.72,0,0,0-1.32-8c-.8-2.43-2.64-3.48-3.94-5.51-1.8-2.79-2.37-4.33-6.26-4.45-5.1-.17-10.4,1.5-15.35,2.57-11.32,2.45-22.25,9.84-28.3,19.79-5.16,8.48-11.74,17.48-11.23,27,.19,3.69.3,7.37.4,11.07.13,5.62,7.38,12.12,5.34,17.49-.65,1.7-1,2.27-2.82,2.25-3.07,0-5.14-1.07-8.16.55-4.09,2.19-5.67,6.56-7.84,10.34-5,8.75-10.85,16.47-20.48,20.33a32.76,32.76,0,0,1-16.6,1.6c-5.15-.68-11.5-2.36-14.56-6.92-3.35-5-2.58-11.5-1.32-17,1.41-6.15,3.49-12.19,5.51-18.17,2.81-8.3,10.51-22.24.58-28.44-4.62-2.89-10.88-3.84-16.22-3.38-6,.52-10.37,3.41-14.63,7.47-3.11,3-6.23,7.19-11,6.21-4.37-.9-6.21-4.68-8.06-8.35-3.79-7.49-8.55-19.76-18.94-17.56-2.71.57-5.32,1.57-8.09,1.8a53.81,53.81,0,0,1-8.79-.31,124.21,124.21,0,0,1-14.37-2c-5-1-9.84-2.28-15-2.23a56.76,56.76,0,0,0-16.28,2.43,78.67,78.67,0,0,1-22.95,3.78c-11,0-22.77-2.17-31.58-9.33-9.52-7.73-10.35-19.42-9.78-30.78a95.7,95.7,0,0,1,7.38-33.12l-.43.53c1.71-3,3-7.06,1.42-10.3-1.26-2.53-3.39-4.47-4.67-7a65.78,65.78,0,0,1-6.61-23.25,90.49,90.49,0,0,1,1.32-23.92,43.6,43.6,0,0,1,3.34-10.7c.35-.74,4.51-6.75,1.35-6.75Z"/><path class="cls-9" d="M277.61,505.16a164.54,164.54,0,0,0-12.34-19.38c-2.44-3.32-4.63-6.75-6.84-10.22-2.7-4.23-6-7.84-9.2-11.67-7.07-8.49-15.16-18.44-17.47-29.35a60.71,60.71,0,0,1-.77-14.38c.06-1.85.67-3.6.2-5.43a19.65,19.65,0,0,0-2.73-5.21c-3-4.86-5.5-10-8-15.18a37.86,37.86,0,0,1-2.35-5.89c-.7-2.39-.7-4.36-2.81-5.95l.12.37c-2.28-2.4-5.61-2.79-8.34-4.4-4.11-2.43-7.74-6.06-11.54-9,.19.23.36.48.56.71-3.34-3.63-6.82-6.33-9.48-10.63-3-4.85-5.78-10.15-7.05-15.74-1.17-5.15.43-10.16,1.32-15.22,1.18-6.67,2.21-13.27,1.29-19.95,0,.18-2.94-9.06-3-13.59-.19-9.19-5.55-15.07-7.48-17.85s-6.89-6.14-9.54-8.29a24.21,24.21,0,0,0-7-3.93c-2.35-.84-4.18-2.75-6.5-3.92-.17-.08-.33-.19-.51-.28l.3-.16s-.37-.11-1-.23c-1.26-.69-2.51-1.38-3.75-2.13-4.88-2.91-8,1.26-11.85,4a31.43,31.43,0,0,0-10.42,7.43c-4,4.26-9,10.37-13.17,14.87a8.16,8.16,0,0,0-1-1.5c-.74-.81-1-.56-1.38-1.52-1.12-2.79.28-7.19,1.15-9.89s1.92-5.26,2.93-7.83c.36-.92,1.38-5.37,2.16-7.49-1.42,0-2.94,3.14-3.59,4.12a31.11,31.11,0,0,0-2.43,3.87,61.48,61.48,0,0,1-3.93,6.68c-.7,1.09-1.38,2.19-2.07,3.29-3.15,4.38-6.45,8.71-9.23,11.82-1.24.43-3.45,1-4.23.17-.36-.37-.58-2.39-.76-3.13a5.36,5.36,0,0,1,.33-2.61c4-7.05,4.39-9.47,6.68-13.31-5.13,1.69-7.32,5.87-8.3,7-1.73,2-3.39,4.06-5,6.15-1.25,1.63-2.47,3.29-3.74,4.91a15.63,15.63,0,0,1-2,2.09l-.12.11A22.57,22.57,0,0,1,65.81,292c1.29-1,.64-2.89,1-3.87s2.46-9.55,4.27-13.3c-5.43,1.33-14.21,9.42-16.89,11.23a33.77,33.77,0,0,0-5.64,4.23,63.78,63.78,0,0,0-5.7,7.36c-1.34,1.83-2.7,3.07-1.87,5.62a4.93,4.93,0,0,0,4.62,3.39c2.38,0,5.51-1.15,7.65-2.05a39.51,39.51,0,0,1,5.63-2.38,7.54,7.54,0,0,1,1.5-.42c.89.09.7.43,1.58.81a6.08,6.08,0,0,0,3.48.54c4.62-.52,9.24-1,12.48-4.64l.31-.08c4,6.18,13.6,2.21,17.35-1.9a13.26,13.26,0,0,0,1.82-2.63l4.26-.85a10.18,10.18,0,0,0,.69,1c1.36,1.73,2.39,3.63,5,2.67,1.05-.38,1.31-1.09,2.08-1.72a11,11,0,0,1,1.49-1.07c.75-.49,1.53-.81,2.25-1.38,3-2.38,5-6.05,7.11-9.24a8.17,8.17,0,0,1,2.41-2.78,60,60,0,0,1,6.82-3.5c4.16-2,8.82-2.31,12.37-5.11l.15-.41c.08-.62,3.12-.59,3.63-.51a22.29,22.29,0,0,1,3.75,1.13c1.86.66,3.6,1.74,5.43,2.51s4.18,1,6,1.91c1.3.66,1.87,2.19,2.58,3.6,1.51,3,9.22,33.11,9.76,34.68,2.54,7.31-3.85,15.11-8.35,20.35-2.62,3-12.06,8.9-16,11-2.31-2.17-5.79-3.22-8.75-4a32.3,32.3,0,0,0-7.91-1.3,9.82,9.82,0,0,0-6.89,2.37c-.11.1-.18.22-.28.32-.65-.13-1.3-.28-2-.4h0s0,0,0,.08l.79.85-.06-.08.48.48c0,.08-.08.16-.13.24-.2-.22-.44-.42-.63-.65-.64-.87-1.27-1.73-1.91-2.57-.32-.83-.65-1.67-1-2.44-2.58-5.49-6.65-11.11-12.87-12.55-.57-.13-1.31-.24-2.09-.34a19.38,19.38,0,0,0-3.25-1.36,16.39,16.39,0,0,0-4.59-.85h-.4a2.66,2.66,0,0,0-1.33.49c-.55-.13-1.1-.29-1.65-.43a5.2,5.2,0,0,1-.22-.77,7.73,7.73,0,0,1,0-1.36,9.14,9.14,0,0,1,2.79-2.31c1.52-.88,2.72-1.64,3-3.54a4.12,4.12,0,0,0-4.06-4.75c-2.06,0-4.6,1.75-6.11,3a13.51,13.51,0,0,1,3.2,7.33,6.66,6.66,0,0,0-.13,5.25c.78,2,9.31,11.09,12.7,13.66a20.16,20.16,0,0,1,2.56,2.41,12.79,12.79,0,0,1,.78,1.4c1,2.87,1.51,6,2.6,8.83,2,5.1,5.32,9.62,10.14,12.12A11.45,11.45,0,0,0,128,368a17.73,17.73,0,0,0,7.11-.45c.81,2.15,1.65,4.27,2.45,6.42,2.1,5.72,4,11.46,6.31,17.1a214.69,214.69,0,0,0,21.9,40.26c8.53,12.47,18.66,24.94,30,34.92,6.25,5.5,13.07,10.31,19.43,15.68s13,10.45,19.68,15.5c10.9,8.25,21.69,16.93,33.25,24.22l4.56,2.89c2.48,1.56,6.61,6.06,9.79,3.83C288.31,524.24,280,509.53,277.61,505.16ZM100.19,288.41a9.29,9.29,0,0,0,.29,1.89A2.67,2.67,0,0,1,100.19,288.41Z"/><path d="M277.7,504.63a164.66,164.66,0,0,0-12.34-19.39c-2.44-3.32-4.63-6.75-6.84-10.21-2.7-4.23-6-7.84-9.2-11.68-7.07-8.48-15.16-18.43-17.47-29.34a61.24,61.24,0,0,1-.77-14.38c.06-1.86.67-3.6.2-5.44a20,20,0,0,0-2.73-5.21,171,171,0,0,1-8-15.17,38.88,38.88,0,0,1-2.35-5.89c-.69-2.39-.7-4.36-2.81-5.95l.12.37c-2.28-2.41-5.61-2.79-8.34-4.4-4.11-2.43-7.74-6.06-11.54-8.95.19.23.36.48.56.7-3.34-3.63-6.82-6.32-9.48-10.63-3-4.85-5.78-10.14-7.05-15.74-1.17-5.15.43-10.16,1.32-15.22,1.18-6.66,2.21-13.26,1.3-20-.05.18-2.95-9-3-13.59-.19-9.18-5.55-15.06-7.48-17.84s-6.89-6.15-9.54-8.29a24.47,24.47,0,0,0-7-3.94c-2.35-.84-4.18-2.75-6.5-3.91-.17-.09-.33-.2-.51-.29l.3-.16s-.37-.1-1-.22c-1.26-.69-2.51-1.39-3.75-2.13-4.88-2.91-8,1.25-11.85,4a31.53,31.53,0,0,0-10.42,7.42c-4,4.27-9,10.37-13.17,14.88a8.22,8.22,0,0,0-1-1.51c-.74-.8-1-.56-1.38-1.51-1.11-2.79.28-7.2,1.15-9.89s1.92-5.26,2.93-7.84c.36-.91,1.38-5.36,2.16-7.48-1.42,0-2.94,3.13-3.59,4.11a31.25,31.25,0,0,0-2.43,3.88,61.34,61.34,0,0,1-3.93,6.67c-.7,1.09-1.38,2.2-2.07,3.3-3.15,4.38-6.45,8.71-9.22,11.82-1.25.43-3.46,1-4.24.17-.36-.37-.57-2.4-.76-3.13a5.36,5.36,0,0,1,.33-2.61c4-7.05,4.39-9.47,6.68-13.32-5.13,1.7-7.32,5.88-8.3,7-1.72,2-3.39,4.07-5,6.16-1.25,1.63-2.47,3.28-3.74,4.9a16.33,16.33,0,0,1-2,2.1l-.12.11a22.54,22.54,0,0,1-7.92,4.43c1.29-1,.64-2.88,1-3.86s2.46-9.56,4.27-13.3C65.76,275.6,57,283.69,54.3,285.5a32.71,32.71,0,0,0-5.64,4.23,63.78,63.78,0,0,0-5.7,7.36c-1.34,1.82-2.69,3.07-1.87,5.61a4.91,4.91,0,0,0,4.62,3.39c2.38,0,5.51-1.14,7.65-2A41.75,41.75,0,0,1,59,301.66a8.22,8.22,0,0,1,1.5-.41c.89.09.7.43,1.58.8a6.08,6.08,0,0,0,3.48.55c4.62-.52,9.24-1,12.48-4.64l.31-.09c4,6.19,13.6,2.21,17.35-1.89a13.26,13.26,0,0,0,1.82-2.63l4.26-.85a11.46,11.46,0,0,0,.69,1c1.36,1.73,2.39,3.62,5,2.67,1-.38,1.31-1.09,2.08-1.72a12.81,12.81,0,0,1,1.49-1.08,24.54,24.54,0,0,0,2.25-1.37c3-2.38,5-6,7.11-9.24a8.08,8.08,0,0,1,2.41-2.78,58.42,58.42,0,0,1,6.82-3.5c4.16-2,8.82-2.31,12.37-5.11l.15-.41c.08-.62,3.12-.59,3.63-.52a22.34,22.34,0,0,1,3.75,1.14c1.86.66,3.6,1.74,5.43,2.5s4.18,1,6,1.92c1.3.65,1.87,2.18,2.58,3.59,1.51,3,9.22,33.12,9.76,34.69,2.54,7.31-3.85,15.1-8.35,20.34-2.62,3-12.06,8.91-16,11-2.31-2.16-5.79-3.21-8.75-4a32.3,32.3,0,0,0-7.91-1.3,9.82,9.82,0,0,0-6.89,2.37,4.12,4.12,0,0,0-.28.31l-2-.4h0s0,.05,0,.08c.26.29.53.58.79.85,0,0,0-.05-.06-.08.16.18.32.32.48.48,0,.08-.08.17-.13.25-.2-.22-.44-.42-.63-.65-.64-.87-1.27-1.73-1.91-2.58-.32-.83-.65-1.66-1-2.44-2.58-5.49-6.65-11.1-12.87-12.54a20.33,20.33,0,0,0-2.09-.34,19.38,19.38,0,0,0-3.25-1.36,16.05,16.05,0,0,0-4.59-.86h-.39a2.78,2.78,0,0,0-1.34.48c-.55-.12-1.1-.28-1.65-.43a6.61,6.61,0,0,1-.22-.76,8.83,8.83,0,0,1,0-1.36A9.17,9.17,0,0,1,97,319.12c1.52-.87,2.72-1.63,3-3.53a4.12,4.12,0,0,0-4-4.76c-2.07,0-4.61,1.76-6.12,3a13.41,13.41,0,0,1,3.2,7.33,6.65,6.65,0,0,0-.13,5.25c.78,2,9.31,11.08,12.7,13.66a19.47,19.47,0,0,1,2.56,2.41,12.79,12.79,0,0,1,.78,1.4c1,2.87,1.51,5.95,2.6,8.82,2,5.1,5.32,9.63,10.14,12.13a11.47,11.47,0,0,0,6.42,2.61,17.55,17.55,0,0,0,7.11-.44c.81,2.14,1.65,4.27,2.45,6.42,2.1,5.72,4,11.45,6.31,17.1a214.61,214.61,0,0,0,21.9,40.25c8.53,12.48,18.66,24.94,30,34.93,6.25,5.5,13.07,10.31,19.43,15.68s13,10.45,19.68,15.49c10.9,8.25,21.69,16.93,33.25,24.23l4.56,2.89c2.48,1.55,6.61,6,9.79,3.82C288.4,523.71,280.05,509,277.7,504.63ZM100.28,287.87a9.49,9.49,0,0,0,.29,1.9A2.69,2.69,0,0,1,100.28,287.87Z"/><path class="cls-5" d="M406.47,92.08c.37-11.26-6.27-21.76-13.8-29.59a84.05,84.05,0,0,0-38.38-22.25c-12.65-3.42-27.71-4.38-39.61,2.09-1,.54-2.11,1.69-3.15,2-1.38.39-3.62-.69-5.15-1a52.44,52.44,0,0,0-10.91-.54,96,96,0,0,0-22.89,2.7C248.15,51.81,220,69.89,214.14,96.26c-.49,2.21-.28,4.73-.87,6.86-.69,2.5-3.33,3.39-4.81,5.58-3.61,5.35-1,13.62,3.18,17.93,2.54,2.58,4.16,2.45,4.33,6.16a36.46,36.46,0,0,0,1.94,11,38.84,38.84,0,0,0,13,17.09c11.56,8.94,32.11,13.92,44.18,3.45a19.82,19.82,0,0,0,5.73-7.46,15.5,15.5,0,0,1,.74-2c.69-1.12.21-.56,1.23-1.1a9.8,9.8,0,0,1,2-.55c6.68-1.72,13.69-1.79,20.51-2.71l-.82-.1c17.39-.09,33.42-4.21,49.61-10,3.77-1.35,29.78-12.8,34-15.52a33.69,33.69,0,0,1,4.11-1.73c2.47-1.16,3.53-2.54,5.2-4.59s4-2.8,5.55-4.78a19.09,19.09,0,0,0,2.9-6.47A33.34,33.34,0,0,0,406.47,92.08Z"/><path class="cls-5" d="M459.69,180.62c0-.27-.48-2.4-.84-2-3.21,3.2-9.84,4.6-11.78,5.48a29.82,29.82,0,0,1-6.22,1.91c-.5,0-1,.05-1.51.05s-1.31,0-2-.09a18.89,18.89,0,0,1-2.88-.67c-.7-.23-1.37-.48-2.05-.76a19.62,19.62,0,0,1-2.48-1.42l.09-.43,0-.52a2.63,2.63,0,0,0-.75-2,3.19,3.19,0,0,0-2.22-1,3,3,0,0,0-3,3L424,184c-.07,1.23-.14,2.44-.29,3.67a16.35,16.35,0,0,1-.85,3.16,14,14,0,0,1-1.27,2.18,14.75,14.75,0,0,1-2,1.87c-1,.77-2.13,1.46-3.23,2.15-.2-.46-.41-.93-.63-1.4l-.16-.34c-.17-.36-.35-.71-.54-1.06l-.26-.63-.19-.45a.39.39,0,0,0,0,.37,2.94,2.94,0,0,0-.45-.79c-.49-.62-1.08-1.26-1.75-1.26a1.15,1.15,0,0,0-.5.12,2.72,2.72,0,0,0-1.05,1.76,10.93,10.93,0,0,0-.4,4.11,18.21,18.21,0,0,0-.46,3.81c0,.92,0,1.87.05,2.79-.46,2.7-1,5.3-1.59,7.9-.2.35-.36.72-.58,1.05,0,.43-.05.86-.07,1.28l-.07,1.09-.27,1.26c-.67,3.14-1.45,6.25-2.22,9.36-.48,1.93-1,3.85-1.41,5.78-1.14,4.88-2.57,11-.89,16.54,1.2,4,5.28,6.58,7.6,7.77a19.89,19.89,0,0,0,9.09,1.94,35.32,35.32,0,0,0,5.43-.46,32.24,32.24,0,0,0,8.92-2.57,55,55,0,0,0,7.87-4.49,34.49,34.49,0,0,0,11.28-14.15,45.81,45.81,0,0,0,2.75-8.16,41.83,41.83,0,0,0,1-8l0-.68a34,34,0,0,0-.14-7.2c-.39-2.3-1.24-3.47-2.5-3.47a3.52,3.52,0,0,0-1.57.57c.42-1,.82-2,1.2-3.13a27.84,27.84,0,0,0,.82-3.14,10,10,0,0,0,.18-1.81,3.94,3.94,0,0,0,0-2,2.61,2.61,0,0,0-.31-.79,2.81,2.81,0,0,0-.67-.77l.28-.24a21.69,21.69,0,0,0,3.09-5.08,21.28,21.28,0,0,0,1.71-5.45l.24-.76a1,1,0,0,0,0-.75c.11-.6.19-1.24.27-1.88S459.65,181.35,459.69,180.62Z"/><path class="cls-5" d="M216.14,151.09a3.1,3.1,0,0,0-.87.13,3.43,3.43,0,0,0-2.09,1.74,2.78,2.78,0,0,0-.19,2.28l.31.84-1.14,1.13-.24.25-.51.51a23.13,23.13,0,0,1-2.07,2,13.18,13.18,0,0,1-1.13.8c-.27.17-.54.31-.82.45a13.52,13.52,0,0,1-1.63.62,13.22,13.22,0,0,1-1.77.36c-.61.06-1.22.08-1.84.08-.37,0-.75,0-1.13,0-1-.07-2-.18-3-.31l-.41-.05-.36,0c-.65-.09-1-.14-1.29-.21a12.29,12.29,0,0,1-2-.56,8.86,8.86,0,0,1-1.44-.81l-.48-.33.16-.69a1.35,1.35,0,0,0-.36-1,1.78,1.78,0,0,0-1.26-.59,1.6,1.6,0,0,0-1.56,1.43,1.25,1.25,0,0,0-.14,1.4,22,22,0,0,0-.11,4.61,15.48,15.48,0,0,0,1.44,5,11.28,11.28,0,0,0,3.17,4.08,7.42,7.42,0,0,0,2.74,1.43,14.15,14.15,0,0,0,2.49.45l.83.13c1.15.18,1.8.28,2.46.34a9.66,9.66,0,0,1-1.43,2.42c-.36.43-.62.73-.89,1a7.16,7.16,0,0,1-.84.71l-.28.25-.88.59-1,.62-.38.21-.37.21c-.51.27-.82.44-1.13.63l-1,.6-.6.38a21.39,21.39,0,0,1-2.44,1.44,20.89,20.89,0,0,1-4.52,1c-1,.1-2.07.17-3.11.21h-.58c-.88,0-1.77-.08-2.64-.16a13.32,13.32,0,0,1-2.91-.87c-.45-.21-.89-.43-1.35-.66l-.68-.34c-.78-.4-1.56-.75-2.34-1.08A29.22,29.22,0,0,0,169,182.3l-.38-.12-.76-.24a3.73,3.73,0,0,0-1.18-.26,2.82,2.82,0,0,0-1.66.62,2.66,2.66,0,0,0-.79,1.67,9.72,9.72,0,0,0,.17,3.31,16.59,16.59,0,0,0,1.32,4.15,20.45,20.45,0,0,0,2.76,4.33,19.38,19.38,0,0,0,3.49,3.08c.67.5,1.21.87,1.76,1.22a14.85,14.85,0,0,0,1.84,1.07l.31.13a14.82,14.82,0,0,0,1.6.64,4.66,4.66,0,0,0,1,.24l-.11,1.1a15.86,15.86,0,0,0,0,2.07,14.45,14.45,0,0,0,.54,2.41,17,17,0,0,0,.82,2,18.54,18.54,0,0,0,2.33,3.66,29.44,29.44,0,0,0,3.12,3.3,20.08,20.08,0,0,0,3.81,2.86,26.09,26.09,0,0,0,4.72,1.89,22.74,22.74,0,0,0,4.57,1c.63.06,1.26.13,1.89.15-1.18.28-2.12.5-3.08.66-.33,0-.67,0-1,0s-.95,0-1.42-.06a46.87,46.87,0,0,1-5.19-1.27l-1.17-.32-.47-.13c-1.8-.5-3.65-1-5.41-1.7l-.58-.28-.59-.28a26.89,26.89,0,0,0-3-1.32,3.48,3.48,0,0,0-1.26-.24,3.17,3.17,0,0,0-2.24.9,3.93,3.93,0,0,0-.94,2.49,10.11,10.11,0,0,0,.07,2.1,1.93,1.93,0,0,1,.06.41,2.87,2.87,0,0,0,.52,1.25,14.65,14.65,0,0,0,.06,2,25.07,25.07,0,0,0,.87,4.48,43.37,43.37,0,0,0,4,9.48,64.86,64.86,0,0,0,12.83,16.66c.87.79,1.8,1.54,2.73,2.28l1.09.88.88.71.89.72.81.66.36.28.45.34,1,.73c1.11.8,2.07,1.48,3,2.16l1.21.85a38.45,38.45,0,0,0,4.09,2.49,31.38,31.38,0,0,0,5.61,2.22A61.73,61.73,0,0,0,225.31,274a56.24,56.24,0,0,0,6.19.34c.64,0,1.27,0,1.89,0a18.75,18.75,0,0,0,8.71-2.65,28.57,28.57,0,0,0,3.6-2.62c.46-.36.91-.74,1.34-1.14l-.64.83c-.53.8-1.06,1.59-1.61,2.31s-1,1.28-1.59,1.9a13.28,13.28,0,0,1-1.7,1.56,51.93,51.93,0,0,1-6.51,4,1.3,1.3,0,0,0-.66,1.14,2.74,2.74,0,0,0,.2,2.21,2.66,2.66,0,0,0,1.55,1.19,20.12,20.12,0,0,0,5.31,1.26h.49a14.35,14.35,0,0,0,4.31-.77,45.33,45.33,0,0,0,9.13-4,19.14,19.14,0,0,0,3.68-2.8,28.64,28.64,0,0,0,2.89-3.51,22.68,22.68,0,0,0,2-3.38,21.28,21.28,0,0,0,1.54-4.15,34.92,34.92,0,0,1,1,4.73,16,16,0,0,1,0,3.1,2.92,2.92,0,0,0,.22,1.77,1.83,1.83,0,0,0,.95.79,1.93,1.93,0,0,0,.65.12,1.26,1.26,0,0,0,.49-.09,6.56,6.56,0,0,0,3.23-2.62,13.19,13.19,0,0,0,1.58-3,69.74,69.74,0,0,0,2.92-8.92,75.94,75.94,0,0,0,1.8-8.47c.25-1.77.34-3.54.42-5s.11-3.29.06-4.93c-.17-4.16-.42-7.29-.82-10.15l-.34-2.25-.33-2.15a.45.45,0,0,0-.15.38,37.4,37.4,0,0,0-1.17-7.32,49.38,49.38,0,0,0-2.35-6.68l-.31-.78c-.35-.89-.71-1.77-1.07-2.65-.45-1-.81-1.83-1.18-2.63s-.57-1.6-.83-2.42l-.42-1.26a20.44,20.44,0,0,0-.88-2.09,8.28,8.28,0,0,0-1.4-2,2,2,0,0,0-1.1-.63c-.74-.87-1.5-1.77-2.25-2.68l-.49-.58-1-1.14-1.31-1.55-.43-.49c-.87-1-1.68-2-2.44-2.9s-1.41-1.86-2.05-2.83-1.31-2.06-1.93-3.13a67.67,67.67,0,0,1-3.21-6.63l-.2-.37-.31-.84a5.56,5.56,0,0,0-.81-1.21,3.38,3.38,0,0,0-1.14-.91,6.31,6.31,0,0,0-1.66-.61c-1.06-.23-2.1-.53-3.16-.84-2.52-.75-4.75-1.51-6.84-2.3-1.24-.54-2.46-1.12-3.66-1.72a27.09,27.09,0,0,1-3.76-2.36,39.79,39.79,0,0,1-6.06-6.23,30.85,30.85,0,0,1-3.43-5.26c-.33-.82-.64-1.65-.95-2.48a3.26,3.26,0,0,0-3.14-2.4Z"/><path class="cls-10" d="M573.62,259.41s-42.47,12.4-50.37,45.66"/><path class="cls-11" d="M266.49,291.81c-1.59.2-3.19.34-4.79.43s-3.16.3-4.75.41c-3.45.21-6.78,1.06-10.19,1.57A40.11,40.11,0,0,0,236,297.54a35.22,35.22,0,0,0-6.94,4.62l-.82.63.68-.53a44.08,44.08,0,0,0-7.5,6.8,87.15,87.15,0,0,0-6,8.73,78.74,78.74,0,0,0-4.62,9.06,45.37,45.37,0,0,0-3.41,10.29,129.2,129.2,0,0,0-2.2,22.46,69.62,69.62,0,0,0,1.13,11.7c.54,3.47,1.2,6.92,1.91,10.35a87,87,0,0,0,5,15.78,29.22,29.22,0,0,0,2.26,4.84c.56.87,1.18,1.72,1.8,2.57a22,22,0,0,0,4.1,4.76c1.57,1.18,4.38,0,4.72-1.92a6.3,6.3,0,0,0-.08-2.52c-.11-.47-.25-1-.39-1.41-.36-1.05-.6-2.12-1-3.17-.5-1.34-1-2.69-1.49-4.05-.64-1.77-1.19-3.56-1.83-5.34-1.06-2.88-2-5.77-2.79-8.73-.92-3.38-1.54-6.79-2.2-10.24-.46-2.43-.84-4.88-1.18-7.34a86.1,86.1,0,0,1-.34-12.54c.13-4.32.51-8.63,1.07-12.91-.05.39-.11.78-.17,1.17.08-.52.15-1.05.22-1.58a45.07,45.07,0,0,1,1.37-6.09,43.4,43.4,0,0,1,1.58-4.25l-.13.3c.49-1.14,1-2.28,1.42-3.42a58.27,58.27,0,0,1,3.61-6.8c1.14-1.83,2.27-3.67,3.55-5.41a52.48,52.48,0,0,1,4.15-4.29c1.56-1.5,3.14-2.95,4.83-4.32a24.77,24.77,0,0,1,3.07-2.09,48.11,48.11,0,0,1,4.44-2.19,45.62,45.62,0,0,1,5.62-1.61c1.69-.4,3.39-.8,5.1-1.07,3.76-.44,7.56-.35,11.34-.63a56.71,56.71,0,0,1,11.13.18c.93.17,1.83.39,2.74.62a2.59,2.59,0,1,0,1.37-5c-.8-.19-1.61-.4-2.42-.56s-1.63-.24-2.45-.35a44.32,44.32,0,0,0-5-.5h-.78a34.26,34.26,0,0,0-4,.27Zm9.26.17.26,0-.26,0Zm1.37,5.36.57.07-.57-.07Zm-47.54,4.45-.44.33.44-.33Zm-9.39,23.85c-.07.18-.15.36-.23.54l.23-.54Zm-1.25,3c.1-.22.2-.45.29-.68l-.29.68Z"/><path class="cls-12" d="M122.75,343.82a.08.08,0,0,1,0,0,.08.08,0,0,0,0,0Z"/><path class="cls-12" d="M122.75,343.86l0,.08a.56.56,0,0,1,0-.12v0Z"/><path d="M279,194.5a4.57,4.57,0,0,0-2.9,1.18A5.86,5.86,0,0,0,274.3,199a31.32,31.32,0,0,0-.46,4.07,1.51,1.51,0,0,0-.92-.23,3.75,3.75,0,0,0-2.45,1c-1.42,1.24-1.19,2.9-1,4.51l.06.41.14,1.24,0,1c0,1.17,0,2.35.14,3.51.11,1.41.28,2.81.46,4.21.15,1.16.31,2.31.48,3.46l.22,1.6.36,2.54.1.46c.86,7.24,1.61,14.73,2.36,22.38.35,3.55.8,7.22,1.39,11.25.28,1.91.54,3.51.92,5.09a18.63,18.63,0,0,0,.75,2.59l-.18,1.71q-.37,3.9-.59,7.81a45.68,45.68,0,0,0,.14,7.47c.34,2.92.77,5.74,1.28,8.36a79,79,0,0,0,4.35,14.2l.14.35c.3.74.62,1.51,1,2.25,0,.72.05,1.47.07,2.23l0,.74c0,.72,0,1.43.05,2.14a81.25,81.25,0,0,0,.73,9.16,18.43,18.43,0,0,0,1.65,5c.86,2,2.8,3.48,4.71,4.85a14.87,14.87,0,0,0,3.05,1.39c.43.15.87.25,1.32.36a18.43,18.43,0,0,0,3.3.32,20,20,0,0,0,2-.11,43.81,43.81,0,0,0,5.14-.84c.92-.21,1.83-.5,2.73-.79l.55-.19c2.6-.86,5.19-1.84,7.93-3a59.5,59.5,0,0,0,8.25-4.63l.6-.37c1.12-.7,2.24-1.41,3.38-2.08l.74-.43.63-.3c1.41-.66,2.64-1.24,3.83-1.88,3-1.57,5.88-3.34,9.08-5.31l1.5-.82.82-.46,1.65-.91c1.13-.63,2.27-1.26,3.39-1.91l.81-.43c.56-.3.95-.52,1.33-.76a4.13,4.13,0,0,0,1.61-1.68l2.49-1.65c1.68-1.12,3.35-2.24,5-3.34,2.68-1.71,5.3-3.49,7.93-5.28,1.74-1.17,3.47-2.35,5.22-3.51l.55-.35a6.82,6.82,0,0,0,3.12-3.18,2.56,2.56,0,0,0-.16-2.15,3.32,3.32,0,0,0-2.06-1.75,3.16,3.16,0,0,0-.74-.11l-.39.05h0a2.83,2.83,0,0,0-.93.2,12,12,0,0,0-2.55,1.24,2.88,2.88,0,0,0-2.83-1.62,13.91,13.91,0,0,0-4.64,1.19l-.77.29c-.94.32-1.88.64-2.82.94a3.28,3.28,0,0,0-2.18-1.57,27.78,27.78,0,0,0-3.7-.54h-2.43c-1.8-.08-3.56-.22-5.35-.42-1.29-.18-2.55-.42-3.82-.7-1.05-.68-2.08-1.41-3.07-2.14a11,11,0,0,0-.58-1c-.55-.9-1.16-1.74-1.79-2.59-1.66-2.24-3.36-4.28-4.86-6.07-.8-1-1.61-1.92-2.42-2.88L328.94,271c-1.23-1.44-2.44-2.87-3.64-4.32L323,261.63l-1.17-2.52-.94-2-2.08-4.47L317,248.88l-1.74-3.76-2.46-5.36-1.36-2.91-.32-.68-.48-1.46a41.37,41.37,0,0,0-2.37-6.05,5.76,5.76,0,0,0-4.92-2.92l-.14-.92-.25-1.23-.46-2.17-.24-1.23c-.11-.49-.2-1-.29-1.51a13.94,13.94,0,0,0-1.47-4.88,5.81,5.81,0,0,0-5-2.85,6.14,6.14,0,0,0-1,.08l-.11-.87-.06-.34c-.08-.42-.16-.84-.26-1.25a6.82,6.82,0,0,0-1.67-2.84,4.91,4.91,0,0,0-3.5-1.45h-.36a5.13,5.13,0,0,0-3.45,1.43,2.16,2.16,0,0,0-.25.27,2.61,2.61,0,0,0-.15-1l-.31-1.52-.31-1.54-.25-1.1-.24-1.11-.09-.37a7.88,7.88,0,0,0-1.06-2.87,4.11,4.11,0,0,0-2.41-1.85,3.3,3.3,0,0,0-1.05-.16Z"/><path d="M361.87,215.64a2.28,2.28,0,0,0-1.63.78,1.72,1.72,0,0,0-.47,1.32l.09.77a1.66,1.66,0,0,0-.89-.22,3.89,3.89,0,0,0-.49,0,2.06,2.06,0,0,0-1.79-.9,3.14,3.14,0,0,0-.91.15c-2.21.63-4,2.48-5.41,4a14.16,14.16,0,0,0-2.2,3.26,7.75,7.75,0,0,0-.73,5.95,5.09,5.09,0,0,0,1.12,1.9,4.23,4.23,0,0,0,.65.52,4.15,4.15,0,0,0,.25.87,18.67,18.67,0,0,0,1.36,2.79c.13.22.28.43.42.64a21.52,21.52,0,0,0,2.47,3.92,10.14,10.14,0,0,0,3.12,2.67,9.43,9.43,0,0,0,4.66,1h.63a13.72,13.72,0,0,0,4.47-.88,30.77,30.77,0,0,0,4.79-2.27,36,36,0,0,0,4-2.85,15,15,0,0,0,1.61-1.58l.57-.6a11,11,0,0,0,1.55-.81,15.43,15.43,0,0,0,4-3.31,34.14,34.14,0,0,0,2.77-2.71,10.58,10.58,0,0,0,1.14-1.52,2.44,2.44,0,0,0,.4-1.09,1.34,1.34,0,0,0-1-1.36h0a2.17,2.17,0,0,0-1.87.8,11,11,0,0,1-.91.9,17.48,17.48,0,0,1-3.19,1.77,11.51,11.51,0,0,1-2.15.65,16.79,16.79,0,0,1-3.74,0,21.23,21.23,0,0,1-4-1.07,25,25,0,0,1-2.46-1.28c-.51-.73-1-1.5-1.56-2.27A24.46,24.46,0,0,1,365,223a16.47,16.47,0,0,1-.78-3.25c-.06-.4-.11-.81-.15-1.22l-.08-.76a2.17,2.17,0,0,0-2.1-2.1Z"/><path class="cls-7" d="M668.62,307.82a5,5,0,0,0-3,1,5.46,5.46,0,0,0-1.07,1,22.06,22.06,0,0,0-3,4.61c-.58,1.08-1,1.94-1.52,2.69l-1.44,2.16c-.75,1.1-1.48,2.19-2.19,3.32-1.94,3.11-3.67,6.41-5.35,9.59l-.54,1-.31.58-.3.57a59.34,59.34,0,0,1-7.92,8.22,41.24,41.24,0,0,1-5,2.77,36,36,0,0,1-5.73,1.59,62.55,62.55,0,0,1-6.41.34c-1,0-1.94,0-2.9-.08l-1.55-.08c-2.85-.15-5.71-.31-8.56-.37-.85,0-1.7-.05-2.55-.08l-.88,0c-1.8-.06-3.59-.12-5.39-.12-.75,0-1.49,0-2.24,0A93.33,93.33,0,0,0,586.53,348c-4.68.9-10.63,2.37-15.15,5.83l-.26.21c-2.06,1.57-4.4,3.35-6.53,5.18l-.56.51-.54-.8a14.92,14.92,0,0,0-6.67-4.54,17.68,17.68,0,0,0-2.63-.8,15.87,15.87,0,0,0-2.92-.3,14.92,14.92,0,0,0-2.68.26,12.83,12.83,0,0,0-4.1,1.58l1.11-2.27c.72-1.6,1.45-3.2,2.21-4.79a1.59,1.59,0,0,0-.57-2.16,1.66,1.66,0,0,0-.81-.21,1.47,1.47,0,0,0-1.37.79c-1.54,3.21-3.11,6.7-4.79,10.69-.44,1-.89,2.05-1.32,3.09-.63.8-1.25,1.66-1.85,2.54a59.61,59.61,0,0,0-3.79,6.58c-1.63,3.19-3,6.5-4.11,9.31-.78,1.91-2,4.81-3,7.89a41.81,41.81,0,0,0-1.85,7l-.14.95a28.27,28.27,0,0,0-.39,3.75l-.1.5,0,0-.36.75c-1.61,3.67-3.52,7.27-5.38,10.76l-.83,1.57-1.38,2.64c-3.34,6.48-7.35,13.39-12.64,21.75L501.36,439c-1.19,1.84-2.38,3.68-3.49,5.57a58.3,58.3,0,0,1-3.95,5.81l.29-.19a31.89,31.89,0,0,0-5,7.77,17.05,17.05,0,0,0-1.35,5.32c-.15,1.62-.17,3.28-.18,4.93v1.16l0,1.92c0,1.92-.05,3.84-.1,5.76-.06,2.65,0,5.27,0,7.92.08,4.05,0,8.11,0,12.17l0,3.05,0,1.91a34,34,0,0,0,.65,9.15,19.73,19.73,0,0,0,1.07,3.28c.35,3.71,1.34,6.35,3.1,8.31a9.47,9.47,0,0,0,4.08,2.6,7,7,0,0,0,2.34.38,17.71,17.71,0,0,0,2.36-.22,10.23,10.23,0,0,0,4.74-2.59,8.19,8.19,0,0,0,1.9-2.5,2.28,2.28,0,0,0,.34-.35l.52-.22a13.22,13.22,0,0,0,4-2.75,26,26,0,0,0,3.53-4.59l1-1.52a30.14,30.14,0,0,0,4.9-12.28A116.22,116.22,0,0,0,523.39,485a53.63,53.63,0,0,0-.29-7.09,32.54,32.54,0,0,0-1-5.88c.08-3.29.08-5.8,0-8.13,0-1.5-.12-3-.2-4.5l-.08-1.2,1.47-1.67.71-.8c1.08-1.23,2.16-2.46,3.19-3.73a69,69,0,0,0,6.65-8.63c1.8-2.73,3.4-5.61,4.95-8.4l1.16-2.08.16-.35c.78,2.58,2.67,5.79,5.47,7.11,1.17.56,2.36,1.08,3.58,1.55a20.82,20.82,0,0,0,5.13,1.14,22,22,0,0,0,2.82.17,39.8,39.8,0,0,0,6.83-.7,124.45,124.45,0,0,0,14.65-3.87l.43-.13a13.87,13.87,0,0,1,2.08-3.13c1.85-2.15,4.95-3.17,7.68-4.06l1.52-.53c1.43-.5,2.86-1,4.32-1.37.7-.15,1.22-.27,1.74-.36,1.63-.6,3.27-1.2,4.89-1.84,2.42-1.07,5-2.24,7.36-3.58l.36-.2,3.54-2.18c2.53-1.59,5-3.12,7.55-4.4a12.49,12.49,0,0,1,5.6-1.44,8.71,8.71,0,0,1,1,.05l1.28-1.3,1.22-1.27A144.33,144.33,0,0,0,640,399.42c2-2.62,4-5.52,6.45-9.39,2.06-1.92,3.87-3.74,5.51-5.57a75.14,75.14,0,0,0,9.8-13.39,139.45,139.45,0,0,0,6.63-13.57l.38-.81a95,95,0,0,0,4.28-11,71.19,71.19,0,0,0,2-8.74,46.42,46.42,0,0,0,.62-11c0-.41-.06-.83-.09-1.26l0-.53a26.15,26.15,0,0,0-1.12-7.52c-.07-.19-.16-.4-.25-.6l-.21-.44-.33-.49c.68-3.29-.11-5.45-2.4-6.57a6,6,0,0,0-1.25-.44,3.67,3.67,0,0,0-1.4-.26ZM493.2,463.35c0-.51.05-1,.12-1.54a18.69,18.69,0,0,1,1.19-3.86l.21-.47a41.53,41.53,0,0,1,3.73-6.26l.9-1.36c.59-.89,1.12-1.82,1.64-2.75l.27-.47c.44-.81.9-1.61,1.37-2.39l1-1.6,1-1.6.32-.51c.55-.89,1.11-1.79,1.64-2.69l.79-1.29.78-1.29-.63,1.3-.55,1.41c-1.34,3.49-2.69,7-4.1,10.44l-1.22,2.89a7.69,7.69,0,0,0-3.68,2,14.26,14.26,0,0,0-3.05,5.34l-.26.69c-.44,1.06-.83,2.13-1.18,3.23l-.24.77Z"/><path d="M538.2,373.27a21.44,21.44,0,0,0-2.25,2.52,58.8,58.8,0,0,0-4.52,6.53c-2.82,4.55-5.54,9.18-7.93,14a155.4,155.4,0,0,0-6.19,14.43c-.94,2.48-1.86,4.94-2.71,7.45a40.3,40.3,0,0,0-1.53,7.63,0,0,0,0,0,.08,0,57.32,57.32,0,0,1,2.36-7.36c4.61-10,9.87-19.66,15.07-29.35,2.8-5.24,4.88-11,8.09-16h0l.09-.11s0,0,0,0l.11-.07h0l.1,0H539l.06,0c.06,0,.08-.05,0-.08a.49.49,0,0,0-.23-.06c-.26,0-.49.25-.67.43Zm-22.68,45.16a0,0,0,0,1,0,0v0Z"/><path d="M505.35,351a52.4,52.4,0,0,0-5.57,7.85l0,0c-.64,2.4-1.2,4.83-1.71,7.26-.24,1.15-.52,2.3-.71,3.46s-.2,2.65-.81,3.63a7.93,7.93,0,0,1-.73,1c2.08,1.65,4.33,2.69,7.12,2.07a6.08,6.08,0,0,0,4.55-6c0-1.95-.21-3.79-.07-5.72.72-3.56,2.25-6.92,3.25-10.41a81.07,81.07,0,0,1,2.94-8.93,8.8,8.8,0,0,1,.93-1.56h0l0,0s.05,0,.07,0,0,0,0,0a.06.06,0,0,0,0-.08.14.14,0,0,0-.15-.08c-1.2,0-8.61,7-9.16,7.64Z"/><path d="M514.49,343.57h0Z"/><path d="M434.68,455.39c.14.32.28.61.43.91-.06-.35-.13-.71-.2-1.06l-.23.15Z"/><path d="M308.07,226.57a48.07,48.07,0,0,0-.25,12.22,68.4,68.4,0,0,0,3.42,14c2.4,7.31,5.51,14.42,10.19,20.55l-.33-.43c.16.22.33.43.49.64l.12.16-.07-.1c6.45,8.28,15,16,25.41,18.49,6.7,1.57,13.84,1.1,20.62.34a40,40,0,0,0,9.33-1.84,52.6,52.6,0,0,0,7.24-3.72c.05,0,0-.09,0-.08-1.34.33-2.73.61-4.1.81h0l-.13,0h0a27.71,27.71,0,0,1-6.5,0c-9.42-1.39-19.16-3.15-28.07-6.59a61.76,61.76,0,0,1-11.6-7.32,69.14,69.14,0,0,1-11-10.48c-4.58-6.13-8-13.27-11.05-20.24a55.29,55.29,0,0,1-3.16-11.44h0c-.21-1.66-.3-3.32-.43-5a.05.05,0,0,0-.05,0s0,0,0,0Zm.49,4.83a.29.29,0,0,1,0,.09l0-.09Zm64.49,56.17.4.05-.4-.05Zm6.93.07h0l.09,0-.13,0Z"/><path d="M557,311.92a2.12,2.12,0,0,0-.6.48c-1.8-.67-3,1.57-3.57,3.08a16.71,16.71,0,0,0-.71,9.62c.69,3.61,3.38,7.59,7.56,6.22,4.88-1.62,5.85-9.06,4.61-13.33-.66-2.28-3.11-6.42-5.91-6.42a3,3,0,0,0-1.38.35Zm-1.05,1.25h0l-.08,0h.07a2.32,2.32,0,0,0-.15,1,3.05,3.05,0,0,0,.08.74,20.48,20.48,0,0,0,.11,3.75c.17,1.08.34,2.91,1.22,3.68a1.31,1.31,0,0,0,.46.26c-.14.58-.32,1.15-.52,1.73h0a16,16,0,0,1-1.4-2.45,24,24,0,0,1-.8-2.71,21.31,21.31,0,0,1,0-4.15v.05l0-.08c0-.05,0-.1,0-.15v.07a4,4,0,0,1,.26-1,3.23,3.23,0,0,1,.27-.44c.06-.05.11-.11.16-.16l-.12.08a1.39,1.39,0,0,1,.44-.25Zm.81,11.91Zm1.47.11.16.07-.16-.07Zm-1.7.2a1.66,1.66,0,0,1-.21.16l.21-.16ZM554.88,315v0s0-.07,0-.11a.22.22,0,0,0,0,.08Z"/><path d="M541.52,353.53c-3.59.86-5.57,3.24-7.35,6.29,0,0,0,.09.07.06a23.9,23.9,0,0,1,3.56-3.55h0l.05,0,0,0,0,0a7.93,7.93,0,0,1,1.18-.64,15,15,0,0,1,2.72-.58,35.62,35.62,0,0,1,6.45,0,52.26,52.26,0,0,1,11.94,3.55l-.36-.14,1.16.5a26.92,26.92,0,0,0,6.15,3.05l-.18-.07c.32.14.65.27,1,.39a47.71,47.71,0,0,0,4.72,2.11s.06-.05,0-.08c-.31-.21-.6-.44-.9-.67l0,0c-1.3-1.08-2.22-2.47-3.58-3.5l.21.17c-.46-.36-.94-.72-1.42-1.07a2.54,2.54,0,0,1,.24.2c-1.48-1.15-3.17-2.73-5-3.24a31.46,31.46,0,0,0-11.66-3.62c-.7-.06-1.4-.09-2.09-.09a30.23,30.23,0,0,0-7,.89Zm26.26,8.81.07,0-.07,0Zm-.87-.34a.2.2,0,0,1-.08,0l.08,0Zm-29.08-5.7,0,0,.05,0Z"/><path d="M644.68,384.17a15.49,15.49,0,0,1-1,1.72l0,0,0,.05h0c-.73.9-1.58,1.7-2.29,2.6-2.88,2.74-6,5.3-9.06,7.86s-6.34,5.38-9.6,7.95c-4.67,3.46-9.83,6.06-14.71,9.21-5.19,3.34-10.22,7.11-15.12,10.9a53.3,53.3,0,0,1-7,4.7c-2.85,1.51-5.82,2.81-8.77,4.09s-5.93,2.12-8.91,3.13a53.54,53.54,0,0,1-9.56,1.88s0,.09,0,.09A104.59,104.59,0,0,0,576.65,436c5.57-1.17,11.15-2.28,16.4-4.55a159.26,159.26,0,0,0,27.33-15.1,58,58,0,0,0,12.77-12.59h0l.05-.07.45-.57,0,0a101,101,0,0,0,6-8.48c2.09-3.34,4.29-6.59,5.11-10.52a0,0,0,0,0,0-.05s0,0,0,0Zm-3.39,4.45-.06.07.06-.07Zm-63.85,44.5-.1,0,.1,0Zm66.21-47.2h0v0l0,0Z"/><path d="M644.41,380.89c-.73,2.28-1.47,4.52-2.37,6.74l0-.05c-.21.5-.43,1-.64,1.51l.06-.13a34,34,0,0,1-3.76,6.62l.07-.09-.08.09-.11.15.09-.12a50.62,50.62,0,0,1-7.1,6.94c-2.37,1.95-4.58,4.12-7,6-4,2.8-8.6,4.47-12.86,6.8-3.36,1.82-6.71,3.65-10,5.52-8,4.51-16.38,8.34-24.49,12.63a12.92,12.92,0,0,0-2.22.87c-1.53.61-3.1,1.14-4.66,1.64,0,0,0,.08,0,.08,2.23.64,5.6,2.1,7.95,1.32a84.91,84.91,0,0,0,10.64-1.2l-1.07.14a70.14,70.14,0,0,0,18.56-5,65,65,0,0,0,13.4-7.91c3.38-2.5,6.84-5.08,9.38-8.48,2.28-3,4-6.47,6-9.64,2.2-3.41,4.66-6.67,6.31-10.42a54.16,54.16,0,0,0,3.35-10.81c.21-1.07.4-2.14.58-3.21a0,0,0,0,0,0-.05s0,0,0,0Zm-6.72,14.72,0,0h0l0,0Z"/><path d="M392.3,242.55l.05-.05a2.27,2.27,0,0,1-.25.18l-.15.07a9.54,9.54,0,0,0-1,.31c-.83.3-1.68.53-2.54.75-1.88.49-3.74,1.07-5.62,1.54-3.17.8-6.32,1.66-9.5,2.4s-6.21,1.58-9.34,2.28a65.81,65.81,0,0,1-15.67.8,43.74,43.74,0,0,1-9.74-2c-.86-.37-2-1.07-2.81-.5-1.16.77-.3,2.38.71,2.91a44.64,44.64,0,0,0,9.86,7.54c4.27,2.47,8.8,5.08,13.85,5.27a0,0,0,1,0,0-.08,18.38,18.38,0,0,1-2.76-.62,54.21,54.21,0,0,1-10.81-5.95l.08.06c-1.51-1.05-3-2.14-4.46-3.28a17,17,0,0,1-1.34-1.21l.23.1a54.29,54.29,0,0,0,8.46,2.85,42.52,42.52,0,0,0,18.88-.15c1.2-.28,2.35-.75,3.5-1.14,1.63-.56,3.27-1.08,4.87-1.7,2.32-.88,4.58-1.91,6.83-3,1.55-.77,3.08-1.57,4.58-2.45a28.88,28.88,0,0,0,3.44-2.12,5.48,5.48,0,0,0,.44-.4,35.57,35.57,0,0,1-1.16,6.7s.05.07.08,0a26.55,26.55,0,0,0,2.71-6.57,3.49,3.49,0,0,0,0-2.19.84.84,0,0,0-.77-.56.94.94,0,0,0-.61.24Zm-.05,0s0,0,0,0l0,0Zm-.12.12-.09,0,.09,0Zm1.1.95,0,.06h0l.05-.07Zm-.91,1a.57.57,0,0,1-.11.11,1.14,1.14,0,0,0,.11-.11Zm-53.79,4.16.25.1-.25-.1Zm24.89,1.33-.34.08.34-.08Zm-6.1,13.17h0Z"/><path d="M396.2,198.45a4,4,0,0,0-3.41,2.25,4.58,4.58,0,0,0-2.38,4.34,4.54,4.54,0,0,0,1.55,3,4.7,4.7,0,0,0,3.2,1,4,4,0,0,0,3.41-2.25,4.59,4.59,0,0,0,2.38-4.34,4.45,4.45,0,0,0-1.55-3,4.65,4.65,0,0,0-3.2-1Z"/><path d="M399.33,187.1s0,0,0,.05h0l0,.11v0a1.88,1.88,0,0,1-.09.57h0c-.21.54-.32,1.08-.49,1.63h0v0l0,.05v0a17,17,0,0,1-1.59,3l.11-.16c-1.83,2.86-3.8,5.6-5.48,8.54a23.94,23.94,0,0,0-1.53,3.25q-.36-.56-.75-1.11a10.08,10.08,0,0,0-7.23-4.27,7.38,7.38,0,0,0-1.08-1c-4.56-3.48-10-2.34-15.07-.8a55.2,55.2,0,0,0-10.25,4.77,34.51,34.51,0,0,0-4.63,3,113.26,113.26,0,0,0-21.68,1.33c-10.05,1.71-19.59,5.14-29.41,7.8-7.83,2.14-12.46,9.21-12.09,17.15.47,10.35,10.91,16.72,20.41,16.11,5-.33,9.71-3.42,13.9-5.83l2.65-1.51c3-1.42,6.11-2.49,9.08-3.9a59.44,59.44,0,0,1,6.56-2.86c2.19-.75,4.44-1.38,6.69-2l.44-.07a86.39,86.39,0,0,1,9.06-.83,26.46,26.46,0,0,0,6.15-1c4.54-1.23,7.42-5.38,8.25-9.78.6-.59,1.18-1.2,1.75-1.77a28.87,28.87,0,0,1,4-2.94h0a16.5,16.5,0,0,0,3.16-1.8,10.43,10.43,0,0,0,3.19-3.44l.09.09,1.28,1.38c1.49,1.66,3.89,4.89,6.41,4.36,1.83-.4,3.37-1.94,3-3.84a3.4,3.4,0,0,0-.18-.94c0-.35,0-.69,0-1a35.89,35.89,0,0,1,1.46-8h0c.93-2.81,2.06-5.52,3-8.32a12.66,12.66,0,0,0,.9-4.58c0-.45.36-1.08,0-1.46h0a0,0,0,0,0,0,.07ZM395.62,201c0,.07,0,.14-.07.22,0-.08.05-.15.07-.22Zm-40.17,3.89.61,0-.45,0Zm32.9,5.41-.12.44.12-.44Zm-78.54,22.8-.06.05.05-.05Zm-3.32,3.66a0,0,0,0,1,0,0l0,0Zm-.73,1.56h0Zm93.05-48.79v-.05a.43.43,0,0,1,0,.05Zm.49-1.65v0Z"/><path d="M406.08,182.65c-3.24.38-5.29,3.56-7.11,6l-.06.08-1.93,2c-2.78,2.9-5.57,5.78-8.44,8.6l.58-.54c-.25.23-.49.48-.75.73l-.51.32c-2.31,1.41-4.65,3.33-3.58,6.41a4.07,4.07,0,0,0,3.93,2.62c-.43,1.15-.83,2.3-1.19,3.47a6.8,6.8,0,0,0-.42,3c.34,2.3,2.46,4.57,5,4.06,3.37-.68,5.22-4,6.88-6.71,3.16-5.17,5.75-10.67,8.94-15.83l-.06.08.09-.14.13-.21-.06.1c.64-1,1.28-2,1.91-3l-.07.11a1.63,1.63,0,0,1,.11-.17l.06-.09,0,0c.73-1.1,1.47-2.18,2.17-3.31,0,.06-.07.11-.09.16.17-.26,1.9-2.69.87-2.75a1,1,0,0,0-.59.2,5.37,5.37,0,0,0-5.19-5.26l-.58,0Zm6.36,5.8h0Zm-5,8.34,0,.06.1-.17-.07.11Zm2-3.16,0,.06.07-.11,0,0Z"/><path d="M377.69,211.73a21.78,21.78,0,0,0-3.26,3.18,26.66,26.66,0,0,0-2.66,3.8c-.83,1.35-1.63,2.68-2.4,4s-1.52,2.69-2.15,4.1c-.69,1.57-1.21,3.16-1.77,4.78,0,.05.05.09.08,0,.52-1.37,1-2.74,1.6-4.06a35.79,35.79,0,0,1,2-3.7v0c1.1-1.73,2.24-3.41,3.43-5.07a32.37,32.37,0,0,1,4.07-4.68.12.12,0,0,1,0,.05,16.28,16.28,0,0,1,2.66-2.1,5.87,5.87,0,0,1,1.26-.49,1.32,1.32,0,0,1,.44,0h-.16l.33,0a1.66,1.66,0,0,1,.31.12,4.34,4.34,0,0,1,.72.63l0,0a49.2,49.2,0,0,1,4,6c.51.79,1,1.57,1.58,2.34a19.44,19.44,0,0,1,1.23,1.87h0c.13.28.24.56.37.83a0,0,0,0,0,.08,0c-.16-.43-.28-.86-.46-1.27a12,12,0,0,0-.6-1.12s0,0,0,0l-.41-.73h0c-.55-1.07-1.17-2.1-1.75-3.16l0,.08c-.61-1.16-1.13-2.38-1.83-3.49a8.08,8.08,0,0,0-2.63-3.1,2.07,2.07,0,0,0-1-.27,5.77,5.77,0,0,0-3.08,1.34Zm2.94-.09h0Zm1.58.82,0,0,0,0ZM369.14,224h0ZM389,222.6h0v0Zm-1-2.28a.05.05,0,0,0,0,0l0,0Zm-11.33-6.12.05,0-.05,0Z"/><path d="M407.4,189.07a5.92,5.92,0,0,0-1.19,1.26c-.57.7-1.15,1.38-1.72,2-1.14,1.39-2.2,2.82-3.28,4.25-2.15,2.87-4.14,5.87-6.24,8.78-1.31,1.82-2.6,3.59-4,5.32a5.4,5.4,0,0,0-.69,1,14.42,14.42,0,0,0-.79-2.35c-.84-1.6-2.45-2.64-4.3-1.94a3.22,3.22,0,0,0-1.7,1.45,1.78,1.78,0,0,0-1.72,1.44c-.17,1.13.58,2.38,1,3.4.47,1.2.94,2.39,1.44,3.59q.34.82.72,1.65c.14.42.28.83.43,1.25.77,2.14,2.05,4.53,4.72,4.29a3.57,3.57,0,0,0,3-2,13.49,13.49,0,0,0,2.05-2.69c1.44-2.28,2.78-4.62,4.2-6.92s2.81-4.4,4.05-6.7,2.56-4.82,3.86-7.22c.79-1.41,1.71-2.74,2.43-4.18a12.89,12.89,0,0,0,1.46-3.34,2.3,2.3,0,0,0-2.33-2.71,2.41,2.41,0,0,0-1.32.39Zm-.9,1.21,0,0,0,.06.07-.09Zm2.14,4Zm-14.95,15.14c.51-.46,1-.93,1.49-1.41-1.36,2.12-2.7,4.25-4,6.38-.21-.6-.42-1.21-.62-1.82a3.65,3.65,0,0,0,1.08-.57,0,0,0,1,0-.05-.06l-.21.12h0a2.74,2.74,0,0,1-.4.15h0a1.49,1.49,0,0,1-.43.05h-.05v0s0,0,0,0a3.79,3.79,0,0,1,.59-.68l-.07.06c.88-.77,1.82-1.44,2.68-2.21Zm-3.2,2.83Zm0,0Zm0,0Z"/><path d="M117.23,338.9c2.19,2.48,4.51,4.34,7.79,5.07a28.69,28.69,0,0,0,7.52.31h.37s.07-.05,0-.07c-3.09-1.2-6.54-1.64-9.71-2.58a37.9,37.9,0,0,1-5.94-2.8h0s-.06,0,0,.06Z"/><path class="cls-2" d="M263.16,615.83a.5.5,0,0,0-.05-.13l-.21-.19a4,4,0,0,1,.26.32Z"/><path class="cls-4" d="M143,268.29a19.11,19.11,0,0,0-4.09.76,22.93,22.93,0,0,0-3.8,1.75,21.2,21.2,0,0,0-6.82,6.54,18.09,18.09,0,0,0-1.62,2.79,46.25,46.25,0,0,0-2.9,4.21,29.22,29.22,0,0,0-3.8,15.34,30.9,30.9,0,0,0,3.45,13.71c.72,1.41,1.41,2.86,2.25,4.2a18.65,18.65,0,0,0,4.62,5.07,21,21,0,0,0,9.28,3.5,24,24,0,0,0,7,.41,17.46,17.46,0,0,0,4-.83,23.66,23.66,0,0,0,3.87-1.84c3.75-2.31,6.45-5.94,9.05-9.4a27.69,27.69,0,0,0,2.46-3.89,22.23,22.23,0,0,0,2.32-6.43,47,47,0,0,0-.55-17.65,24.12,24.12,0,0,0-6.68-12.3,22.4,22.4,0,0,0-9.38-5,38.93,38.93,0,0,0-6.6-1.05,3.54,3.54,0,0,0-.46,0,14.36,14.36,0,0,0-1.61.13Zm-6,6.84-.19.15.09-.08.1-.07Z"/><path class="cls-11" d="M234.56,299.86c-2.17,0-4.76,8.19-5.25,9.6a69.39,69.39,0,0,0-3.35,19,83.2,83.2,0,0,0,6.25,37.21c1,2.31,2.48,4.17,3.58,6.36,1,2,0,3.58-.94,5.54a117.75,117.75,0,0,0-6.76,15.6c-.76,2.34-1.53,4.69-2.21,7.06-.83,2.89-.95,6.22-1.95,9a15,15,0,0,0-1.16,3.29,73,73,0,0,0-1.1,9.21c-.17,5.16.8,10.16,1.73,15.2a74.81,74.81,0,0,0,2.33,9.92c.78,2.35,2,7.36,4.46,8.36-2.65,3.33,4.19,11.87,6.13,14.49,3.47,4.68,7.41,9.42,12.51,12.36,4.07,2.35,5.75,4.28,6.82,8.92s2.65,9.06,4,13.63A127.17,127.17,0,0,0,270.93,531a147.29,147.29,0,0,0,17.35,24.32c5.76,6.5,12.86,12,19.39,17.72,1.11,1,4.52,3.22,4.77,4.83.1.64-.78,2.28-1,3-.65,2.13-1.33,4.25-2,6.37-2.43,7.9-6.69,16.3-5.45,24.75.62,4.21,3.37,8.46,5.94,11.79,3.32,4.31,7.27,8.64,12.22,11.05,9,4.37,19.26,5.58,29,7.3,9.5,1.68,19,3.06,28.59,4,20.06,2,41.2-.39,61.08-3.35,17.76-2.65,35.19-7.28,52.36-12.43,22.21-6.66,45.09-12.88,63.93-27,8.22-6.14,14.35-13.2,20.08-21.64,3.29-4.85,5.46-8.11,3.17-13.9-1.75-4.41-3.37-8.88-5.33-13.21-3.7-8.22-9.32-15.53-14.57-22.81a54.09,54.09,0,0,0-4.35-5.54c-1.43-1.53-4.41-3.57-5.13-5.55-.51-1.39,0-3.76,0-5.25a31.35,31.35,0,0,0-1.54-8.3,21.73,21.73,0,0,0-3.9-7.26,18.84,18.84,0,0,1-1.52-1.58c-.85-1.31-.41-1.95.14-3.55,1.19-3.44,2.46-6.87,3.51-10.36,2.8-9.25,5.76-19.35,5.82-29.1,0-4.38.24-8.79,0-13.17a31.72,31.72,0,0,0-1.32-8c-.8-2.43-2.64-3.48-3.94-5.51-1.8-2.79-2.37-4.33-6.26-4.45-5.1-.17-10.4,1.5-15.35,2.57-11.32,2.45-22.25,9.84-28.3,19.79-5.16,8.48-11.74,17.48-11.23,27,.19,3.69.3,7.37.4,11.07.13,5.62,7.38,12.12,5.34,17.49-.65,1.7-1,2.27-2.82,2.25-3.07,0-5.14-1.07-8.16.55-4.09,2.19-5.67,6.56-7.84,10.34-5,8.75-10.85,16.47-20.48,20.33a32.76,32.76,0,0,1-16.6,1.6c-5.15-.68-11.5-2.36-14.56-6.92-3.35-5-2.58-11.5-1.32-17,1.41-6.15,3.49-12.19,5.51-18.17,2.81-8.3,10.51-22.24.58-28.44-4.62-2.89-10.88-3.84-16.22-3.38-6,.52-10.37,3.41-14.63,7.47-3.11,3-6.23,7.19-11,6.21-4.37-.9-6.21-4.68-8.06-8.35-3.79-7.49-8.55-19.76-18.94-17.56-2.71.57-5.32,1.57-8.09,1.8a53.81,53.81,0,0,1-8.79-.31,124.21,124.21,0,0,1-14.37-2c-5-1-9.84-2.28-15-2.23a56.76,56.76,0,0,0-16.28,2.43,78.67,78.67,0,0,1-22.95,3.78c-11,0-22.77-2.17-31.58-9.33-9.52-7.73-10.35-19.42-9.78-30.78a95.7,95.7,0,0,1,7.38-33.12l-.43.53c1.71-3,3-7.06,1.42-10.3-1.26-2.53-3.39-4.47-4.67-7a65.78,65.78,0,0,1-6.61-23.25,90.49,90.49,0,0,1,1.32-23.92,43.6,43.6,0,0,1,3.34-10.7c.35-.74,4.51-6.75,1.35-6.75Z"/><path class="cls-11" d="M216.14,151.09a3.1,3.1,0,0,0-.87.13,3.43,3.43,0,0,0-2.09,1.74,2.78,2.78,0,0,0-.19,2.28l.31.84-1.14,1.13-.24.25-.51.51a23.13,23.13,0,0,1-2.07,2,13.18,13.18,0,0,1-1.13.8c-.27.17-.54.31-.82.45a13.52,13.52,0,0,1-1.63.62,13.22,13.22,0,0,1-1.77.36c-.61.06-1.22.08-1.84.08-.37,0-.75,0-1.13,0-1-.07-2-.18-3-.31l-.41-.05-.36,0c-.65-.09-1-.14-1.29-.21a12.29,12.29,0,0,1-2-.56,8.86,8.86,0,0,1-1.44-.81l-.48-.33.16-.69a1.35,1.35,0,0,0-.36-1,1.78,1.78,0,0,0-1.26-.59,1.6,1.6,0,0,0-1.56,1.43,1.25,1.25,0,0,0-.14,1.4,22,22,0,0,0-.11,4.61,15.48,15.48,0,0,0,1.44,5,11.28,11.28,0,0,0,3.17,4.08,7.42,7.42,0,0,0,2.74,1.43,14.15,14.15,0,0,0,2.49.45l.83.13c1.15.18,1.8.28,2.46.34a9.66,9.66,0,0,1-1.43,2.42c-.36.43-.62.73-.89,1a7.16,7.16,0,0,1-.84.71l-.28.25-.88.59-1,.62-.38.21-.37.21c-.51.27-.82.44-1.13.63l-1,.6-.6.38a21.39,21.39,0,0,1-2.44,1.44,20.89,20.89,0,0,1-4.52,1c-1,.1-2.07.17-3.11.21h-.58c-.88,0-1.77-.08-2.64-.16a13.32,13.32,0,0,1-2.91-.87c-.45-.21-.89-.43-1.35-.66l-.68-.34c-.78-.4-1.56-.75-2.34-1.08A29.22,29.22,0,0,0,169,182.3l-.38-.12-.76-.24a3.73,3.73,0,0,0-1.18-.26,2.82,2.82,0,0,0-1.66.62,2.66,2.66,0,0,0-.79,1.67,9.72,9.72,0,0,0,.17,3.31,16.59,16.59,0,0,0,1.32,4.15,20.45,20.45,0,0,0,2.76,4.33,19.38,19.38,0,0,0,3.49,3.08c.67.5,1.21.87,1.76,1.22a14.85,14.85,0,0,0,1.84,1.07l.31.13a14.82,14.82,0,0,0,1.6.64,4.66,4.66,0,0,0,1,.24l-.11,1.1a15.86,15.86,0,0,0,0,2.07,14.45,14.45,0,0,0,.54,2.41,17,17,0,0,0,.82,2,18.54,18.54,0,0,0,2.33,3.66,29.44,29.44,0,0,0,3.12,3.3,20.08,20.08,0,0,0,3.81,2.86,26.09,26.09,0,0,0,4.72,1.89,22.74,22.74,0,0,0,4.57,1c.63.06,1.26.13,1.89.15-1.18.28-2.12.5-3.08.66-.33,0-.67,0-1,0s-.95,0-1.42-.06a46.87,46.87,0,0,1-5.19-1.27l-1.17-.32-.47-.13c-1.8-.5-3.65-1-5.41-1.7l-.58-.28-.59-.28a26.89,26.89,0,0,0-3-1.32,3.48,3.48,0,0,0-1.26-.24,3.17,3.17,0,0,0-2.24.9,3.93,3.93,0,0,0-.94,2.49,10.11,10.11,0,0,0,.07,2.1,1.93,1.93,0,0,1,.06.41,2.87,2.87,0,0,0,.52,1.25,14.65,14.65,0,0,0,.06,2,25.07,25.07,0,0,0,.87,4.48,43.37,43.37,0,0,0,4,9.48,64.86,64.86,0,0,0,12.83,16.66c.87.79,1.8,1.54,2.73,2.28l1.09.88.88.71.89.72.81.66.36.28.45.34,1,.73c1.11.8,2.07,1.48,3,2.16l1.21.85a38.45,38.45,0,0,0,4.09,2.49,31.38,31.38,0,0,0,5.61,2.22A61.73,61.73,0,0,0,225.31,274a56.24,56.24,0,0,0,6.19.34c.64,0,1.27,0,1.89,0a18.75,18.75,0,0,0,8.71-2.65,28.57,28.57,0,0,0,3.6-2.62c.46-.36.91-.74,1.34-1.14l-.64.83c-.53.8-1.06,1.59-1.61,2.31s-1,1.28-1.59,1.9a13.28,13.28,0,0,1-1.7,1.56,51.93,51.93,0,0,1-6.51,4,1.3,1.3,0,0,0-.66,1.14,2.74,2.74,0,0,0,.2,2.21,2.66,2.66,0,0,0,1.55,1.19,20.12,20.12,0,0,0,5.31,1.26h.49a14.35,14.35,0,0,0,4.31-.77,45.33,45.33,0,0,0,9.13-4,19.14,19.14,0,0,0,3.68-2.8,28.64,28.64,0,0,0,2.89-3.51,22.68,22.68,0,0,0,2-3.38,21.28,21.28,0,0,0,1.54-4.15,34.92,34.92,0,0,1,1,4.73,16,16,0,0,1,0,3.1,2.92,2.92,0,0,0,.22,1.77,1.83,1.83,0,0,0,.95.79,1.93,1.93,0,0,0,.65.12,1.26,1.26,0,0,0,.49-.09,6.56,6.56,0,0,0,3.23-2.62,13.19,13.19,0,0,0,1.58-3,69.74,69.74,0,0,0,2.92-8.92,75.94,75.94,0,0,0,1.8-8.47c.25-1.77.34-3.54.42-5s.11-3.29.06-4.93c-.17-4.16-.42-7.29-.82-10.15l-.34-2.25-.33-2.15a.45.45,0,0,0-.15.38,37.4,37.4,0,0,0-1.17-7.32,49.38,49.38,0,0,0-2.35-6.68l-.31-.78c-.35-.89-.71-1.77-1.07-2.65-.45-1-.81-1.83-1.18-2.63s-.57-1.6-.83-2.42l-.42-1.26a20.44,20.44,0,0,0-.88-2.09,8.28,8.28,0,0,0-1.4-2,2,2,0,0,0-1.1-.63c-.74-.87-1.5-1.77-2.25-2.68l-.49-.58-1-1.14-1.31-1.55-.43-.49c-.87-1-1.68-2-2.44-2.9s-1.41-1.86-2.05-2.83-1.31-2.06-1.93-3.13a67.67,67.67,0,0,1-3.21-6.63l-.2-.37-.31-.84a5.56,5.56,0,0,0-.81-1.21,3.38,3.38,0,0,0-1.14-.91,6.31,6.31,0,0,0-1.66-.61c-1.06-.23-2.1-.53-3.16-.84-2.52-.75-4.75-1.51-6.84-2.3-1.24-.54-2.46-1.12-3.66-1.72a27.09,27.09,0,0,1-3.76-2.36,39.79,39.79,0,0,1-6.06-6.23,30.85,30.85,0,0,1-3.43-5.26c-.33-.82-.64-1.65-.95-2.48a3.26,3.26,0,0,0-3.14-2.4Zm-11.9,13.79a6,6,0,0,0,1.11-.12l-.27.26-.24,0-1.05-.14a3.4,3.4,0,0,0,.45,0Z"/><path class="cls-11" d="M447.07,184.07a29.82,29.82,0,0,1-6.22,1.91c-.5,0-1,.05-1.51.05s-1.31,0-2-.09a18.89,18.89,0,0,1-2.88-.67c-.7-.23-1.37-.48-2.05-.76a19.62,19.62,0,0,1-2.48-1.42l.09-.43,0-.52a2.63,2.63,0,0,0-.75-2,3.19,3.19,0,0,0-2.22-1,3,3,0,0,0-3,3L424,184c-.07,1.23-.14,2.44-.29,3.67a16.35,16.35,0,0,1-.85,3.16,14,14,0,0,1-1.27,2.18,14.75,14.75,0,0,1-2,1.87c-1.28,1-2.66,1.84-4,2.7l-.89.56c-.61.38-1.23.74-1.89,1.08,0,.14-.06.28-.1.42-.56,2.55-1.34,5-2.14,7.48a24,24,0,0,1-2.72,5.89c0,.43-.05.86-.07,1.28l-.22,3.58c-.08,1.29-.13,2.58-.19,3.88v.58l0,.58c-.09,1.73-.17,3.47-.34,5.19l-.13,1.49,0,.59c-.06.81-.14,1.62-.25,2.42s-.13,1.35-.18,2l-.09.9-.1,1.13c-.17,1-.34,2.1-.41,3.16a10.39,10.39,0,0,0,.09,1.68l0,.44.11.88a5.43,5.43,0,0,0,.17,1.23l.13.32a2.41,2.41,0,0,0-.42,1.32,2.05,2.05,0,0,0,.57,1.41,2.19,2.19,0,0,0,1.44.6c.72.07,1.43.14,2.14.24l-.47-.28.78.3c1.09.18,2.14.34,3.23.43.6,0,1.21.07,1.83.07a19.46,19.46,0,0,0,2.88-.21,19.26,19.26,0,0,0,4.41-1.12,19.46,19.46,0,0,0,4.14-2.61c.83-.63,1.67-1.22,2.54-1.81,1.44-1,2.59-1.77,3.79-2.48a16.18,16.18,0,0,0,3.37-2.45l.51-.55a2.17,2.17,0,0,1,.32-.27l.57-.55c.17-.17.33-.32.51-.47a1.15,1.15,0,0,0,.34-1.14h0a.69.69,0,0,0,.55-.29,1.34,1.34,0,0,0,.24-1,1.23,1.23,0,0,0-1.17-1.16l-.85,0-.74,0a19.39,19.39,0,0,1-3.71-.94,34,34,0,0,1-3.08-1.67,26.73,26.73,0,0,1-3-1.91h.22a14.35,14.35,0,0,0,2.66-.34l.54-.1c.51-.1,1-.2,1.47-.33a13.3,13.3,0,0,0,2.56-1c.86-.43,1.7-.93,2.52-1.42l.43-.25,1.16-.68a13.28,13.28,0,0,1,1.25-.63l.57-.27c.6-.29,1.19-.63,1.76-1a22,22,0,0,0,3.78-2.79,27.66,27.66,0,0,0,2.7-3.12l.45-.58a25.69,25.69,0,0,0,2.54-4,36.89,36.89,0,0,0,2.14-5.18,27.84,27.84,0,0,0,.82-3.14,10,10,0,0,0,.18-1.81,3.94,3.94,0,0,0,0-2,2.61,2.61,0,0,0-.31-.79,2.81,2.81,0,0,0-.67-.77l.28-.24a21.69,21.69,0,0,0,3.09-5.08,21.28,21.28,0,0,0,1.71-5.45l.24-.76a1,1,0,0,0,0-.75c.11-.6.19-1.24.27-1.88s.2-2.18.24-2.91c0-.27-.48-2.4-.84-2C455.64,181.79,449,183.19,447.07,184.07Z"/><path class="cls-11" d="M310.12,168.75a24.39,24.39,0,0,0-6,1.11,17.22,17.22,0,0,0-5.74,2.08,20.8,20.8,0,0,0-5.14,4,16.46,16.46,0,0,0-2.71,3.9,25.1,25.1,0,0,1-3.53.82,28.31,28.31,0,0,1-6.44,0,21.64,21.64,0,0,1-4.28-1c-1-.46-1.86-1-2.77-1.5a1.17,1.17,0,0,0-1.19,2,19.62,19.62,0,0,0,4.65,2.14,24.8,24.8,0,0,0,4.53.77,26.23,26.23,0,0,0,7.86-.46,18.37,18.37,0,0,0-.58,2.41,31,31,0,0,0-.49,4.71,29.3,29.3,0,0,0,1.16,8,25.76,25.76,0,0,0,1.6,4.35l.38-.19a14.87,14.87,0,0,1,4.74-1.18c.42-.15.84-.29,1.24-.45a10.85,10.85,0,0,1,13.07,15.85,23.06,23.06,0,0,0,2.74-.35,28.25,28.25,0,0,0,5.58-1.83,24.76,24.76,0,0,0,4.56-2.53,18.45,18.45,0,0,0,3.89-3.43,29.86,29.86,0,0,0,5.1-9,22.23,22.23,0,0,0,.8-11.63l0-.1s0,.05,0,.07,0,0,0-.07a21.23,21.23,0,0,0-.53-3,26.76,26.76,0,0,0-1.42-3.77,21.52,21.52,0,0,0-3.45-5.29,19,19,0,0,0-10.94-6,27.88,27.88,0,0,0-5.16-.53c-.49,0-1,0-1.5.05Z"/><path class="cls-11" d="M309.65,166.86c-1,0-2.08.13-3.12.25a7.78,7.78,0,0,0-1.52.25,8,8,0,0,0-1.17.38l-.4.09c-.86.21-1.7.47-2.53.75s-1.78.6-2.65.95c-.52.2-1,.43-1.54.64a8.93,8.93,0,0,0-1.35.52c-.87.39-1.7.91-2.57,1.34-1.25.61-2.44,1.32-3.72,1.88l-1.2.52a36.86,36.86,0,0,1-3.59,1.2,31.74,31.74,0,0,1-3.47.68c-1.22.14-2.43.23-3.66.26-.89,0-1.79,0-2.69,0a2.73,2.73,0,0,0-.57,0,2.4,2.4,0,0,0-1.78.67,2.28,2.28,0,0,0-.59,2.22c.48,1.42,2,2.19,3.37,2.57.55.16,1.14.22,1.7.33l.49.09.63.21c.67.19,1.36.28,2,.41s1.64.28,2.46.37l.63.06.43.11a12.2,12.2,0,0,0,2.42.27,31.37,31.37,0,0,0,4-.31c.68-.07,1.36-.1,2-.17s1.29-.18,1.93-.28a2.22,2.22,0,0,0,1.51-.54,1.23,1.23,0,0,0,.18-1.41v0a1,1,0,0,0-.7-.52c.61-.31,1.21-.63,1.83-.93.46-.17.91-.35,1.36-.56a1.64,1.64,0,0,0,1-1.93,1.36,1.36,0,0,0-.32-.59l.05,0h.25c1.25,0,2.51.14,3.75.28a14.5,14.5,0,0,1,2.5.62l.07,0c.27.24.53.49.78.74.74.73,1.31,1.67,2.42,1.87a2.83,2.83,0,0,0,2.2-.29,2.93,2.93,0,0,0,1.41-2.46c.13-1.47-1.12-2.68-2.11-3.61-.32-.3-.66-.58-1-.85.78,0,1.57,0,2.34.09s1.42.22,2.12.3,1.35.3,2,.47c.34.09.68.21,1,.33a3.7,3.7,0,0,0,3.64-.77,3,3,0,0,0,.47-3.66,3.23,3.23,0,0,0-.48-.61h0a5.56,5.56,0,0,0-2.31-1.29,10.47,10.47,0,0,0-1.58-.41c-.72-.13-1.46-.23-2.2-.31-.5-.05-1,0-1.51-.1a11.13,11.13,0,0,0-1.28-.14h-.27c-.38,0-.77,0-1.17.05Zm-7,10,.25,0-.25,0Zm-8.93.49h0l-.19.08.22-.09Z"/><path class="cls-11" d="M419.7,124.86a8.45,8.45,0,0,0-5.85,3.59l.38-.49c-.2.24-.4.5-.59.76l.21-.27c-.29.37-.56.74-.83,1.11l-1.29,1.63c.14-.15.27-.32.4-.48a30.84,30.84,0,0,1-4.48,4.86,15.75,15.75,0,0,1-2.46,1.4c-.91.37-1.82.71-2.73,1.09l.2-.09a45.65,45.65,0,0,1-4.86,1.67c-1.71.54-3.39,1.19-5.1,1.74-3.75,1.17-7.48,2.41-11.15,3.82-4.18,1.6-8.49,2.84-12.7,4.32s-8.39,3.4-12.73,4.72c-3.4,1-6.83,2-10.32,2.71-3.25.67-6.55,1.32-9.85,1.85a31.55,31.55,0,0,1-5.14.33c-1.54,0-3.09-.19-4.62-.39l-1.49-.2.24,0-.39,0-.71-.09.48.06a39.76,39.76,0,0,0-4.21-.43c-1.41-.05-2.86.16-4.27.2a25.76,25.76,0,0,0-5,.55c-1.28.3-2.56.57-3.84.86a26.46,26.46,0,0,0-7.62,3.08c-2.69,1.62-5.24,3.46-7.94,5a52.58,52.58,0,0,1-5.31,2.9,16.7,16.7,0,0,1-3.67,1l.08,0-1.75.21a1.21,1.21,0,0,0-1.18,1.18,1.19,1.19,0,0,0,1.18,1.17,21.73,21.73,0,0,0,6.8-1.61c1.67-.78,3.26-1.76,4.85-2.67s3.39-2,5.12-3c1.54-.83,3.09-1.64,4.69-2.37a25,25,0,0,1,4.42-1.5,10.52,10.52,0,0,1,2.1,0c2.77.42,5.38,1.38,8.09,2,1.29.32,2.62.45,3.92.83s2.7.81,4.07,1.16a88.22,88.22,0,0,0,12.56,2.56c2.18.23,4.4.35,6.59.4s4.25.24,6.39.16a79,79,0,0,0,8.13-.62,95,95,0,0,0,10.12-1.94c2.69-.65,5.39-1.33,8-2.1a80.31,80.31,0,0,0,8.76-3.3,77.91,77.91,0,0,0,11.22-5.72,60.47,60.47,0,0,0,6-4.12c.65-.52,1.3-1.07,1.93-1.63a24.61,24.61,0,0,0,2.78-3.24c1.79-2.37,3.13-5,4.69-7.56,1.22-2,2.61-3.86,3.72-5.92a18.51,18.51,0,0,1,1-1.73c.11-.13.23-.25.35-.37a7.48,7.48,0,0,1,1-.51l.69-.28-.38.16a16,16,0,0,1,2.37-.78l.09,0a5.09,5.09,0,0,1,.5.3,13.42,13.42,0,0,1,1.37,1.45,18,18,0,0,1,1.16,1.81,2.21,2.21,0,1,0,3.82-2.24,14.25,14.25,0,0,0-3.3-5.17,6.12,6.12,0,0,0-4.17-1.9l-.49,0Zm3.14,7.69.11.13-.11-.13ZM385.4,162.26l-1.27.54c.71-.28,1.4-.59,2.09-.89l-.82.35Zm-60.85-3.74.15,0-.38,0,.23,0Zm88.92-29.58.17-.22-.17.22Z"/><path class="cls-11" d="M418.21,125.46a2,2,0,0,0-.94,2.29,2.17,2.17,0,0,0,.94,1.23h0l.07,0a2.57,2.57,0,0,0,.6.23l.15,0a6.71,6.71,0,0,1,.9.6h0l-.21-.15.2.16a1.49,1.49,0,0,0-.11.54,1.46,1.46,0,0,0,1.47,1.45,3,3,0,0,1,.52,0,63.34,63.34,0,0,1,3.31,6c.7,1.27,1.4,2.51,2.12,3.76l.09.16a4.78,4.78,0,0,0-2.9,2.74,25.18,25.18,0,0,0-1.46,4.06c-.38,1.41-.67,2.82-.94,4.24s-.63,3-.85,4.57a35.38,35.38,0,0,0-.38,5,30.44,30.44,0,0,0,.42,4.56,8.43,8.43,0,0,0,1.49,3.94,3.2,3.2,0,0,0,2.41,1.23,3.23,3.23,0,0,0,1.47-.37,4.34,4.34,0,0,0,.87-.6,10.1,10.1,0,0,0,2.65-4.13,5.48,5.48,0,0,0,.67-.93,1.73,1.73,0,0,0,.32-1.36,1.17,1.17,0,0,0-1.43-.81,1.71,1.71,0,0,0-.86.69c0-.71,0-1.42,0-2.13,0-1.09.05-2.2.07-3.31.05-2,.17-3.9.4-5.85.22-1.3.47-2.58.82-3.86l.12.31a1.54,1.54,0,0,0,.89.91l.39.89c.16.42.29.87.49,1.28a1.36,1.36,0,0,0,1.88.7,2.08,2.08,0,0,0,.8-1.7,17.14,17.14,0,0,0,.1-1.76,18.54,18.54,0,0,0-.36-3.63,28.55,28.55,0,0,0-.83-3.4c0-.15-.08-.29-.13-.44s-.09-.28-.14-.42c-.34-1-.72-1.93-1.06-2.89-.22-.62-.44-1.23-.69-1.84a19.22,19.22,0,0,1-.56-2,19.67,19.67,0,0,0-1.29-3.32,13.78,13.78,0,0,0-1.54-2.25l-.42-.54.14.18a14.8,14.8,0,0,0-1.58-2,8,8,0,0,0-4.88-2.27,4.76,4.76,0,0,0-1.65-.33,3.15,3.15,0,0,0-1.56.4Zm3.33,6.37.12,0-.12,0Zm4.6,2.22,0,0h0l0,0Zm-1,31.5a10.38,10.38,0,0,1,1.64,1.71c-.26.27-.52.53-.81.78l-.17.1a16.39,16.39,0,0,1-.66-2.59Zm.75,2.55-.08.07h0l.08-.07Zm-.59.22h0Zm.69.18.12.05-.12,0Z"/><path class="cls-11" d="M422.12,141.43a17,17,0,0,0-2.66,3.35,27.22,27.22,0,0,0-4.15,10.64,23.19,23.19,0,0,0-.42,7.05,23.63,23.63,0,0,0,.6,3.56,19.47,19.47,0,0,0,1.31,3.16,9.33,9.33,0,0,0,5.36,4.6,6.78,6.78,0,0,0,6.67-1.38,4.11,4.11,0,0,0,.93-.65,3.45,3.45,0,0,0,1.14-2.62,2.93,2.93,0,0,0-.86-2,7.71,7.71,0,0,0-1.7-2.76c-.21-.21-.41-.42-.6-.64-.34-.53-.65-1.07-.94-1.63a22.19,22.19,0,0,1-.7-2.81c-.17-1.75-.23-3.5-.23-5.26,0-1-.08-1.94-.1-2.9a12.32,12.32,0,0,1,.11-1.72,16.5,16.5,0,0,1,.72-2.93l.21-.43c.49.15,1,.33,1.44.5a3.07,3.07,0,0,0,1.63-5.92,13.41,13.41,0,0,0-3.33-.87l-.38,0a6.43,6.43,0,0,0-4.05,1.67Zm4.95,4.39-.13,0h0l.13,0Zm-.61,1-.15.34.15-.34Z"/><path class="cls-11" d="M430.36,163.19a13.26,13.26,0,0,0-1,1c-.37.46-.7.94-1.05,1.41a12.2,12.2,0,0,1-1.21,1.38c-.2.13-.4.24-.61.35-.5.19-1,.35-1.51.52a2.88,2.88,0,1,0,1.53,5.55,16.25,16.25,0,0,0,3.39-1.4,8.08,8.08,0,0,0,2.53-2.73,9.32,9.32,0,0,0,1-2.22,8.48,8.48,0,0,0,.31-1.67c0-.08,0-.15,0-.21a2.07,2.07,0,0,0-.93-2.28,2,2,0,0,0-1-.27,1.94,1.94,0,0,0-1.42.6Z"/><path class="cls-11" d="M419,181.5l-.62.32a23.37,23.37,0,0,1-3.18.87l-2,.44c.06.49.13,1,.2,1.46a37.14,37.14,0,0,1,.38,4.83c1.19-.51,2.37-1.06,3.53-1.67a30.18,30.18,0,0,0,3.87-2.47,2.43,2.43,0,0,0,1-1.32,2.16,2.16,0,0,0-.22-1.68,2.22,2.22,0,0,0-1.91-1.07,2.15,2.15,0,0,0-1.09.29Z"/><path class="cls-11" d="M382.15,189.67a10.47,10.47,0,0,1,1.67,1.46c.37-.84.72-1.7,1.06-2.56-.92.34-1.82.72-2.73,1.1Zm.91-.38-.56.24.56-.24Z"/><path class="cls-11" d="M417.07,187.74a22.2,22.2,0,0,0-3.32.32,42.92,42.92,0,0,1-1.05,11.53c-.35,1.6-.79,3.16-1.27,4.71a19,19,0,0,0,3.42-1.68c3.13-2,6-5,6.93-8.69a4.93,4.93,0,0,0-4.6-6.19Z"/><path class="cls-11" d="M261.45,200.21c1.33.75,2.65,1.54,4,2.22a33.36,33.36,0,0,0,4.07,1.46,19.43,19.43,0,0,0,8.1.67l-.07,0a9.71,9.71,0,0,1,1.87-.17l.1.1a8.07,8.07,0,0,1,.6,1.08c-.08-.17-.14-.33-.21-.5l.24.53c.21.55.35,1.11.53,1.68a26.58,26.58,0,0,0,1.15,2.88,21.59,21.59,0,0,0,1.26,2.33,22.66,22.66,0,0,1,1.43-4.18,12.7,12.7,0,0,1,1.72-2.64,16.11,16.11,0,0,0-3.06-2.78,11.78,11.78,0,0,0-1.49-.78,5.49,5.49,0,0,0-2.94-.34c-.7.05-1.4.15-2.09.22a16,16,0,0,1-3.37-.21,26.45,26.45,0,0,1-5.7-1.82c-1.58-.7-3.08-1.63-4.58-2.48a1.57,1.57,0,0,0-1.58,2.71Zm18.16,4.37a.64.64,0,0,1,.1.13,1.13,1.13,0,0,0-.1-.13Z"/><path class="cls-11" d="M417.54,177.15a7,7,0,0,0-2.24,1.33,8.06,8.06,0,0,0-6.13,5.42c-1.91,5.47-.22,12.3,1.53,17.65a20.74,20.74,0,0,0,1.88,4.06c.68,1.17,1.5,2.67,2.84,3.13a3.56,3.56,0,0,0,4.9-2.53,7.16,7.16,0,0,0-.32-3.34c0-.37-.07-.73-.1-1.09l.34.32a7.44,7.44,0,0,0,7,1.54,5.27,5.27,0,0,0,4.48-.94,6.45,6.45,0,0,0,2.43-5.67,8.24,8.24,0,0,0-.73-2.63c0-.5,0-1,0-1.5a5.85,5.85,0,0,0,.49-1.65,7.7,7.7,0,0,0-.74-4.42l0,0c-.71-1.55-1.34-3.72-2.44-5a7.78,7.78,0,0,0-5.39-3,7.51,7.51,0,0,0-5.28-2.2,7.2,7.2,0,0,0-2.53.46Z"/><path class="cls-4" d="M412.36,191.42a1.15,1.15,0,0,0-.5.12,2.72,2.72,0,0,0-1.05,1.76,10.93,10.93,0,0,0-.4,4.11,18.21,18.21,0,0,0-.46,3.81c0,.92,0,1.86.05,2.79-.53,3.11-1.18,6.11-1.83,9.1l-.75,3.48c-.67,3.14-1.45,6.25-2.22,9.36-.48,1.93-1,3.85-1.41,5.78-1.14,4.88-2.57,11-.89,16.54,1.2,4,5.28,6.58,7.6,7.77a19.89,19.89,0,0,0,9.09,1.94,35.32,35.32,0,0,0,5.43-.46,32.24,32.24,0,0,0,8.92-2.57,55,55,0,0,0,7.87-4.49,34.49,34.49,0,0,0,11.28-14.15,45.81,45.81,0,0,0,2.75-8.16,41.83,41.83,0,0,0,1-8l0-.68a34,34,0,0,0-.14-7.2c-.39-2.3-1.24-3.47-2.5-3.47a3.61,3.61,0,0,0-2.63,1.65,22.24,22.24,0,0,1-2.4,1.6,14.35,14.35,0,0,1-2.6,1,20.26,20.26,0,0,1-4.36.43h-.71a27.88,27.88,0,0,1-5.24-1.12,43,43,0,0,1-8.57-3.78,39.82,39.82,0,0,1-7-5.59,31.13,31.13,0,0,1-4-5.46c-.26-.64-.56-1.27-.86-1.9l-.16-.34c-.17-.36-.35-.71-.54-1.06l-.26-.63-.19-.45a.39.39,0,0,0,0,.37,2.94,2.94,0,0,0-.45-.79c-.49-.62-1.08-1.26-1.75-1.26Z"/><path class="cls-4" d="M550.89,328.7a7.38,7.38,0,0,0-1.85,2,14,14,0,0,0-2.48,2.25,10.53,10.53,0,0,0-2.45,5.18L544,338l-.11-.46v0a2.55,2.55,0,0,1,.2-1.09h0c.1-.32.22-.65.32-1a0,0,0,0,0-.08,0c-.51,1.17-1,2.15-.3,3.31a6.47,6.47,0,0,0,0,.88v.12a4.87,4.87,0,0,0-.23,2.22c.34,1.84,1.47,4,3.63,4.23a5.66,5.66,0,0,0,2.24-.22c4,.86,7.45-2.35,9.33-5.53a7.16,7.16,0,0,0,.4-.78,10,10,0,0,0,1.23-4.65,5.63,5.63,0,0,0-.66-2.66,5.36,5.36,0,0,0-1.82-4.38,3.88,3.88,0,0,0-2.71-1,8.05,8.05,0,0,0-4.53,1.72ZM544,338v0Zm.16.35Zm-.08-1.89h0Z"/><path class="cls-4" d="M276.55,148.49a7.41,7.41,0,0,0-3.24,1.88l-.13.13a6.92,6.92,0,0,0-2.09,5.61,5.82,5.82,0,0,0-.54.48,6.14,6.14,0,0,0-.42.47c-.3-.23-.62-.45-.95-.66a5.53,5.53,0,0,0-6,.19c-.35-.05-.7-.08-1.05-.12-2-.22-4.17,1.28-5.14,2.91a6,6,0,0,0-.79,3,3.87,3.87,0,0,0,.23,1.63,5.67,5.67,0,0,0,1.5,2.57,9.4,9.4,0,0,0,2.14,1.65,37.34,37.34,0,0,1,4.81,4.34c.45.85.85,1.73,1.24,2.62.42,1.06.81,2.14,1.25,3.2l-.14.5-.19.32,0,0-.22.13a12.9,12.9,0,0,1-1.26.32,26.73,26.73,0,0,1-4.47-.15c-.77-.13-1.53-.29-2.28-.49-1.42-.88-2.77-1.84-4.14-2.83a9.73,9.73,0,0,0-2.21-1.11,6.47,6.47,0,0,0-5.12.57,5.73,5.73,0,0,0-2.82,3.66,6.34,6.34,0,0,0,0,3.32c.59,2.11,2.12,3.26,3.78,4.51a15.35,15.35,0,0,0,2.67,1.6c.31.23.63.46,1,.67l.87.57c.2.32.4.64.62.95.66,1,1.38,1.94,2.13,2.86a21.43,21.43,0,0,0,5.5,6.9,17.38,17.38,0,0,0,6.75,3.63,15.43,15.43,0,0,0,1.91.66,11.21,11.21,0,0,0,5.43,0,8.36,8.36,0,0,0,6.15-7.76,9.32,9.32,0,0,0-3.23-6.83,20.94,20.94,0,0,0-2-1.62,4.46,4.46,0,0,0,1.75-1.55,2.54,2.54,0,0,0-.06-2.58,6.29,6.29,0,0,0,2.72-2.39,6.09,6.09,0,0,0,5.35-2.12,8,8,0,0,0,8.92-10.1l0,0,0-.07a9.5,9.5,0,0,0-.45-1.3,64.42,64.42,0,0,0-3.51-8.75c-.76-1.46-1.62-2.86-2.48-4.27-.41-.64-.86-1.26-1.33-1.86a27,27,0,0,0-2.37-2.86,10.59,10.59,0,0,0-4.12-2.49,7.79,7.79,0,0,0-1.95-.25,7.54,7.54,0,0,0-1.94.25Zm-10.19,27.2.33.77-.33-.77Zm11.1,10.49,0,0h0l0,0Z"/><path class="cls-4" d="M403,107.24a30.66,30.66,0,0,0-5.41.67c-1.49.27-3,.71-4.45,1.07a29.5,29.5,0,0,0-4.56,1.46c-1.85.76-3.68,1.55-5.46,2.49-1.6.85-3.17,1.74-4.75,2.64-1.81,1-3.68,2-5.56,2.9-1.48.71-3,1.33-4.54,2a93.68,93.68,0,0,1-9.55,3.56c-3.47,1-6.93,2-10.38,3.14-3.27,1-6.64,1.82-10,2.71s-6.57,1.66-9.86,2.39c-4,.88-8,1.49-12,2.08h.1c-2.71.35-5.42.68-8.15.93-1.58.16-3.16.24-4.73.4-1.86.17-3.69.47-5.51.74l1.2-.16a38.92,38.92,0,0,0-8.69,1.8,28.08,28.08,0,0,0-8.25,4.87c-1.9,1.62-3.7,3.35-5.49,5.1a43,43,0,0,0-4.32,5.46,19.41,19.41,0,0,1-2.84,2.82,28,28,0,0,1-5.42,3.19l-2.31.92a1.73,1.73,0,0,0-1.18,2.09,1.69,1.69,0,0,0,2.08,1.18c1.1-.43,2.2-.86,3.29-1.26s2.25-.72,3.36-1.1a25.15,25.15,0,0,0,6.21-3,41.09,41.09,0,0,0,4.74-4c1.39-1.25,2.85-2.41,4.31-3.56l-.07.05c.62-.48,1.25-1,1.89-1.45l-.79.59,1.64-1.26a20.52,20.52,0,0,1,3.25-1.94,21.32,21.32,0,0,1,3.84-1.18c2.86-.32,5.74-.36,8.61-.41,1.83,0,3.66,0,5.48-.06s3.5-.11,5.25-.19a120.23,120.23,0,0,0,21.7-2.94c4.41-1,8.78-2.32,13.07-3.73,2.23-.75,4.41-1.6,6.61-2.44,2.54-1,5.11-1.88,7.62-3l-1.17.49.87-.36-.39.17.42-.18.75-.32-.57.24c4.56-2,8.93-4.34,13.34-6.62,1.2-.63,2.38-1.32,3.55-2s2.18-1.18,3.27-1.79c2.09-1.21,4.25-2.35,6.45-3.36a40.6,40.6,0,0,1,5-1.68c1.61-.42,3.26-.76,4.9-1a25.5,25.5,0,0,1,4.78-.18,31.12,31.12,0,0,1,4.36,1.38c1.74.65,3.49,1.28,5.21,2,1.54.61,3.08,1.22,4.66,1.7l1,.29c0,.83-.09,1.66-.18,2.49a49.8,49.8,0,0,0-.86,6.44,4.16,4.16,0,0,0,3.05,4,4.23,4.23,0,0,0,5.12-2.91,22.06,22.06,0,0,0,.78-3.78c.24-1.65.4-3.31.51-5a22.1,22.1,0,0,0-.36-4.93,4.86,4.86,0,0,0-3.4-3.81,8.42,8.42,0,0,0-1.73-.27,20.07,20.07,0,0,1-3.07-.8c-1.43-.67-2.78-1.47-4.21-2.16-1.8-.86-3.66-1.6-5.54-2.3a18.33,18.33,0,0,0-6.46-1.3Zm-35.14,13.37-.53.23.53-.23Zm-82.34,29.65c-.22.19-.46.36-.68.54l-.67.52,1.35-1.06Z"/><path class="cls-4" d="M282.18,209.88l-.33-.43h0Z"/><path class="cls-4" d="M441,143.11a41.11,41.11,0,0,0-2.89-7.38,25.76,25.76,0,0,0-1.5-3.34,14.37,14.37,0,0,0-4.34-4.54,10.2,10.2,0,0,0-5.5-1.62c-.22,0-.43,0-.63,0a10.82,10.82,0,0,0-4.7,1.28,5.41,5.41,0,0,0-.59.35c-.15,0-.3.11-.45.15.21-.54.43-1.08.59-1.63a11.89,11.89,0,0,0,.31-2.3,5.85,5.85,0,0,0-.7-3,7.56,7.56,0,0,0-4.83-3.82l-.63-.08a8.27,8.27,0,0,0-1.31-.19l-.57-.26a18.82,18.82,0,0,0-2.66-1,19.14,19.14,0,0,0-3-.41,10.69,10.69,0,0,0-1.13-.06,27.33,27.33,0,0,0-5.64.83c-.38.08-.75.17-1.13.27a12.55,12.55,0,0,0-4.61-.12,28.34,28.34,0,0,0-5.22,1.17,47.69,47.69,0,0,0-6.85,2.87c-1.7.6-3.39,1.27-5.05,1.93-2.58,1-5.17,2.06-7.74,3.15-8.91,3.76-17.64,7.92-26.51,11.79l-.81.33q-1.14.12-2.28.27c-4.92.61-9.8,1.39-14.67,2.31-1.44,0-2.91.11-4.35.19-2.53.15-5.08.54-7.6.86-2.74.34-5.46.75-8.18,1.11-2.3.32-4.65.63-6.91,1.14-2.51.56-5,1.15-7.5,1.79a39.82,39.82,0,0,0-7.24,2.45c-.42.2-.82.41-1.22.63a9.66,9.66,0,0,0-3,2.89,6.59,6.59,0,0,0-.86,1.88,12.69,12.69,0,0,0-.41,2.31,14.73,14.73,0,0,0,0,1.76,37.55,37.55,0,0,0,1.13,6.88c.27,1.21.65,2.4,1,3.59.15.51.3,1,.44,1.54a3.59,3.59,0,0,0,1.57,2.1l-.74.3a44.1,44.1,0,0,0-5.7,2.56,10.64,10.64,0,0,0-4.72,6.33,12.88,12.88,0,0,0,0,7.53,11.5,11.5,0,0,0,.49,1.22,31.16,31.16,0,0,0,2.55,8.12c.88,2,1.79,3.93,2.85,5.83a51.1,51.1,0,0,0,4.36,6.29h0a42.58,42.58,0,0,0,4.06,4.63,61.62,61.62,0,0,0,6,4.93c3.76,2.77,7.63,5.47,12.16,6.77a27.79,27.79,0,0,0,14,.65,17,17,0,0,0,4-1.56c1-.15,2-.36,3-.58a59,59,0,0,0,7.76-2.14c5.23-2,10.5-4,15.58-6.33q2.08-1,4.13-2.08c2.74.77,6-.18,8.65-1s5.25-1.7,7.83-2.65q7.67-2.81,15-6.27c2.36-1.1,4.74-2.18,7.09-3.3,1.17-.56,2.38-1.11,3.54-1.71,1.6-.83,3.31-1.56,4.32-3.15a4.63,4.63,0,0,0-.43-5.22c3.75-1.28,7.49-2.56,11.2-4q.4-.15.78-.33a12.71,12.71,0,0,0,2,1,5.66,5.66,0,0,0,3-.06c.55-.21,1.08-.43,1.62-.67a5.86,5.86,0,0,0,1.28-.86c.46-.35.92-.73,1.36-1.12a8,8,0,0,0,4.94-.4c5.68-2.2,9.27-7,12.36-12.05a40,40,0,0,0,3.29-7.16,37,37,0,0,0,1.65-8.72A38.93,38.93,0,0,0,441,143.11Zm-103.39,21a13.88,13.88,0,0,0-1.61-.3l1.56-.29A2.94,2.94,0,0,0,337.59,164.12ZM288,169.64l-.38.05c.11-.11.21-.23.31-.34Zm-5.4-3.23c.09-.13.19-.26.29-.38l-.05.07c-.07.1-.15.19-.23.29Zm146-20.14,0-.05,0,0Z"/><path class="cls-4" d="M281.21,208.62l.64.83h0Z"/><path class="cls-4" d="M215,124l.09.82c-.16.37-.25.77-.39,1.16s-.21.63-.3,1c-1.17.61-1.75,2.07-2.3,3.25a21,21,0,0,0-1.2,3,29.27,29.27,0,0,0-.61,3.69,44.72,44.72,0,0,0,.34,12.28,32.93,32.93,0,0,0,3.73,11.57,36.86,36.86,0,0,0,3.53,4.95c1.16,1.46,2.35,2.88,3.63,4.24a39.9,39.9,0,0,0,8.6,7c3,1.75,6.12,3.29,9.24,4.8a48.4,48.4,0,0,0,5,2.13,37.07,37.07,0,0,0,5,1.45,13.82,13.82,0,0,0,2.87.27,4.13,4.13,0,0,0,1.45-.19,3.05,3.05,0,0,0,1.72-1.56c.24,0,.47-.06.69-.11a3.58,3.58,0,0,0,1.48-.71c.86.38,1.74.74,2.61,1.1,2.89,1.2,6.19,1.45,8.54-1a6.42,6.42,0,0,0,1.47-2.61,6,6,0,0,0,.92-1,12.39,12.39,0,0,0,3.47-1.1,18.9,18.9,0,0,0,1.57-1.23,11.89,11.89,0,0,0,1.46-1.85,12.63,12.63,0,0,0,1.18-2.5c.16-.38.31-.76.47-1.15a13.58,13.58,0,0,1,.76-1.34,10.44,10.44,0,0,0,1.83-2.19,5.13,5.13,0,0,0,.49-3.74,5.56,5.56,0,0,0-2.31-3,9.73,9.73,0,0,0-2.22-1,29.58,29.58,0,0,0-7.17-1.47c-2-.29-3.9-.67-5.84-1.06s-4-.77-5.91-1.31c-2.19-.61-4.37-1.3-6.56-2-1.79-.54-3.56-1.13-5.31-1.82-1.32-.58-2.6-1.21-3.86-1.88l-.83-.6-.65-.5a6.86,6.86,0,0,0-1.66-.69c-2.53-1.54-5-3.23-7.36-5a36.93,36.93,0,0,1-5.36-5.32,45.06,45.06,0,0,1-4.71-8.09,29.19,29.19,0,0,1-1.57-5.85c0-.28-.07-.55-.1-.83a3.14,3.14,0,0,0-.86-2.07,2.92,2.92,0,0,0-2.06-.86c-1.46,0-3.12,1.34-2.94,2.93Zm5.89.37,0,.22,0-.22Zm5.13,22.5a35.51,35.51,0,0,0,2.74,2.47,6.77,6.77,0,0,0-1.78,1.68,27.77,27.77,0,0,1-1-4.15Z"/><g class="cls-13"><path class="cls-1" d="M163.83,182.47h0a6.66,6.66,0,0,0-1.69,1.7,5.08,5.08,0,0,0-.23-.89l0,.49.15.58a8.35,8.35,0,0,0-.77,1.39,24.94,24.94,0,0,0-1.86,5.57,23,23,0,0,0,.37,8.41,24.66,24.66,0,0,0,1.38,4.69,29.65,29.65,0,0,0,2.18,4l.41.67c2.13,3.54,5.5,6.4,8.21,8.7,1.33,1.13,2.69,2.23,4.07,3.33a1.81,1.81,0,0,0,0,.33,3.09,3.09,0,0,0-.83.69,10.12,10.12,0,0,0-2.33,5c-1.1,5.2.29,10.82,1.52,15.78l.18.75a70.2,70.2,0,0,0,4,13.34,55.94,55.94,0,0,0,8.07,12.54,70.25,70.25,0,0,0,11.21,11.34,86.34,86.34,0,0,0,11.86,7.84,76.84,76.84,0,0,0,12.79,5.59,65.11,65.11,0,0,0,10.39,2.37,80.67,80.67,0,0,0,11.2.79,78.17,78.17,0,0,0,15.76-1.6A39.55,39.55,0,0,0,277,288.18a47.85,47.85,0,0,0,11.93-14.09,33.77,33.77,0,0,0,3.54-13.71l.11-1.47c.14-2.08.27-4,.25-5.76a27.53,27.53,0,0,0-1-6.12l-.08-.34-.4-1.83a79.3,79.3,0,0,0-2.24-8.59,56.24,56.24,0,0,0-3.15-7.26,30.92,30.92,0,0,0-7.14-9.39c-.19-.18-.4-.38-.62-.55a50,50,0,0,0-1.05-6.14l-.28-1.23-.22-1-.24-1a39.06,39.06,0,0,1-.65-4,22.84,22.84,0,0,0-.65,4.07l-.1.92c-.18,1.88-.36,3.75-.61,5.63a79,79,0,0,1-2.87,12.09A132,132,0,0,1,265.74,243l-.17.38-.18.38a47.28,47.28,0,0,0,.8-8.37,33.86,33.86,0,0,0-.54-6.34c0-.29.05-.62.05-1a8.53,8.53,0,0,0-.34-2.62A5.19,5.19,0,0,0,264,223c-.17-.19-.34-.39-.53-.59a12,12,0,0,0-1.15-.73,4.9,4.9,0,0,0-2.31-.61c-2.76,0-5.15,2.37-6.05,3.38a6.8,6.8,0,0,0-1.53,3.85c-1.23,2.31-2.29,4.82-3.22,7a70.27,70.27,0,0,1-4.58,9.44,51.32,51.32,0,0,1-6.84,8.3,33.23,33.23,0,0,1-5.83,4.37,11.56,11.56,0,0,1-2.05.7,30,30,0,0,1-3,.48c-.85-.09-1.73-.19-2.59-.32l.34-.07a16.37,16.37,0,0,0,2.41-1.1,20,20,0,0,0,4.35-3.29,16.3,16.3,0,0,0,2.93-4.45l.38-.06,1.19-.17a19.54,19.54,0,0,1,3.31-.38,4,4,0,0,0-1.81-.31c-.51,0-1,0-1.51,0l-.63,0H235a16,16,0,0,1,.71-2.62l.14-.38a4.84,4.84,0,0,0-1.05,1.44c-.3.57-.58,1.11-.88,1.63h-1.71l-1.76,0c-2.26.08-4.52.13-6.79.13-1,0-2,0-3,0a47,47,0,0,1-6.68-.89c-2.39-.51-4.76-1.12-7.23-1.88s-4.85-1.84-7.52-3a55.32,55.32,0,0,1-6.67-3.67l-.44-.27a53,53,0,0,1-4.53-3.28,59,59,0,0,1-4.6-4.3,46.05,46.05,0,0,1-5.88-7.76,13.71,13.71,0,0,1-.64-1.53l-.08-.51,2.86,1.95c3.28,2.53,8.43,5.63,14.3,6,.87.06,1.75.09,2.62.09a43.46,43.46,0,0,0,7.3-.63,37.16,37.16,0,0,0,8.56-2.62,23.86,23.86,0,0,0,7-4.72,37.76,37.76,0,0,0,9.38-14.23,29.92,29.92,0,0,0,1.91-9.6,14.62,14.62,0,0,0-.2-3.09,9.82,9.82,0,0,0-1.4-4.09,5.69,5.69,0,0,0-4.45-2.2,4.55,4.55,0,0,0-2.13.51,8.81,8.81,0,0,0-2.71,2l-.26.26-.25.26-.66.66c-.65.65-1.3,1.3-2,1.95a36.75,36.75,0,0,1-6.27,4.71,23.17,23.17,0,0,1-4.17,1.64,31.72,31.72,0,0,1-5.34.45h-.83a23.28,23.28,0,0,1-5.22-.95,24.11,24.11,0,0,1-4.67-2.2,19.15,19.15,0,0,1-1.94-1.41l-.55-.49c-.25-.23-.5-.46-.77-.67a3.41,3.41,0,0,0-2.2-.61h-.72l-.61.05v0a5.47,5.47,0,0,0-1,.06,33.77,33.77,0,0,1-7.91-1.33,30.68,30.68,0,0,1-6.52-2.75,17.22,17.22,0,0,1-2.76-2.23,15.63,15.63,0,0,1-1.92-2.55c-.16-.35-.29-.71-.42-1.08a7.42,7.42,0,0,1,.51-1.07,8.16,8.16,0,0,1,.77-.92l.25-.29-.06-.05Z"/></g><path class="cls-12" d="M306.19,171.07c-.77.23-1.51.56-2.24.86a21.26,21.26,0,0,0-2.91,1.44,24.71,24.71,0,0,0-2.56,1.76,27.06,27.06,0,0,0-3.18,2.78c-1.18,1.33-2.18,2.86-3.23,4.31a1.17,1.17,0,0,0,2,1.19c.71-1,1.4-2,2.12-2.92a19.69,19.69,0,0,1,1.4-1.61,18.39,18.39,0,0,1,1.92-1.61,20.81,20.81,0,0,1,3.33-1.77,28.71,28.71,0,0,1,5-1.25,18.82,18.82,0,0,1,4,0,24.16,24.16,0,0,1,4.51,1.27,29.94,29.94,0,0,1,4.89,2.89,21.54,21.54,0,0,1,2.66,2.57,19.67,19.67,0,0,1,1.73,3.07,24.22,24.22,0,0,1,1,4.37,38.94,38.94,0,0,1,.06,8.29,21.55,21.55,0,0,1-1,4,22.42,22.42,0,0,1-1.64,2.75,14.71,14.71,0,0,1-1,1.05c-.51.34-1.08.59-1.6.92a17.91,17.91,0,0,1-7.61,2.61,5,5,0,0,1-1.78-.47c-1-.29-2.1-.39-3.11-.71l-.2-.1a4.11,4.11,0,0,0-4.9.63,4,4,0,0,0,0,5.7,13.55,13.55,0,0,0,3.45,2.43c.71.31,1.43.64,2.15,1,1.4.7,2.77,1.37,4.23,2,3.5,1.39,7.22,0,10.11-2.05a28.07,28.07,0,0,0,4.66-4.12,16.58,16.58,0,0,0,1.85-2.43,24.92,24.92,0,0,0,1.55-3.21,28.9,28.9,0,0,0,1.64-4.94,21,21,0,0,0,.27-6,56.34,56.34,0,0,0-1.93-11.54,19.47,19.47,0,0,0-3.66-6.62,15.76,15.76,0,0,0-3.14-2.73c-.76-.53-1.52-1-2.33-1.5a23.27,23.27,0,0,0-11.06-3.25h-.07a18.58,18.58,0,0,0-5.32,1Zm2,3.13-.28.05.28-.05Zm-.35.06h0Zm-4.65,1.12-.27.12.27-.12Zm13.33.19.37.15-.37-.15Zm-16.71,1.52c-.08.06-.16.13-.24.18l.24-.18Z"/><path class="cls-12" d="M420.35,128.12a14.76,14.76,0,0,0-3.22,1,27.86,27.86,0,0,0-2.56,1.43,25.56,25.56,0,0,0-3.19,2.21,28.4,28.4,0,0,1-2.93,2c-1.18.67-2.42,1.22-3.65,1.78s-2.59,1.28-3.9,1.89c-1.61.75-3.24,1.46-4.88,2.16l-.89.37-1.53.65.45-.19L391,142.67q-3.72,1.54-7.43,3.13c-3,1.23-6.07,2.44-9.18,3.46-2.76.9-5.55,1.67-8.32,2.52A129.35,129.35,0,0,1,347.92,156c-1.7.2-3.41.34-5.12.49-2,.17-4.07.5-6.1.8-4,.52-8.11.75-12.16,1-4.28.31-8.57.85-12.8,1.55a45.26,45.26,0,0,0-6,1.5,23.87,23.87,0,0,0-5.87,2.65c-1.78,1.17-3.5,2.43-5.16,3.76a21.15,21.15,0,0,0-4.54,4.76,35.19,35.19,0,0,0-1.87,3.34c-.69,1.34,1.33,2.53,2,1.19a18.62,18.62,0,0,1,6.54-8,31.06,31.06,0,0,1,6.37-3.79,36.15,36.15,0,0,1,7.43-1.95,48.25,48.25,0,0,1,11.07.39,121.59,121.59,0,0,1,12,2.59c2.12.54,4.27.92,6.4,1.43s4.18.83,6.29,1.14a57.62,57.62,0,0,0,8.8.64,65.4,65.4,0,0,0,8.62-.88,53.88,53.88,0,0,0,6.06-1.13c1.81-.45,3.59-1,5.38-1.55,9.33-2.78,17.94-7.45,26-12.83,6.6-4.4,12.95-9.89,17-16.81a29.54,29.54,0,0,1,1.63-2.63c.15-.16.3-.32.46-.47a3.61,3.61,0,0,1,.39-.22l.43-.12h.23l.53.16a8.3,8.3,0,0,1,1,.64,9.22,9.22,0,0,1,1.15,1.1c1.54,1.79,4.38-.51,3.22-2.46C426,130,424,128,421.33,128a6.69,6.69,0,0,0-1,.08Zm.79,4.7h0Zm0,0h0l-.19.08.19-.08Zm-28.69,9.22-.6.26.6-.26Zm-9.13,3.84-1.56.67,1.56-.67ZM336.06,157.4l-.5.07.5-.07Zm-25.59,5.95h0Zm-17.64,9.49-.12.16.12-.16Zm-.12.16-.07.08a.27.27,0,0,1,.07-.08Z"/><path class="cls-12" d="M425.48,136.75a6.51,6.51,0,0,0-1,.88,8.12,8.12,0,0,0-.88,1.23c-.21.34-.41.71-.58,1.06a27.36,27.36,0,0,0-1.21,2.85c-.3.8-.52,1.63-.77,2.45s-.49,1.61-.67,2.42c-.42,1.76-.8,3.52-1.11,5.31s-.64,3.58-.78,5.38a41.34,41.34,0,0,0-.25,5.34,39.65,39.65,0,0,0,.56,5.44,18,18,0,0,0,1.31,4.55,7.24,7.24,0,0,0,2.32,2.85,2.92,2.92,0,0,0,2.23.38,4.77,4.77,0,0,0,1.94-1,10.27,10.27,0,0,0,1.95-2.31,15.47,15.47,0,0,0,1.56-3.06.69.69,0,0,0,0,.13c.13-.33.28-.66.43-1a1.21,1.21,0,0,0-.42-1.61,1.19,1.19,0,0,0-1.61.42,25.26,25.26,0,0,1-2.42,4.26,11.68,11.68,0,0,1-1.35,1.46l-.37.22-.27.08h-.19l-.1,0-.18-.11a4.67,4.67,0,0,1-.44-.45,9.49,9.49,0,0,1-.84-1.49,14.87,14.87,0,0,1-.78-3.07,46.06,46.06,0,0,1-.37-4.69,19.26,19.26,0,0,1,.16-2.28l.27-2.29a70.33,70.33,0,0,1,1.7-7.82,64.55,64.55,0,0,1,2.39-7.24,24.06,24.06,0,0,1,1.87-3c.32.36.62.74.94,1.11a2.86,2.86,0,0,0,4.89-2,3,3,0,0,0-.83-2c-.54-.6-1-1.24-1.6-1.8a4.26,4.26,0,0,0-2.18-1.27,3.81,3.81,0,0,0-.82-.09,4.06,4.06,0,0,0-2.44.81Zm2.42,4.85.09,0-.09,0Zm-2.06,2.94a3.42,3.42,0,0,1-.13.34l.13-.34ZM421.6,159.7a.88.88,0,0,1,0,.16l0-.16Zm1.78,14.54.14.1a.71.71,0,0,1-.14-.1Zm.94.21a1.26,1.26,0,0,1-.27,0l.14,0h0l.12,0Zm-.45.05.26,0-.26,0Z"/><path class="cls-12" d="M294.29,181.69a1.81,1.81,0,0,0-1.26.52,1.85,1.85,0,0,0-.53,1.27,1.82,1.82,0,0,0,1.79,1.8,17.88,17.88,0,0,1,2.31-.07,5.29,5.29,0,0,1,.71.2,13.72,13.72,0,0,1,1.32.81,8.6,8.6,0,0,1,.79.7c.28.3.55.61.8.93a13,13,0,0,1,1.09,1.88,9.51,9.51,0,0,1,.41,1.59,4.28,4.28,0,0,1,0,.62,7.34,7.34,0,0,1-.17.84l.13-.31a5.1,5.1,0,0,1-.41.89l-.44.67a11.52,11.52,0,0,1-1.3,1.22,16.86,16.86,0,0,1-3,1.66,16.21,16.21,0,0,1-3.48,1,14.36,14.36,0,0,1-2.93-.13,1.15,1.15,0,0,0-.84.33,1.26,1.26,0,0,0-.34.84,1.21,1.21,0,0,0,.34.82,1.31,1.31,0,0,0,.84.34,16.11,16.11,0,0,0,2.31.19,11.63,11.63,0,0,0,2.48-.38,16.18,16.18,0,0,0,3.26-1.15,18.79,18.79,0,0,0,3-1.86c.31-.23.63-.48.93-.73a7.74,7.74,0,0,0,1.3-1.5,6.1,6.1,0,0,0,1.13-3.72,9.47,9.47,0,0,0-.6-3.16,11.93,11.93,0,0,0-1.77-2.92,10.74,10.74,0,0,0-2.65-2.28,6.64,6.64,0,0,0-3.59-1c-.57,0-1.13.05-1.71.09Zm7.4,9.37a.77.77,0,0,1,0,.15.77.77,0,0,0,0-.15Zm-2.17,4.21-.16.13.16-.13Z"/><path class="cls-12" d="M270,167.82a1.84,1.84,0,0,0-.54,1.29,2,2,0,0,0,.54,1.29l.94,1.17a72.72,72.72,0,0,1,5,8.08,11.64,11.64,0,0,1,.32,1.42,9.75,9.75,0,0,1,0,1.43,11.64,11.64,0,0,1-.45,1.9,10,10,0,0,1-.81,1.42,13.38,13.38,0,0,1-1.79,1.82,8.25,8.25,0,0,1-1,.58,21.83,21.83,0,0,1-3.58.81,1.81,1.81,0,0,0-1.26,2.24,1.87,1.87,0,0,0,.83,1.08,1.9,1.9,0,0,0,1.4.18,34,34,0,0,0,3.64-.74,10.75,10.75,0,0,0,3.8-2.21,10.4,10.4,0,0,0,3.41-5.86,9.68,9.68,0,0,0,.17-3.22c0-.37-.09-.75-.16-1.11a8.46,8.46,0,0,0-.78-2.25A21.83,21.83,0,0,0,277.9,174a44.34,44.34,0,0,0-5.28-6.17,1.83,1.83,0,0,0-2.58,0Zm1,3.86.17.21-.17-.21Zm1.14,16.59-.28.12.28-.12Z"/><path class="cls-12" d="M262.59,167.81a1.18,1.18,0,0,0-.42,1.6c.44.77.9,1.53,1.32,2.31s.69,1.41,1,2.13q.27.66.51,1.35a7.7,7.7,0,0,1,.33,1.48,9.28,9.28,0,0,1,0,1.29,6.64,6.64,0,0,1-.34,1.31,8.85,8.85,0,0,1-.65,1.06,27.59,27.59,0,0,1-2.15,2,1.39,1.39,0,0,0,2,2c.52-.46,1.07-.92,1.58-1.42a10.13,10.13,0,0,0,1.37-1.69,7.22,7.22,0,0,0,.76-1.84,7,7,0,0,0,.18-1.44,8.84,8.84,0,0,0-.25-2.45,15.5,15.5,0,0,0-1.55-3.8c-.65-1.19-1.41-2.31-2.09-3.49a1.21,1.21,0,0,0-1-.57,1.1,1.1,0,0,0-.58.16Zm1.93,6.08.09.2-.09-.2Z"/><path class="cls-12" d="M214.54,128.56a45.33,45.33,0,0,0,.52,4.81,22.55,22.55,0,0,0,1.4,4.1,32.86,32.86,0,0,0,2.24,4.28,41.76,41.76,0,0,0,3,4.15c.52.64,1,1.28,1.6,1.88s1.41,1.44,2.16,2.14a47.23,47.23,0,0,0,4,3.33c1.32,1,2.65,2,4,2.87.75.48,1.52,1,2.31,1.44l2.35,1.38c2,1.16,4,2.23,6.11,3.19s4,1.75,6.07,2.6l-.29-.12c1.18.51,2.35,1,3.55,1.49s2.57,1,3.88,1.46c.61.23,1.24.46,1.87.64l1.71.49c.6.17,1.21.37,1.82.51l.79.15a4.9,4.9,0,0,0,1.08.06,1.17,1.17,0,0,0,.3-2.3c-.39-.1-.77-.16-1.17-.23-.57-.08-1.11-.18-1.66-.31s-.9-.24-1.35-.37-1.08-.3-1.62-.48c-1-.34-2.1-.76-3.14-1.16l-2.92-1.12c-1.33-.58-2.66-1.15-4-1.7l.28.13c-1.65-.71-3.31-1.4-4.93-2.18s-3.46-1.79-5.15-2.73-3.28-1.93-4.87-3-2.93-2-4.34-3.13c-.69-.56-1.38-1.11-2.05-1.69s-1.39-1.28-2.09-1.95a38.75,38.75,0,0,1-3.47-4l0,0,0,0-.16-.2a2.09,2.09,0,0,1,.14.17c-.44-.62-.88-1.23-1.31-1.86s-.73-1.19-1.08-1.79-.71-1.27-1-1.92-.54-1.2-.8-1.8a20.63,20.63,0,0,1-1.12-3.92c-.12-1.12-.18-2.25-.28-3.37a1.26,1.26,0,0,0-.35-.82,1.15,1.15,0,0,0-.83-.35,1.17,1.17,0,0,0-1.17,1.17Zm8,14.69h0l0,0,0,0Z"/><path class="cls-6" d="M560,328.57c-.69-3.1-2.61-5.93-5.86-8.67a15.35,15.35,0,0,0-5.47-5.74l-.4-.51-.46-.52a19.4,19.4,0,0,0-3.62-3l-.6-.44-.9-.68a39.16,39.16,0,0,0-4-2.78,41.74,41.74,0,0,0-5.13-2.6,85.64,85.64,0,0,0-10-3.37c-1.57-.46-3.05-.89-4.51-1.36a60.33,60.33,0,0,0-15.27-2.38l-1.43-.06-.7-.05-1-.08-.34,0c-1.34-.1-2.62-.19-3.92-.23H496c-1,0-1.73,0-2.42,0-1.62,0-3.25,0-4.87.19-3.87.33-7.5.94-12.6,1.83-2.9.52-6.7,1.25-10.37,2.22a58.26,58.26,0,0,0-5.87,2.05c-1.17.47-2,.8-2.86,1.11-3.4,1.26-6.69,2.64-9.72,3.95-1.78.75-3.87,1.65-5.95,2.7l-1.69.87-.43.23-.49.24-1.16.59c-.78.4-1.56.81-2.35,1.19a61.86,61.86,0,0,0-5.82,3.35l-1,.61-1.92,1.18-1,.64c-1.18.72-2.34,1.45-3.48,2.2a103.58,103.58,0,0,0-11.61,9.29l-1.9,1.69c-3.6,3.17-7.79,6.9-11.87,11l-2.23,2.21-.4.39c-2.92,2.88-5.94,5.86-8.72,9.1a158.67,158.67,0,0,0-11.08,14.86,93.51,93.51,0,0,0-7.8,13.94,68,68,0,0,0-3.63,9.19l-.52,1.68c-.65,2.12-1.28,4.24-1.82,6.39-2.72,11-2.77,22.45-2.82,33.48v1.82A79.32,79.32,0,0,0,360,454.77a128.38,128.38,0,0,0,5.19,15.62,39.74,39.74,0,0,0,4.19,8.25l1.14,1.6c1.17,1.69,2.35,3.36,3.63,4.95a15.67,15.67,0,0,0,4.52,4L391,503.4a47.62,47.62,0,0,0-1.61,12.12c0,28.15,24.44,51,54.6,51,11.81,0,22.18-4.43,31.64-9.49,6.38-3.41,12.54-10.07,14.87-14.88,4-8.36,8.09-16.85,8.09-26.61a48,48,0,0,0-5.94-23c0-.23-.05-.49-.08-.72-.32-3-.47-6.08-.62-9.05l-.06-1.11a33.29,33.29,0,0,1,0-5c.31-1.87.78-3.73,1.24-5.52.31-1.2.62-2.4.89-3.62a71.18,71.18,0,0,1,4-12.07c.37-.85.75-1.7,1.13-2.55s.71-1.56,1.05-2.35c.69-1.6,1.35-3.21,2-4.83l.34-.84c.57-1.27,1.15-2.52,1.74-3.77.8-1.72,1.61-3.44,2.36-5.19a1.66,1.66,0,0,0,.06-.21s0-.17,0-.17h0l.56-1.16.53-1.25-.33.6c.75-1.61,1.43-3.25,2.1-4.9l1.63-3.94-.07.12c.34-.74.65-1.5,1-2.26l.89-2.17c.69-1.64,1.36-3.28,2-4.93s1.28-3.15,1.94-4.72l-.3.52.83-1.83h0c.61-1.43,1.21-2.87,1.8-4.3.71-1.62,1.46-3.21,2.21-4.8.85-1.8,1.69-3.59,2.48-5.41,1-2.43,2.16-4.71,3.29-7,.64-1.31,1.29-2.63,1.91-3.95l.21-.44c.75-1.61,1.5-3.21,2.3-4.79.43-.86.89-1.7,1.35-2.54s.79-1.42,1.16-2.14.89-1.65,1.36-2.46c.38-.65.75-1.3,1.1-2,.62-1.15,1.26-2.29,1.9-3.42l.35-.62,1.39-2.49q1.39-2.5,2.8-5c.94-1.63,1.76-3.35,2.44-4.82.29-.63.61-1.24.93-1.84s.55-1.06.81-1.6c.26-.28.5-.56.77-.9a4.09,4.09,0,0,0,.64-1.8,1.69,1.69,0,0,1,1-.45,13,13,0,0,0,3.19-1.06,14.55,14.55,0,0,0,4.78-3.44,8.66,8.66,0,0,0,1.93-3.31,14,14,0,0,0,.45-2.44l.15-1A21.17,21.17,0,0,0,560,328.57Zm-42.27,5.28-1,1.83-1.4,2.65c-1.56,3-3.17,6-4.94,8.93l-1.22,2c-1.88,3.12-3.75,6.23-5.7,9.3-.66,1-1.28,2.09-1.91,3.15-.5.84-1,1.68-1.51,2.51-1.22,1.95-2.43,3.89-3.62,5.85-1.49,2.45-3.11,4.82-4.73,7.19-.9,1.32-1.79,2.63-2.67,4-2.45,3.73-4.86,7.71-7.17,11.81-1.49,2.63-3.05,5.22-4.61,7.82L475,404.61c-1.71,2.85-3.33,5.75-4.94,8.65l-1.76,3.14c-3.36,6-6.5,12.25-9.54,18.29l-2.51,5c-.5,1-1,2-1.45,3L453.68,445l-.86,1.69c-.64,1.25-1.27,2.5-1.86,3.76-.78,1.68-1.53,3.3-2.42,4.88l-1.08,1.89-1.08,1.89-.56.91a10.87,10.87,0,0,0-1.41-.11h-.05a18.09,18.09,0,0,0-3.38.37l-.53.09c-.49,0-1,.06-1.5.09a32.54,32.54,0,0,0-3.54.46c-.72.11-1.43.28-2.14.45-.54.13-1.07.26-1.62.36a28.49,28.49,0,0,0-5.28.89,21.57,21.57,0,0,0-5.59,2.68,38.21,38.21,0,0,0-6.95,5.81l-.6-6c-.27-1.23-.66-2.43-1-3.61l-.29-1q-.39-1.28-.75-2.55c-.27-1-.49-1.79-.73-2.54l-.56-1.73-.12-.36a60.41,60.41,0,0,1-2.27-8.76A96.35,96.35,0,0,1,407.9,421a171.79,171.79,0,0,1,4.48-22.22c.71-2.47,1.58-5,2.41-7.3l.15-.43.14-.43.67-1.92.81-2.35.42-1.18,1-3c.44-1.23.84-2.3,1.28-3.36a70.33,70.33,0,0,1,3.9-7.51c.58-1,1.16-2,1.72-2.94l.56-1,.42-.72c.51-.9,1-1.8,1.55-2.69,1.12-1.87,2.33-3.71,3.52-5.53l.46-.71.62-.94.95-1.45.29-.43c1.24-1.87,2.41-3.65,3.73-5.35l1.28-1.68,1.12-1.5a70.81,70.81,0,0,1,11.88-11.53,62.39,62.39,0,0,1,12.56-7A47.41,47.41,0,0,1,469,326a46.71,46.71,0,0,1,5.67-1.05l.63-.09c.78-.09,1.55-.18,2.34-.3,1.25-.15,2.37-.32,3.5-.51l.37-.06,2.46-.35a37.63,37.63,0,0,1,4.09-.24,25.82,25.82,0,0,1,2.77.14c2.23.34,4.35.86,7.33,1.62.48.13.95.28,1.42.42l.71.21.7.19.8.19a10.16,10.16,0,0,1,1.59.44l.31.13a6.31,6.31,0,0,0,2.39.73,3.25,3.25,0,0,0,.44,0,9.53,9.53,0,0,0,1.84-.22l1-.15a25.5,25.5,0,0,1,2.65-.19A9.94,9.94,0,0,1,513,327a11.94,11.94,0,0,1,2.35.72,7.34,7.34,0,0,1,1,.57,13.87,13.87,0,0,1,1.45,1.58,7.29,7.29,0,0,0,1.39,1.24Zm38.47,1.2a16.54,16.54,0,0,1-.57,3.12l-.31.51c-.27.29-.57.59-.89.88a15.44,15.44,0,0,1-2.71,1.61,17.08,17.08,0,0,1-3.13.9c0-.18,0-.35,0-.53a7.37,7.37,0,0,0-.75-3.14,13.75,13.75,0,0,0,7.64-10.9,16.12,16.12,0,0,1,.83,3.2A18.94,18.94,0,0,1,556.2,335.05Z"/><path class="cls-14" d="M521,331.77s-51.63-16.06-54.47,11.84c0,0-30.21-4.45-15.47,28.51,0,0-34.94-13.48-21.23,27.63,0,0-29.45,5.78-4.55,38.93s34.18,39.1,39.78,27.85S463.83,449,463.83,449s10.09,8.43,9.71-14.85c0,0,13.85,10.14,12.64-22.39,0,0,12.66,13.44,9.65-21.15-.95-10.95-3-17.14,2.21-24.59C508,351.83,521,331.77,521,331.77Z"/><path class="cls-2" d="M521,328.43s-51.63-16.06-54.47,11.84c0,0-30.21-4.45-15.47,28.51,0,0-34.94-13.49-21.23,27.63,0,0-29.45,5.77-4.55,38.92s27.5,35.76,33.1,24.51-1.25-17.51-1.25-17.51,10.09,8.42,9.71-14.85c0,0,13.85,10.13,12.65-22.4,0,0,12.66,13.44,9.65-21.14S521,328.43,521,328.43Z"/><path class="cls-11" d="M574.21,259.34c-3.76.08-7.46.18-11.12.34s-7.29.39-10.87.7-7.1.78-10.55,1.3c-1.71.3-3.42.61-5.08,1s-3.27.82-4.89,1.23l-5.12-1.25s0,.06,0,0l-.28-.12c-.21-.08-.35-.17-.59-.26l-1.38-.55-1.54-.48L522,261l-.82-.19-1.62-.37-.81-.2-.85-.14c-1.13-.17-2.24-.39-3.38-.55-2.35-.14-4.61-.51-7-.48L504,259l-3.61.14-3.6.13-3.64.4-3.63.34c-1.21.1-2.44.36-3.65.53l-3.66.56c-1.21.2-2.44.3-3.65.61-2.44.51-4.88,1-7.33,1.48l-1.84.35c-.61.12-1.21.3-1.82.45l-3.66.93c-2.43.64-4.91,1.12-7.35,1.79-4.85,1.49-9.79,2.68-14.69,4.19s-9.83,2.95-14.76,4.53-9.87,3.2-14.9,4.69l-2.16.64-.93-.68c-1.85-1.36-3.71-2.7-5.54-4.1s-3.66-2.8-5.47-4.25l-.22-.15c-1.06-1.38-2.11-2.78-3.13-4.22q2.34,1.23,4.6,2.55l-.22-.15q3.33,1,6.62,2c2.2.69,4.36,1.45,6.53,2.18l-3.09,0c4.47-2.86,9-5.7,13.59-8.39l1.72-1c.58-.33,1.18-.63,1.77-.93l3.57-1.83c2.37-1.23,4.78-2.39,7.18-3.57s4.91-2.17,7.38-3.21,5-2,7.5-3c1.25-.5,2.56-.86,3.84-1.3s2.57-.85,3.87-1.24l3.89-1.2c.65-.19,1.29-.41,2-.58l2-.49c2.65-.64,5.32-1.24,8-1.84s5.44-.9,8.16-1.32c1.37-.18,2.72-.44,4.11-.53l4.18-.29L496,243c1.41,0,2.83,0,4.24.06s2.82,0,4.23.1l4.27.46a68.36,68.36,0,0,1,8.52,1.46,61.05,61.05,0,0,1,8.47,2.76l1,.42,1,.51,2.08,1L532,251c.34.2.74.49,1.09.74l.55.4c.22.16.52.4.76.6l-5.12-1.24a75.28,75.28,0,0,1,11.88-.3c1.93.12,3.87.26,5.77.53l2.85.38,2.82.49a99.86,99.86,0,0,1,11,2.7A77.2,77.2,0,0,1,574.21,259.34Z"/><path d="M661.93,299.76a21.1,21.1,0,0,1,10.51,8.2,24.25,24.25,0,0,1,4.13,13,30.54,30.54,0,0,1-.54,6.83,38,38,0,0,1-1.82,6.5,45.67,45.67,0,0,1-6.48,11.58c1.48-4.17,2.93-8.24,4-12.37a46,46,0,0,0,1.51-12.42,26.9,26.9,0,0,0-3-11.81A28.88,28.88,0,0,0,661.93,299.76Z"/><path d="M589,267.38s15.29,24-8.7,41.08c0,0,26.09-21.75,44.45-18.37S618.93,268.83,589,267.38Z"/><path class="cls-11" d="M406.47,88.73c.37-11.25-6.27-21.76-13.8-29.58A84.05,84.05,0,0,0,354.29,36.9c-12.65-3.42-27.71-4.38-39.61,2.09-1,.54-2.11,1.68-3.15,2-1.38.4-3.62-.68-5.15-1a53.13,53.13,0,0,0-10.91-.53,96,96,0,0,0-22.89,2.7C248.15,48.47,220,66.54,214.14,92.92c-.49,2.21-.28,4.73-.87,6.86-.69,2.5-3.33,3.39-4.81,5.58-3.61,5.34-1,13.62,3.18,17.93,2.54,2.58,4.16,2.45,4.33,6.16a36.46,36.46,0,0,0,1.94,11,38.84,38.84,0,0,0,13,17.09c11.56,8.94,32.11,13.92,44.18,3.45a19.82,19.82,0,0,0,5.73-7.46,15,15,0,0,1,.74-2c.69-1.12.21-.57,1.23-1.1a9.8,9.8,0,0,1,2-.55c6.68-1.72,13.69-1.79,20.51-2.71l-.82-.1c17.39-.09,33.42-4.21,49.61-10,3.77-1.35,29.78-12.8,34-15.52a33.69,33.69,0,0,1,4.11-1.73c2.47-1.16,3.53-2.55,5.2-4.59s4-2.8,5.55-4.78a19.09,19.09,0,0,0,2.9-6.47A33.38,33.38,0,0,0,406.47,88.73Z"/><ellipse class="cls-11" cx="434.82" cy="497.88" rx="32.38" ry="20.54" transform="translate(-201.4 318.5) rotate(-33.12)"/><path class="cls-2" d="M462.11,480.07a15.68,15.68,0,0,1,2.06,10.23,26.45,26.45,0,0,1-3.53,9.88,48.44,48.44,0,0,1-34.12,22.28,26.57,26.57,0,0,1-10.46-.77,14.34,14.34,0,0,1-10.69-16.24,26.47,26.47,0,0,1,3.43-10A47.05,47.05,0,0,1,443.09,473a26.41,26.41,0,0,1,10.53.9A15.74,15.74,0,0,1,462.11,480.07Zm-.35.23a15.18,15.18,0,0,0-8.3-5.82,25.92,25.92,0,0,0-10.3-.73,48,48,0,0,0-33.84,22,26.05,26.05,0,0,0-3.47,9.74,13.92,13.92,0,0,0,10.29,15.91,26.23,26.23,0,0,0,10.36.85,46.66,46.66,0,0,0,34-22.17,26,26,0,0,0,3.38-9.84A15.33,15.33,0,0,0,461.76,480.3Z"/><ellipse class="cls-12" cx="437.84" cy="502.47" rx="16.67" ry="10.87" transform="translate(-199.31 306.95) rotate(-31.87)"/><ellipse class="cls-11" cx="148.74" cy="296.69" rx="12.1" ry="15.9"/><path class="cls-2" d="M161.25,296.69a19.6,19.6,0,0,1-3.12,10.66,13.45,13.45,0,0,1-4,3.92,10.17,10.17,0,0,1-5.36,1.53,10,10,0,0,1-5.29-1.67,13.54,13.54,0,0,1-3.86-3.94,20.14,20.14,0,0,1,0-21,13.7,13.7,0,0,1,3.86-3.95,9.64,9.64,0,0,1,10.65-.13,13.42,13.42,0,0,1,4,3.91A19.65,19.65,0,0,1,161.25,296.69Zm-.84,0a18.74,18.74,0,0,0-2.88-10.26,12.82,12.82,0,0,0-3.73-3.82,9.23,9.23,0,0,0-10.21-.14,13,13,0,0,0-3.9,3.79,19.36,19.36,0,0,0,0,20.86,12.93,12.93,0,0,0,3.9,3.79,9.21,9.21,0,0,0,10.21-.13,12.94,12.94,0,0,0,3.73-3.82A18.77,18.77,0,0,0,160.41,296.69Z"/><ellipse class="cls-12" cx="144.35" cy="297.06" rx="5.07" ry="7.38"/></g></g></svg>